<svg width="26" height="27" viewBox="0 0 26 27" fill="none" xmlns="http://www.w3.org/2000/svg">
<path opacity="0.8" d="M23.436 5.07921C24.8521 5.07921 26 3.94219 26 2.5396C26 1.13702 24.8521 0 23.436 0C22.0199 0 20.872 1.13702 20.872 2.5396C20.872 3.05675 21.028 3.53779 21.296 3.93905L17.8798 8.34497C17.0394 7.90959 16.0833 7.66337 15.0692 7.66337C13.8674 7.66337 12.7472 8.00914 11.8044 8.60572L10.7566 7.32902C11.1772 6.76111 11.4256 6.06028 11.4256 5.30198C11.4256 3.40726 9.87487 1.87129 7.96194 1.87129C6.04901 1.87129 4.49827 3.40726 4.49827 5.30198C4.49827 7.1967 6.04901 8.73267 7.96194 8.73267C8.45687 8.73267 8.92756 8.62985 9.35341 8.4446L10.4469 9.77707C9.54249 10.8273 8.99654 12.1896 8.99654 13.6782C8.99654 14.4783 9.15425 15.2419 9.44057 15.9402L7.10595 17.349C6.35787 16.544 5.28512 16.0396 4.09343 16.0396C1.83269 16.0396 0 17.8548 0 20.0941C0 22.3333 1.83269 24.1485 4.09343 24.1485C6.35416 24.1485 8.18685 22.3333 8.18685 20.0941C8.18685 19.6761 8.12301 19.273 8.00447 18.8937L10.3578 17.4735C11.4713 18.828 13.1683 19.6931 15.0692 19.6931C15.8849 19.6931 16.663 19.5338 17.3735 19.2449L18.6989 21.2779C18.1482 21.8854 17.8131 22.6886 17.8131 23.5693C17.8131 25.464 19.3639 27 21.2768 27C23.1897 27 24.7405 25.464 24.7405 23.5693C24.7405 21.6746 23.1897 20.1386 21.2768 20.1386C20.9034 20.1386 20.5438 20.1971 20.2068 20.3055L18.919 18.3302C20.2761 17.2271 21.1419 15.5528 21.1419 13.6782C21.1419 12.0024 20.4499 10.4866 19.3336 9.39593L22.7516 4.98774C22.9695 5.04736 23.199 5.07921 23.436 5.07921Z" fill="#0124A3"/>
</svg>
