<svg width="32" height="29" viewBox="0 0 32 29" fill="none" xmlns="http://www.w3.org/2000/svg">
<g opacity="0.8">
<path d="M7.87591 2.28753L3.93795 0L0 2.28753V6.8626L3.93795 9.15013L7.87591 6.8626V2.28753Z" fill="#0124A3"/>
<path d="M7.78837 29C10.1174 29 12.0055 27.1003 12.0055 24.757C12.0055 22.4137 10.1174 20.514 7.78837 20.514C5.45932 20.514 3.57125 22.4137 3.57125 24.757C3.57125 27.1003 5.45932 29 7.78837 29Z" fill="#0124A3"/>
<path d="M27.1871 2.28753L32 5.80574L30.1616 11.4983H24.2126L22.3743 5.80574L27.1871 2.28753Z" fill="#0124A3"/>
<path d="M15.3058 2.73028C14.5354 4.52395 13.3384 5.95296 12.1885 7.32591C10.5066 9.33392 8.92516 11.222 8.92516 13.9556C8.92516 18.5583 12.3404 20.145 15.3058 20.145C18.2713 20.145 21.6865 18.5583 21.6865 13.9556C21.6865 11.222 20.1051 9.33392 18.4232 7.32591C17.2732 5.95296 16.0763 4.52395 15.3058 2.73028Z" fill="#0124A3"/>
</g>
</svg>
