<svg width="33" height="33" viewBox="0 0 33 33" fill="none" xmlns="http://www.w3.org/2000/svg">
<g opacity="0.8">
<path d="M16.0655 13.7788C16.4744 14.1603 16.8571 14.5495 17.2151 14.9449L17.6319 14.5282C17.1936 14.2469 16.7304 13.9795 16.2413 13.7277H18.4323L21.051 11.1091C19.2484 11.2358 17.9108 11.9589 17.0545 12.6695L23.7768 5.32103C22.7091 5.2325 19.9878 5.55326 17.8764 7.86131C16.8239 9.01178 16.3115 10.2314 16.0952 11.2848C15.879 10.2314 15.3666 9.01178 14.3141 7.86131C12.2027 5.55326 9.48133 5.2325 8.41362 5.32103L15.4225 12.9827C14.4293 12.1085 12.6484 11.051 10.244 11.051C7.115 11.051 5.24735 12.8419 4.71429 13.6892H15.3122C14 13.8049 11.9356 14.3837 10.2568 16.2188C8.14537 18.5268 8.20756 21.1129 8.47353 22.0778L16.0655 13.7788Z" fill="#0124A3"/>
<path d="M17.5853 18.512L15.5167 20.5806C15.7776 20.8208 16.126 20.9675 16.5087 20.9675C17.3174 20.9675 17.973 20.3123 17.973 19.504C17.973 19.1212 17.826 18.7728 17.5853 18.512Z" fill="#0124A3"/>
<path d="M12.7547 23.3425L14.4527 21.6446C15.1393 21.7656 15.6609 22.3648 15.6609 23.0858C15.6609 23.8941 15.0053 24.5493 14.1966 24.5493C13.4755 24.5493 12.8762 24.0284 12.7547 23.3425Z" fill="#0124A3"/>
<path d="M19.8493 16.248L18.9365 17.1607C21.3388 20.7949 22.0357 24.6868 22.0357 27.766H24.7331C24.7331 24.3765 23.5834 19.7356 19.8493 16.248Z" fill="#0124A3"/>
<path d="M22.3695 13.7277H27.4691C27.0415 13.1747 26.0096 12.2196 24.4744 11.6229L22.3695 13.7277Z" fill="#0124A3"/>
<path d="M20.2851 23.0858C20.2851 23.8941 19.6295 24.5493 18.8208 24.5493C18.0121 24.5493 17.3565 23.8941 17.3565 23.0858C17.3565 22.2775 18.0121 21.6223 18.8208 21.6223C19.6295 21.6223 20.2851 22.2775 20.2851 23.0858Z" fill="#0124A3"/>
<path fill-rule="evenodd" clip-rule="evenodd" d="M33 16.5C33 25.6127 25.6127 33 16.5 33C7.3873 33 0 25.6127 0 16.5C0 7.3873 7.3873 0 16.5 0C25.6127 0 33 7.3873 33 16.5ZM1.37354 16.5C1.37354 20.6771 3.06663 24.4587 5.80398 27.196L27.196 5.80399C24.4587 3.06663 20.6771 1.37354 16.5 1.37354C8.14589 1.37354 1.37354 8.14589 1.37354 16.5ZM28.2653 6.992L6.99201 28.2653C9.58988 30.3674 12.8979 31.6265 16.5 31.6265C24.8541 31.6265 31.6265 24.8541 31.6265 16.5C31.6265 12.8979 30.3674 9.58989 28.2653 6.992Z" fill="#0124A3"/>
</g>
</svg>
