<svg width="424" height="64" viewBox="0 0 424 64" fill="none" xmlns="http://www.w3.org/2000/svg">
<g clip-path="url(#clip0_2046_1159)">
<mask id="mask0_2046_1159" style="mask-type:luminance" maskUnits="userSpaceOnUse" x="0" y="0" width="64" height="64">
<path d="M0 0H63.984V63.984H0V0Z" fill="white"/>
</mask>
<g mask="url(#mask0_2046_1159)">
<path fill-rule="evenodd" clip-rule="evenodd" d="M0 0H127.981V42.5055H0V0Z" fill="#B20000"/>
<path fill-rule="evenodd" clip-rule="evenodd" d="M0 42.5056H127.981V63.997H0V42.5056Z" fill="#429F00"/>
<path fill-rule="evenodd" clip-rule="evenodd" d="M0 0H14.1642V63.984H0V0Z" fill="white"/>
<path fill-rule="evenodd" clip-rule="evenodd" d="M0.6708 1.0836H1.3545V2.1672H0.6708V1.0836ZM2.6961 1.0836H4.7214V2.1672H2.709L2.6961 1.0836ZM3.3669 0H4.0506V1.0836H3.354L3.3669 0ZM6.7467 0H7.4175V1.0836H6.7467V0ZM9.4557 1.0836H11.4681V2.1672H9.4428L9.4557 1.0836ZM10.1136 0H10.7844V1.0836H10.1136V0ZM2.0253 2.1672H3.3798V3.2508H2.0253V2.1672ZM4.0506 2.1672H5.4051V3.2508H4.0506V2.1672ZM8.772 2.1672H10.1265V3.2508H8.772V2.1672ZM10.7973 2.1672H12.126V3.2508H10.8102L10.7973 2.1672ZM1.3545 3.2508H2.6961V4.3344H1.3545V3.2508ZM4.7214 3.2508H6.0759V4.3344H4.7214V3.2508ZM8.1012 3.2508H9.4428V4.3344H8.1012V3.2508ZM11.4681 3.2508H12.8226V4.3344H11.4681V3.2508ZM12.8226 1.0836H13.4934V2.1672H12.8226V1.0836ZM0.6708 4.3344H2.0253V5.418H0.6708V4.3344ZM5.3922 4.3344H6.7467V5.418H5.3922V4.3344ZM12.1518 4.3344H13.4934V5.418H12.1518V4.3344ZM1.3545 7.611H2.6961V8.6946H1.3545V7.611ZM2.0253 8.6946H3.3798V9.7782H2.0253V8.6946ZM4.7343 7.611H6.063V8.6946H4.7214L4.7343 7.611ZM4.0506 8.6946H5.3922V9.7782H4.0506V8.6946ZM2.6961 9.7782H4.7214V10.836H2.709L2.6961 9.7782ZM3.3669 10.836H4.0506V11.9325H3.354L3.3669 10.836ZM8.1012 7.5852H9.4428V8.6817H8.1012V7.5852ZM8.772 8.6817H10.1265V9.7653H8.772V8.6817ZM11.481 7.5981H12.8226V8.6817H11.4681L11.481 7.5981ZM10.7973 8.6817H12.126V9.7653H10.8102L10.7973 8.6817ZM9.4428 9.7653H11.481V10.836H9.4428V9.7653ZM10.1265 10.836H10.7973V11.9325H10.1265V10.836ZM6.7467 9.7653H7.4175V10.836H6.7467V9.7653ZM0 9.7653H0.6708V10.836H0V9.7653ZM13.4934 9.7653H14.1642V10.836H13.4934V9.7653ZM3.3669 15.1833H4.0506V16.2669H3.354L3.3669 15.1833ZM2.6961 16.2669H4.7214V17.3505H2.709L2.6961 16.2669ZM2.0253 17.3505H5.4051V18.4341H2.0253V17.3505ZM10.1265 15.1833H10.7973V16.2669H10.1265V15.1833Z" fill="#B20000"/>
<path fill-rule="evenodd" clip-rule="evenodd" d="M9.4428 16.267H11.481V17.3506H9.4428V16.267ZM8.772 17.3506H12.1389V18.4342H8.772V17.3506ZM9.4428 22.7686H12.8226V23.8651H9.4428V22.7686ZM8.1012 18.4471H12.8226V19.5307H8.1012V18.4471ZM1.3545 18.4471H6.063V19.5307H1.3545V18.4471ZM2.0253 23.8651H4.0506V24.9616H2.0253V23.8651ZM1.3545 22.7944H4.7214V23.878H1.3545V22.7944ZM10.7973 20.6143H14.1642V21.7108H10.8102L10.7973 20.6143ZM10.1265 23.8651H12.1518V24.9487H10.1265V23.8651ZM2.6961 24.9487H3.3798V26.0323H2.6961V24.9487ZM10.7973 24.9487H11.4681V26.0323H10.7973V24.9487ZM0 20.6014H3.3798V21.6979H0V20.6014ZM6.063 22.7815H8.1012V23.8651H6.063V22.7815ZM6.7467 23.8651H7.4175V24.9487H6.7467V23.8651ZM4.7214 20.6014H9.4428V21.6979H4.7214V20.6014ZM7.4304 4.34741H8.772V5.41811H7.4175L7.4304 4.34741ZM6.063 5.41811H8.0883V6.50171H6.063V5.41811ZM5.3793 6.50171H6.7338V7.58531H5.3922L5.3793 6.50171ZM7.4046 6.50171H8.772V7.58531H7.4175L7.4046 6.50171ZM0 5.41811H1.3545V6.50171H0V5.41811ZM0.6708 6.50171H2.0253V7.58531H0.6708V6.50171ZM12.8226 5.41811H14.1642V6.50171H12.8226V5.41811ZM12.126 6.50171H13.4805V7.58531H12.1518L12.126 6.50171ZM0 16.267H0.6708V17.3506H0V16.267ZM13.4934 16.267H14.1642V17.3506H13.4934V16.267ZM6.0759 24.9487H8.1012V26.0323H6.063L6.0759 24.9487ZM5.3922 26.0323H6.7467V27.1159H5.3922V26.0323ZM7.4175 26.0323H8.772V27.1159H7.4175V26.0323ZM4.7214 27.1159H6.0759V28.1995H4.7214V27.1159ZM8.1012 27.1159H9.4428V28.1995H8.1012V27.1159ZM4.0506 28.1995H5.4051V29.2831H4.0506V28.1995ZM8.772 28.1995H10.1265V29.2831H8.772V28.1995ZM3.3669 29.2831H4.7214V30.3667H3.3669V29.2831ZM9.4428 29.2831H10.7973V30.3667H9.4428V29.2831ZM2.0253 30.3667H4.0506V31.4503H2.0253V30.3667ZM10.1265 30.3667H12.1518V31.4503H10.1265V30.3667ZM11.4681 29.2831H12.8226V30.3667H11.4681V29.2831ZM12.1518 28.1995H13.4934V29.2831H12.1518V28.1995ZM12.8226 27.1159H14.1642V28.1995H12.8226V27.1159ZM1.3416 29.2831H2.709V30.3667H1.3545L1.3416 29.2831ZM0.6708 28.1995H2.0253V29.2831H0.6708V28.1995Z" fill="#B20000"/>
<path fill-rule="evenodd" clip-rule="evenodd" d="M0 27.1158H1.3545V28.1994H0V27.1158ZM2.709 31.4502H3.3798V32.5338H2.6961L2.709 31.4502ZM10.7973 31.4502H11.4681V32.5338H10.7973V31.4502ZM6.7467 28.1994H7.4175V29.283H6.7467V28.1994ZM4.7214 31.4502H5.3922V32.5338H4.7214V31.4502ZM8.772 31.4502H9.4428V32.5338H8.772V31.4502ZM6.7467 31.4502H7.4175V32.5338H6.7467V31.4502ZM0 31.4502H0.6708V32.5338H0V31.4502ZM13.4934 31.4502H14.1642V32.5338H13.4934V31.4502ZM6.7467 16.2669H7.4175V17.3505H6.7467V16.2669ZM3.3798 5.43091H4.0506V6.50161H3.3798V5.43091ZM10.1265 5.43091H10.7973V6.50161H10.1265V5.43091ZM6.063 13.0032H8.0883V14.0868H6.063V13.0032ZM4.7214 14.0997H6.7467V15.1833H4.7214V14.0997Z" fill="#B20000"/>
<path fill-rule="evenodd" clip-rule="evenodd" d="M5.3922 15.1833H6.0759V16.2669H5.3922V15.1833ZM4.0506 13.0161H5.4051V14.0997H4.0506V13.0161ZM4.7214 11.9325H6.7467V13.0161H4.7214V11.9325ZM5.3922 10.8489H6.0759V11.9325H5.3922V10.8489ZM7.4175 11.9325H9.4428V13.0161H7.4175V11.9325ZM8.1012 10.8489H8.772V11.9325H8.1012V10.8489ZM8.772 13.0161H10.1265V14.0997H8.772V13.0161ZM7.4175 14.0997H9.4428V15.1833H7.4175V14.0997ZM8.1012 15.1833H8.772V16.2669H8.1012V15.1833ZM10.7973 13.0161H12.1518V14.0997H10.7973V13.0161ZM11.4681 11.9325H13.4934V13.0161H11.481L11.4681 11.9325ZM12.8226 13.0161H14.1642V14.0997H12.8226V13.0161Z" fill="#B20000"/>
<path fill-rule="evenodd" clip-rule="evenodd" d="M11.481 14.0997H13.4934V15.1833H11.481V14.0997ZM12.1518 15.1833H12.8226V16.2669H12.1518V15.1833ZM12.1518 10.8489H12.8226V11.9325H12.1518V10.8489ZM0 13.0161H1.3545V14.0997H0V13.0161ZM0.6708 11.9325H2.709V13.0161H0.6708V11.9325ZM2.0253 13.0161H3.3798V14.0997H2.0253V13.0161Z" fill="#B20000"/>
<path fill-rule="evenodd" clip-rule="evenodd" d="M0.6708 14.0997H2.709V15.1833H0.6708V14.0997ZM1.3545 15.1833H2.0253V16.2669H1.3545V15.1833ZM1.3545 10.8489H2.0253V11.9325H1.3545V10.8489ZM0.6708 19.5177H3.3798V20.6013H0.6708V19.5177ZM4.0506 19.5177H6.7596V20.6013H4.0506V19.5177ZM7.4175 19.5177H10.1265V20.6013H7.4175V19.5177ZM10.7973 19.5177H13.5063V20.6013H10.7973V19.5177ZM5.3922 21.6849H8.772V22.7814H5.3922V21.6849ZM0.6708 21.6849H4.0506V22.7814H0.6708V21.6849ZM10.1265 21.6849H13.4934V22.7814H10.1265V21.6849ZM13.4934 26.0322H14.1642V27.1158H13.4934V26.0322ZM0 26.0322H0.6708V27.1158H0V26.0322ZM0.6708 62.9133H1.3545V61.8168H0.6708V62.9133ZM2.6961 62.9133H4.7214V61.8168H2.709L2.6961 62.9133ZM3.3669 63.984H4.0506V62.9133H3.354L3.3669 63.984ZM6.7467 63.984H7.4175V62.9133H6.7467V63.984ZM9.4557 62.9133H11.4681V61.8297H9.4428L9.4557 62.9133ZM10.1265 63.984H10.7973V62.9133H10.1265V63.984ZM2.0253 61.8168H3.3798V60.7332H2.0253V61.8168ZM4.0506 61.8168H5.4051V60.7332H4.0506V61.8168ZM8.772 61.8168H10.1265V60.7332H8.772V61.8168ZM10.7973 61.8168H12.126V60.7332H10.8102L10.7973 61.8168ZM4.7343 60.7332H6.063V59.6496H4.7214L4.7343 60.7332ZM8.0883 60.7332H9.4428V59.6496H8.1012L8.0883 60.7332ZM11.4681 60.7332H12.8226V59.6496H11.4681V60.7332ZM12.8226 62.9133H13.4934V61.8168H12.8226V62.9133ZM0.6708 59.6496H2.0253V58.566H0.6708V59.6496ZM5.3922 59.6496H6.7467V58.566H5.3922V59.6496ZM12.1518 59.6496H13.4934V58.566H12.1518V59.6496ZM1.3545 56.3988H2.6961V55.3152H1.3545V56.3988ZM2.0253 55.3152H3.3798V54.2316H2.0253V55.3152ZM4.7343 56.3988H6.063V55.3152H4.7214L4.7343 56.3988ZM4.0506 55.3152H5.3922V54.2316H4.0506V55.3152ZM2.6961 54.2316H4.7214V53.148H2.709L2.6961 54.2316ZM3.3669 53.148H4.0506V52.0644H3.354L3.3669 53.148ZM8.1012 56.3988H9.4428V55.3152H8.1012V56.3988ZM8.772 55.3152H10.1265V54.2316H8.772V55.3152ZM11.481 56.3988H12.8226V55.3152H11.4681L11.481 56.3988ZM10.7973 55.3152H12.126V54.2316H10.8102L10.7973 55.3152ZM9.4428 54.2316H11.481V53.148H9.4428V54.2316ZM10.1265 53.148H10.7973V52.0644H10.1265V53.148ZM6.7467 54.2316H7.4175V53.148H6.7467V54.2316ZM0 54.2316H0.6708V53.148H0V54.2316ZM13.4934 54.2316H14.1642V53.148H13.4934V54.2316ZM3.3798 48.8136H4.0506V47.7171H3.3798V48.8136Z" fill="#B20000"/>
<path fill-rule="evenodd" clip-rule="evenodd" d="M2.709 47.73H4.7214V46.6335H2.709V47.73ZM2.0253 46.6335H5.4051V45.5499H2.0253V46.6335ZM10.1265 48.8007H10.7973V47.73H10.1265V48.8007ZM9.4428 47.73H11.481V46.6335H9.4428V47.73ZM8.772 46.6335H12.1389V45.5499H8.772V46.6335ZM9.4428 41.2155H12.8226V40.1319H9.4428V41.2155ZM8.1012 45.5499H12.8226V44.4663H8.1012V45.5499ZM1.3545 45.5499H6.063V44.4663H1.3545V45.5499ZM2.0253 40.1319H4.0506V39.0483H2.0253V40.1319ZM1.3545 41.2155H4.7214V40.1319H1.3545V41.2155ZM10.7973 43.3827H14.1642V42.312H10.8102L10.7973 43.3827ZM10.1265 40.1319H12.1518V39.0483H10.1265V40.1319ZM0 43.3827H3.3798V42.312H0V43.3827ZM6.063 41.2155H8.1012V40.1319H6.063V41.2155ZM6.7467 40.1319H7.4175V39.0483H6.7467V40.1319ZM4.7214 43.3827H9.4428V42.312H4.7214V43.3827ZM7.4304 59.6496H8.772V58.566H7.4175L7.4304 59.6496ZM6.063 58.566H8.0883V57.4824H6.063V58.566ZM5.3793 57.4824H6.7338V56.3988H5.3922L5.3793 57.4824ZM7.4046 57.4824H8.772V56.3988H7.4175L7.4046 57.4824ZM0 58.566H1.3545V57.4824H0V58.566ZM0.6708 57.4824H2.0253V56.3988H0.6708V57.4824ZM12.8226 58.566H14.1642V57.4824H12.8226V58.566ZM12.1389 57.4824H13.4934V56.3988H12.1518L12.1389 57.4824ZM0 47.73H0.6708V46.6464H0V47.73ZM13.4934 47.73H14.1642V46.6464H13.4934V47.73ZM5.3922 37.9776H6.7467V36.894H5.3922V37.9776ZM7.4175 37.9776H8.772V36.894H7.4175V37.9776ZM4.7214 36.894H6.0759V35.8104H4.7214V36.894ZM8.1012 36.894H9.4428V35.8104H8.1012V36.894ZM4.0506 35.7975H5.3922V34.701H4.0506V35.7975ZM8.772 35.7975H10.1265V34.701H8.772V35.7975ZM3.3669 34.701H4.7214V33.6303H3.3669V34.701ZM9.4428 34.701H10.7973V33.6303H9.4428V34.701ZM2.0253 33.6303H4.0506V32.5338H2.0253V33.6303ZM10.1265 33.6303H12.1518V32.5338H10.1265V33.6303ZM11.4681 34.7139H12.8226V33.6174H11.4681V34.7139ZM12.1518 35.7846H13.4934V34.7139H12.1518V35.7846ZM12.8226 36.8811H14.1642V35.7975H12.8226V36.8811ZM1.3416 34.7139H2.709V33.6174H1.3545L1.3416 34.7139ZM0.6708 35.7846H2.0253V34.7139H0.6708V35.7846ZM0 36.894H1.3545V35.8104H0V36.894ZM2.709 32.5467H3.3798V31.4631H2.6961L2.709 32.5467ZM6.7467 35.8104H7.4175V34.701H6.7467V35.8104ZM6.7467 47.7429H7.4175V46.6464H6.7467V47.7429ZM3.3798 58.5789H4.0506V57.4953H3.3798V58.5789ZM10.1265 58.5789H10.7973V57.4953H10.1265V58.5789ZM6.063 50.9808H8.0883V49.8972H6.063V50.9808ZM4.7085 49.8972H6.7338V48.8136H4.7214L4.7085 49.8972ZM5.3793 48.8007H6.063V47.73H5.3793V48.8007ZM4.0377 50.9808H5.3793V49.8972H4.0506L4.0377 50.9808ZM4.7214 52.0644H6.7467V50.9808H4.7214V52.0644ZM5.3922 53.148H6.0759V52.0644H5.3922V53.148ZM7.4175 52.0644H9.4428V50.9808H7.4175V52.0644ZM8.1012 53.148H8.772V52.0644H8.1012V53.148ZM8.772 50.9808H10.1265V49.8972H8.772V50.9808ZM7.4175 49.8972H9.4428V48.8136H7.4175V49.8972ZM8.1012 48.8007H8.772V47.73H8.1012V48.8007ZM10.7973 50.9808H12.126V49.8972H10.8102L10.7973 50.9808ZM11.4681 52.0644H13.4934V50.9808H11.481L11.4681 52.0644ZM12.8226 50.9808H14.1642V49.8972H12.8226V50.9808ZM11.4681 49.8972H13.4934V48.8136H11.481L11.4681 49.8972ZM12.1518 48.8007H12.8226V47.73H12.1518V48.8007ZM12.1518 53.148H12.8226V52.0644H12.1518V53.148ZM0 50.9808H1.3545V49.8972H0V50.9808Z" fill="#B20000"/>
<path fill-rule="evenodd" clip-rule="evenodd" d="M0.6708 52.0645H2.709V50.9809H0.6708V52.0645ZM2.0253 50.9809H3.3798V49.8973H2.0253V50.9809ZM0.6708 49.8973H2.709V48.8137H0.6708V49.8973ZM1.3545 48.8008H2.0253V47.7301H1.3545V48.8008ZM1.3545 53.1481H2.0253V52.0645H1.3545V53.1481ZM0.6708 44.4664H3.3798V43.3828H0.6708V44.4664ZM4.0506 44.4664H6.7596V43.3828H4.0506V44.4664ZM7.4175 44.4664H10.1265V43.3828H7.4175V44.4664ZM10.7973 44.4664H13.5063V43.3828H10.7973V44.4664ZM5.3922 42.3121H8.772V41.2285H5.3922V42.3121ZM0.6708 42.3121H4.0506V41.2285H0.6708V42.3121ZM10.1265 42.3121H13.4934V41.2285H10.1265V42.3121ZM13.4934 37.9777H14.1642V36.8941H13.4934V37.9777ZM0 37.9648H0.6708V36.8812H0V37.9648ZM6.063 32.5468H6.7467V33.6175H6.0759L6.063 32.5468ZM7.4175 32.5468H8.1012V33.6175H7.4175V32.5468ZM7.4175 30.3667H8.1012V31.4503H7.4175V30.3667ZM6.0759 30.3667H6.7467V31.4503H6.0759V30.3667ZM1.3545 59.6497H2.6961V60.7333H1.3545V59.6497ZM10.7973 39.0484H11.4681V37.9648H10.7973V39.0484ZM2.6961 39.0484H3.3669V37.9648H2.709L2.6961 39.0484ZM6.0759 37.9648H8.1012V39.0484H6.063L6.0759 37.9648Z" fill="#B20000"/>
</g>
</g>
<path d="M92.017 52V11.2727H118.207V17.4574H99.3949V27.0028H107.25C110.366 27.0028 113.037 27.5133 115.264 28.5341C117.505 29.5417 119.222 30.9669 120.415 32.8097C121.608 34.6525 122.205 36.8201 122.205 39.3125C122.205 41.8182 121.608 44.0256 120.415 45.9347C119.222 47.8305 117.505 49.3153 115.264 50.3892C113.037 51.4631 110.366 52 107.25 52H92.017ZM99.3949 45.9545H107.25C108.894 45.9545 110.286 45.643 111.426 45.0199C112.566 44.3968 113.428 43.5748 114.011 42.554C114.608 41.5331 114.906 40.4261 114.906 39.233C114.906 37.5095 114.243 36.0445 112.918 34.8381C111.605 33.6184 109.716 33.0085 107.25 33.0085H99.3949V45.9545ZM141.862 52.5966C138.8 52.5966 136.155 51.9602 133.928 50.6875C131.714 49.4015 130.01 47.5852 128.817 45.2386C127.624 42.8788 127.027 40.1013 127.027 36.9062C127.027 33.7642 127.624 31.0066 128.817 28.6335C130.023 26.2472 131.707 24.3911 133.868 23.0653C136.029 21.7263 138.568 21.0568 141.484 21.0568C143.367 21.0568 145.143 21.3617 146.814 21.9716C148.498 22.5682 149.982 23.4962 151.268 24.7557C152.568 26.0152 153.589 27.6193 154.331 29.5682C155.073 31.5038 155.445 33.8106 155.445 36.4886V38.696H130.408V33.8438H148.544C148.531 32.465 148.232 31.2386 147.649 30.1648C147.066 29.0777 146.25 28.2225 145.203 27.5994C144.169 26.9763 142.963 26.6648 141.584 26.6648C140.112 26.6648 138.82 27.0227 137.706 27.7386C136.592 28.4413 135.724 29.3693 135.101 30.5227C134.491 31.6629 134.179 32.9157 134.166 34.2812V38.517C134.166 40.2936 134.491 41.8182 135.141 43.0909C135.79 44.3504 136.698 45.3182 137.865 45.9943C139.032 46.6572 140.397 46.9886 141.962 46.9886C143.009 46.9886 143.957 46.8428 144.805 46.5511C145.654 46.2462 146.39 45.8021 147.013 45.2188C147.636 44.6354 148.107 43.9129 148.425 43.0511L155.146 43.8068C154.722 45.5833 153.913 47.1345 152.72 48.4602C151.54 49.7727 150.029 50.7936 148.186 51.5227C146.343 52.2386 144.235 52.5966 141.862 52.5966ZM159.427 52L159.387 46.0739H160.441C161.237 46.0739 161.906 45.8949 162.45 45.5369C162.993 45.179 163.444 44.5824 163.802 43.7472C164.16 42.8987 164.438 41.7585 164.637 40.3267C164.836 38.8949 164.975 37.1117 165.055 34.9773L165.592 21.4545H187.864V52H180.904V27.3608H172.134L171.657 37.2045C171.538 39.75 171.253 41.9574 170.802 43.8267C170.364 45.6828 169.741 47.214 168.933 48.4205C168.137 49.6269 167.136 50.5284 165.93 51.125C164.723 51.7083 163.298 52 161.654 52H159.427ZM208.437 52.5966C205.454 52.5966 202.869 51.9403 200.681 50.6278C198.494 49.3153 196.797 47.4792 195.59 45.1193C194.397 42.7595 193.8 40.0019 193.8 36.8466C193.8 33.6913 194.397 30.9271 195.59 28.554C196.797 26.1809 198.494 24.3381 200.681 23.0256C202.869 21.7131 205.454 21.0568 208.437 21.0568C211.42 21.0568 214.005 21.7131 216.192 23.0256C218.38 24.3381 220.07 26.1809 221.263 28.554C222.47 30.9271 223.073 33.6913 223.073 36.8466C223.073 40.0019 222.47 42.7595 221.263 45.1193C220.07 47.4792 218.38 49.3153 216.192 50.6278C214.005 51.9403 211.42 52.5966 208.437 52.5966ZM208.477 46.8295C210.094 46.8295 211.446 46.3854 212.533 45.4972C213.621 44.5956 214.429 43.3892 214.96 41.8778C215.503 40.3665 215.775 38.6828 215.775 36.8267C215.775 34.9574 215.503 33.267 214.96 31.7557C214.429 30.2311 213.621 29.018 212.533 28.1165C211.446 27.215 210.094 26.7642 208.477 26.7642C206.819 26.7642 205.441 27.215 204.34 28.1165C203.253 29.018 202.438 30.2311 201.894 31.7557C201.364 33.267 201.099 34.9574 201.099 36.8267C201.099 38.6828 201.364 40.3665 201.894 41.8778C202.438 43.3892 203.253 44.5956 204.34 45.4972C205.441 46.3854 206.819 46.8295 208.477 46.8295ZM229.183 63.4545V21.4545H236.263V26.5057H236.68C237.052 25.7633 237.575 24.9744 238.251 24.1392C238.928 23.2907 239.842 22.5682 240.996 21.9716C242.149 21.3617 243.621 21.0568 245.411 21.0568C247.77 21.0568 249.898 21.66 251.794 22.8665C253.703 24.0597 255.214 25.8295 256.328 28.1761C257.455 30.5095 258.018 33.3731 258.018 36.767C258.018 40.1212 257.468 42.9716 256.368 45.3182C255.268 47.6648 253.769 49.4545 251.874 50.6875C249.978 51.9205 247.83 52.5369 245.43 52.5369C243.68 52.5369 242.229 52.2453 241.075 51.6619C239.922 51.0786 238.994 50.3759 238.291 49.554C237.602 48.7187 237.065 47.9299 236.68 47.1875H236.382V63.4545H229.183ZM236.243 36.7273C236.243 38.7027 236.521 40.4328 237.078 41.9176C237.648 43.4025 238.464 44.5625 239.524 45.3977C240.598 46.2197 241.897 46.6307 243.422 46.6307C245.013 46.6307 246.345 46.2064 247.419 45.358C248.493 44.4962 249.302 43.3229 249.845 41.8381C250.402 40.34 250.68 38.6364 250.68 36.7273C250.68 34.8314 250.409 33.1477 249.865 31.6761C249.321 30.2045 248.513 29.0511 247.439 28.2159C246.365 27.3807 245.026 26.9631 243.422 26.9631C241.884 26.9631 240.578 27.3674 239.504 28.1761C238.43 28.9848 237.615 30.1184 237.058 31.5767C236.515 33.035 236.243 34.7519 236.243 36.7273ZM267.619 63.4545C266.638 63.4545 265.729 63.375 264.894 63.2159C264.072 63.0701 263.416 62.8977 262.925 62.6989L264.596 57.0909C265.643 57.3958 266.578 57.5417 267.4 57.5284C268.222 57.5152 268.944 57.2566 269.567 56.7528C270.204 56.2623 270.741 55.4403 271.178 54.2869L271.795 52.6364L260.718 21.4545H268.354L275.394 44.5227H275.712L282.772 21.4545H290.428L278.198 55.6989C277.628 57.3163 276.872 58.7017 275.931 59.8551C274.99 61.0218 273.836 61.91 272.471 62.5199C271.119 63.143 269.501 63.4545 267.619 63.4545ZM307.695 52.5966C304.645 52.5966 302.027 51.9271 299.839 50.5881C297.665 49.2491 295.988 47.3996 294.808 45.0398C293.642 42.6667 293.058 39.9356 293.058 36.8466C293.058 33.7443 293.655 31.0066 294.848 28.6335C296.041 26.2472 297.725 24.3911 299.899 23.0653C302.087 21.7263 304.672 21.0568 307.655 21.0568C310.134 21.0568 312.328 21.5142 314.237 22.429C316.16 23.3305 317.691 24.6098 318.831 26.267C319.971 27.911 320.621 29.8333 320.78 32.0341H313.899C313.621 30.5625 312.958 29.3362 311.911 28.3551C310.876 27.3608 309.491 26.8636 307.754 26.8636C306.283 26.8636 304.99 27.2614 303.876 28.0568C302.763 28.839 301.894 29.9659 301.271 31.4375C300.661 32.9091 300.357 34.6723 300.357 36.7273C300.357 38.8087 300.661 40.5985 301.271 42.0966C301.881 43.5814 302.736 44.7282 303.837 45.5369C304.95 46.3324 306.256 46.7301 307.754 46.7301C308.815 46.7301 309.763 46.5312 310.598 46.1335C311.446 45.7225 312.156 45.1326 312.726 44.3636C313.296 43.5947 313.687 42.66 313.899 41.5597H320.78C320.607 43.7206 319.971 45.6364 318.871 47.3068C317.77 48.964 316.272 50.2633 314.376 51.2045C312.481 52.1326 310.253 52.5966 307.695 52.5966ZM340.015 52.5966C336.966 52.5966 334.347 51.9271 332.16 50.5881C329.986 49.2491 328.308 47.3996 327.129 45.0398C325.962 42.6667 325.379 39.9356 325.379 36.8466C325.379 33.7443 325.975 31.0066 327.168 28.6335C328.362 26.2472 330.045 24.3911 332.219 23.0653C334.407 21.7263 336.992 21.0568 339.975 21.0568C342.454 21.0568 344.648 21.5142 346.558 22.429C348.48 23.3305 350.011 24.6098 351.151 26.267C352.291 27.911 352.941 29.8333 353.1 32.0341H346.219C345.941 30.5625 345.278 29.3362 344.231 28.3551C343.197 27.3608 341.811 26.8636 340.075 26.8636C338.603 26.8636 337.31 27.2614 336.197 28.0568C335.083 28.839 334.215 29.9659 333.592 31.4375C332.982 32.9091 332.677 34.6723 332.677 36.7273C332.677 38.8087 332.982 40.5985 333.592 42.0966C334.201 43.5814 335.057 44.7282 336.157 45.5369C337.271 46.3324 338.576 46.7301 340.075 46.7301C341.135 46.7301 342.083 46.5312 342.918 46.1335C343.767 45.7225 344.476 45.1326 345.046 44.3636C345.616 43.5947 346.007 42.66 346.219 41.5597H353.1C352.928 43.7206 352.291 45.6364 351.191 47.3068C350.091 48.964 348.593 50.2633 346.697 51.2045C344.801 52.1326 342.574 52.5966 340.015 52.5966ZM365.952 42.2557L378.182 21.4545H385.58V52H378.619V31.179L366.429 52H359.011V21.4545H365.952V42.2557ZM399.913 42.2557L412.143 21.4545H419.54V52H412.58V31.179L400.39 52H392.972V21.4545H399.913V42.2557Z" fill="white"/>
<defs>
<clipPath id="clip0_2046_1159">
<rect width="64" height="64" rx="16" fill="white"/>
</clipPath>
</defs>
</svg>
