<svg width="409" height="64" viewBox="0 0 409 64" fill="none" xmlns="http://www.w3.org/2000/svg">
<g clip-path="url(#clip0_2046_1178)">
<path d="M0 0H64V64H0V0Z" fill="#00ABC2"/>
<path d="M34.5875 35.4895C39.3451 35.4895 43.2019 31.6327 43.2019 26.8751C43.2019 22.1175 39.3451 18.2607 34.5875 18.2607C29.8299 18.2607 25.9731 22.1175 25.9731 26.8751C25.9731 31.6327 29.8299 35.4895 34.5875 35.4895Z" fill="#FFEC2D"/>
<path d="M34.5875 17.0893C35.0995 17.0829 35.2915 16.7629 35.2915 16.3789C35.2915 15.8669 34.5875 13.4285 34.5875 13.4285C34.5875 13.4285 33.8835 15.8669 33.8835 16.3789C33.8835 16.7629 34.0755 17.0893 34.5875 17.0893Z" fill="#FFEC2D"/>
<path d="M44.3731 26.8749C44.3795 27.3869 44.6995 27.5789 45.0835 27.5789C45.5955 27.5789 48.0339 26.8749 48.0339 26.8749C48.0339 26.8749 45.5955 26.1709 45.0835 26.1709C44.6995 26.1709 44.3731 26.3629 44.3731 26.8749Z" fill="#FFEC2D"/>
<path d="M34.5875 36.6605C34.0755 36.6669 33.8835 36.9869 33.8835 37.3709C33.8835 37.8829 34.5875 40.3213 34.5875 40.3213C34.5875 40.3213 35.2915 37.8829 35.2915 37.3709C35.2915 36.9869 35.0995 36.6605 34.5875 36.6605Z" fill="#FFEC2D"/>
<path d="M24.8019 26.8749C24.7955 26.3629 24.4755 26.1709 24.0915 26.1709C23.5795 26.1709 21.1411 26.8749 21.1411 26.8749C21.1411 26.8749 23.5795 27.5789 24.0915 27.5789C24.4755 27.5789 24.8019 27.3869 24.8019 26.8749Z" fill="#FFEC2D"/>
<path d="M38.3323 17.8342C38.8078 18.0242 39.1076 17.802 39.2546 17.4472C39.4505 16.9742 39.7332 14.452 39.7332 14.452C39.7332 14.452 38.1497 16.4354 37.9538 16.9084C37.8068 17.2632 37.8593 17.6382 38.3323 17.8342Z" fill="#FFEC2D"/>
<path d="M43.6282 30.6198C43.4382 31.0953 43.6604 31.3952 44.0152 31.5421C44.4882 31.738 47.0104 32.0208 47.0104 32.0208C47.0104 32.0208 45.027 30.4372 44.554 30.2413C44.1992 30.0943 43.8242 30.1468 43.6282 30.6198Z" fill="#FFEC2D"/>
<path d="M30.8427 35.9156C30.3673 35.7256 30.0674 35.9477 29.9205 36.3025C29.7245 36.7755 29.4418 39.2977 29.4418 39.2977C29.4418 39.2977 31.0254 37.3144 31.2213 36.8413C31.3682 36.4866 31.3158 36.1115 30.8427 35.9156Z" fill="#FFEC2D"/>
<path d="M25.5468 23.1302C25.7368 22.6547 25.5147 22.3548 25.1599 22.2079C24.6869 22.012 22.1647 21.7292 22.1647 21.7292C22.1647 21.7292 24.1481 23.3128 24.6211 23.5087C24.9758 23.6557 25.3509 23.6032 25.5468 23.1302Z" fill="#FFEC2D"/>
<path d="M41.507 19.9555C41.8736 20.313 42.2356 20.2225 42.5071 19.951C42.8692 19.589 44.0956 17.3669 44.0956 17.3669C44.0956 17.3669 41.8736 18.5933 41.5115 18.9554C41.24 19.2269 41.145 19.5935 41.507 19.9555Z" fill="#FFEC2D"/>
<path d="M41.507 33.7945C41.1495 34.161 41.24 34.5231 41.5115 34.7946C41.8736 35.1567 44.0956 36.3831 44.0956 36.3831C44.0956 36.3831 42.8692 34.161 42.5071 33.799C42.2356 33.5275 41.869 33.4324 41.507 33.7945Z" fill="#FFEC2D"/>
<path d="M27.668 33.7945C27.3015 33.437 26.9394 33.5275 26.6679 33.799C26.3059 34.161 25.0795 36.3831 25.0795 36.3831C25.0795 36.3831 27.3015 35.1567 27.6635 34.7946C27.935 34.5231 28.0301 34.1565 27.668 33.7945Z" fill="#FFEC2D"/>
<path d="M27.668 19.9555C28.0256 19.589 27.935 19.2269 27.6635 18.9554C27.3015 18.5933 25.0795 17.3669 25.0795 17.3669C25.0795 17.3669 26.3059 19.589 26.6679 19.951C26.9394 20.2225 27.306 20.3176 27.668 19.9555Z" fill="#FFEC2D"/>
<path d="M43.6282 23.1302C43.83 23.6008 44.1991 23.6557 44.5539 23.5087C45.0269 23.3128 47.0103 21.7293 47.0103 21.7293C47.0103 21.7293 44.4881 22.012 44.0151 22.2079C43.6603 22.3549 43.4322 22.6572 43.6282 23.1302Z" fill="#FFEC2D"/>
<path d="M38.3323 35.9156C37.8617 36.1174 37.8068 36.4866 37.9537 36.8413C38.1496 37.3144 39.7332 39.2977 39.7332 39.2977C39.7332 39.2977 39.4505 36.7755 39.2545 36.3025C39.1076 35.9477 38.8053 35.7197 38.3323 35.9156Z" fill="#FFEC2D"/>
<path d="M25.5468 30.6198C25.3449 30.1492 24.9758 30.0943 24.621 30.2413C24.148 30.4372 22.1646 32.0207 22.1646 32.0207C22.1646 32.0207 24.6868 31.738 25.1598 31.5421C25.5146 31.3951 25.7427 31.0928 25.5468 30.6198Z" fill="#FFEC2D"/>
<path d="M30.8427 17.8342C31.3133 17.6323 31.3682 17.2632 31.2213 16.9084C31.0253 16.4354 29.4418 14.452 29.4418 14.452C29.4418 14.452 29.7245 16.9742 29.9205 17.4472C30.0674 17.802 30.3697 18.0301 30.8427 17.8342Z" fill="#FFEC2D"/>
<path d="M36.505 17.2791C37.0083 17.3731 37.2593 17.0969 37.3345 16.7204C37.4348 16.2183 37.2223 13.6892 37.2223 13.6892C37.2223 13.6892 36.0541 15.9424 35.9538 16.4445C35.8786 16.821 36.0029 17.1787 36.505 17.2791Z" fill="#FFEC2D"/>
<path d="M44.1834 28.7924C44.0894 29.2957 44.3655 29.5467 44.7421 29.6219C45.2442 29.7222 47.7732 29.5097 47.7732 29.5097C47.7732 29.5097 45.5201 28.3415 45.018 28.2412C44.6414 28.166 44.2837 28.2903 44.1834 28.7924Z" fill="#FFEC2D"/>
<path d="M32.6701 36.4709C32.1668 36.3769 31.9158 36.6531 31.8405 37.0296C31.7402 37.5317 31.9528 40.0608 31.9528 40.0608C31.9528 40.0608 33.1209 37.8076 33.2212 37.3055C33.2965 36.929 33.1722 36.5713 32.6701 36.4709Z" fill="#FFEC2D"/>
<path d="M24.9916 24.9574C25.0857 24.4541 24.8095 24.2031 24.433 24.1278C23.9309 24.0275 21.4018 24.2401 21.4018 24.2401C21.4018 24.2401 23.655 25.4082 24.1571 25.5085C24.5336 25.5838 24.8913 25.4595 24.9916 24.9574Z" fill="#FFEC2D"/>
<path d="M40.0312 18.7435C40.4602 19.023 40.7978 18.8639 41.0114 18.5448C41.2962 18.1194 42.0677 15.7014 42.0677 15.7014C42.0677 15.7014 40.1262 17.3361 39.8414 17.7616C39.6278 18.0806 39.6057 18.4587 40.0312 18.7435Z" fill="#FFEC2D"/>
<path d="M42.7192 32.3188C42.4397 32.7478 42.5988 33.0854 42.9179 33.299C43.3434 33.5838 45.7613 34.3553 45.7613 34.3553C45.7613 34.3553 44.1266 32.4138 43.7012 32.129C43.3821 31.9154 43.004 31.8933 42.7192 32.3188Z" fill="#FFEC2D"/>
<path d="M29.1438 35.0067C28.7148 34.7272 28.3772 34.8863 28.1636 35.2054C27.8788 35.6309 27.1073 38.0488 27.1073 38.0488C27.1073 38.0488 29.0488 36.4142 29.3336 35.9887C29.5472 35.6696 29.5693 35.2916 29.1438 35.0067Z" fill="#FFEC2D"/>
<path d="M26.4558 21.4315C26.7353 21.0024 26.5762 20.6649 26.2571 20.4512C25.8316 20.1664 23.4137 19.395 23.4137 19.395C23.4137 19.395 25.0484 21.3365 25.4738 21.6213C25.7929 21.8349 26.171 21.8569 26.4558 21.4315Z" fill="#FFEC2D"/>
<path d="M42.7287 21.4455C43.0181 21.8679 43.3909 21.8501 43.7104 21.637C44.1363 21.3529 45.7743 19.4143 45.7743 19.4143C45.7743 19.4143 43.3551 20.1815 42.9291 20.4656C42.6097 20.6787 42.4446 21.0195 42.7287 21.4455Z" fill="#FFEC2D"/>
<path d="M40.017 35.0161C39.5946 35.3055 39.6124 35.6783 39.8255 35.9978C40.1096 36.4237 42.0482 38.0618 42.0482 38.0618C42.0482 38.0618 41.281 35.6425 40.9969 35.2165C40.7838 34.8971 40.443 34.7321 40.017 35.0161Z" fill="#FFEC2D"/>
<path d="M26.4464 32.3045C26.157 31.8821 25.7842 31.8999 25.4648 32.113C25.0388 32.3971 23.4008 34.3357 23.4008 34.3357C23.4008 34.3357 25.82 33.5685 26.246 33.2844C26.5654 33.0713 26.7305 32.7305 26.4464 32.3045Z" fill="#FFEC2D"/>
<path d="M29.1581 18.7339C29.5805 18.4445 29.5627 18.0717 29.3496 17.7522C29.0655 17.3263 27.1269 15.6882 27.1269 15.6882C27.1269 15.6882 27.8941 18.1075 28.1782 18.5335C28.3913 18.8529 28.7321 19.0179 29.1581 18.7339Z" fill="#FFEC2D"/>
<path d="M44.1868 24.9744C44.2925 25.4754 44.6437 25.6016 45.0204 25.527C45.5226 25.4276 47.7779 24.2633 47.7779 24.2633C47.7779 24.2633 45.2492 24.0464 44.7469 24.1458C44.3702 24.2204 44.0873 24.4722 44.1868 24.9744Z" fill="#FFEC2D"/>
<path d="M36.4882 36.4744C35.9872 36.5801 35.861 36.9313 35.9356 37.308C36.035 37.8102 37.1992 40.0655 37.1992 40.0655C37.1992 40.0655 37.4162 37.5367 37.3168 37.0345C37.2422 36.6578 36.9904 36.3749 36.4882 36.4744Z" fill="#FFEC2D"/>
<path d="M24.9883 28.7758C24.8825 28.2748 24.5314 28.1487 24.1547 28.2232C23.6524 28.3227 21.3972 29.4869 21.3972 29.4869C21.3972 29.4869 23.9259 29.7039 24.4281 29.6044C24.8048 29.5298 25.0877 29.2781 24.9883 28.7758Z" fill="#FFEC2D"/>
<path d="M32.6868 17.2759C33.1878 17.1701 33.314 16.8189 33.2394 16.4423C33.14 15.94 31.9757 13.6848 31.9757 13.6848C31.9757 13.6848 31.7588 16.2135 31.8582 16.7157C31.9328 17.0924 32.1846 17.3753 32.6868 17.2759Z" fill="#FFEC2D"/>
<path d="M34.2887 41.9199C34.0647 42.3231 33.9303 42.7903 33.6487 43.1551C32.7783 42.3679 31.5239 42.3871 30.4231 42.3423C29.5143 42.2911 28.5287 42.2079 27.8247 41.5615C27.0887 40.9535 26.4807 40.1727 25.6615 39.6799C24.8917 39.5142 24.1682 39.1798 23.5431 38.7007C22.2503 37.6447 21.5079 36.0767 20.2407 34.9887C20.0039 34.7583 19.7159 34.5727 19.4471 34.3743C19.1911 34.4383 19.3063 34.9887 18.9927 34.7071C18.8199 34.5791 18.3911 34.5727 18.3527 34.7455C18.7367 35.2575 19.1271 35.8335 19.1847 36.4863C18.9159 36.5119 18.4487 36.4287 18.3207 36.5247C18.6724 37.0523 19.1144 37.5138 19.6263 37.8879C19.3831 37.9263 18.9031 37.9071 18.8071 38.0031C19.2863 38.462 19.8779 38.7864 20.5223 38.9439C20.6503 39.1231 20.3239 39.4687 20.6055 39.6223C20.7655 39.6863 21.3031 39.8015 20.9319 39.9871C20.6759 40.1535 20.7719 40.5567 21.0983 40.5439C21.3031 40.6527 21.7639 40.6719 21.8023 40.8639C21.6167 41.0431 21.0535 41.2607 21.5335 41.4399C21.986 41.6964 22.4924 41.8433 23.0119 41.8687C22.7559 42.0863 22.4359 42.2079 22.1735 42.4127C23.3575 43.1103 24.6695 43.5647 25.9751 44.0127C26.4871 44.1791 27.0183 44.3391 27.5559 44.4415C25.9943 44.3519 24.4839 43.8911 23.0631 43.2575C22.3271 42.9375 21.5911 42.6239 20.8359 42.3487C21.1623 42.1759 21.5463 42.1311 21.8919 41.9839C21.1751 41.8431 20.4007 41.7919 19.7799 41.4079C19.8695 41.2287 20.2279 41.2223 20.4327 41.1327C20.8167 41.0431 21.0471 40.9407 20.5159 40.9023C19.9783 40.7551 19.3639 40.8191 18.8839 40.4991C18.9159 40.3071 19.4151 40.3711 19.6135 40.2879C19.8695 40.2431 20.1511 40.2047 20.3559 40.0319C19.5239 39.6927 18.4359 39.9359 17.7831 39.1999C17.6359 38.9183 18.2503 39.1423 18.4231 39.0975C18.8711 39.0975 19.3511 39.2383 19.7799 39.0591C18.5639 38.5279 17.2647 38.0351 16.3431 37.0495C16.2407 36.8895 15.9335 36.4543 16.1831 36.4031C16.8999 36.4991 17.4183 37.2799 18.1927 37.1583C18.2951 37.0239 17.7447 36.7999 17.6039 36.6015C16.4462 35.6713 15.4363 34.5708 14.6087 33.3375C14.5575 32.9087 15.2167 32.8447 15.3895 33.1711C16.2471 34.0031 17.0215 34.9631 18.0903 35.5263C18.4743 35.7119 17.8727 35.3087 17.7959 35.1615C16.7794 34.0346 15.9007 32.7906 15.1783 31.4559C15.0503 31.2127 14.8519 30.7711 15.2231 30.6431C15.5879 30.4575 15.9591 30.7071 16.1447 31.0271C16.8679 31.9423 17.4055 33.0303 18.3079 33.7919C17.5399 32.3007 16.7143 30.7199 16.6951 29.0047C16.7143 28.6719 16.7335 28.1727 17.1879 28.1791C17.5719 28.1215 17.5079 28.6079 17.6359 28.8383C18.0071 30.1055 18.1671 31.4751 18.9159 32.5887C18.7559 31.6543 18.5063 30.6879 18.6727 29.7343C18.7111 29.4143 19.0567 29.3247 19.2935 29.5167C19.4791 29.9647 19.5175 30.5343 19.6839 31.0207C20.6814 34.3337 22.7815 37.2062 25.6359 39.1615C27.9732 40.7608 30.7003 41.6964 33.5271 41.8687C33.7831 41.8943 34.0391 41.9007 34.2887 41.9135M43.0183 47.7439C42.5575 48.0255 42.1991 47.5263 41.8151 47.3791C41.5335 47.5327 41.5079 48.0319 41.2519 48.2751C40.9447 48.6271 40.5607 48.1727 40.5927 47.8271C40.2215 48.1407 40.0359 48.8511 39.4407 48.7487C39.1527 48.5183 38.9415 48.0319 38.7239 48.5887C38.5511 48.8575 38.0839 49.2415 37.8343 48.8319C37.7575 48.4735 37.5783 48.0511 37.3863 48.6207C37.2455 49.0303 36.8103 49.3247 36.4007 49.1455C36.1703 48.9599 36.5799 48.2687 36.2919 48.3135C35.8567 48.6079 35.6007 49.3183 34.9927 49.2607C34.7559 49.0047 35.1399 48.5503 34.8775 48.2559C34.5767 48.6463 34.2375 49.2223 33.7063 49.2607C33.4503 49.0559 33.7191 48.4607 33.5527 48.3775C33.0151 48.6975 32.4391 49.2799 31.7607 49.1007C32.0231 48.0767 33.1367 47.7247 34.0647 47.6479C35.6711 47.4495 37.3607 47.8143 38.9095 47.2319C39.1591 47.0783 39.7607 46.8671 39.5495 46.5151C39.3575 46.2335 40.0423 46.3423 40.1063 46.0159C40.0679 45.6063 40.4263 45.6639 40.7719 45.6319C42.3335 45.5615 43.8759 45.8879 45.4311 45.9455C45.5463 46.7007 44.7079 47.2319 44.0231 47.0015C43.7031 47.0527 43.2231 46.2591 43.3191 46.8351C43.2551 47.1423 43.2935 47.5391 43.0183 47.7439ZM29.7447 46.1951C30.1031 46.5215 30.3591 46.1311 30.6983 45.9839C31.806 45.5503 32.8467 44.962 33.7895 44.2367C34.3783 43.7503 34.8903 43.1167 35.6839 42.9567C37.2327 42.4895 38.8775 42.5471 40.4263 42.1119C41.6103 40.4991 43.6135 39.9167 45.2967 38.9887C45.6743 38.8735 45.8215 38.5599 45.9367 38.2207C46.5767 37.2031 47.4535 36.3071 48.4903 35.6927C48.9797 35.4037 49.5563 35.2993 50.1159 35.3983C50.0388 36.0512 49.7272 36.6539 49.2391 37.0943C49.6167 37.0879 49.9431 36.8511 50.3143 36.8639C50.4423 37.5423 49.7127 37.8943 49.3223 38.3167C49.5399 38.3679 50.3719 38.4319 49.9175 38.6495C49.3415 39.0463 48.6823 39.3215 48.1511 39.7887C48.6439 39.8783 48.7015 39.9807 48.2023 40.1599C47.9271 40.3391 47.4087 40.4031 47.3575 40.7615C47.7287 40.9919 47.1911 41.2095 46.9799 41.2863C46.5831 41.3823 46.1607 41.5551 46.6919 41.8623C46.4935 42.1631 46.0583 42.2271 45.7063 42.1951C45.8151 42.5407 45.9687 42.9247 45.5271 43.0783C44.5366 43.8614 43.3499 44.3573 42.0967 44.5119C43.6647 44.6271 45.2839 44.3391 46.6215 43.4879C46.8007 43.2767 47.7287 43.0463 47.2103 42.8735C46.9671 42.7711 46.4423 42.6559 46.4039 42.4703C47.1335 42.0223 48.0487 42.1823 48.8295 41.9199C48.8487 41.6639 48.2343 41.7343 48.0039 41.6767C47.4599 41.6319 47.4919 41.4911 48.0167 41.4399C48.6823 41.2607 49.4375 41.2287 50.0007 40.7999C49.5463 40.5823 48.9703 40.7679 48.4839 40.5951C49.3095 40.2367 50.2823 40.1983 51.0247 39.6543C51.3639 39.2767 50.5895 39.3983 50.3655 39.4047C49.9111 39.4879 49.6999 39.2639 50.2183 39.0783C51.1079 38.4191 52.2279 37.9967 52.8551 37.0495C53.0023 36.8383 53.2007 36.1983 52.7271 36.4223C52.1127 36.6335 51.5687 37.3247 50.8583 37.1135C52.2535 36.0319 53.5719 34.8095 54.5255 33.3183C54.5767 32.8831 53.8983 32.8383 53.7255 33.1775C52.8295 34.0351 52.0231 35.0527 50.8775 35.5967C51.9573 34.5171 52.895 33.3041 53.6679 31.9871C53.8407 31.6031 54.2951 31.1359 54.0519 30.7071C53.6487 30.3743 53.1495 30.6815 52.9447 31.0719C52.2471 31.9807 51.7223 33.0367 50.8327 33.7791C51.6071 32.2879 52.4199 30.6943 52.4327 28.9791C52.4327 28.6207 52.3687 28.0959 51.8823 28.1663C51.4983 28.2303 51.5943 28.8063 51.4343 29.0943C51.0887 30.2719 50.9223 31.5455 50.2183 32.5695C50.3783 31.6159 50.6535 30.6175 50.4423 29.6575C50.3399 29.2223 49.6423 29.4079 49.7383 29.8367C48.9063 34.0543 46.0711 37.7407 42.3783 39.8719C40.6823 40.8319 38.7943 41.4463 36.8615 41.7279C36.3495 41.8367 35.7863 41.7727 35.2935 41.9519C34.0903 42.8671 33.3671 44.4095 31.8503 44.8895C31.1655 45.2287 30.2823 45.2991 29.7959 45.9263C29.7565 46.0102 29.7389 46.1026 29.7447 46.1951ZM33.0535 45.5359C32.8231 45.5487 32.5991 45.5743 32.3751 45.6447C32.0743 45.6895 31.7863 45.7919 31.4919 45.8367L31.3703 45.8623L31.1719 45.8815C31.1977 45.9888 31.1977 46.1007 31.1719 46.2079C31.1511 46.2563 31.1206 46.2998 31.0823 46.3359C31.0439 46.3871 30.9991 46.4255 30.9415 46.4511C30.8895 46.4767 30.833 46.4919 30.7751 46.4959C30.7175 46.4959 30.6599 46.4959 30.6023 46.4703C30.5447 46.4511 30.4935 46.4191 30.4423 46.3743L30.2631 46.4063H30.0967L29.9175 46.3423C29.8597 46.3197 29.804 46.2918 29.7511 46.2591C29.5335 46.3871 29.2903 46.5087 29.1559 46.7327C29.0934 46.8352 29.0582 46.952 29.0535 47.0719C29.0407 47.2255 29.0791 47.3791 29.1431 47.5199C29.1687 47.5583 29.1879 47.3727 29.2583 47.3471C29.3799 47.2447 29.5335 47.1743 29.6871 47.1359C29.8151 47.0719 29.7959 47.1359 29.7447 47.2383C29.7319 47.2959 29.6615 47.4943 29.7575 47.3919C30.2001 47.2266 30.6676 47.1379 31.1399 47.1295C31.8183 47.0591 32.4967 47.0399 33.1751 47.0335L35.0951 47.0719C35.4023 47.0847 35.7095 47.1487 36.0103 47.0975C36.0807 47.0783 36.1959 47.0783 36.2407 47.0335C36.0999 46.9567 35.9399 46.9503 35.7927 46.9311H34.5703C34.2311 46.8991 33.8791 46.8927 33.5591 46.7647C33.4695 46.7327 33.3927 46.6495 33.3095 46.7391C33.1877 46.7826 33.0608 46.8106 32.9319 46.8223C32.7079 46.8351 32.4839 46.7903 32.2791 46.7071C32.4263 46.5023 32.6055 46.3231 32.7719 46.1311L32.3751 46.0479C32.6119 45.8879 32.8231 45.7023 33.0535 45.5359Z" fill="#FFEC2D"/>
<path d="M30.7175 46.2911C30.8023 46.2911 30.8711 46.2223 30.8711 46.1375C30.8711 46.0527 30.8023 45.9839 30.7175 45.9839C30.6327 45.9839 30.5639 46.0527 30.5639 46.1375C30.5639 46.2223 30.6327 46.2911 30.7175 46.2911Z" fill="#FFEC2D"/>
<path d="M30.7047 46.1759C30.7401 46.1759 30.7687 46.1472 30.7687 46.1119C30.7687 46.0765 30.7401 46.0479 30.7047 46.0479C30.6694 46.0479 30.6407 46.0765 30.6407 46.1119C30.6407 46.1472 30.6694 46.1759 30.7047 46.1759Z" fill="#FFEC2D" stroke="#FFEC2D" stroke-width="0.0256"/>
<path d="M7.68003 4.67202C7.68003 4.67202 7.06563 4.14722 6.85443 4.40962C6.52163 4.82562 7.89123 6.90562 7.89123 7.63522C7.89123 8.83842 7.08483 9.16482 6.09923 9.33122C5.43363 9.44642 4.35203 9.28642 4.35203 9.28642C4.55683 9.01122 4.69123 8.92802 5.03043 8.90882C4.64643 8.71682 4.26243 8.28162 4.26243 7.60962C4.26243 6.57922 4.68483 6.15042 4.68483 4.98562C4.68483 4.35202 4.16003 3.52002 4.16003 3.52002C5.09443 3.61602 5.55523 4.48002 5.29283 5.17122C5.36486 5.18555 5.4393 5.18195 5.50961 5.16075C5.57992 5.13955 5.64394 5.10138 5.69603 5.04962C5.76003 5.24162 5.65763 5.46562 5.51043 5.65762C5.62563 5.72162 5.71523 5.68322 5.89443 5.64482C5.88163 5.83682 5.76643 6.05442 5.47203 6.25282C6.31683 6.03522 6.82883 6.61762 6.82883 7.23202C6.82883 7.69922 6.50883 8.03202 6.18883 8.03202C6.08643 8.03202 5.93283 7.98722 5.84963 7.92322C5.78563 8.05122 5.82403 8.22402 5.88163 8.35202C5.65123 8.28802 5.49763 8.14722 5.60643 7.85922C5.42723 7.84642 5.28643 7.78242 5.19043 7.66722C5.28643 7.53922 5.43363 7.47522 5.60643 7.47522C5.47843 7.20642 5.62563 7.05922 5.83683 6.93762C5.83683 6.93762 5.70243 7.47522 6.04163 7.47522C6.19523 7.47522 6.33603 7.43042 6.33603 7.20002C6.33603 7.00162 6.16323 6.72642 5.76003 6.74562C5.36323 6.76482 5.03683 7.02082 5.03683 7.66082C5.03683 8.24962 5.51683 8.54402 6.14403 8.55682C6.70723 8.58242 7.13603 8.27522 7.13603 7.69282C7.13603 6.91202 6.01603 5.14562 6.01603 4.45442C6.01603 3.93602 6.47683 3.64162 6.93763 3.64162C7.52643 3.64162 8.02563 4.23042 8.02563 4.23042L7.68003 4.66562V4.67202Z" fill="#FFEC2D"/>
<path d="M7.80803 18.6945C7.80803 19.9937 6.64323 20.6593 5.72803 20.6593C4.49923 20.6593 3.84003 19.9233 3.84003 18.9569C3.84003 18.4129 3.94243 18.0673 4.19203 17.5489L7.02083 11.6801C7.12331 11.4332 7.16712 11.166 7.14883 10.8993C7.14883 10.3745 6.63683 9.94569 6.10563 9.93929C5.61923 9.92009 5.08163 10.3873 5.08163 10.9185C5.08163 11.5649 5.42083 11.8529 5.76643 11.8529C6.18883 11.8529 6.35523 11.6801 6.35523 11.3793C6.35523 11.1745 6.25923 11.0849 6.11203 11.0849C5.74723 11.0849 5.85603 11.5713 5.85603 11.5713C5.80786 11.5624 5.76225 11.5429 5.72246 11.5144C5.68266 11.4858 5.64967 11.4488 5.62583 11.406C5.60198 11.3632 5.58788 11.3157 5.58453 11.2668C5.58118 11.2179 5.58865 11.1689 5.60643 11.1233C5.46944 11.0926 5.346 11.0185 5.25443 10.9121C5.35043 10.8161 5.46563 10.7457 5.60643 10.7201C5.52323 10.4385 5.63843 10.3041 5.88163 10.2401C5.83787 10.3363 5.82664 10.4441 5.84963 10.5473C6.23363 10.4321 6.82883 10.6113 6.82883 11.2769C6.82883 11.9425 6.36803 12.4993 5.50403 12.3649C5.70883 12.4609 5.81123 12.6593 5.83683 12.8833C5.67683 12.8193 5.50403 12.8193 5.50403 12.8193C5.60643 12.9921 5.74723 13.1393 5.74083 13.4977C5.58083 13.4209 5.42723 13.2865 5.22883 13.3697C5.54883 14.0097 5.15203 14.8801 4.14083 15.0849C4.51203 14.6497 4.69123 14.1889 4.69123 13.7217C4.69123 12.2177 4.27523 11.9681 4.27523 10.9185C4.28181 10.6751 4.34618 10.4367 4.46302 10.223C4.57986 10.0094 4.74583 9.82657 4.94723 9.68969V9.70889C4.82338 9.68345 4.70632 9.6321 4.60373 9.55819C4.50115 9.48429 4.41537 9.38951 4.35203 9.28009C5.06498 9.08359 5.81865 9.09024 6.52803 9.29929C6.7653 9.33286 6.99201 9.4193 7.1914 9.55223C7.39079 9.68516 7.55778 9.86118 7.68003 10.0673C7.80781 10.3589 7.87378 10.6737 7.87378 10.9921C7.87378 11.3104 7.80781 11.6253 7.68003 11.9169C7.27683 12.7489 5.39523 16.7553 4.80643 18.0097C4.67843 18.2785 4.60803 18.5601 4.60803 18.8673C4.60803 19.6353 5.31203 19.9041 5.70883 19.9041C6.18883 19.9041 6.68163 19.5393 6.68163 19.0849C6.68163 18.7969 6.52163 18.6177 6.29763 18.6177C5.75363 18.6177 5.78563 19.0785 5.89443 19.3729C5.55523 19.2193 5.36323 18.9505 5.41443 18.6689C5.20441 18.6336 5.01383 18.5247 4.87683 18.3617C5.00483 18.1953 5.17123 18.0673 5.41443 18.0609C5.30563 17.6193 5.60643 17.4337 5.89443 17.3313C5.80483 17.6513 5.74083 18.0289 6.29763 18.0289C6.70083 18.0289 7.01443 18.0929 7.20003 18.3617L7.24483 16.6337C7.27043 16.1153 6.55363 16.1217 6.09283 16.2817C6.26563 15.6865 6.61763 15.3601 7.43683 15.4433C7.31132 15.395 7.2042 15.3085 7.13068 15.1959C7.05715 15.0833 7.02096 14.9504 7.02723 14.8161C7.02723 14.3297 7.42403 13.7921 7.68003 13.6321L7.80803 18.6881V18.6945Z" fill="#FFEC2D"/>
<path d="M7.80803 22.5855C7.80803 21.2863 6.64323 20.6207 5.72803 20.6207C4.49923 20.6207 3.84003 21.3567 3.84003 22.3231C3.84003 22.8671 3.94243 23.2127 4.19203 23.7311L7.02083 29.5999C7.12331 29.8468 7.16712 30.1141 7.14883 30.3807C7.14883 30.9055 6.63683 31.3343 6.10563 31.3407C5.61923 31.3599 5.08163 30.8927 5.08163 30.3615C5.08163 29.7151 5.42083 29.4271 5.76643 29.4271C6.18883 29.4271 6.35523 29.5999 6.35523 29.9007C6.35523 30.1055 6.25923 30.1951 6.11203 30.1951C5.74723 30.1951 5.85603 29.7087 5.85603 29.7087C5.80786 29.7177 5.76225 29.7371 5.72246 29.7657C5.68266 29.7942 5.64967 29.8312 5.62583 29.874C5.60198 29.9168 5.58788 29.9643 5.58453 30.0132C5.58118 30.0621 5.58865 30.1111 5.60643 30.1567C5.46944 30.1875 5.346 30.2615 5.25443 30.3679C5.35043 30.4639 5.46563 30.5343 5.60643 30.5599C5.52323 30.8415 5.63843 30.9759 5.88163 31.0399C5.83787 30.9437 5.82664 30.8359 5.84963 30.7327C6.23363 30.8479 6.82883 30.6687 6.82883 30.0031C6.82883 29.3375 6.36803 28.7807 5.50403 28.9151C5.70883 28.8191 5.81123 28.6207 5.83683 28.3967C5.67683 28.4607 5.50403 28.4607 5.50403 28.4607C5.60643 28.2879 5.74723 28.1407 5.74083 27.7823C5.58083 27.8591 5.42723 27.9935 5.22883 27.9103C5.54883 27.2703 5.15203 26.3999 4.14083 26.1951C4.51203 26.6303 4.69123 27.0911 4.69123 27.5583C4.69123 29.0623 4.27523 29.3119 4.27523 30.3615C4.28181 30.605 4.34618 30.8433 4.46302 31.057C4.57986 31.2706 4.74583 31.4535 4.94723 31.5903V31.5711C4.82338 31.5966 4.70632 31.6479 4.60373 31.7218C4.50115 31.7957 4.41537 31.8905 4.35203 31.9999C5.06498 32.1964 5.81865 32.1898 6.52803 31.9807C6.7653 31.9472 6.99201 31.8607 7.1914 31.7278C7.39079 31.5949 7.55778 31.4189 7.68003 31.2127C7.80781 30.9212 7.87378 30.6063 7.87378 30.2879C7.87378 29.9696 7.80781 29.6547 7.68003 29.3631C7.27683 28.5311 5.39523 24.5247 4.80643 23.2703C4.67843 23.0015 4.60803 22.7199 4.60803 22.4127C4.60803 21.6447 5.31203 21.3759 5.70883 21.3759C6.18883 21.3759 6.68163 21.7407 6.68163 22.1951C6.68163 22.4831 6.52163 22.6623 6.29763 22.6623C5.75363 22.6623 5.78563 22.2015 5.89443 21.9071C5.55523 22.0607 5.36323 22.3295 5.41443 22.6111C5.20441 22.6464 5.01383 22.7553 4.87683 22.9183C5.00483 23.0847 5.17123 23.2127 5.41443 23.2191C5.30563 23.6607 5.60643 23.8463 5.89443 23.9487C5.80483 23.6287 5.74083 23.2511 6.29763 23.2511C6.70083 23.2511 7.01443 23.1871 7.20003 22.9183L7.24483 24.6463C7.27043 25.1647 6.55363 25.1583 6.09283 24.9983C6.26563 25.5935 6.61763 25.9199 7.43683 25.8367C7.31132 25.885 7.2042 25.9716 7.13068 26.0842C7.05715 26.1967 7.02096 26.3296 7.02723 26.4639C7.02723 26.9503 7.42403 27.4879 7.68003 27.6479L7.80803 22.5919V22.5855Z" fill="#FFEC2D"/>
<path d="M7.68001 4.67202C7.68001 4.67202 8.29441 4.14722 8.50561 4.40962C8.83841 4.82562 7.46881 6.90562 7.46881 7.63522C7.46881 8.83842 8.27521 9.16482 9.26081 9.33122C9.92641 9.44642 11.008 9.28642 11.008 9.28642C10.8032 9.01122 10.6688 8.92802 10.3296 8.90882C10.7136 8.71682 11.0976 8.28162 11.0976 7.60962C11.0976 6.57922 10.6752 6.15042 10.6752 4.98562C10.6752 4.35202 11.2 3.52002 11.2 3.52002C10.2656 3.61602 9.80481 4.48002 10.0672 5.17122C9.99519 5.18555 9.92074 5.18195 9.85043 5.16075C9.78012 5.13955 9.7161 5.10138 9.66401 5.04962C9.60001 5.24162 9.70241 5.46562 9.84961 5.65762C9.73441 5.72162 9.64481 5.68322 9.46561 5.64482C9.47841 5.83682 9.59361 6.05442 9.88801 6.25282C9.04321 6.03522 8.53121 6.61762 8.53121 7.23202C8.53121 7.69922 8.85121 8.03202 9.17121 8.03202C9.27361 8.03202 9.42721 7.98722 9.51041 7.92322C9.57441 8.05122 9.53601 8.22402 9.47841 8.35202C9.70881 8.28802 9.86241 8.14722 9.75361 7.85922C9.93281 7.84642 10.0736 7.78242 10.1696 7.66722C10.0736 7.53922 9.92641 7.47522 9.75361 7.47522C9.88161 7.20642 9.73441 7.05922 9.52321 6.93762C9.52321 6.93762 9.65761 7.47522 9.31841 7.47522C9.16481 7.47522 9.02401 7.43042 9.02401 7.20002C9.02401 7.00162 9.19681 6.72642 9.60001 6.74562C9.99681 6.76482 10.3232 7.02082 10.3232 7.66082C10.3232 8.24962 9.84321 8.54402 9.21601 8.55682C8.65281 8.58242 8.22401 8.27522 8.22401 7.69282C8.22401 6.91202 9.34401 5.14562 9.34401 4.45442C9.34401 3.93602 8.88321 3.64162 8.42241 3.64162C7.83361 3.64162 7.33441 4.23042 7.33441 4.23042L7.68001 4.66562V4.67202Z" fill="#FFEC2D"/>
<path d="M7.55202 18.6945C7.55202 19.9937 8.71682 20.6593 9.63202 20.6593C10.8608 20.6593 11.52 19.9233 11.52 18.9569C11.52 18.4129 11.4176 18.0673 11.168 17.5489L8.33922 11.6801C8.23674 11.4332 8.19292 11.166 8.21122 10.8993C8.21122 10.3745 8.72322 9.94569 9.25442 9.93929C9.74082 9.92009 10.2784 10.3873 10.2784 10.9185C10.2784 11.5649 9.93922 11.8529 9.59362 11.8529C9.17122 11.8529 9.00482 11.6801 9.00482 11.3793C9.00482 11.1745 9.10082 11.0849 9.24802 11.0849C9.61282 11.0849 9.50402 11.5713 9.50402 11.5713C9.55219 11.5624 9.5978 11.5429 9.63759 11.5144C9.67738 11.4858 9.71038 11.4488 9.73422 11.406C9.75806 11.3632 9.77216 11.3157 9.77552 11.2668C9.77887 11.2179 9.77139 11.1689 9.75362 11.1233C9.89061 11.0926 10.014 11.0185 10.1056 10.9121C10.0096 10.8161 9.89442 10.7457 9.75362 10.7201C9.83682 10.4385 9.72162 10.3041 9.47842 10.2401C9.52218 10.3363 9.53341 10.4441 9.51042 10.5473C9.12642 10.4321 8.53122 10.6113 8.53122 11.2769C8.53122 11.9425 8.99202 12.4993 9.85602 12.3649C9.65122 12.4609 9.54882 12.6593 9.52322 12.8833C9.68322 12.8193 9.85602 12.8193 9.85602 12.8193C9.75362 12.9921 9.61282 13.1393 9.61922 13.4977C9.77922 13.4209 9.93282 13.2865 10.1312 13.3697C9.81122 14.0097 10.208 14.8801 11.2192 15.0849C10.848 14.6497 10.6688 14.1889 10.6688 13.7217C10.6688 12.2177 11.0848 11.9681 11.0848 10.9185C11.0782 10.6751 11.0139 10.4367 10.897 10.223C10.7802 10.0094 10.6142 9.82657 10.4128 9.68969V9.70889C10.5367 9.68345 10.6537 9.6321 10.7563 9.55819C10.8589 9.48429 10.9447 9.38951 11.008 9.28009C10.2951 9.08359 9.54139 9.09024 8.83202 9.29929C8.59474 9.33286 8.36804 9.4193 8.16865 9.55223C7.96925 9.68516 7.80227 9.86118 7.68002 10.0673C7.55224 10.3589 7.48627 10.6737 7.48627 10.9921C7.48627 11.3104 7.55224 11.6253 7.68002 11.9169C8.08322 12.7489 9.96482 16.7553 10.5536 18.0097C10.6816 18.2785 10.752 18.5601 10.752 18.8673C10.752 19.6353 10.048 19.9041 9.65122 19.9041C9.17122 19.9041 8.67842 19.5393 8.67842 19.0849C8.67842 18.7969 8.83842 18.6177 9.06242 18.6177C9.60642 18.6177 9.57442 19.0785 9.46562 19.3729C9.80482 19.2193 9.99682 18.9505 9.94562 18.6689C10.1556 18.6336 10.3462 18.5247 10.4832 18.3617C10.3552 18.1953 10.1888 18.0673 9.94562 18.0609C10.0544 17.6193 9.75362 17.4337 9.46562 17.3313C9.55522 17.6513 9.61922 18.0289 9.06242 18.0289C8.65922 18.0289 8.34562 18.0929 8.16002 18.3617L8.11522 16.6337C8.08962 16.1153 8.80642 16.1217 9.26722 16.2817C9.09442 15.6865 8.74242 15.3601 7.92322 15.4433C8.04873 15.395 8.15584 15.3085 8.22937 15.1959C8.30289 15.0833 8.33909 14.9504 8.33282 14.8161C8.33282 14.3297 7.93602 13.7921 7.68002 13.6321L7.55202 18.6881V18.6945Z" fill="#FFEC2D"/>
<path d="M7.55202 22.5855C7.55202 21.2863 8.71682 20.6207 9.63202 20.6207C10.8608 20.6207 11.52 21.3567 11.52 22.3231C11.52 22.8671 11.4176 23.2127 11.168 23.7311L8.33922 29.5999C8.23674 29.8468 8.19292 30.1141 8.21122 30.3807C8.21122 30.9055 8.72322 31.3343 9.25442 31.3407C9.74082 31.3599 10.2784 30.8927 10.2784 30.3615C10.2784 29.7151 9.93922 29.4271 9.59362 29.4271C9.17122 29.4271 9.00482 29.5999 9.00482 29.9007C9.00482 30.1055 9.10082 30.1951 9.24802 30.1951C9.61282 30.1951 9.50402 29.7087 9.50402 29.7087C9.55219 29.7177 9.5978 29.7371 9.63759 29.7657C9.67738 29.7942 9.71038 29.8312 9.73422 29.874C9.75806 29.9168 9.77216 29.9643 9.77552 30.0132C9.77887 30.0621 9.77139 30.1111 9.75362 30.1567C9.89061 30.1875 10.014 30.2615 10.1056 30.3679C10.0096 30.4639 9.89442 30.5343 9.75362 30.5599C9.83682 30.8415 9.72162 30.9759 9.47842 31.0399C9.52218 30.9437 9.53341 30.8359 9.51042 30.7327C9.12642 30.8479 8.53122 30.6687 8.53122 30.0031C8.53122 29.3375 8.99202 28.7807 9.85602 28.9151C9.65122 28.8191 9.54882 28.6207 9.52322 28.3967C9.68322 28.4607 9.85602 28.4607 9.85602 28.4607C9.75362 28.2879 9.61282 28.1407 9.61922 27.7823C9.77922 27.8591 9.93282 27.9935 10.1312 27.9103C9.81122 27.2703 10.208 26.3999 11.2192 26.1951C10.848 26.6303 10.6688 27.0911 10.6688 27.5583C10.6688 29.0623 11.0848 29.3119 11.0848 30.3615C11.0782 30.605 11.0139 30.8433 10.897 31.057C10.7802 31.2706 10.6142 31.4535 10.4128 31.5903V31.5711C10.5367 31.5966 10.6537 31.6479 10.7563 31.7218C10.8589 31.7957 10.9447 31.8905 11.008 31.9999C10.2951 32.1964 9.54139 32.1898 8.83202 31.9807C8.59474 31.9472 8.36804 31.8607 8.16865 31.7278C7.96925 31.5949 7.80227 31.4189 7.68002 31.2127C7.55224 30.9212 7.48627 30.6063 7.48627 30.2879C7.48627 29.9696 7.55224 29.6547 7.68002 29.3631C8.08322 28.5311 9.96482 24.5247 10.5536 23.2703C10.6816 23.0015 10.752 22.7199 10.752 22.4127C10.752 21.6447 10.048 21.3759 9.65122 21.3759C9.17122 21.3759 8.67842 21.7407 8.67842 22.1951C8.67842 22.4831 8.83842 22.6623 9.06242 22.6623C9.60642 22.6623 9.57442 22.2015 9.46562 21.9071C9.80482 22.0607 9.99682 22.3295 9.94562 22.6111C10.1556 22.6464 10.3462 22.7553 10.4832 22.9183C10.3552 23.0847 10.1888 23.2127 9.94562 23.2191C10.0544 23.6607 9.75362 23.8463 9.46562 23.9487C9.55522 23.6287 9.61922 23.2511 9.06242 23.2511C8.65922 23.2511 8.34562 23.1871 8.16002 22.9183L8.11522 24.6463C8.08962 25.1647 8.80642 25.1583 9.26722 24.9983C9.09442 25.5935 8.74242 25.9199 7.92322 25.8367C8.04873 25.885 8.15584 25.9716 8.22937 26.0842C8.30289 26.1967 8.33909 26.3296 8.33282 26.4639C8.33282 26.9503 7.93602 27.4879 7.68002 27.6479L7.55202 22.5919V22.5855Z" fill="#FFEC2D"/>
<path d="M7.68003 59.328C7.68003 59.328 7.06563 59.8528 6.85443 59.5904C6.52163 59.1744 7.89123 57.0944 7.89123 56.3648C7.89123 55.1616 7.08483 54.8352 6.09923 54.6688C5.43363 54.5536 4.35203 54.7136 4.35203 54.7136C4.55683 54.9888 4.69123 55.072 5.03043 55.0912C4.64643 55.2832 4.26243 55.7184 4.26243 56.3904C4.26243 57.4208 4.68483 57.8496 4.68483 59.0144C4.68483 59.648 4.16003 60.48 4.16003 60.48C5.09443 60.384 5.55523 59.52 5.29283 58.8288C5.36486 58.8144 5.4393 58.818 5.50961 58.8392C5.57992 58.8605 5.64394 58.8986 5.69603 58.9504C5.76003 58.7584 5.65763 58.5344 5.51043 58.3424C5.62563 58.2784 5.71523 58.3168 5.89443 58.3552C5.88163 58.1632 5.76643 57.9456 5.47203 57.7472C6.31683 57.9648 6.82883 57.3824 6.82883 56.768C6.82883 56.3008 6.50883 55.968 6.18883 55.968C6.08643 55.968 5.93283 56.0128 5.84963 56.0768C5.78563 55.9488 5.82403 55.776 5.88163 55.648C5.65123 55.712 5.49763 55.8528 5.60643 56.1408C5.42723 56.1536 5.28643 56.2176 5.19043 56.3328C5.28643 56.4608 5.43363 56.5248 5.60643 56.5248C5.47843 56.7936 5.62563 56.9408 5.83683 57.0624C5.83683 57.0624 5.70243 56.5248 6.04163 56.5248C6.19523 56.5248 6.33603 56.5696 6.33603 56.8C6.33603 56.9984 6.16323 57.2736 5.76003 57.2544C5.36323 57.2352 5.03683 56.9792 5.03683 56.3392C5.03683 55.7504 5.51683 55.456 6.14403 55.4432C6.70723 55.4176 7.13603 55.7248 7.13603 56.3072C7.13603 57.088 6.01603 58.8544 6.01603 59.5456C6.01603 60.064 6.47683 60.3584 6.93763 60.3584C7.52643 60.3584 8.02563 59.7696 8.02563 59.7696L7.68003 59.3344V59.328Z" fill="#FFEC2D"/>
<path d="M7.80803 45.3055C7.80803 44.0063 6.64323 43.3407 5.72803 43.3407C4.49923 43.3407 3.84003 44.0767 3.84003 45.0431C3.84003 45.5871 3.94243 45.9327 4.19203 46.4511L7.02083 52.3199C7.12331 52.5668 7.16712 52.834 7.14883 53.1007C7.14883 53.6255 6.63683 54.0543 6.10563 54.0607C5.61923 54.0799 5.08163 53.6127 5.08163 53.0815C5.08163 52.4351 5.42083 52.1471 5.76643 52.1471C6.18883 52.1471 6.35523 52.3199 6.35523 52.6207C6.35523 52.8255 6.25923 52.9151 6.11203 52.9151C5.74723 52.9151 5.85603 52.4287 5.85603 52.4287C5.80786 52.4376 5.76225 52.4571 5.72246 52.4856C5.68266 52.5142 5.64967 52.5512 5.62583 52.594C5.60198 52.6368 5.58788 52.6843 5.58453 52.7332C5.58118 52.7821 5.58865 52.8311 5.60643 52.8767C5.46944 52.9074 5.346 52.9815 5.25443 53.0879C5.35043 53.1839 5.46563 53.2543 5.60643 53.2799C5.52323 53.5615 5.63843 53.6959 5.88163 53.7599C5.83787 53.6637 5.82664 53.5559 5.84963 53.4527C6.23363 53.5679 6.82883 53.3887 6.82883 52.7231C6.82883 52.0575 6.36803 51.5007 5.50403 51.6351C5.70883 51.5391 5.81123 51.3407 5.83683 51.1167C5.67683 51.1807 5.50403 51.1807 5.50403 51.1807C5.60643 51.0079 5.74723 50.8607 5.74083 50.5023C5.58083 50.5791 5.42723 50.7135 5.22883 50.6303C5.54883 49.9903 5.15203 49.1199 4.14083 48.9151C4.51203 49.3503 4.69123 49.8111 4.69123 50.2783C4.69123 51.7823 4.27523 52.0319 4.27523 53.0815C4.28181 53.3249 4.34618 53.5633 4.46302 53.777C4.57986 53.9906 4.74583 54.1734 4.94723 54.3103V54.2911C4.82338 54.3165 4.70632 54.3679 4.60373 54.4418C4.50115 54.5157 4.41537 54.6105 4.35203 54.7199C5.06498 54.9164 5.81865 54.9098 6.52803 54.7007C6.7653 54.6671 6.99201 54.5807 7.1914 54.4478C7.39079 54.3148 7.55778 54.1388 7.68003 53.9327C7.80781 53.6411 7.87378 53.3263 7.87378 53.0079C7.87378 52.6896 7.80781 52.3747 7.68003 52.0831C7.27683 51.2511 5.39523 47.2447 4.80643 45.9903C4.67843 45.7215 4.60803 45.4399 4.60803 45.1327C4.60803 44.3647 5.31203 44.0959 5.70883 44.0959C6.18883 44.0959 6.68163 44.4607 6.68163 44.9151C6.68163 45.2031 6.52163 45.3823 6.29763 45.3823C5.75363 45.3823 5.78563 44.9215 5.89443 44.6271C5.55523 44.7807 5.36323 45.0495 5.41443 45.3311C5.20441 45.3664 5.01383 45.4753 4.87683 45.6383C5.00483 45.8047 5.17123 45.9327 5.41443 45.9391C5.30563 46.3807 5.60643 46.5663 5.89443 46.6687C5.80483 46.3487 5.74083 45.9711 6.29763 45.9711C6.70083 45.9711 7.01443 45.9071 7.20003 45.6383L7.24483 47.3663C7.27043 47.8847 6.55363 47.8783 6.09283 47.7183C6.26563 48.3135 6.61763 48.6399 7.43683 48.5567C7.31132 48.605 7.2042 48.6915 7.13068 48.8041C7.05715 48.9167 7.02096 49.0496 7.02723 49.1839C7.02723 49.6703 7.42403 50.2079 7.68003 50.3679L7.80803 45.3119V45.3055Z" fill="#FFEC2D"/>
<path d="M7.80803 41.4145C7.80803 42.7137 6.64323 43.3793 5.72803 43.3793C4.49923 43.3793 3.84003 42.6433 3.84003 41.6769C3.84003 41.1329 3.94243 40.7873 4.19203 40.2689L7.02083 34.4001C7.12331 34.1532 7.16712 33.8859 7.14883 33.6193C7.14883 33.0945 6.63683 32.6657 6.10563 32.6593C5.61923 32.6401 5.08163 33.1073 5.08163 33.6385C5.08163 34.2849 5.42083 34.5729 5.76643 34.5729C6.18883 34.5729 6.35523 34.4001 6.35523 34.0993C6.35523 33.8945 6.25923 33.8049 6.11203 33.8049C5.74723 33.8049 5.85603 34.2913 5.85603 34.2913C5.80786 34.2823 5.76225 34.2629 5.72246 34.2343C5.68266 34.2058 5.64967 34.1688 5.62583 34.126C5.60198 34.0832 5.58788 34.0357 5.58453 33.9868C5.58118 33.9379 5.58865 33.8889 5.60643 33.8433C5.46944 33.8125 5.346 33.7385 5.25443 33.6321C5.35043 33.5361 5.46563 33.4657 5.60643 33.4401C5.52323 33.1585 5.63843 33.0241 5.88163 32.9601C5.83787 33.0563 5.82664 33.1641 5.84963 33.2673C6.23363 33.1521 6.82883 33.3313 6.82883 33.9969C6.82883 34.6625 6.36803 35.2193 5.50403 35.0849C5.70883 35.1809 5.81123 35.3793 5.83683 35.6033C5.67683 35.5393 5.50403 35.5393 5.50403 35.5393C5.60643 35.7121 5.74723 35.8593 5.74083 36.2177C5.58083 36.1409 5.42723 36.0065 5.22883 36.0897C5.54883 36.7297 5.15203 37.6001 4.14083 37.8049C4.51203 37.3697 4.69123 36.9089 4.69123 36.4417C4.69123 34.9377 4.27523 34.6881 4.27523 33.6385C4.28181 33.395 4.34618 33.1567 4.46302 32.943C4.57986 32.7294 4.74583 32.5465 4.94723 32.4097V32.4289C4.82338 32.4034 4.70632 32.3521 4.60373 32.2782C4.50115 32.2043 4.41537 32.1095 4.35203 32.0001C5.06498 31.8036 5.81865 31.8102 6.52803 32.0193C6.7653 32.0528 6.99201 32.1393 7.1914 32.2722C7.39079 32.4051 7.55778 32.5811 7.68003 32.7873C7.80781 33.0788 7.87378 33.3937 7.87378 33.7121C7.87378 34.0304 7.80781 34.3453 7.68003 34.6369C7.27683 35.4689 5.39523 39.4753 4.80643 40.7297C4.67843 40.9985 4.60803 41.2801 4.60803 41.5873C4.60803 42.3553 5.31203 42.6241 5.70883 42.6241C6.18883 42.6241 6.68163 42.2593 6.68163 41.8049C6.68163 41.5169 6.52163 41.3377 6.29763 41.3377C5.75363 41.3377 5.78563 41.7985 5.89443 42.0929C5.55523 41.9393 5.36323 41.6705 5.41443 41.3889C5.20441 41.3536 5.01383 41.2447 4.87683 41.0817C5.00483 40.9153 5.17123 40.7873 5.41443 40.7809C5.30563 40.3393 5.60643 40.1537 5.89443 40.0513C5.80483 40.3713 5.74083 40.7489 6.29763 40.7489C6.70083 40.7489 7.01443 40.8129 7.20003 41.0817L7.24483 39.3537C7.27043 38.8353 6.55363 38.8417 6.09283 39.0017C6.26563 38.4065 6.61763 38.0801 7.43683 38.1633C7.31132 38.115 7.2042 38.0284 7.13068 37.9158C7.05715 37.8033 7.02096 37.6704 7.02723 37.5361C7.02723 37.0497 7.42403 36.5121 7.68003 36.3521L7.80803 41.4081V41.4145Z" fill="#FFEC2D"/>
<path d="M7.68001 59.328C7.68001 59.328 8.29441 59.8528 8.50561 59.5904C8.83841 59.1744 7.46881 57.0944 7.46881 56.3648C7.46881 55.1616 8.27521 54.8352 9.26081 54.6688C9.92641 54.5536 11.008 54.7136 11.008 54.7136C10.8032 54.9888 10.6688 55.072 10.3296 55.0912C10.7136 55.2832 11.0976 55.7184 11.0976 56.3904C11.0976 57.4208 10.6752 57.8496 10.6752 59.0144C10.6752 59.648 11.2 60.48 11.2 60.48C10.2656 60.384 9.80481 59.52 10.0672 58.8288C9.99519 58.8144 9.92074 58.818 9.85043 58.8392C9.78012 58.8605 9.7161 58.8986 9.66401 58.9504C9.60001 58.7584 9.70241 58.5344 9.84961 58.3424C9.73441 58.2784 9.64481 58.3168 9.46561 58.3552C9.47841 58.1632 9.59361 57.9456 9.88801 57.7472C9.04321 57.9648 8.53121 57.3824 8.53121 56.768C8.53121 56.3008 8.85121 55.968 9.17121 55.968C9.27361 55.968 9.42721 56.0128 9.51041 56.0768C9.57441 55.9488 9.53601 55.776 9.47841 55.648C9.70881 55.712 9.86241 55.8528 9.75361 56.1408C9.93281 56.1536 10.0736 56.2176 10.1696 56.3328C10.0736 56.4608 9.92641 56.5248 9.75361 56.5248C9.88161 56.7936 9.73441 56.9408 9.52321 57.0624C9.52321 57.0624 9.65761 56.5248 9.31841 56.5248C9.16481 56.5248 9.02401 56.5696 9.02401 56.8C9.02401 56.9984 9.19681 57.2736 9.60001 57.2544C9.99681 57.2352 10.3232 56.9792 10.3232 56.3392C10.3232 55.7504 9.84321 55.456 9.21601 55.4432C8.65281 55.4176 8.22401 55.7248 8.22401 56.3072C8.22401 57.088 9.34401 58.8544 9.34401 59.5456C9.34401 60.064 8.88321 60.3584 8.42241 60.3584C7.83361 60.3584 7.33441 59.7696 7.33441 59.7696L7.68001 59.3344V59.328Z" fill="#FFEC2D"/>
<path d="M7.55202 45.3055C7.55202 44.0063 8.71682 43.3407 9.63202 43.3407C10.8608 43.3407 11.52 44.0767 11.52 45.0431C11.52 45.5871 11.4176 45.9327 11.168 46.4511L8.33922 52.3199C8.23674 52.5668 8.19292 52.834 8.21122 53.1007C8.21122 53.6255 8.72322 54.0543 9.25442 54.0607C9.74082 54.0799 10.2784 53.6127 10.2784 53.0815C10.2784 52.4351 9.93922 52.1471 9.59362 52.1471C9.17122 52.1471 9.00482 52.3199 9.00482 52.6207C9.00482 52.8255 9.10082 52.9151 9.24802 52.9151C9.61282 52.9151 9.50402 52.4287 9.50402 52.4287C9.55219 52.4376 9.5978 52.4571 9.63759 52.4856C9.67738 52.5142 9.71038 52.5512 9.73422 52.594C9.75806 52.6368 9.77216 52.6843 9.77552 52.7332C9.77887 52.7821 9.77139 52.8311 9.75362 52.8767C9.89061 52.9074 10.014 52.9815 10.1056 53.0879C10.0096 53.1839 9.89442 53.2543 9.75362 53.2799C9.83682 53.5615 9.72162 53.6959 9.47842 53.7599C9.52218 53.6637 9.53341 53.5559 9.51042 53.4527C9.12642 53.5679 8.53122 53.3887 8.53122 52.7231C8.53122 52.0575 8.99202 51.5007 9.85602 51.6351C9.65122 51.5391 9.54882 51.3407 9.52322 51.1167C9.68322 51.1807 9.85602 51.1807 9.85602 51.1807C9.75362 51.0079 9.61282 50.8607 9.61922 50.5023C9.77922 50.5791 9.93282 50.7135 10.1312 50.6303C9.81122 49.9903 10.208 49.1199 11.2192 48.9151C10.848 49.3503 10.6688 49.8111 10.6688 50.2783C10.6688 51.7823 11.0848 52.0319 11.0848 53.0815C11.0782 53.3249 11.0139 53.5633 10.897 53.777C10.7802 53.9906 10.6142 54.1734 10.4128 54.3103V54.2911C10.5367 54.3165 10.6537 54.3679 10.7563 54.4418C10.8589 54.5157 10.9447 54.6105 11.008 54.7199C10.2951 54.9164 9.54139 54.9098 8.83202 54.7007C8.59474 54.6671 8.36804 54.5807 8.16865 54.4478C7.96925 54.3148 7.80227 54.1388 7.68002 53.9327C7.55224 53.6411 7.48627 53.3263 7.48627 53.0079C7.48627 52.6896 7.55224 52.3747 7.68002 52.0831C8.08322 51.2511 9.96482 47.2447 10.5536 45.9903C10.6816 45.7215 10.752 45.4399 10.752 45.1327C10.752 44.3647 10.048 44.0959 9.65122 44.0959C9.17122 44.0959 8.67842 44.4607 8.67842 44.9151C8.67842 45.2031 8.83842 45.3823 9.06242 45.3823C9.60642 45.3823 9.57442 44.9215 9.46562 44.6271C9.80482 44.7807 9.99682 45.0495 9.94562 45.3311C10.1556 45.3664 10.3462 45.4753 10.4832 45.6383C10.3552 45.8047 10.1888 45.9327 9.94562 45.9391C10.0544 46.3807 9.75362 46.5663 9.46562 46.6687C9.55522 46.3487 9.61922 45.9711 9.06242 45.9711C8.65922 45.9711 8.34562 45.9071 8.16002 45.6383L8.11522 47.3663C8.08962 47.8847 8.80642 47.8783 9.26722 47.7183C9.09442 48.3135 8.74242 48.6399 7.92322 48.5567C8.04873 48.605 8.15584 48.6915 8.22937 48.8041C8.30289 48.9167 8.33909 49.0496 8.33282 49.1839C8.33282 49.6703 7.93602 50.2079 7.68002 50.3679L7.55202 45.3119V45.3055Z" fill="#FFEC2D"/>
<path d="M7.55202 41.4145C7.55202 42.7137 8.71682 43.3793 9.63202 43.3793C10.8608 43.3793 11.52 42.6433 11.52 41.6769C11.52 41.1329 11.4176 40.7873 11.168 40.2689L8.33922 34.4001C8.23674 34.1532 8.19292 33.8859 8.21122 33.6193C8.21122 33.0945 8.72322 32.6657 9.25442 32.6593C9.74082 32.6401 10.2784 33.1073 10.2784 33.6385C10.2784 34.2849 9.93922 34.5729 9.59362 34.5729C9.17122 34.5729 9.00482 34.4001 9.00482 34.0993C9.00482 33.8945 9.10082 33.8049 9.24802 33.8049C9.61282 33.8049 9.50402 34.2913 9.50402 34.2913C9.55219 34.2823 9.5978 34.2629 9.63759 34.2343C9.67738 34.2058 9.71038 34.1688 9.73422 34.126C9.75806 34.0832 9.77216 34.0357 9.77552 33.9868C9.77887 33.9379 9.77139 33.8889 9.75362 33.8433C9.89061 33.8125 10.014 33.7385 10.1056 33.6321C10.0096 33.5361 9.89442 33.4657 9.75362 33.4401C9.83682 33.1585 9.72162 33.0241 9.47842 32.9601C9.52218 33.0563 9.53341 33.1641 9.51042 33.2673C9.12642 33.1521 8.53122 33.3313 8.53122 33.9969C8.53122 34.6625 8.99202 35.2193 9.85602 35.0849C9.65122 35.1809 9.54882 35.3793 9.52322 35.6033C9.68322 35.5393 9.85602 35.5393 9.85602 35.5393C9.75362 35.7121 9.61282 35.8593 9.61922 36.2177C9.77922 36.1409 9.93282 36.0065 10.1312 36.0897C9.81122 36.7297 10.208 37.6001 11.2192 37.8049C10.848 37.3697 10.6688 36.9089 10.6688 36.4417C10.6688 34.9377 11.0848 34.6881 11.0848 33.6385C11.0782 33.395 11.0139 33.1567 10.897 32.943C10.7802 32.7294 10.6142 32.5465 10.4128 32.4097V32.4289C10.5367 32.4034 10.6537 32.3521 10.7563 32.2782C10.8589 32.2043 10.9447 32.1095 11.008 32.0001C10.2951 31.8036 9.54139 31.8102 8.83202 32.0193C8.59474 32.0528 8.36804 32.1393 8.16865 32.2722C7.96925 32.4051 7.80227 32.5811 7.68002 32.7873C7.55224 33.0788 7.48627 33.3937 7.48627 33.7121C7.48627 34.0304 7.55224 34.3453 7.68002 34.6369C8.08322 35.4689 9.96482 39.4753 10.5536 40.7297C10.6816 40.9985 10.752 41.2801 10.752 41.5873C10.752 42.3553 10.048 42.6241 9.65122 42.6241C9.17122 42.6241 8.67842 42.2593 8.67842 41.8049C8.67842 41.5169 8.83842 41.3377 9.06242 41.3377C9.60642 41.3377 9.57442 41.7985 9.46562 42.0929C9.80482 41.9393 9.99682 41.6705 9.94562 41.3889C10.1556 41.3536 10.3462 41.2447 10.4832 41.0817C10.3552 40.9153 10.1888 40.7873 9.94562 40.7809C10.0544 40.3393 9.75362 40.1537 9.46562 40.0513C9.55522 40.3713 9.61922 40.7489 9.06242 40.7489C8.65922 40.7489 8.34562 40.8129 8.16002 41.0817L8.11522 39.3537C8.08962 38.8353 8.80642 38.8417 9.26722 39.0017C9.09442 38.4065 8.74242 38.0801 7.92322 38.1633C8.04873 38.115 8.15584 38.0284 8.22937 37.9158C8.30289 37.8033 8.33909 37.6704 8.33282 37.5361C8.33282 37.0497 7.93602 36.5121 7.68002 36.3521L7.55202 41.4081V41.4145Z" fill="#FFEC2D"/>
</g>
<path d="M116.418 52L103.014 34.2017H99.3949V52H92.017V11.2727H99.3949V28.017H101.244L115.722 11.2727H124.81L108.722 29.8466L125.506 52H116.418ZM138.989 52.6165C137.053 52.6165 135.31 52.2718 133.759 51.5824C132.221 50.8797 131.001 49.8456 130.099 48.4801C129.211 47.1146 128.767 45.4309 128.767 43.429C128.767 41.7055 129.085 40.2803 129.722 39.1534C130.358 38.0265 131.226 37.125 132.327 36.4489C133.427 35.7727 134.667 35.2623 136.045 34.9176C137.438 34.5597 138.876 34.3011 140.361 34.142C142.151 33.9564 143.602 33.7907 144.716 33.6449C145.83 33.4858 146.638 33.2472 147.142 32.929C147.659 32.5975 147.918 32.0871 147.918 31.3977V31.2784C147.918 29.7803 147.473 28.6203 146.585 27.7983C145.697 26.9763 144.418 26.5653 142.747 26.5653C140.984 26.5653 139.585 26.9498 138.551 27.7188C137.53 28.4877 136.841 29.3958 136.483 30.4432L129.761 29.4886C130.292 27.6326 131.167 26.0814 132.386 24.8352C133.606 23.5758 135.098 22.6345 136.861 22.0114C138.624 21.375 140.573 21.0568 142.707 21.0568C144.179 21.0568 145.644 21.2292 147.102 21.5739C148.561 21.9186 149.893 22.4886 151.099 23.2841C152.306 24.0663 153.274 25.1335 154.003 26.4858C154.745 27.8381 155.116 29.5284 155.116 31.5568V52H148.196V47.804H147.957C147.52 48.6525 146.903 49.4479 146.108 50.1903C145.326 50.9195 144.338 51.5095 143.145 51.9602C141.965 52.3977 140.58 52.6165 138.989 52.6165ZM140.858 47.3267C142.303 47.3267 143.556 47.0417 144.616 46.4716C145.677 45.8883 146.492 45.1193 147.062 44.1648C147.646 43.2102 147.938 42.1695 147.938 41.0426V37.4432C147.712 37.6288 147.328 37.8011 146.784 37.9602C146.254 38.1193 145.657 38.2585 144.994 38.3778C144.331 38.4972 143.675 38.6032 143.026 38.696C142.376 38.7888 141.813 38.8684 141.335 38.9347C140.261 39.0805 139.3 39.3191 138.452 39.6506C137.603 39.982 136.934 40.446 136.443 41.0426C135.953 41.6259 135.707 42.3816 135.707 43.3097C135.707 44.6354 136.191 45.6364 137.159 46.3125C138.127 46.9886 139.36 47.3267 140.858 47.3267ZM160.665 43.6278H167.804C167.87 44.768 168.381 45.6496 169.335 46.2727C170.29 46.8958 171.529 47.2074 173.054 47.2074C174.605 47.2074 175.911 46.8693 176.972 46.1932C178.045 45.5038 178.582 44.4631 178.582 43.071C178.582 42.2491 178.377 41.5265 177.966 40.9034C177.555 40.267 176.978 39.7765 176.236 39.4318C175.493 39.0871 174.618 38.9148 173.611 38.9148H168.938V33.804H173.611C175.109 33.804 176.242 33.4593 177.011 32.7699C177.794 32.0805 178.185 31.2121 178.185 30.1648C178.185 29.0379 177.774 28.1231 176.952 27.4205C176.143 26.7178 175.023 26.3665 173.591 26.3665C172.159 26.3665 170.966 26.6913 170.011 27.3409C169.07 27.9905 168.58 28.8258 168.54 29.8466H161.44C161.467 28.0701 161.997 26.5256 163.031 25.2131C164.079 23.9006 165.484 22.8797 167.247 22.1506C169.024 21.4214 171.026 21.0568 173.253 21.0568C175.639 21.0568 177.701 21.4148 179.438 22.1307C181.174 22.8466 182.513 23.8475 183.455 25.1335C184.396 26.4062 184.866 27.9044 184.866 29.6278C184.866 31.285 184.349 32.6572 183.315 33.7443C182.281 34.8182 180.889 35.5871 179.139 36.0511V36.3693C180.346 36.4356 181.433 36.7803 182.401 37.4034C183.368 38.0133 184.137 38.8419 184.707 39.8892C185.277 40.9366 185.562 42.1496 185.562 43.5284C185.562 45.3977 185.026 47.0152 183.952 48.3807C182.878 49.733 181.4 50.7737 179.517 51.5028C177.648 52.232 175.507 52.5966 173.094 52.5966C170.747 52.5966 168.646 52.2453 166.79 51.5426C164.947 50.8267 163.482 49.7992 162.395 48.4602C161.308 47.1212 160.731 45.5104 160.665 43.6278ZM200.02 52.6165C198.084 52.6165 196.341 52.2718 194.79 51.5824C193.252 50.8797 192.032 49.8456 191.131 48.4801C190.242 47.1146 189.798 45.4309 189.798 43.429C189.798 41.7055 190.116 40.2803 190.753 39.1534C191.389 38.0265 192.258 37.125 193.358 36.4489C194.458 35.7727 195.698 35.2623 197.077 34.9176C198.469 34.5597 199.907 34.3011 201.392 34.142C203.182 33.9564 204.634 33.7907 205.747 33.6449C206.861 33.4858 207.67 33.2472 208.173 32.929C208.69 32.5975 208.949 32.0871 208.949 31.3977V31.2784C208.949 29.7803 208.505 28.6203 207.616 27.7983C206.728 26.9763 205.449 26.5653 203.778 26.5653C202.015 26.5653 200.616 26.9498 199.582 27.7188C198.562 28.4877 197.872 29.3958 197.514 30.4432L190.793 29.4886C191.323 27.6326 192.198 26.0814 193.418 24.8352C194.637 23.5758 196.129 22.6345 197.892 22.0114C199.655 21.375 201.604 21.0568 203.739 21.0568C205.21 21.0568 206.675 21.2292 208.134 21.5739C209.592 21.9186 210.924 22.4886 212.131 23.2841C213.337 24.0663 214.305 25.1335 215.034 26.4858C215.777 27.8381 216.148 29.5284 216.148 31.5568V52H209.227V47.804H208.989C208.551 48.6525 207.935 49.4479 207.139 50.1903C206.357 50.9195 205.369 51.5095 204.176 51.9602C202.996 52.3977 201.611 52.6165 200.02 52.6165ZM201.889 47.3267C203.334 47.3267 204.587 47.0417 205.648 46.4716C206.708 45.8883 207.524 45.1193 208.094 44.1648C208.677 43.2102 208.969 42.1695 208.969 41.0426V37.4432C208.743 37.6288 208.359 37.8011 207.815 37.9602C207.285 38.1193 206.688 38.2585 206.026 38.3778C205.363 38.4972 204.706 38.6032 204.057 38.696C203.407 38.7888 202.844 38.8684 202.366 38.9347C201.293 39.0805 200.331 39.3191 199.483 39.6506C198.634 39.982 197.965 40.446 197.474 41.0426C196.984 41.6259 196.739 42.3816 196.739 43.3097C196.739 44.6354 197.223 45.6364 198.19 46.3125C199.158 46.9886 200.391 47.3267 201.889 47.3267ZM229.273 21.4545L235.438 32.7301L241.702 21.4545H249.318L240.111 36.7273L249.477 52H241.901L235.438 41.0028L229.034 52H221.398L230.705 36.7273L221.636 21.4545H229.273ZM267.062 52.5966C264.013 52.5966 261.394 51.9271 259.207 50.5881C257.032 49.2491 255.355 47.3996 254.175 45.0398C253.009 42.6667 252.425 39.9356 252.425 36.8466C252.425 33.7443 253.022 31.0066 254.215 28.6335C255.408 26.2472 257.092 24.3911 259.266 23.0653C261.454 21.7263 264.039 21.0568 267.022 21.0568C269.501 21.0568 271.695 21.5142 273.604 22.429C275.527 23.3305 277.058 24.6098 278.198 26.267C279.338 27.911 279.988 29.8333 280.147 32.0341H273.266C272.988 30.5625 272.325 29.3362 271.278 28.3551C270.244 27.3608 268.858 26.8636 267.121 26.8636C265.65 26.8636 264.357 27.2614 263.244 28.0568C262.13 28.839 261.262 29.9659 260.638 31.4375C260.029 32.9091 259.724 34.6723 259.724 36.7273C259.724 38.8087 260.029 40.5985 260.638 42.0966C261.248 43.5814 262.103 44.7282 263.204 45.5369C264.317 46.3324 265.623 46.7301 267.121 46.7301C268.182 46.7301 269.13 46.5312 269.965 46.1335C270.814 45.7225 271.523 45.1326 272.093 44.3636C272.663 43.5947 273.054 42.66 273.266 41.5597H280.147C279.975 43.7206 279.338 45.6364 278.238 47.3068C277.138 48.964 275.639 50.2633 273.744 51.2045C271.848 52.1326 269.621 52.5966 267.062 52.5966ZM283.841 27.3608V21.4545H310.568V27.3608H300.685V52H293.724V27.3608H283.841ZM323.832 52.6165C321.897 52.6165 320.153 52.2718 318.602 51.5824C317.064 50.8797 315.845 49.8456 314.943 48.4801C314.055 47.1146 313.611 45.4309 313.611 43.429C313.611 41.7055 313.929 40.2803 314.565 39.1534C315.202 38.0265 316.07 37.125 317.17 36.4489C318.271 35.7727 319.51 35.2623 320.889 34.9176C322.281 34.5597 323.72 34.3011 325.205 34.142C326.994 33.9564 328.446 33.7907 329.56 33.6449C330.673 33.4858 331.482 33.2472 331.986 32.929C332.503 32.5975 332.761 32.0871 332.761 31.3977V31.2784C332.761 29.7803 332.317 28.6203 331.429 27.7983C330.541 26.9763 329.261 26.5653 327.591 26.5653C325.828 26.5653 324.429 26.9498 323.395 27.7188C322.374 28.4877 321.685 29.3958 321.327 30.4432L314.605 29.4886C315.135 27.6326 316.01 26.0814 317.23 24.8352C318.45 23.5758 319.941 22.6345 321.705 22.0114C323.468 21.375 325.417 21.0568 327.551 21.0568C329.023 21.0568 330.488 21.2292 331.946 21.5739C333.404 21.9186 334.737 22.4886 335.943 23.2841C337.15 24.0663 338.117 25.1335 338.847 26.4858C339.589 27.8381 339.96 29.5284 339.96 31.5568V52H333.04V47.804H332.801C332.364 48.6525 331.747 49.4479 330.952 50.1903C330.17 50.9195 329.182 51.5095 327.989 51.9602C326.809 52.3977 325.423 52.6165 323.832 52.6165ZM325.702 47.3267C327.147 47.3267 328.4 47.0417 329.46 46.4716C330.521 45.8883 331.336 45.1193 331.906 44.1648C332.49 43.2102 332.781 42.1695 332.781 41.0426V37.4432C332.556 37.6288 332.171 37.8011 331.628 37.9602C331.098 38.1193 330.501 38.2585 329.838 38.3778C329.175 38.4972 328.519 38.6032 327.869 38.696C327.22 38.7888 326.656 38.8684 326.179 38.9347C325.105 39.0805 324.144 39.3191 323.295 39.6506C322.447 39.982 321.777 40.446 321.287 41.0426C320.796 41.6259 320.551 42.3816 320.551 43.3097C320.551 44.6354 321.035 45.6364 322.003 46.3125C322.971 46.9886 324.204 47.3267 325.702 47.3267ZM368.179 33.7443V39.6506H351.912V33.7443H368.179ZM354.139 21.4545V52H347.199V21.4545H354.139ZM372.892 21.4545V52H365.972V21.4545H372.892ZM388.965 52.6165C387.03 52.6165 385.286 52.2718 383.735 51.5824C382.197 50.8797 380.978 49.8456 380.076 48.4801C379.188 47.1146 378.744 45.4309 378.744 43.429C378.744 41.7055 379.062 40.2803 379.698 39.1534C380.335 38.0265 381.203 37.125 382.303 36.4489C383.404 35.7727 384.643 35.2623 386.022 34.9176C387.414 34.5597 388.853 34.3011 390.337 34.142C392.127 33.9564 393.579 33.7907 394.692 33.6449C395.806 33.4858 396.615 33.2472 397.119 32.929C397.636 32.5975 397.894 32.0871 397.894 31.3977V31.2784C397.894 29.7803 397.45 28.6203 396.562 27.7983C395.674 26.9763 394.394 26.5653 392.724 26.5653C390.96 26.5653 389.562 26.9498 388.528 27.7188C387.507 28.4877 386.817 29.3958 386.46 30.4432L379.738 29.4886C380.268 27.6326 381.143 26.0814 382.363 24.8352C383.583 23.5758 385.074 22.6345 386.837 22.0114C388.601 21.375 390.549 21.0568 392.684 21.0568C394.156 21.0568 395.621 21.2292 397.079 21.5739C398.537 21.9186 399.87 22.4886 401.076 23.2841C402.282 24.0663 403.25 25.1335 403.979 26.4858C404.722 27.8381 405.093 29.5284 405.093 31.5568V52H398.173V47.804H397.934C397.496 48.6525 396.88 49.4479 396.085 50.1903C395.302 50.9195 394.315 51.5095 393.121 51.9602C391.942 52.3977 390.556 52.6165 388.965 52.6165ZM390.835 47.3267C392.28 47.3267 393.532 47.0417 394.593 46.4716C395.654 45.8883 396.469 45.1193 397.039 44.1648C397.622 43.2102 397.914 42.1695 397.914 41.0426V37.4432C397.689 37.6288 397.304 37.8011 396.761 37.9602C396.23 38.1193 395.634 38.2585 394.971 38.3778C394.308 38.4972 393.652 38.6032 393.002 38.696C392.353 38.7888 391.789 38.8684 391.312 38.9347C390.238 39.0805 389.277 39.3191 388.428 39.6506C387.58 39.982 386.91 40.446 386.42 41.0426C385.929 41.6259 385.684 42.3816 385.684 43.3097C385.684 44.6354 386.168 45.6364 387.136 46.3125C388.103 46.9886 389.336 47.3267 390.835 47.3267Z" fill="white"/>
<defs>
<clipPath id="clip0_2046_1178">
<rect width="64" height="64" rx="16" fill="white"/>
</clipPath>
</defs>
</svg>
