<svg width="210" height="50" viewBox="0 0 210 50" fill="none" xmlns="http://www.w3.org/2000/svg">
<path d="M112.159 8H110.045C109.92 7.39205 109.702 6.85795 109.389 6.39773C109.082 5.9375 108.707 5.55114 108.264 5.23864C107.827 4.92045 107.341 4.68182 106.807 4.52273C106.273 4.36364 105.716 4.28409 105.136 4.28409C104.08 4.28409 103.122 4.55114 102.264 5.08523C101.412 5.61932 100.733 6.40625 100.227 7.44602C99.7273 8.4858 99.4773 9.76136 99.4773 11.2727C99.4773 12.7841 99.7273 14.0597 100.227 15.0994C100.733 16.1392 101.412 16.9261 102.264 17.4602C103.122 17.9943 104.08 18.2614 105.136 18.2614C105.716 18.2614 106.273 18.1818 106.807 18.0227C107.341 17.8636 107.827 17.6278 108.264 17.3153C108.707 16.9972 109.082 16.608 109.389 16.1477C109.702 15.6818 109.92 15.1477 110.045 14.5455H112.159C112 15.4375 111.71 16.2358 111.29 16.9403C110.869 17.6449 110.347 18.2443 109.722 18.7386C109.097 19.2273 108.395 19.5994 107.616 19.8551C106.844 20.1108 106.017 20.2386 105.136 20.2386C103.648 20.2386 102.324 19.875 101.165 19.1477C100.006 18.4205 99.0938 17.3864 98.429 16.0455C97.7642 14.7045 97.4318 13.1136 97.4318 11.2727C97.4318 9.43182 97.7642 7.84091 98.429 6.5C99.0938 5.15909 100.006 4.125 101.165 3.39773C102.324 2.67045 103.648 2.30682 105.136 2.30682C106.017 2.30682 106.844 2.43466 107.616 2.69034C108.395 2.94602 109.097 3.32102 109.722 3.81534C110.347 4.30398 110.869 4.90057 111.29 5.60511C111.71 6.30398 112 7.10227 112.159 8ZM120.79 20.2727C119.529 20.2727 118.441 19.9943 117.526 19.4375C116.617 18.875 115.915 18.0909 115.421 17.0852C114.933 16.0739 114.688 14.8977 114.688 13.5568C114.688 12.2159 114.933 11.0341 115.421 10.0114C115.915 8.98295 116.603 8.18182 117.484 7.60795C118.37 7.02841 119.404 6.73864 120.586 6.73864C121.268 6.73864 121.941 6.85227 122.606 7.07954C123.271 7.30682 123.876 7.67614 124.421 8.1875C124.967 8.69318 125.401 9.36364 125.725 10.1989C126.049 11.0341 126.211 12.0625 126.211 13.2841V14.1364H116.12V12.3977H124.165C124.165 11.6591 124.018 11 123.722 10.4205C123.433 9.84091 123.018 9.38352 122.478 9.0483C121.944 8.71307 121.313 8.54545 120.586 8.54545C119.785 8.54545 119.092 8.74432 118.506 9.14205C117.927 9.53409 117.481 10.0455 117.168 10.6761C116.856 11.3068 116.7 11.983 116.7 12.7045V13.8636C116.7 14.8523 116.87 15.6903 117.211 16.3778C117.558 17.0597 118.038 17.5795 118.651 17.9375C119.265 18.2898 119.978 18.4659 120.79 18.4659C121.319 18.4659 121.796 18.392 122.222 18.2443C122.654 18.0909 123.026 17.8636 123.339 17.5625C123.651 17.2557 123.893 16.875 124.063 16.4205L126.006 16.9659C125.802 17.625 125.458 18.2045 124.975 18.7045C124.492 19.1989 123.896 19.5852 123.185 19.8636C122.475 20.1364 121.677 20.2727 120.79 20.2727ZM136.43 17.2727L140.998 6.90909H142.907L137.248 20H135.612L130.055 6.90909H131.93L136.43 17.2727ZM131.282 6.90909V20H129.271V6.90909H131.282ZM141.577 20V6.90909H143.589V20H141.577ZM152.759 20.2727C151.498 20.2727 150.41 19.9943 149.495 19.4375C148.586 18.875 147.884 18.0909 147.39 17.0852C146.901 16.0739 146.657 14.8977 146.657 13.5568C146.657 12.2159 146.901 11.0341 147.39 10.0114C147.884 8.98295 148.572 8.18182 149.452 7.60795C150.339 7.02841 151.373 6.73864 152.555 6.73864C153.237 6.73864 153.91 6.85227 154.575 7.07954C155.239 7.30682 155.844 7.67614 156.39 8.1875C156.935 8.69318 157.37 9.36364 157.694 10.1989C158.018 11.0341 158.18 12.0625 158.18 13.2841V14.1364H148.089V12.3977H156.134C156.134 11.6591 155.987 11 155.691 10.4205C155.401 9.84091 154.987 9.38352 154.447 9.0483C153.913 8.71307 153.282 8.54545 152.555 8.54545C151.754 8.54545 151.06 8.74432 150.475 9.14205C149.896 9.53409 149.45 10.0455 149.137 10.6761C148.825 11.3068 148.668 11.983 148.668 12.7045V13.8636C148.668 14.8523 148.839 15.6903 149.18 16.3778C149.526 17.0597 150.006 17.5795 150.62 17.9375C151.234 18.2898 151.947 18.4659 152.759 18.4659C153.288 18.4659 153.765 18.392 154.191 18.2443C154.623 18.0909 154.995 17.8636 155.308 17.5625C155.62 17.2557 155.862 16.875 156.032 16.4205L157.975 16.9659C157.771 17.625 157.427 18.2045 156.944 18.7045C156.461 19.1989 155.864 19.5852 155.154 19.8636C154.444 20.1364 153.646 20.2727 152.759 20.2727ZM149.998 4.72727C149.64 4.72727 149.322 4.59091 149.043 4.31818C148.771 4.03977 148.634 3.72159 148.634 3.36364C148.634 2.97159 148.771 2.64773 149.043 2.39204C149.322 2.13068 149.64 2 149.998 2C150.39 2 150.714 2.13068 150.969 2.39204C151.231 2.64773 151.362 2.97159 151.362 3.36364C151.362 3.72159 151.231 4.03977 150.969 4.31818C150.714 4.59091 150.39 4.72727 149.998 4.72727ZM154.907 4.72727C154.549 4.72727 154.231 4.59091 153.952 4.31818C153.68 4.03977 153.543 3.72159 153.543 3.36364C153.543 2.97159 153.68 2.64773 153.952 2.39204C154.231 2.13068 154.549 2 154.907 2C155.299 2 155.623 2.13068 155.879 2.39204C156.14 2.64773 156.271 2.97159 156.271 3.36364C156.271 3.72159 156.14 4.03977 155.879 4.31818C155.623 4.59091 155.299 4.72727 154.907 4.72727ZM170.001 12.5341V14.4091H162.773V12.5341H170.001ZM163.251 6.90909V20H161.239V6.90909H163.251ZM171.535 6.90909V20H169.523V6.90909H171.535ZM111.17 28.5455V46H109.057V30.4205H100.261V46H98.1477V28.5455H111.17ZM120.65 46.2727C119.388 46.2727 118.3 45.9943 117.386 45.4375C116.477 44.875 115.775 44.0909 115.281 43.0852C114.792 42.0739 114.548 40.8977 114.548 39.5568C114.548 38.2159 114.792 37.0341 115.281 36.0114C115.775 34.983 116.462 34.1818 117.343 33.608C118.229 33.0284 119.263 32.7386 120.445 32.7386C121.127 32.7386 121.8 32.8523 122.465 33.0795C123.13 33.3068 123.735 33.6761 124.281 34.1875C124.826 34.6932 125.261 35.3636 125.585 36.1989C125.908 37.0341 126.07 38.0625 126.07 39.2841V40.1364H115.979V38.3977H124.025C124.025 37.6591 123.877 37 123.582 36.4205C123.292 35.8409 122.877 35.3835 122.337 35.0483C121.803 34.7131 121.173 34.5455 120.445 34.5455C119.644 34.5455 118.951 34.7443 118.366 35.142C117.786 35.5341 117.34 36.0455 117.028 36.6761C116.715 37.3068 116.559 37.983 116.559 38.7045V39.8636C116.559 40.8523 116.729 41.6903 117.07 42.3778C117.417 43.0597 117.897 43.5795 118.511 43.9375C119.124 44.2898 119.837 44.4659 120.65 44.4659C121.178 44.4659 121.656 44.392 122.082 44.2443C122.513 44.0909 122.886 43.8636 123.198 43.5625C123.511 43.2557 123.752 42.875 123.923 42.4205L125.866 42.9659C125.661 43.625 125.317 44.2045 124.835 44.7045C124.352 45.1989 123.755 45.5852 123.045 45.8636C122.335 46.1364 121.536 46.2727 120.65 46.2727ZM139.221 32.9091V46H137.21V32.9091H139.221ZM138.437 39.1477V41.0227C137.982 41.1932 137.531 41.3438 137.082 41.4744C136.633 41.5994 136.161 41.6989 135.667 41.7727C135.173 41.8409 134.63 41.875 134.039 41.875C132.556 41.875 131.366 41.4744 130.468 40.6733C129.576 39.8722 129.13 38.6705 129.13 37.0682V32.875H131.141V37.0682C131.141 37.7386 131.269 38.2898 131.525 38.7216C131.781 39.1534 132.127 39.4744 132.565 39.6847C133.002 39.8949 133.494 40 134.039 40C134.891 40 135.661 39.9233 136.349 39.7699C137.042 39.6108 137.738 39.4034 138.437 39.1477ZM151.673 38.5341V40.4091H144.445V38.5341H151.673ZM144.923 32.9091V46H142.911V32.9091H144.923ZM153.207 32.9091V46H151.195V32.9091H153.207ZM158.891 43.0341L165.198 32.9091H167.516V46H165.505V35.875L159.232 46H156.88V32.9091H158.891V43.0341ZM171.2 46V32.9091H173.212V38.6023H174.541L179.246 32.9091H181.837L176.553 39.2159L181.905 46H179.314L175.018 40.4773H173.212V46H171.2ZM188.87 46.2727C187.688 46.2727 186.651 45.9915 185.759 45.429C184.873 44.8665 184.18 44.0795 183.68 43.0682C183.185 42.0568 182.938 40.875 182.938 39.5227C182.938 38.1591 183.185 36.9687 183.68 35.9517C184.18 34.9347 184.873 34.1449 185.759 33.5824C186.651 33.0199 187.688 32.7386 188.87 32.7386C190.052 32.7386 191.086 33.0199 191.972 33.5824C192.864 34.1449 193.558 34.9347 194.052 35.9517C194.552 36.9687 194.802 38.1591 194.802 39.5227C194.802 40.875 194.552 42.0568 194.052 43.0682C193.558 44.0795 192.864 44.8665 191.972 45.429C191.086 45.9915 190.052 46.2727 188.87 46.2727ZM188.87 44.4659C189.768 44.4659 190.506 44.2358 191.086 43.7756C191.665 43.3153 192.094 42.7102 192.373 41.9602C192.651 41.2102 192.79 40.3977 192.79 39.5227C192.79 38.6477 192.651 37.8324 192.373 37.0767C192.094 36.321 191.665 35.7102 191.086 35.2443C190.506 34.7784 189.768 34.5455 188.87 34.5455C187.972 34.5455 187.234 34.7784 186.654 35.2443C186.075 35.7102 185.646 36.321 185.367 37.0767C185.089 37.8324 184.95 38.6477 184.95 39.5227C184.95 40.3977 185.089 41.2102 185.367 41.9602C185.646 42.7102 186.075 43.3153 186.654 43.7756C187.234 44.2358 187.972 44.4659 188.87 44.4659ZM197.872 46V32.9091H203.224C204.634 32.9091 205.753 33.2273 206.582 33.8636C207.412 34.5 207.827 35.3409 207.827 36.3864C207.827 37.1818 207.591 37.7983 207.119 38.2358C206.648 38.6676 206.043 38.9602 205.304 39.1136C205.787 39.1818 206.256 39.3523 206.71 39.625C207.17 39.8977 207.551 40.2727 207.852 40.75C208.153 41.2216 208.304 41.8011 208.304 42.4886C208.304 43.1591 208.134 43.7585 207.793 44.2869C207.452 44.8153 206.963 45.233 206.327 45.5398C205.69 45.8466 204.929 46 204.043 46H197.872ZM199.781 44.1591H204.043C204.736 44.1591 205.278 43.9943 205.67 43.6648C206.063 43.3352 206.259 42.8864 206.259 42.3182C206.259 41.642 206.063 41.1108 205.67 40.7244C205.278 40.3324 204.736 40.1364 204.043 40.1364H199.781V44.1591ZM199.781 38.3977H203.224C203.764 38.3977 204.227 38.3239 204.614 38.1761C205 38.0227 205.295 37.8068 205.5 37.5284C205.71 37.2443 205.815 36.9091 205.815 36.5227C205.815 35.9716 205.585 35.5398 205.125 35.2273C204.665 34.9091 204.031 34.75 203.224 34.75H199.781V38.3977Z" fill="white"/>
<g clip-path="url(#clip0_94_17228)">
<mask id="mask0_94_17228" style="mask-type:luminance" maskUnits="userSpaceOnUse" x="1" y="8" width="83" height="38">
<path d="M83.4632 8H1.27692V46H83.4632V8Z" fill="white"/>
</mask>
<g mask="url(#mask0_94_17228)">
<path d="M68.4172 7.9997C65.7772 8.0017 63.1843 8.65256 60.8983 9.88702C58.6123 11.1215 56.7136 12.8961 55.3927 15.033C54.0741 12.8945 52.1763 11.1184 49.8902 9.88344C47.604 8.64851 45.0103 7.99832 42.3701 7.99832C39.7298 7.99832 37.1361 8.64851 34.85 9.88344C32.5638 11.1184 30.666 12.8945 29.3474 15.033C27.6919 12.3514 25.1361 10.2555 22.0764 9.07045C19.0167 7.88543 15.6242 7.67757 12.4253 8.47909C9.22636 9.28062 6.39975 11.0467 4.38402 13.5034C2.36829 15.9601 1.27611 18.9701 1.27692 22.0663V45.9997H5.32749V31.6576C6.7329 33.0708 8.4348 34.1978 10.3269 34.9686C12.2191 35.7393 14.2609 36.137 16.3248 36.137C18.3887 36.137 20.4305 35.7393 22.3227 34.9686C24.2149 34.1978 25.9168 33.0708 27.3222 31.6576V36.1537H31.3727V22.0663C31.4254 19.3721 32.6073 16.8049 34.664 14.917C36.7206 13.0291 39.4878 11.9713 42.3701 11.9713C45.2523 11.9713 48.0195 13.0291 50.0762 14.917C52.1328 16.8049 53.3147 19.3721 53.3674 22.0663V36.1537H57.418V22.0663C57.418 19.3391 58.5768 16.7235 60.6396 14.7951C62.7023 12.8666 65.5 11.7832 68.4172 11.7832C71.3343 11.7832 74.132 12.8666 76.1948 14.7951C78.2575 16.7235 79.4163 19.3391 79.4163 22.0663V36.1537H83.4669V22.0663C83.4612 18.3367 81.8734 14.7615 79.0522 12.1246C76.231 9.48762 72.4064 8.00425 68.4172 7.9997ZM16.3267 32.3496C14.1511 32.3503 12.0241 31.7478 10.2149 30.6182C8.40557 29.4887 6.9952 27.8829 6.16213 26.004C5.32907 24.125 5.11072 22.0573 5.53471 20.0623C5.9587 18.0674 7.00598 16.2347 8.5441 14.7963C10.0822 13.3578 12.0421 12.3781 14.1758 11.981C16.3095 11.584 18.5213 11.7874 20.5313 12.5656C22.5414 13.3438 24.2595 14.6618 25.4682 16.353C26.677 18.0441 27.3222 20.0324 27.3222 22.0663C27.3192 24.7922 26.16 27.4056 24.0987 29.3335C22.0373 31.2613 19.2423 32.3459 16.3267 32.3496Z" fill="white"/>
<path d="M29.8742 44.1166H28.2319V42.9014H27.8121V45.8586H28.2319V44.4643H29.8742V45.8586H30.294V42.9014H29.8742V44.1166Z" fill="white"/>
<path d="M43.4509 43.0461C43.2125 42.9144 42.9399 42.8466 42.6629 42.8499C42.4576 42.8415 42.2528 42.8742 42.0622 42.9461C41.8716 43.0179 41.6998 43.1272 41.5582 43.2665C41.2616 43.5846 41.1097 43.9984 41.1347 44.4198C41.1349 44.6749 41.1966 44.9268 41.3152 45.1565C41.4325 45.3845 41.6179 45.5759 41.8491 45.7073C42.0899 45.8437 42.3667 45.9141 42.6482 45.9104C42.917 45.9113 43.1818 45.8485 43.4178 45.728C43.6539 45.6042 43.8451 45.4172 43.9665 45.1909C44.0991 44.9407 44.166 44.6646 44.1616 44.3853C44.1659 44.1106 44.1029 43.8386 43.9775 43.5901C43.8625 43.3646 43.6794 43.1756 43.4509 43.0461ZM43.4509 45.2632C43.3525 45.3648 43.2319 45.4454 43.0971 45.4995C42.9624 45.5535 42.8169 45.5798 42.6703 45.5766C42.5257 45.5797 42.3821 45.5536 42.2493 45.5002C42.1165 45.4467 41.9976 45.367 41.9007 45.2667C41.6838 45.0354 41.5728 44.7337 41.5914 44.4267C41.573 44.2557 41.592 44.0831 41.647 43.9191C41.7021 43.7553 41.7921 43.6035 41.9117 43.473C42.0127 43.3801 42.1324 43.307 42.2638 43.258C42.3953 43.2089 42.536 43.1849 42.6776 43.1873C42.8773 43.1837 43.0738 43.2353 43.2422 43.3358C43.4106 43.4362 43.5434 43.581 43.624 43.7519C43.7166 43.9504 43.7618 44.1654 43.7565 44.3819C43.7744 44.7032 43.6597 45.0186 43.4362 45.2632H43.4509Z" fill="white"/>
<path d="M54.7556 43.2525H55.7977V45.8586H56.2174V43.2525H57.2632V42.9014H54.7556V43.2525Z" fill="white"/>
<path d="M68.4026 44.5056H70.1517V44.1579H68.4026V43.2525H70.2732V42.9014H67.9865V45.8586H70.3469V45.5109H68.4026V44.5056Z" fill="white"/>
<path d="M81.6067 45.5109V42.9014H81.1905V45.8586H83.1642V45.5109H81.6067Z" fill="white"/>
</g>
</g>
<defs>
<clipPath id="clip0_94_17228">
<rect width="83" height="38" fill="white" transform="translate(0 8)"/>
</clipPath>
</defs>
</svg>
