<svg width="291" height="64" viewBox="0 0 291 64" fill="none" xmlns="http://www.w3.org/2000/svg">
<g clip-path="url(#clip0_2046_1152)">
<path fill-rule="evenodd" clip-rule="evenodd" d="M0 0H64V64H0V0Z" fill="white"/>
<path fill-rule="evenodd" clip-rule="evenodd" d="M0 21.3374H64V63.9999H0V21.3374Z" fill="#0039A6"/>
<path fill-rule="evenodd" clip-rule="evenodd" d="M0 42.6626H64V64.0001H0V42.6626Z" fill="#D52B1E"/>
</g>
<path d="M92.017 52V11.2727H107.29C110.419 11.2727 113.044 11.8561 115.165 13.0227C117.299 14.1894 118.91 15.7936 119.997 17.8352C121.098 19.8636 121.648 22.1705 121.648 24.7557C121.648 27.3674 121.098 29.6875 119.997 31.7159C118.897 33.7443 117.273 35.3419 115.125 36.5085C112.977 37.6619 110.332 38.2386 107.19 38.2386H97.0682V32.1733H106.196C108.026 32.1733 109.524 31.8551 110.69 31.2188C111.857 30.5824 112.719 29.7074 113.276 28.5938C113.846 27.4801 114.131 26.2008 114.131 24.7557C114.131 23.3106 113.846 22.0379 113.276 20.9375C112.719 19.8371 111.85 18.982 110.67 18.3722C109.504 17.7491 107.999 17.4375 106.156 17.4375H99.3949V52H92.017ZM140.624 52.5966C137.641 52.5966 135.056 51.9403 132.869 50.6278C130.681 49.3153 128.984 47.4792 127.778 45.1193C126.585 42.7595 125.988 40.0019 125.988 36.8466C125.988 33.6913 126.585 30.9271 127.778 28.554C128.984 26.1809 130.681 24.3381 132.869 23.0256C135.056 21.7131 137.641 21.0568 140.624 21.0568C143.607 21.0568 146.192 21.7131 148.38 23.0256C150.567 24.3381 152.258 26.1809 153.451 28.554C154.657 30.9271 155.261 33.6913 155.261 36.8466C155.261 40.0019 154.657 42.7595 153.451 45.1193C152.258 47.4792 150.567 49.3153 148.38 50.6278C146.192 51.9403 143.607 52.5966 140.624 52.5966ZM140.664 46.8295C142.281 46.8295 143.634 46.3854 144.721 45.4972C145.808 44.5956 146.617 43.3892 147.147 41.8778C147.691 40.3665 147.962 38.6828 147.962 36.8267C147.962 34.9574 147.691 33.267 147.147 31.7557C146.617 30.2311 145.808 29.018 144.721 28.1165C143.634 27.215 142.281 26.7642 140.664 26.7642C139.007 26.7642 137.628 27.215 136.528 28.1165C135.441 29.018 134.625 30.2311 134.082 31.7557C133.551 33.267 133.286 34.9574 133.286 36.8267C133.286 38.6828 133.551 40.3665 134.082 41.8778C134.625 43.3892 135.441 44.5956 136.528 45.4972C137.628 46.3854 139.007 46.8295 140.664 46.8295ZM174.695 52.5966C171.645 52.5966 169.027 51.9271 166.839 50.5881C164.665 49.2491 162.988 47.3996 161.808 45.0398C160.642 42.6667 160.058 39.9356 160.058 36.8466C160.058 33.7443 160.655 31.0066 161.848 28.6335C163.041 26.2472 164.725 24.3911 166.899 23.0653C169.087 21.7263 171.672 21.0568 174.655 21.0568C177.134 21.0568 179.328 21.5142 181.237 22.429C183.16 23.3305 184.691 24.6098 185.831 26.267C186.971 27.911 187.621 29.8333 187.78 32.0341H180.899C180.621 30.5625 179.958 29.3362 178.911 28.3551C177.876 27.3608 176.491 26.8636 174.754 26.8636C173.283 26.8636 171.99 27.2614 170.876 28.0568C169.763 28.839 168.894 29.9659 168.271 31.4375C167.661 32.9091 167.357 34.6723 167.357 36.7273C167.357 38.8087 167.661 40.5985 168.271 42.0966C168.881 43.5814 169.736 44.7282 170.837 45.5369C171.95 46.3324 173.256 46.7301 174.754 46.7301C175.815 46.7301 176.763 46.5312 177.598 46.1335C178.446 45.7225 179.156 45.1326 179.726 44.3636C180.296 43.5947 180.687 42.66 180.899 41.5597H187.78C187.607 43.7206 186.971 45.6364 185.871 47.3068C184.77 48.964 183.272 50.2633 181.376 51.2045C179.481 52.1326 177.253 52.5966 174.695 52.5966ZM207.015 52.5966C203.966 52.5966 201.347 51.9271 199.16 50.5881C196.986 49.2491 195.308 47.3996 194.129 45.0398C192.962 42.6667 192.379 39.9356 192.379 36.8466C192.379 33.7443 192.975 31.0066 194.168 28.6335C195.362 26.2472 197.045 24.3911 199.219 23.0653C201.407 21.7263 203.992 21.0568 206.975 21.0568C209.454 21.0568 211.648 21.5142 213.558 22.429C215.48 23.3305 217.011 24.6098 218.151 26.267C219.291 27.911 219.941 29.8333 220.1 32.0341H213.219C212.941 30.5625 212.278 29.3362 211.231 28.3551C210.197 27.3608 208.811 26.8636 207.075 26.8636C205.603 26.8636 204.31 27.2614 203.197 28.0568C202.083 28.839 201.215 29.9659 200.592 31.4375C199.982 32.9091 199.677 34.6723 199.677 36.7273C199.677 38.8087 199.982 40.5985 200.592 42.0966C201.201 43.5814 202.057 44.7282 203.157 45.5369C204.271 46.3324 205.576 46.7301 207.075 46.7301C208.135 46.7301 209.083 46.5312 209.918 46.1335C210.767 45.7225 211.476 45.1326 212.046 44.3636C212.616 43.5947 213.007 42.66 213.219 41.5597H220.1C219.928 43.7206 219.291 45.6364 218.191 47.3068C217.091 48.964 215.593 50.2633 213.697 51.2045C211.801 52.1326 209.574 52.5966 207.015 52.5966ZM232.952 42.2557L245.182 21.4545H252.58V52H245.619V31.179L233.429 52H226.011V21.4545H232.952V42.2557ZM266.913 42.2557L279.143 21.4545H286.54V52H279.58V31.179L267.39 52H259.972V21.4545H266.913V42.2557Z" fill="white"/>
<defs>
<clipPath id="clip0_2046_1152">
<rect width="64" height="64" rx="16" fill="white"/>
</clipPath>
</defs>
</svg>
