<svg width="64" height="64" viewBox="0 0 64 64" fill="none" xmlns="http://www.w3.org/2000/svg">
<path d="M40 2H12C8.68629 2 6 4.68629 6 8V28C6 31.3137 8.68629 34 12 34H40C43.3137 34 46 31.3137 46 28V8C46 4.68629 43.3137 2 40 2Z" fill="#515151"/>
<g filter="url(#filter0_b_119_9727)">
<path d="M41.6667 39.6667C50.135 39.6667 57 32.8017 57 24.3333C57 15.865 50.135 9 41.6667 9C33.1983 9 26.3333 15.865 26.3333 24.3333C26.3333 25.0327 26.3802 25.7212 26.4708 26.3958C26.62 27.5053 26.6946 28.0601 26.6444 28.411C26.5921 28.7767 26.5255 28.9735 26.3453 29.296C26.1723 29.6054 25.8675 29.9103 25.2578 30.5201L12.1976 43.5802C11.7556 44.0221 11.5346 44.2432 11.3766 44.501C11.2365 44.7297 11.1332 44.9789 11.0706 45.2398C11 45.534 11 45.8465 11 46.4713V50.9111C11 52.3425 11 53.058 11.2785 53.6047C11.5236 54.0856 11.9145 54.4764 12.3954 54.7214C12.942 55 13.6576 55 15.0889 55H19.5286C20.1536 55 20.4661 55 20.7603 54.9295C21.021 54.8669 21.2703 54.7636 21.4989 54.6233C21.7568 54.4654 21.9778 54.2443 22.4198 53.8025L35.4799 40.7423C36.0897 40.1325 36.3946 39.8277 36.704 39.6547C37.0265 39.4745 37.2233 39.4078 37.589 39.3557C37.9399 39.3053 38.4947 39.3799 39.6043 39.5292C40.2787 39.6199 40.9672 39.6667 41.6667 39.6667Z" fill="url(#paint0_radial_119_9727)" fill-opacity="0.4"/>
<path d="M26.7818 29.5398L26.7818 29.5399C26.5744 29.9109 26.2238 30.2614 25.6767 30.8083C25.6552 30.8298 25.6334 30.8515 25.6113 30.8736L25.6113 30.8736L12.5512 43.9338L12.5511 43.9339C12.0924 44.3924 11.9229 44.5666 11.8029 44.7622C11.6902 44.9463 11.6072 45.1467 11.5568 45.3565L11.5568 45.3565C11.5032 45.5798 11.5 45.8227 11.5 46.4713V50.9111C11.5 51.635 11.5004 52.1479 11.5332 52.5489C11.5654 52.9442 11.6267 53.1866 11.724 53.3777L11.724 53.3777C11.9211 53.7645 12.2355 54.0788 12.6224 54.276L26.7818 29.5398ZM26.7818 29.5398C26.9919 29.1638 27.0783 28.9084 27.1394 28.4818C27.1734 28.244 27.1617 27.9677 27.1301 27.6398C27.0981 27.3091 27.0411 26.8852 26.9678 26.3393L26.9664 26.3291L26.4708 26.3958M26.7818 29.5398L26.4708 26.3958M26.4708 26.3958L26.9664 26.3291C26.8787 25.6766 26.8333 25.0104 26.8333 24.3333C26.8333 16.1411 33.4745 9.5 41.6667 9.5C49.8589 9.5 56.5 16.1411 56.5 24.3333C56.5 32.5255 49.8589 39.1667 41.6667 39.1667C40.9895 39.1667 40.3233 39.1214 39.671 39.0336L39.6043 39.5292L39.671 39.0336L39.6599 39.0321C39.1144 38.9588 38.6908 38.9018 38.3602 38.8699C38.0323 38.8382 37.7559 38.8266 37.518 38.8607C37.5182 38.8607 37.5183 38.8607 37.5185 38.8607L26.4708 26.3958ZM21.2374 54.1971L21.2378 54.1969C21.4334 54.0771 21.6074 53.9077 22.0663 53.4489C22.0663 53.4489 22.0663 53.4489 22.0663 53.4489L21.2374 54.1971ZM21.2374 54.1971C21.0537 54.3099 20.8533 54.3929 20.6435 54.4433C20.4203 54.4968 20.1773 54.5 19.5286 54.5H15.0889C14.365 54.5 13.8522 54.4996 13.4511 54.4668M21.2374 54.1971L13.4511 54.4668M13.4511 54.4668C13.0559 54.4346 12.8135 54.3733 12.6224 54.276L13.4511 54.4668Z" stroke="url(#paint1_linear_119_9727)" stroke-miterlimit="10" stroke-linecap="round" stroke-linejoin="round"/>
</g>
<path d="M36.7574 19.7574L36.7575 19.7573C39.1004 17.4142 42.8996 17.4142 45.2425 19.7573L45.2426 19.7574C47.5858 22.1005 47.5858 25.8995 45.2426 28.2425L45.2425 28.2426C42.8996 30.5858 39.1004 30.5858 36.7575 28.2426L36.7574 28.2425C34.4142 25.8995 34.4142 22.1005 36.7574 19.7574Z" stroke="white" stroke-width="2" stroke-miterlimit="10" stroke-linecap="round" stroke-linejoin="round"/>
<defs>
<filter id="filter0_b_119_9727" x="-4.27595" y="-6.27595" width="76.5519" height="76.5519" filterUnits="userSpaceOnUse" color-interpolation-filters="sRGB">
<feFlood flood-opacity="0" result="BackgroundImageFix"/>
<feGaussianBlur in="BackgroundImageFix" stdDeviation="7.63798"/>
<feComposite in2="SourceAlpha" operator="in" result="effect1_backgroundBlur_119_9727"/>
<feBlend mode="normal" in="SourceGraphic" in2="effect1_backgroundBlur_119_9727" result="shape"/>
</filter>
<radialGradient id="paint0_radial_119_9727" cx="0" cy="0" r="1" gradientUnits="userSpaceOnUse" gradientTransform="translate(22.4943 28.9442) rotate(-17.8964) scale(54.0883 104.776)">
<stop stop-color="#121212"/>
<stop offset="0.749777" stop-color="#121212" stop-opacity="0.54725"/>
<stop offset="1" stop-color="#121212"/>
</radialGradient>
<linearGradient id="paint1_linear_119_9727" x1="14.7607" y1="25.7363" x2="32.0363" y2="56.1167" gradientUnits="userSpaceOnUse">
<stop stop-color="white" stop-opacity="0.64"/>
<stop offset="1" stop-color="white" stop-opacity="0.24"/>
</linearGradient>
</defs>
</svg>
