<svg width="65" height="64" viewBox="0 0 65 64" fill="none" xmlns="http://www.w3.org/2000/svg">
<path d="M39.3333 2H12.3333C9.01964 2 6.33334 4.68629 6.33334 8V47C6.33334 50.3137 9.01963 53 12.3333 53H39.3333C42.6471 53 45.3333 50.3137 45.3333 47V8C45.3333 4.68629 42.6471 2 39.3333 2Z" fill="#515151"/>
<g filter="url(#filter0_b_119_9744)">
<path d="M50.6798 19.375C46.6185 15.2007 39.9906 13 31.5106 13C23.0306 13 16.3818 15.2032 12.3257 19.375C10.8285 20.9121 9.67412 22.7363 8.93552 24.7322C8.19692 26.7281 7.89022 28.8521 8.03484 30.9698C8.13709 32.8635 8.43066 34.7427 8.91126 36.5798C9.62144 39.1806 10.8491 41.619 12.5239 43.7555C11.9878 43.9022 11.5147 44.2148 11.1756 44.6465C10.8365 45.0782 10.6497 45.6057 10.6433 46.15V53.8C10.6433 54.4763 10.9181 55.1249 11.4072 55.6031C11.8964 56.0813 12.5599 56.35 13.2517 56.35H15.8601V61.45C15.8601 62.1263 16.1349 62.7749 16.6241 63.2531C17.1132 63.7313 17.7767 64 18.4685 64C19.1603 64 19.8238 63.7313 20.3129 63.2531C20.8021 62.7749 21.0769 62.1263 21.0769 61.45V56.35H41.9443V61.45C41.9443 62.1263 42.2191 62.7749 42.7082 63.2531C43.1974 63.7313 43.8609 64 44.5527 64C45.2445 64 45.9079 63.7313 46.3971 63.2531C46.8863 62.7749 47.1611 62.1263 47.1611 61.45V56.35H49.7695C50.4613 56.35 51.1248 56.0813 51.6139 55.6031C52.1031 55.1249 52.3779 54.4763 52.3779 53.8V46.15C52.3741 45.6007 52.1864 45.0677 51.8435 44.6325C51.5006 44.1974 51.0213 43.884 50.479 43.7402C52.1537 41.6062 53.3798 39.1692 54.0864 36.5696C54.5687 34.7327 54.8632 32.8535 54.9655 30.9597C55.1093 28.8439 54.8027 26.7221 54.0651 24.7281C53.3274 22.7341 52.1747 20.9113 50.6798 19.375Z" fill="url(#paint0_radial_119_9744)" fill-opacity="0.4"/>
<path d="M12.6839 19.7239L12.6842 19.7235C16.61 15.6857 23.1031 13.5 31.5106 13.5C39.9177 13.5 46.3902 15.683 50.3215 19.7237L50.6798 19.375L50.3215 19.7237C51.7681 21.2104 52.8829 22.9736 53.5961 24.9015C54.3093 26.8295 54.6057 28.8807 54.4666 30.9257L54.4666 30.9257L54.4662 30.9327C54.3658 32.7919 54.0768 34.6368 53.6034 36.4404C52.9144 38.9742 51.719 41.3503 50.0857 43.4316C49.9818 43.5639 49.9515 43.7395 50.0049 43.899C50.0583 44.0585 50.1883 44.1805 50.3509 44.2236C50.79 44.3399 51.1758 44.5931 51.4508 44.942C51.7253 45.2903 51.8746 45.7152 51.8779 46.1519V53.8C51.8779 54.34 51.6586 54.8602 51.2644 55.2456C50.8698 55.6313 50.3323 55.85 49.7695 55.85H47.1611C46.8849 55.85 46.6611 56.0739 46.6611 56.35V61.45C46.6611 61.99 46.4418 62.5102 46.0476 62.8956C45.653 63.2813 45.1155 63.5 44.5527 63.5C43.9899 63.5 43.4523 63.2813 43.0578 62.8956C42.6636 62.5102 42.4443 61.99 42.4443 61.45V56.35C42.4443 56.0739 42.2204 55.85 41.9443 55.85H21.0769C20.8008 55.85 20.5769 56.0739 20.5769 56.35V61.45C20.5769 61.99 20.3576 62.5102 19.9634 62.8956C19.5688 63.2813 19.0313 63.5 18.4685 63.5C17.9057 63.5 17.3682 63.2813 16.9736 62.8956C16.5794 62.5102 16.3601 61.99 16.3601 61.45V56.35C16.3601 56.0739 16.1362 55.85 15.8601 55.85H13.2517C12.6889 55.85 12.1513 55.6313 11.7568 55.2456C11.3626 54.8602 11.1433 54.34 11.1433 53.8V46.1531C11.149 45.7209 11.2976 45.3006 11.5688 44.9554C11.8407 44.6091 12.2217 44.3566 12.6558 44.2378C12.8174 44.1937 12.946 44.0716 12.9986 43.9126C13.0512 43.7536 13.0207 43.5789 12.9174 43.4471C11.2839 41.3632 10.0869 38.9858 9.3943 36.4507C8.92262 34.6469 8.63449 32.802 8.53411 30.9429L8.53416 30.9429L8.53367 30.9358C8.39389 28.8888 8.69031 26.8355 9.40444 24.9057C10.1186 22.976 11.2351 21.2113 12.6839 19.7239Z" stroke="url(#paint1_linear_119_9744)" stroke-miterlimit="10" stroke-linecap="round" stroke-linejoin="round"/>
</g>
<g filter="url(#filter1_b_119_9744)">
<path d="M15.2883 21.9835C16.0305 21.2573 16.8548 20.6178 17.7438 20.076C18.8176 19.4217 20.1255 20.1486 20.3532 21.3853L23.8984 40.6378C24.1247 41.8668 23.1811 43 21.9314 43H19.2981C18.8221 43 18.3587 42.8334 18.0096 42.5098C15.6783 40.3482 13.9835 37.6213 13.1068 34.6084C12.701 33.0797 12.4515 31.5162 12.3618 29.9404C12.253 28.4908 12.4569 27.0352 12.9607 25.6656C13.4644 24.296 14.257 23.0422 15.2883 21.9835Z" stroke="white" stroke-width="2" stroke-miterlimit="10" stroke-linecap="round" stroke-linejoin="round"/>
</g>
<g filter="url(#filter2_b_119_9744)">
<path d="M48.045 21.9835C47.3028 21.2573 46.4786 20.6178 45.5895 20.076C44.5158 19.4217 43.2078 20.1486 42.9801 21.3853L39.435 40.6378C39.2087 41.8668 40.1523 43 41.4019 43H44.0353C44.5112 43 44.9747 42.8334 45.3237 42.5098C47.655 40.3482 49.3498 37.6213 50.2265 34.6084C50.6323 33.0797 50.8819 31.5162 50.9716 29.9404C51.0803 28.4908 50.8764 27.0352 50.3727 25.6656C49.8689 24.296 49.0763 23.0422 48.045 21.9835Z" stroke="white" stroke-width="2" stroke-miterlimit="10" stroke-linecap="round" stroke-linejoin="round"/>
</g>
<defs>
<filter id="filter0_b_119_9744" x="-7.27595" y="-2.27595" width="77.5519" height="81.5519" filterUnits="userSpaceOnUse" color-interpolation-filters="sRGB">
<feFlood flood-opacity="0" result="BackgroundImageFix"/>
<feGaussianBlur in="BackgroundImageFix" stdDeviation="7.63798"/>
<feComposite in2="SourceAlpha" operator="in" result="effect1_backgroundBlur_119_9744"/>
<feBlend mode="normal" in="SourceGraphic" in2="effect1_backgroundBlur_119_9744" result="shape"/>
</filter>
<filter id="filter1_b_119_9744" x="-3.94261" y="3.54485" width="44.1509" height="55.7311" filterUnits="userSpaceOnUse" color-interpolation-filters="sRGB">
<feFlood flood-opacity="0" result="BackgroundImageFix"/>
<feGaussianBlur in="BackgroundImageFix" stdDeviation="7.63798"/>
<feComposite in2="SourceAlpha" operator="in" result="effect1_backgroundBlur_119_9744"/>
<feBlend mode="normal" in="SourceGraphic" in2="effect1_backgroundBlur_119_9744" result="shape"/>
</filter>
<filter id="filter2_b_119_9744" x="23.1251" y="3.54485" width="44.1509" height="55.7311" filterUnits="userSpaceOnUse" color-interpolation-filters="sRGB">
<feFlood flood-opacity="0" result="BackgroundImageFix"/>
<feGaussianBlur in="BackgroundImageFix" stdDeviation="7.63798"/>
<feComposite in2="SourceAlpha" operator="in" result="effect1_backgroundBlur_119_9744"/>
<feBlend mode="normal" in="SourceGraphic" in2="effect1_backgroundBlur_119_9744" result="shape"/>
</filter>
<radialGradient id="paint0_radial_119_9744" cx="0" cy="0" r="1" gradientUnits="userSpaceOnUse" gradientTransform="translate(19.7442 35.1121) rotate(-19.3107) scale(55.7252 115.203)">
<stop stop-color="#121212"/>
<stop offset="0.749777" stop-color="#121212" stop-opacity="0.54725"/>
<stop offset="1" stop-color="#121212"/>
</radialGradient>
<linearGradient id="paint1_linear_119_9744" x1="11.8424" y1="31.5555" x2="31.7621" y2="63.8382" gradientUnits="userSpaceOnUse">
<stop stop-color="white" stop-opacity="0.64"/>
<stop offset="1" stop-color="white" stop-opacity="0.24"/>
</linearGradient>
</defs>
</svg>
