<svg width="64" height="64" viewBox="0 0 64 64" fill="none" xmlns="http://www.w3.org/2000/svg">
<circle cx="41" cy="54" r="10" fill="#515151"/>
<path d="M23.0729 37.6499H40.9268" stroke="white" stroke-width="3.81899" stroke-miterlimit="10" stroke-linecap="round" stroke-linejoin="round"/>
<g filter="url(#filter0_b_119_9617)">
<path fill-rule="evenodd" clip-rule="evenodd" d="M30.1838 1C26.6181 1 23.4624 3.43966 22.764 6.94134L22.5627 7.95047C22.0848 10.3465 19.4301 11.9206 16.8419 11.057L15.8317 10.72C12.457 9.59399 8.68032 10.9096 6.84668 13.96L5.03069 16.9811C3.17969 20.0605 3.8838 23.9601 6.64536 26.2532L7.45447 26.925C9.42017 28.5573 9.42017 31.4427 7.45447 33.075L6.64536 33.7468C3.8838 36.0398 3.17969 39.9394 5.03069 43.0187L6.8466 46.0398C8.68029 49.0903 12.4571 50.4059 15.8318 49.28L16.8417 48.9428C19.43 48.0791 22.0849 49.6532 22.5627 52.0493L22.764 53.0585C23.4624 56.5602 26.6181 59 30.1838 59H33.8159C37.382 59 40.5375 56.5602 41.236 53.0583L41.4371 52.0496C41.9149 49.6534 44.5697 48.0791 47.1582 48.9428L48.1682 49.28C51.5429 50.4059 55.3197 49.0903 57.1535 46.0398L58.9694 43.019C60.8204 39.9397 60.1161 36.0398 57.3545 33.7468L56.5454 33.075C54.5795 31.4429 54.5795 28.5571 56.5454 26.925L57.3545 26.2532C60.1161 23.9602 60.8204 20.0604 58.9694 16.9811L57.1535 13.96C55.3197 10.9096 51.5431 9.59396 48.1684 10.7199L47.1579 11.057C44.5697 11.9206 41.9149 10.3464 41.4371 7.95034L41.236 6.94162C40.5375 3.43981 37.382 1 33.8159 1H30.1838Z" fill="url(#paint0_radial_119_9617)" fill-opacity="0.4"/>
<path d="M23.1869 8.07497L22.5627 7.95047L23.1869 8.07496L23.3882 7.06584C24.0237 3.87974 26.9029 1.6365 30.1838 1.6365H33.8159C37.0971 1.6365 39.9763 3.87987 40.6118 7.06612L40.8129 8.07478C41.3696 10.867 44.4278 12.639 47.3593 11.6608L48.3699 11.3237C51.473 10.2883 54.9339 11.5032 56.6079 14.2879L58.4238 17.309C60.1094 20.1132 59.4728 23.667 56.948 25.7635C56.948 25.7635 56.9479 25.7635 56.9479 25.7635L56.1388 26.4353L56.5454 26.925L56.1388 26.4353C53.8664 28.3219 53.8664 31.6781 56.1388 33.5647L56.9479 34.2365C59.4728 36.333 60.1094 39.8869 58.4238 42.6911L56.6079 45.7118C54.9339 48.4967 51.4728 49.7115 48.3697 48.6762C48.3697 48.6762 48.3696 48.6762 48.3696 48.6762L47.3597 48.3391L47.3596 48.339C44.4278 47.3608 41.3696 49.1329 40.8129 51.9251L40.6118 52.9338C40.6118 52.9338 40.6118 52.9338 40.6118 52.9338C39.9762 56.1202 37.0971 58.3635 33.8159 58.3635H30.1838C26.903 58.3635 24.0237 56.1202 23.3882 52.934L22.764 53.0585L23.3882 52.934L23.1869 51.9248C22.6301 49.1326 19.5719 47.3608 16.6403 48.339L16.6402 48.3391L15.6304 48.6762C15.6304 48.6762 15.6303 48.6762 15.6303 48.6762C12.5271 49.7115 9.06611 48.4967 7.39213 45.7119L5.57622 42.6908L5.03069 43.0187L5.57621 42.6908C3.89061 39.8867 4.52713 36.333 7.05196 34.2365L7.86107 33.5647L7.8611 33.5647C10.1333 31.6779 10.1333 28.3221 7.8611 26.4353L7.86107 26.4353L7.05198 25.7635C7.05197 25.7635 7.05197 25.7635 7.05196 25.7635C4.52712 23.667 3.89061 20.1132 5.57621 17.3091L7.39221 14.288C9.06616 11.5032 12.5271 10.2884 15.6302 11.3237L16.6404 11.6608L16.8419 11.057L16.6404 11.6608C19.572 12.639 22.63 10.8671 23.1869 8.07497Z" stroke="url(#paint1_linear_119_9617)" stroke-width="1.273" stroke-miterlimit="10" stroke-linecap="round" stroke-linejoin="round"/>
</g>
<circle cx="32" cy="30" r="10" stroke="white" stroke-width="2"/>
<defs>
<filter id="filter0_b_119_9617" x="-11.276" y="-14.276" width="86.5519" height="88.5519" filterUnits="userSpaceOnUse" color-interpolation-filters="sRGB">
<feFlood flood-opacity="0" result="BackgroundImageFix"/>
<feGaussianBlur in="BackgroundImageFix" stdDeviation="7.63798"/>
<feComposite in2="SourceAlpha" operator="in" result="effect1_backgroundBlur_119_9617"/>
<feBlend mode="normal" in="SourceGraphic" in2="effect1_backgroundBlur_119_9617" result="shape"/>
</filter>
<radialGradient id="paint0_radial_119_9617" cx="0" cy="0" r="1" gradientUnits="userSpaceOnUse" gradientTransform="translate(17.9931 26.1471) rotate(-18.4927) scale(66.0723 131.657)">
<stop stop-color="#121212"/>
<stop offset="0.749777" stop-color="#121212" stop-opacity="0.54725"/>
<stop offset="1" stop-color="#121212"/>
</radialGradient>
<linearGradient id="paint1_linear_119_9617" x1="8.57821" y1="22.1023" x2="30.7446" y2="59.7394" gradientUnits="userSpaceOnUse">
<stop stop-color="white" stop-opacity="0.64"/>
<stop offset="1" stop-color="white" stop-opacity="0.24"/>
</linearGradient>
</defs>
</svg>
