<svg width="64" height="64" viewBox="0 0 64 64" fill="none" xmlns="http://www.w3.org/2000/svg">
<path d="M39 2H12C8.68629 2 6 4.68629 6 8V47C6 50.3137 8.68629 53 12 53H39C42.3137 53 45 50.3137 45 47V8C45 4.68629 42.3137 2 39 2Z" fill="#515151"/>
<g filter="url(#filter0_b_119_9599)">
<path d="M51 11H25C21.134 11 18 14.134 18 18V55C18 58.866 21.134 62 25 62H51C54.866 62 58 58.866 58 55V18C58 14.134 54.866 11 51 11Z" fill="url(#paint0_radial_119_9599)" fill-opacity="0.4"/>
<path d="M25 11.5H51C54.5899 11.5 57.5 14.4101 57.5 18V55C57.5 58.5899 54.5899 61.5 51 61.5H25C21.4101 61.5 18.5 58.5899 18.5 55V18C18.5 14.4101 21.4101 11.5 25 11.5Z" stroke="url(#paint1_linear_119_9599)" stroke-miterlimit="10" stroke-linecap="round" stroke-linejoin="round"/>
</g>
<path d="M29 23H47" stroke="white" stroke-width="3.22" stroke-miterlimit="10" stroke-linecap="round" stroke-linejoin="round"/>
<path d="M29 32.333H47" stroke="white" stroke-width="3.22" stroke-miterlimit="10" stroke-linecap="round" stroke-linejoin="round"/>
<path d="M29 41.6672H47" stroke="white" stroke-width="3.22" stroke-miterlimit="10" stroke-linecap="round" stroke-linejoin="round"/>
<path d="M29 51H47" stroke="white" stroke-width="3.22" stroke-miterlimit="10" stroke-linecap="round" stroke-linejoin="round"/>
<defs>
<filter id="filter0_b_119_9599" x="2.72405" y="-4.27595" width="70.5519" height="81.5519" filterUnits="userSpaceOnUse" color-interpolation-filters="sRGB">
<feFlood flood-opacity="0" result="BackgroundImageFix"/>
<feGaussianBlur in="BackgroundImageFix" stdDeviation="7.63798"/>
<feComposite in2="SourceAlpha" operator="in" result="effect1_backgroundBlur_119_9599"/>
<feBlend mode="normal" in="SourceGraphic" in2="effect1_backgroundBlur_119_9599" result="shape"/>
</filter>
<radialGradient id="paint0_radial_119_9599" cx="0" cy="0" r="1" gradientUnits="userSpaceOnUse" gradientTransform="translate(27.9951 33.1121) rotate(-22.3782) scale(48.4027 112.878)">
<stop stop-color="#121212"/>
<stop offset="0.749777" stop-color="#121212" stop-opacity="0.54725"/>
<stop offset="1" stop-color="#121212"/>
</radialGradient>
<linearGradient id="paint1_linear_119_9599" x1="21.2702" y1="29.5555" x2="42.4526" y2="58.7718" gradientUnits="userSpaceOnUse">
<stop stop-color="white" stop-opacity="0.64"/>
<stop offset="1" stop-color="white" stop-opacity="0.24"/>
</linearGradient>
</defs>
</svg>
