<svg width="64" height="64" viewBox="0 0 64 64" fill="none" xmlns="http://www.w3.org/2000/svg">
<path d="M52 52.8551L52 56C52 58.2092 50.2091 60 48 60H31.8086H16C13.7909 60 12 58.2091 12 56V52.3978V48C12 45.7909 13.7909 44 16 44H48C50.2091 44 52 45.7909 52 48V52.8551Z" fill="#515151"/>
<g filter="url(#filter0_b_118_4399)">
<path d="M56.5 9.25H52.125C51.1585 9.25 50.375 8.4665 50.375 7.5C50.375 5.56537 48.8096 4 46.875 4H17.125C15.1904 4 13.625 5.56537 13.625 7.5C13.625 8.4665 12.8415 9.25 11.875 9.25H7.5C5.56538 9.25 4 10.8154 4 12.75V19.75C4 25.0656 8.30938 29.375 13.625 29.375C13.6726 29.375 13.7124 29.4115 13.7171 29.4589C14.3761 36.0994 18.5754 41.6901 24.3994 44.3371C27.1165 45.5721 29.375 48.0079 29.375 50.9925V53H23.25C21.3154 53 19.75 54.5654 19.75 56.5V59.125C19.75 59.6089 20.1411 60 20.625 60H43.375C43.8589 60 44.25 59.6089 44.25 59.125V56.5C44.25 54.5654 42.6846 53 40.75 53H34.625V50.9925C34.625 48.0079 36.8835 45.5721 39.6006 44.3371C45.4246 41.6901 49.6239 36.0994 50.2829 29.4589C50.2876 29.4115 50.3274 29.375 50.375 29.375C55.6906 29.375 60 25.0656 60 19.75V12.75C60 10.8154 58.4346 9.25 56.5 9.25ZM9.25 19.75V16.6875C9.25 15.4794 10.2294 14.5 11.4375 14.5C12.6456 14.5 13.625 15.4794 13.625 16.6875V24.125C11.2083 24.125 9.25 22.1667 9.25 19.75ZM54.75 19.75C54.75 20.4648 54.5787 21.1395 54.2748 21.7353C53.0674 24.1031 50.375 21.9704 50.375 19.3125V16.6875C50.375 15.4794 51.3544 14.5 52.5625 14.5C53.7706 14.5 54.75 15.4794 54.75 16.6875V19.75Z" fill="url(#paint0_radial_118_4399)" fill-opacity="0.4"/>
<path d="M29.375 53.5C29.6511 53.5 29.875 53.2761 29.875 53V50.9925C29.875 47.7388 27.4242 45.1627 24.6063 43.8819C18.9396 41.3064 14.8555 35.8672 14.2147 29.4095C14.185 29.1099 13.9332 28.875 13.625 28.875C8.58552 28.875 4.5 24.7895 4.5 19.75V12.75C4.5 11.0915 5.84152 9.75 7.5 9.75H11.875C13.1176 9.75 14.125 8.74264 14.125 7.5C14.125 5.84152 15.4665 4.5 17.125 4.5H46.875C48.5335 4.5 49.875 5.84152 49.875 7.5C49.875 8.74264 50.8824 9.75 52.125 9.75H56.5C58.1585 9.75 59.5 11.0915 59.5 12.75V19.75C59.5 24.7895 55.4145 28.875 50.375 28.875C50.0668 28.875 49.8151 29.1099 49.7853 29.4095C49.1445 35.8672 45.0604 41.3064 39.3937 43.8819C36.5758 45.1627 34.125 47.7388 34.125 50.9925V53C34.125 53.2761 34.3489 53.5 34.625 53.5H40.75C42.4085 53.5 43.75 54.8415 43.75 56.5V59.125C43.75 59.3327 43.5827 59.5 43.375 59.5H20.625C20.4173 59.5 20.25 59.3327 20.25 59.125V56.5C20.25 54.8415 21.5915 53.5 23.25 53.5H29.375ZM13.625 24.625C13.9011 24.625 14.125 24.4011 14.125 24.125V16.6875C14.125 15.2032 12.9218 14 11.4375 14C9.95324 14 8.75 15.2032 8.75 16.6875V19.75C8.75 22.4429 10.9321 24.625 13.625 24.625ZM54.7203 21.9625C55.0592 21.298 55.25 20.5456 55.25 19.75V16.6875C55.25 15.2032 54.0468 14 52.5625 14C51.0782 14 49.875 15.2032 49.875 16.6875V19.3125C49.875 20.7942 50.6195 22.1507 51.5879 22.8199C52.077 23.1579 52.6665 23.3471 53.262 23.2181C53.8684 23.0867 54.3698 22.6498 54.7203 21.9625Z" stroke="url(#paint1_linear_118_4399)" stroke-miterlimit="10" stroke-linecap="round" stroke-linejoin="round"/>
</g>
<path d="M41.6431 20.8071L37.7101 24.8419L38.6414 30.5482C38.7189 31.0208 38.5177 31.496 38.1276 31.7723C37.9126 31.9223 37.6588 31.9998 37.4063 31.9998C37.1987 31.9998 36.99 31.9486 36.8012 31.8435L31.9993 29.1892L27.1974 31.8435C26.7773 32.0761 26.2623 32.0473 25.871 31.771C25.4797 31.4947 25.2796 31.0196 25.3571 30.547L26.2885 24.8406L22.3555 20.8059C22.0279 20.4695 21.9154 19.9807 22.0654 19.5356C22.2155 19.0905 22.5993 18.7679 23.0618 18.6966L28.4488 17.8739L30.8691 12.7189C31.0754 12.2788 31.5167 12 32.0005 12C32.4843 12 32.9257 12.2801 33.1319 12.7189L35.5523 17.8739L40.9392 18.6966C41.4018 18.7679 41.7868 19.0905 41.9356 19.5356C42.0844 19.9807 41.9706 20.4708 41.6431 20.8071Z" stroke="white" stroke-width="2" stroke-linecap="round"/>
<defs>
<filter id="filter0_b_118_4399" x="-11.276" y="-11.276" width="86.5519" height="86.5519" filterUnits="userSpaceOnUse" color-interpolation-filters="sRGB">
<feFlood flood-opacity="0" result="BackgroundImageFix"/>
<feGaussianBlur in="BackgroundImageFix" stdDeviation="7.63798"/>
<feComposite in2="SourceAlpha" operator="in" result="effect1_backgroundBlur_118_4399"/>
<feBlend mode="normal" in="SourceGraphic" in2="effect1_backgroundBlur_118_4399" result="shape"/>
</filter>
<radialGradient id="paint0_radial_118_4399" cx="0" cy="0" r="1" gradientUnits="userSpaceOnUse" gradientTransform="translate(17.9931 28.2799) rotate(-17.8964) scale(65.8466 127.553)">
<stop stop-color="#121212"/>
<stop offset="0.749777" stop-color="#121212" stop-opacity="0.54725"/>
<stop offset="1" stop-color="#121212"/>
</radialGradient>
<linearGradient id="paint1_linear_118_4399" x1="8.57821" y1="24.3747" x2="29.6094" y2="61.3594" gradientUnits="userSpaceOnUse">
<stop stop-color="white" stop-opacity="0.64"/>
<stop offset="1" stop-color="white" stop-opacity="0.24"/>
</linearGradient>
</defs>
</svg>
