<svg width="24" height="24" viewBox="0 0 24 24" fill="none" xmlns="http://www.w3.org/2000/svg">
<path fill-rule="evenodd" clip-rule="evenodd" d="M21 6C21 4.34315 19.6569 3 18 3H6C4.34315 3 3 4.34315 3 6V15C3 16.6569 4.34315 18 6 18H9L12 21L15 18H18C19.6569 18 21 16.6569 21 15V6ZM10.5101 7.32507C10.5967 6.57906 11.2307 6 12 6C12.8284 6 13.5 6.67157 13.5 7.5V9H15L15.1749 9.01009C15.9209 9.09674 16.5 9.73075 16.5 10.5C16.5 11.3284 15.8284 12 15 12H13.5V13.5L13.4899 13.6749C13.4033 14.4209 12.7693 15 12 15C11.1716 15 10.5 14.3284 10.5 13.5V12H9L8.82507 11.9899C8.07906 11.9033 7.5 11.2693 7.5 10.5C7.5 9.67157 8.17157 9 9 9H10.5V7.5L10.5101 7.32507Z" fill="white"/>
</svg>
