<svg width="168" height="24" viewBox="0 0 168 24" fill="none" xmlns="http://www.w3.org/2000/svg">
<g filter="url(#filter0_b_94_15624)">
<path d="M23.5717 10.5686L18.8521 15.4102L19.9697 22.2579C20.0627 22.825 19.8212 23.3952 19.3531 23.7267C19.0951 23.9068 18.7906 23.9998 18.4875 23.9998C18.2385 23.9998 17.9879 23.9383 17.7614 23.8123L11.9991 20.627L6.23686 23.8123C5.7328 24.0913 5.11471 24.0568 4.64515 23.7252C4.17559 23.3937 3.93555 22.8235 4.02857 22.2564L5.14622 15.4087L0.426585 10.5671C0.0335319 10.1635 -0.101487 9.57681 0.0785371 9.04268C0.258561 8.50855 0.719125 8.12146 1.2742 8.03594L7.73857 7.0487L10.643 0.862709C10.8905 0.334582 11.4201 0 12.0006 0C12.5812 0 13.1108 0.336082 13.3583 0.862709L16.2627 7.0487L22.7271 8.03594C23.2822 8.12146 23.7442 8.50855 23.9227 9.04268C24.1013 9.57681 23.9647 10.165 23.5717 10.5686Z" fill="white"/>
</g>
<g filter="url(#filter1_b_94_15624)">
<path d="M59.5717 10.5686L54.8521 15.4102L55.9697 22.2579C56.0627 22.825 55.8212 23.3952 55.3531 23.7267C55.0951 23.9068 54.7906 23.9998 54.4875 23.9998C54.2385 23.9998 53.9879 23.9383 53.7614 23.8123L47.9991 20.627L42.2369 23.8123C41.7328 24.0913 41.1147 24.0568 40.6452 23.7252C40.1756 23.3937 39.9356 22.8235 40.0286 22.2564L41.1462 15.4087L36.4266 10.5671C36.0335 10.1635 35.8985 9.57681 36.0785 9.04268C36.2586 8.50855 36.7191 8.12146 37.2742 8.03594L43.7386 7.0487L46.643 0.862709C46.8905 0.334582 47.4201 0 48.0006 0C48.5812 0 49.1108 0.336082 49.3583 0.862709L52.2627 7.0487L58.7271 8.03594C59.2822 8.12146 59.7442 8.50855 59.9227 9.04268C60.1013 9.57681 59.9647 10.165 59.5717 10.5686Z" fill="white"/>
</g>
<g filter="url(#filter2_b_94_15624)">
<path d="M95.5717 10.5686L90.8521 15.4102L91.9697 22.2579C92.0627 22.825 91.8212 23.3952 91.3531 23.7267C91.0951 23.9068 90.7906 23.9998 90.4875 23.9998C90.2385 23.9998 89.9879 23.9383 89.7614 23.8123L83.9991 20.627L78.2369 23.8123C77.7328 24.0913 77.1147 24.0568 76.6452 23.7252C76.1756 23.3937 75.9356 22.8235 76.0286 22.2564L77.1462 15.4087L72.4266 10.5671C72.0335 10.1635 71.8985 9.57681 72.0785 9.04268C72.2586 8.50855 72.7191 8.12146 73.2742 8.03594L79.7386 7.0487L82.643 0.862709C82.8905 0.334582 83.4201 0 84.0006 0C84.5812 0 85.1108 0.336082 85.3583 0.862709L88.2627 7.0487L94.7271 8.03594C95.2822 8.12146 95.7442 8.50855 95.9227 9.04268C96.1013 9.57681 95.9647 10.165 95.5717 10.5686Z" fill="white"/>
</g>
<g filter="url(#filter3_b_94_15624)">
<path d="M131.572 10.5686L126.852 15.4102L127.97 22.2579C128.063 22.825 127.821 23.3952 127.353 23.7267C127.095 23.9068 126.791 23.9998 126.488 23.9998C126.238 23.9998 125.988 23.9383 125.761 23.8123L119.999 20.627L114.237 23.8123C113.733 24.0913 113.115 24.0568 112.645 23.7252C112.176 23.3937 111.936 22.8235 112.029 22.2564L113.146 15.4087L108.427 10.5671C108.034 10.1635 107.899 9.57681 108.079 9.04268C108.259 8.50855 108.719 8.12146 109.274 8.03594L115.739 7.0487L118.643 0.862709C118.89 0.334582 119.42 0 120.001 0C120.581 0 121.111 0.336082 121.358 0.862709L124.263 7.0487L130.727 8.03594C131.282 8.12146 131.744 8.50855 131.923 9.04268C132.101 9.57681 131.965 10.165 131.572 10.5686Z" fill="white"/>
</g>
<g filter="url(#filter4_b_94_15624)">
<path d="M167.572 10.5686L162.852 15.4102L163.97 22.2579C164.063 22.825 163.821 23.3952 163.353 23.7267C163.095 23.9068 162.791 23.9998 162.488 23.9998C162.238 23.9998 161.988 23.9383 161.761 23.8123L155.999 20.627L150.237 23.8123C149.733 24.0913 149.115 24.0568 148.645 23.7252C148.176 23.3937 147.936 22.8235 148.029 22.2564L149.146 15.4087L144.427 10.5671C144.034 10.1635 143.899 9.57681 144.079 9.04268C144.259 8.50855 144.719 8.12146 145.274 8.03594L151.739 7.0487L154.643 0.862709C154.89 0.334582 155.42 0 156.001 0C156.581 0 157.111 0.336082 157.358 0.862709L160.263 7.0487L166.727 8.03594C167.282 8.12146 167.744 8.50855 167.923 9.04268C168.101 9.57681 167.965 10.165 167.572 10.5686Z" fill="white"/>
</g>
<defs>
<filter id="filter0_b_94_15624" x="-15.276" y="-15.276" width="54.5519" height="54.5519" filterUnits="userSpaceOnUse" color-interpolation-filters="sRGB">
<feFlood flood-opacity="0" result="BackgroundImageFix"/>
<feGaussianBlur in="BackgroundImageFix" stdDeviation="7.63798"/>
<feComposite in2="SourceAlpha" operator="in" result="effect1_backgroundBlur_94_15624"/>
<feBlend mode="normal" in="SourceGraphic" in2="effect1_backgroundBlur_94_15624" result="shape"/>
</filter>
<filter id="filter1_b_94_15624" x="20.724" y="-15.276" width="54.5519" height="54.5519" filterUnits="userSpaceOnUse" color-interpolation-filters="sRGB">
<feFlood flood-opacity="0" result="BackgroundImageFix"/>
<feGaussianBlur in="BackgroundImageFix" stdDeviation="7.63798"/>
<feComposite in2="SourceAlpha" operator="in" result="effect1_backgroundBlur_94_15624"/>
<feBlend mode="normal" in="SourceGraphic" in2="effect1_backgroundBlur_94_15624" result="shape"/>
</filter>
<filter id="filter2_b_94_15624" x="56.724" y="-15.276" width="54.5519" height="54.5519" filterUnits="userSpaceOnUse" color-interpolation-filters="sRGB">
<feFlood flood-opacity="0" result="BackgroundImageFix"/>
<feGaussianBlur in="BackgroundImageFix" stdDeviation="7.63798"/>
<feComposite in2="SourceAlpha" operator="in" result="effect1_backgroundBlur_94_15624"/>
<feBlend mode="normal" in="SourceGraphic" in2="effect1_backgroundBlur_94_15624" result="shape"/>
</filter>
<filter id="filter3_b_94_15624" x="92.724" y="-15.276" width="54.5519" height="54.5519" filterUnits="userSpaceOnUse" color-interpolation-filters="sRGB">
<feFlood flood-opacity="0" result="BackgroundImageFix"/>
<feGaussianBlur in="BackgroundImageFix" stdDeviation="7.63798"/>
<feComposite in2="SourceAlpha" operator="in" result="effect1_backgroundBlur_94_15624"/>
<feBlend mode="normal" in="SourceGraphic" in2="effect1_backgroundBlur_94_15624" result="shape"/>
</filter>
<filter id="filter4_b_94_15624" x="128.724" y="-15.276" width="54.5519" height="54.5519" filterUnits="userSpaceOnUse" color-interpolation-filters="sRGB">
<feFlood flood-opacity="0" result="BackgroundImageFix"/>
<feGaussianBlur in="BackgroundImageFix" stdDeviation="7.63798"/>
<feComposite in2="SourceAlpha" operator="in" result="effect1_backgroundBlur_94_15624"/>
<feBlend mode="normal" in="SourceGraphic" in2="effect1_backgroundBlur_94_15624" result="shape"/>
</filter>
</defs>
</svg>
