<svg width="308" height="70" viewBox="0 0 308 70" fill="none" xmlns="http://www.w3.org/2000/svg">
<g clip-path="url(#clip0_104_3737)">
<path fill-rule="evenodd" clip-rule="evenodd" d="M87.0846 2.09078C91.2939 3.24318 94.6022 6.6263 95.7288 10.9313C97.765 18.7265 97.7732 35 97.7732 35C97.7732 35 97.7732 51.2736 95.7288 59.0688C94.6022 63.3738 91.2939 66.7569 87.0846 67.9091C79.463 70 48.8864 70 48.8864 70C48.8864 70 18.3103 70 10.6884 67.9091C6.47905 66.7569 3.17111 63.3738 2.04432 59.0688C0 51.2736 0 35 0 35C0 35 0 18.7265 2.04432 10.9313C3.17111 6.6263 6.47905 3.24318 10.6884 2.09078C18.3103 0 48.8864 0 48.8864 0C48.8864 0 79.463 0 87.0846 2.09078ZM64.501 35.0014L39.0999 49.9989V20.0037L64.501 35.0014Z" fill="#121212"/>
<path d="M118.417 45.5126L107.439 4.9646H117.017L120.864 23.3453C121.846 27.8726 122.562 31.7332 123.029 34.9269H123.311C123.633 32.6386 124.357 28.8028 125.476 23.4112L129.46 4.9646H139.037L127.922 45.5126V64.9635H118.409V45.5126H118.417Z" fill="#121212"/>
<path d="M141.919 63.678C139.987 62.3445 138.611 60.27 137.79 57.455C136.977 54.6399 136.567 50.903 136.567 46.2273V39.8643C136.567 35.1477 137.033 31.3532 137.967 28.4969C138.9 25.6406 140.357 23.5498 142.337 22.241C144.317 20.9322 146.917 20.2737 150.136 20.2737C153.307 20.2737 155.843 20.9404 157.758 22.2739C159.665 23.6074 161.066 25.6982 161.951 28.5298C162.837 31.3696 163.279 35.1477 163.279 39.8643V46.2273C163.279 50.903 162.845 54.6563 161.984 57.4879C161.122 60.3278 159.722 62.4022 157.79 63.7108C155.859 65.0199 153.235 65.6782 149.927 65.6782C146.514 65.6862 143.85 65.0115 141.919 63.678ZM152.752 56.813C153.283 55.3808 153.557 53.0513 153.557 49.8081V36.1522C153.557 33.0077 153.291 30.7029 152.752 29.2542C152.213 27.7972 151.271 27.0729 149.919 27.0729C148.615 27.0729 147.689 27.7972 147.158 29.2542C146.619 30.7111 146.353 33.0077 146.353 36.1522V49.8081C146.353 53.0513 146.611 55.3889 147.126 56.813C147.641 58.2453 148.567 58.9613 149.919 58.9613C151.271 58.9613 152.213 58.2453 152.752 56.813Z" fill="#121212"/>
<path d="M194.435 64.9719H186.886L186.048 59.605H185.839C183.787 63.6548 180.712 65.6796 176.608 65.6796C173.766 65.6796 171.666 64.7248 170.314 62.8236C168.962 60.9136 168.285 57.9341 168.285 53.8842V21.1313H177.936V53.3078C177.936 55.2671 178.145 56.658 178.563 57.4896C178.982 58.3208 179.682 58.7405 180.664 58.7405C181.501 58.7405 182.306 58.4773 183.079 57.9505C183.851 57.4234 184.415 56.7567 184.793 55.9503V21.123H194.435V64.9719Z" fill="#121212"/>
<path d="M220.649 12.9065H211.072V64.9702H201.631V12.9065H192.053V4.97144H220.649V12.9065Z" fill="#121212"/>
<path d="M243.925 64.9719H236.376L235.539 59.605H235.329C233.277 63.6548 230.203 65.6796 226.098 65.6796C223.257 65.6796 221.156 64.7248 219.804 62.8236C218.452 60.9136 217.776 57.9341 217.776 53.8842V21.1313H227.426V53.3078C227.426 55.2671 227.635 56.658 228.053 57.4896C228.472 58.3208 229.172 58.7405 230.154 58.7405C230.991 58.7405 231.796 58.4773 232.569 57.9505C233.341 57.4234 233.905 56.7567 234.283 55.9503V21.123H243.925V64.9719Z" fill="#121212"/>
<path d="M275.862 28.1354C275.274 25.3697 274.333 23.3695 273.029 22.1265C271.725 20.8836 269.93 20.2662 267.644 20.2662C265.874 20.2662 264.216 20.7766 262.678 21.8055C261.141 22.8344 259.95 24.1761 259.113 25.8471H259.041V2.74976H249.745V64.9628H257.713L258.694 60.8142H258.904C259.652 62.2958 260.771 63.4564 262.26 64.3209C263.749 65.177 265.407 65.6051 267.226 65.6051C270.486 65.6051 272.892 64.0658 274.429 60.9952C275.967 57.9166 276.739 53.1178 276.739 46.5822V39.6431C276.739 34.7453 276.441 30.9012 275.862 28.1354ZM267.016 46.0222C267.016 49.216 266.888 51.7184 266.63 53.5294C266.373 55.3402 265.946 56.6328 265.334 57.3899C264.731 58.1553 263.91 58.534 262.888 58.534C262.091 58.534 261.359 58.3447 260.682 57.9579C260.006 57.5792 259.459 57.0031 259.041 56.2457V31.3622C259.362 30.1686 259.926 29.1973 260.723 28.4318C261.512 27.6663 262.381 27.2876 263.306 27.2876C264.288 27.2876 265.045 27.6827 265.576 28.4647C266.115 29.2549 266.485 30.572 266.695 32.4323C266.904 34.2925 267.009 36.9348 267.009 40.3672V46.0222H267.016Z" fill="#121212"/>
<path d="M290.429 48.5492C290.429 51.3643 290.51 53.4716 290.671 54.8793C290.832 56.2867 291.17 57.3076 291.685 57.9579C292.2 58.5998 292.989 58.9208 294.059 58.9208C295.5 58.9208 296.498 58.3447 297.029 57.2005C297.568 56.0564 297.858 54.1468 297.906 51.4798L306.229 51.9817C306.277 52.3604 306.301 52.8871 306.301 53.5539C306.301 57.6037 305.214 60.633 303.049 62.6332C300.885 64.6335 297.818 65.6376 293.858 65.6376C289.101 65.6376 285.769 64.1148 283.862 61.061C281.946 58.0073 280.997 53.2907 280.997 46.9028V39.2476C280.997 32.6708 281.987 27.8637 283.966 24.8345C285.947 21.8054 289.335 20.2908 294.14 20.2908C297.448 20.2908 299.991 20.9081 301.762 22.1511C303.532 23.394 304.78 25.3202 305.504 27.946C306.229 30.5718 306.591 34.1936 306.591 38.8196V46.3267H290.429V48.5492ZM291.653 27.8884C291.162 28.5057 290.84 29.5182 290.671 30.9258C290.51 32.3334 290.429 34.4653 290.429 37.33V40.4744H297.488V37.33C297.488 34.5147 297.391 32.3827 297.206 30.9258C297.021 29.4688 296.683 28.4481 296.192 27.8472C295.701 27.2546 294.945 26.95 293.922 26.95C292.892 26.9582 292.136 27.271 291.653 27.8884Z" fill="#121212"/>
</g>
<defs>
<clipPath id="clip0_104_3737">
<rect width="308" height="70" fill="white"/>
</clipPath>
</defs>
</svg>
