<svg width="210" height="200" viewBox="0 0 210 200" fill="none" xmlns="http://www.w3.org/2000/svg">
<path d="M67.4811 130.883V128.596H64.9294V130.883H63.9287V125.68H64.9294V127.756H67.4811V125.68H68.4817V130.883" fill="#1E4A6E"/>
<path d="M72.2342 126.357C71.1835 126.357 70.5581 127.173 70.5581 128.27C70.5581 129.32 71.2085 130.183 72.2342 130.183C73.2849 130.183 73.8853 129.343 73.8853 128.27C73.9103 127.22 73.2599 126.357 72.2342 126.357ZM72.2342 130.977C70.7832 130.977 69.5574 129.95 69.5574 128.27C69.5574 126.59 70.8083 125.563 72.2342 125.563C73.6601 125.563 74.911 126.567 74.911 128.27C74.911 129.95 73.6601 130.977 72.2342 130.977Z" fill="#1E4A6E"/>
<path d="M78.1131 126.496V130.883H77.1124V126.496H75.3613V125.68H79.8142L79.9393 126.496" fill="#1E4A6E"/>
<path d="M81.04 130.883V125.68H84.4923V126.496H82.0156V127.756H83.9919L84.142 128.573H82.0156V130.066H84.5673V130.883" fill="#1E4A6E"/>
<path d="M85.9182 130.883V125.68H86.8939V130.09H89.0203L89.1453 130.883" fill="#1E4A6E"/>
<path d="M91.7721 130.93C91.0966 130.93 90.4212 130.767 89.8458 130.534L89.9959 129.717C90.5213 129.974 91.2467 130.16 91.8221 130.16C92.4475 130.16 92.8978 129.904 92.8978 129.46C92.8978 129.017 92.5976 128.854 91.7971 128.62C90.6213 128.247 90.046 127.897 90.046 127.104C90.046 126.217 90.8465 125.61 91.9222 125.61C92.5476 125.61 93.123 125.727 93.5232 125.914L93.3731 126.777C92.8728 126.52 92.3725 126.38 91.8722 126.38C91.3218 126.38 90.9465 126.66 90.9465 126.987C90.9465 127.384 91.2467 127.524 92.1223 127.804C93.2981 128.177 93.7984 128.55 93.7984 129.367C93.7984 130.324 92.9729 130.93 91.7721 130.93Z" fill="#1E4A6E"/>
<path d="M99.0269 128.48C98.5516 128.714 98.2764 129.04 98.2764 129.46C98.2764 129.95 98.6516 130.277 99.252 130.277C99.6773 130.277 100.078 130.114 100.403 129.787M101.654 130.93L100.903 130.254C100.453 130.72 99.8524 131 99.177 131C97.9762 131 97.3257 130.464 97.3257 129.577C97.3257 128.854 97.8261 128.364 98.5516 128.014C98.2013 127.64 98.0262 127.337 98.0262 126.87C98.0262 126.17 98.5766 125.587 99.5772 125.587C100.128 125.587 100.628 125.727 101.028 125.914L100.878 126.73C100.453 126.474 100.028 126.334 99.6273 126.334C99.177 126.334 98.9768 126.567 98.9768 126.894L99.4521 127.71L100.878 129.087C101.053 128.737 101.153 128.34 101.203 127.85L102.004 128.014C101.904 128.62 101.729 129.157 101.453 129.624L102.654 130.744L101.654 130.93Z" fill="#1E4A6E"/>
<path d="M107.933 126.473H107.207V128.153H107.933C108.658 128.153 109.058 127.85 109.058 127.29C109.058 126.753 108.658 126.473 107.933 126.473ZM109.434 130.93L107.808 128.853H107.207V130.86H106.207V125.656H107.933C109.209 125.656 110.034 126.216 110.034 127.243C110.034 128.013 109.584 128.503 108.858 128.713L110.434 130.696L109.434 130.93Z" fill="#1E4A6E"/>
<path d="M111.585 130.883V125.68H115.062V126.496H112.586V127.756H114.562L114.712 128.573H112.586V130.066H115.137V130.883" fill="#1E4A6E"/>
<path d="M118.139 130.93C117.464 130.93 116.789 130.767 116.213 130.534L116.363 129.717C116.889 129.974 117.614 130.16 118.19 130.16C118.815 130.16 119.265 129.904 119.265 129.46C119.265 129.017 118.965 128.854 118.164 128.62C116.989 128.247 116.413 127.897 116.413 127.104C116.413 126.217 117.214 125.61 118.29 125.61C118.94 125.61 119.49 125.727 119.916 125.914L119.766 126.777C119.265 126.52 118.765 126.38 118.265 126.38C117.714 126.38 117.339 126.66 117.339 126.987C117.339 127.384 117.639 127.524 118.515 127.804C119.69 128.177 120.191 128.55 120.191 129.367C120.191 130.324 119.365 130.93 118.139 130.93Z" fill="#1E4A6E"/>
<path d="M123.693 126.357C122.642 126.357 122.017 127.173 122.017 128.27C122.017 129.32 122.667 130.183 123.693 130.183C124.744 130.183 125.344 129.343 125.344 128.27C125.369 127.22 124.719 126.357 123.693 126.357ZM123.743 130.977C122.317 130.977 121.066 129.95 121.066 128.27C121.066 126.59 122.317 125.563 123.743 125.563C125.194 125.563 126.42 126.567 126.42 128.27C126.42 129.95 125.169 130.977 123.743 130.977Z" fill="#1E4A6E"/>
<path d="M129.297 126.473H128.571V128.153H129.297C129.997 128.153 130.423 127.85 130.423 127.29C130.423 126.753 130.022 126.473 129.297 126.473ZM130.798 130.93L129.172 128.853H128.571V130.86H127.596V125.656H129.322C130.598 125.656 131.423 126.216 131.423 127.243C131.423 128.013 130.973 128.503 130.247 128.713L131.823 130.696L130.798 130.93Z" fill="#1E4A6E"/>
<path d="M135.001 126.496V130.883H134V126.496H132.249V125.68H136.702L136.827 126.496" fill="#1E4A6E"/>
<path d="M139.278 130.93C138.603 130.93 137.953 130.767 137.377 130.534L137.527 129.717C138.053 129.974 138.778 130.16 139.353 130.16C139.979 130.16 140.429 129.904 140.429 129.46C140.429 129.017 140.129 128.854 139.328 128.62C138.153 128.247 137.552 127.897 137.552 127.104C137.552 126.217 138.353 125.61 139.428 125.61C140.054 125.61 140.629 125.727 141.03 125.914L140.879 126.777C140.379 126.52 139.879 126.38 139.378 126.38C138.828 126.38 138.453 126.66 138.453 126.987C138.453 127.384 138.753 127.524 139.629 127.804C140.804 128.177 141.305 128.55 141.305 129.367C141.33 130.324 140.504 130.93 139.278 130.93Z" fill="#1E4A6E"/>
<path d="M101.403 68C91.5219 68 84.2171 73.88 84.2171 80.18C84.2171 83.4233 86.1934 86.1767 88.645 88.0667L88.8452 87.95C86.8939 86.4333 85.1177 84.0767 85.1177 80.8333C85.643 73.95 94.749 70.0767 102.779 70.0767C108.508 70.0767 118.79 71.3133 118.79 80.2267C118.79 84.8933 113.461 90.9367 102.254 90.9367C96.5502 90.9367 92.0973 88.0667 92.0973 83.96C92.0973 80.4133 95.0743 77.87 99.5022 77.87C100.728 77.87 101.879 78.15 102.754 78.36C100.903 78.0333 98.0512 78.5 96.5502 79.5967V85.6167H102.004V78.7567C103.029 78.92 103.855 79.2933 104.405 79.62V85.6167H105.831C104.706 86.8067 102.629 87.5067 100.803 87.25V87.5067C106.006 87.88 108.233 85.5933 108.233 82.98C108.233 79.9233 105.156 78.15 102.029 77.7767V73.2267H96.5752V77.8C93.0229 78.4767 89.5456 80.4367 89.5456 83.68C89.5456 88.6967 97.0506 91.8 103.555 91.8C113.486 91.8 121.141 87.32 121.141 81.0433C121.141 73.4367 110.084 68 101.403 68ZM108.983 83.1433C108.983 80.9267 107.357 79.1533 104.405 78.29V73.2267H109.884V85.5933H108.158C108.758 84.8 108.983 83.9133 108.983 83.1433Z" fill="#1E4A6E"/>
<path d="M77.5627 99.2202V116.977L79.0387 117.164V118.214H71.7089V117.164L73.2849 116.977V108.904H63.9287V116.977L65.3797 117.164V118.214H58.2V117.164L59.6259 116.977V99.2202L58.2 99.0335V98.0068H65.3797V99.0335L63.9287 99.2202V106.804H73.2849V99.2202L71.7089 99.0335V98.0068H79.0387V99.0335" fill="#1E4A6E"/>
<path d="M87.7694 99.3129C87.7694 100.666 86.7938 101.67 85.4429 101.67C84.067 101.67 83.1164 100.76 83.1164 99.4062C83.1164 98.1229 84.067 97.1195 85.4429 97.1195C86.7938 97.0962 87.7694 98.0995 87.7694 99.3129ZM87.2691 117.093L88.645 117.28V118.19H81.9156V117.28L83.2915 117.093V104.936L81.9156 104.75V103.84H87.2691V117.093Z" fill="#1E4A6E"/>
<path d="M91.572 117.28L92.9229 117.094V98.5204L91.572 98.3337V97.4004H96.9255V117.094L98.3014 117.28V118.214H91.572" fill="#1E4A6E"/>
<path d="M106.432 103.84H110.059V105.193H106.432V113.733C106.432 115.95 106.932 116.65 109.058 116.65C109.859 116.65 110.534 116.65 111.185 116.51V117.49C109.234 118.143 107.608 118.4 106.232 118.4C103.155 118.4 102.429 117.093 102.429 114.573V105.193H99.6273V103.84H102.554V100.83L106.457 99.7334" fill="#1E4A6E"/>
<path d="M123.668 111.073C123.668 106.523 122.217 104.54 119.891 104.54C117.614 104.54 116.188 106.43 116.188 111.073C116.188 115.623 117.639 117.513 119.891 117.513C122.317 117.537 123.668 115.717 123.668 111.073ZM128.071 111.167C128.071 115.647 124.844 118.633 119.791 118.633C114.887 118.633 111.785 116.673 111.785 111.167C111.785 106.547 115.012 103.443 120.066 103.443C125.044 103.443 128.071 106.22 128.071 111.167Z" fill="#1E4A6E"/>
<path d="M146.733 117.28V118.19H140.004V117.28L141.355 117.093V108.926C141.355 106.663 140.479 105.636 138.628 105.636C137.777 105.636 136.427 106.196 135.451 106.826V117.07L136.827 117.256V118.166H130.072V117.256L131.448 117.07V105.006L130.072 104.82V103.84H135.451V105.823C137.127 104.563 138.728 103.56 141.005 103.56C144.032 103.56 145.382 105.216 145.382 108.483V117.116" fill="#1E4A6E"/>
<path d="M119.916 89.8167H119.415V89.6533H120.616V89.8167H120.166V91.4733H119.916M122.017 91.1467L122.642 89.6533H122.943V91.4733H122.717V90.0967L122.142 91.4733H121.917L121.317 90.0967V91.4733H121.091V89.6533H121.417L122.017 91.1467Z" fill="#1E4A6E"/>
</svg>
