<svg width="210" height="200" viewBox="0 0 210 200" fill="none" xmlns="http://www.w3.org/2000/svg">
<path fill-rule="evenodd" clip-rule="evenodd" d="M76.1606 87.3428H82.8766V88.1585H80.244V97.3606H78.8215V88.1585H76.1606V87.3428Z" fill="#B98F4F"/>
<path fill-rule="evenodd" clip-rule="evenodd" d="M84.7972 87.3428H86.2566V91.0066H91.0138V87.3428H92.4727V97.3606H91.0138V91.8219H86.2566V97.3606H84.7972V87.3428Z" fill="#B98F4F"/>
<path fill-rule="evenodd" clip-rule="evenodd" d="M96.3098 87.3428H103.026V88.1585H97.8863V90.9919H102.238V91.8077H97.8863V96.5449H103.026V97.3606H96.3098V87.3428Z" fill="#B98F4F"/>
<path fill-rule="evenodd" clip-rule="evenodd" d="M109.816 94.9694H114.708L112.35 89.4885L109.816 94.9694ZM107.822 97.3606L111.894 88.6022L111.264 87.3428H112.994L117.417 97.3606H115.747L115.059 95.7861H109.434L108.716 97.3606H107.822Z" fill="#B98F4F"/>
<path fill-rule="evenodd" clip-rule="evenodd" d="M120.848 93.0515H122.376C124.103 93.0515 125.027 91.9491 125.027 90.5468C125.027 89.5593 124.693 88.8579 124.057 88.4574C123.316 87.9847 122.074 88.0564 120.848 88.0564V93.0515ZM123.922 93.6544L127.01 97.3606H125.193L122.288 93.7687H120.849V97.3606H119.335V93.6112V87.3428H122.772C125.028 87.3428 126.768 88.4304 126.768 90.5631C126.768 92.1799 125.543 93.2965 123.922 93.6544Z" fill="#B98F4F"/>
<path fill-rule="evenodd" clip-rule="evenodd" d="M127.969 87.3428H134.685V88.1585H132.053V97.3606H130.63V88.1585H127.969V87.3428Z" fill="#B98F4F"/>
<path fill-rule="evenodd" clip-rule="evenodd" d="M82.3832 111.244C84.8642 111.244 85.9161 109.221 85.9161 106.95C85.9161 104.817 84.8642 102.602 82.3832 102.602C79.9026 102.602 78.8802 104.68 78.8802 106.95C78.8802 109.221 79.9026 111.244 82.3832 111.244ZM82.3842 101.914C85.5412 101.914 87.6763 104.198 87.6763 106.951C87.6763 109.675 85.5412 111.932 82.3842 111.932C79.2571 111.932 77.1225 109.675 77.1225 106.951C77.1225 104.198 79.2571 101.914 82.3842 101.914Z" fill="#22242B"/>
<path fill-rule="evenodd" clip-rule="evenodd" d="M89.5927 101.914H96.3087V102.73H91.1694V105.563H95.5204V106.379H91.1694V111.932H89.5927V101.914Z" fill="#22242B"/>
<path fill-rule="evenodd" clip-rule="evenodd" d="M103.58 107.623H105.109C106.835 107.623 107.758 106.52 107.758 105.118C107.758 104.131 107.425 103.429 106.789 103.029C106.048 102.556 104.806 102.628 103.58 102.628V107.623ZM106.654 108.226L109.743 111.932H107.926L105.019 108.34H103.581V111.932H102.067V108.183V101.914H105.504C107.759 101.914 109.501 103.002 109.501 105.134C109.501 106.751 108.274 107.868 106.654 108.226Z" fill="#22242B"/>
<path fill-rule="evenodd" clip-rule="evenodd" d="M111.661 101.914H118.377V102.73H113.238V105.563H117.589V106.379H113.238V111.116H118.377V111.932H111.661V101.914Z" fill="#22242B"/>
<path fill-rule="evenodd" clip-rule="evenodd" d="M121.328 109.542H126.221L123.862 104.061L121.328 109.542ZM119.335 111.932L123.408 103.173L122.778 101.914H124.506L128.93 111.932H127.26L126.571 110.358H120.947L120.229 111.932H119.335Z" fill="#22242B"/>
<path fill-rule="evenodd" clip-rule="evenodd" d="M130.849 101.914H132.427V111.116H137.565V111.932H130.849V101.914Z" fill="#22242B"/>
<path fill-rule="evenodd" clip-rule="evenodd" d="M142.363 101.914H149.079V102.73H143.939V105.563H148.29V106.379H143.939V111.116H149.079V111.932H142.363V101.914Z" fill="#22242B"/>
<path fill-rule="evenodd" clip-rule="evenodd" d="M155.926 103.442C155.215 102.96 154.389 102.685 153.635 102.685C152.982 102.685 152.285 102.85 152.285 103.538C152.285 103.868 152.459 104.253 152.997 104.831L155.535 107.459C156.261 108.231 156.753 109.042 156.753 109.84C156.753 111.313 155.244 111.932 153.823 111.932C152.199 111.932 151.009 111.258 150.037 110.185L150.588 109.607C151.357 110.418 152.459 111.038 153.518 111.038C154.534 111.038 155.142 110.556 155.142 109.827C155.142 109.249 154.635 108.588 154.331 108.272L151.836 105.643C151.255 105.038 150.675 104.309 150.675 103.483C150.675 102.767 151.342 101.914 153.272 101.914C154.475 101.914 155.622 102.244 156.478 102.933L155.926 103.442Z" fill="#22242B"/>
<path fill-rule="evenodd" clip-rule="evenodd" d="M157.71 101.914H164.426V102.73H161.795V111.932H160.371V102.73H157.71V101.914Z" fill="#22242B"/>
<path fill-rule="evenodd" clip-rule="evenodd" d="M167.38 109.542H172.273L169.914 104.061L167.38 109.542ZM165.388 111.932L169.46 103.173L168.83 101.914H170.558L174.982 111.932H173.313L172.623 110.358H166.999L166.281 111.932H165.388Z" fill="#22242B"/>
<path fill-rule="evenodd" clip-rule="evenodd" d="M174.982 101.914H181.698V102.73H179.065V111.932H177.642V102.73H174.982V101.914Z" fill="#22242B"/>
<path fill-rule="evenodd" clip-rule="evenodd" d="M183.619 101.914H190.335V102.73H185.195V105.563H189.547V106.379H185.195V111.116H190.335V111.932H183.619V101.914Z" fill="#22242B"/>
<path fill-rule="evenodd" clip-rule="evenodd" d="M28.1888 112.843C28.1752 112.843 19.2184 104.988 19.2261 104.984C23.4483 103.574 26.3955 100.532 26.3955 96.3342C26.3955 90.8565 21.5887 87.3792 15.0587 87.3446L9 87.3428V112.843H13.6664V87.5575H15.0587V87.5562C19.5107 87.6035 22.9848 91.1441 22.9848 96.5021C22.9848 101.881 19.5482 105.307 15.1145 105.375L15.0342 105.567L23.3252 112.843H28.1888Z" fill="#22242B"/>
<path fill-rule="evenodd" clip-rule="evenodd" d="M38.5002 113.658L36.591 113.659V88.6202L38.5669 88.6293C42.706 88.6293 44.919 91.6112 44.919 94.1616C44.919 96.925 43.253 99.2447 40.2278 99.5451V99.7517C44.8217 100.262 45.6199 104.51 45.6199 106.693C45.6199 109.024 44.4218 113.658 38.5002 113.658ZM42.2074 99.6254C46.1884 98.76 47.6004 96.3834 47.6004 94.1974C47.6004 90.3728 44.2619 88.4053 39.58 88.4053H32.0252V113.905H39.961C45.7976 113.905 49.2951 110.854 49.2951 106.628C49.2951 104.042 47.4974 100.525 42.2074 99.6254Z" fill="#22242B"/>
<path fill-rule="evenodd" clip-rule="evenodd" d="M55.0548 87.3428V112.843H59.852V87.3441L55.0548 87.3428Z" fill="#22242B"/>
</svg>
