<svg width="212" height="200" viewBox="0 0 212 200" fill="none" xmlns="http://www.w3.org/2000/svg">
<path d="M42.7668 99.3663C43.2621 98.9528 43.5098 98.401 43.5098 97.7109V97.6647C43.5098 96.8984 43.25 96.3235 42.7304 95.9399C42.2108 95.5563 41.4874 95.3648 40.5602 95.3652H36.8328V99.9908H40.636C41.5612 99.9884 42.2715 99.7803 42.7668 99.3663Z" fill="#53565A"/>
<path d="M60.3095 108.265V101.804H53.3866V108.265H49.6317V92.1678H53.3866V98.5385H60.3095V92.1678H63.2538C61.8155 89.6948 59.6989 87.632 57.1257 86.195C54.5525 84.7581 51.6172 84 48.6269 84C45.6366 84 42.7013 84.7581 40.128 86.195C37.5548 87.632 35.4383 89.6948 33.9999 92.1678H41.0268C43.1883 92.1678 44.8461 92.7122 46.0002 93.8008C46.9749 94.7212 47.4623 95.9479 47.4623 97.4809V97.5264C47.4623 98.83 47.1252 99.8918 46.4511 100.712C45.7687 101.537 44.8517 102.163 43.807 102.516L47.9757 108.263H43.5841L39.9272 103.112H36.9807V108.263H34.6121C36.123 110.474 38.1975 112.292 40.6459 113.551C43.0943 114.811 45.8383 115.47 48.6269 115.47C51.4154 115.47 54.1595 114.811 56.6079 113.551C59.0562 112.292 61.1308 110.474 62.6416 108.263L60.3095 108.265Z" fill="#53565A"/>
<path d="M171.884 102.025H71.7139V102.389H171.884V102.025Z" fill="#53565A"/>
<path d="M91.2142 88.6365L93.3235 93.4631H89.122L91.2142 88.6365ZM90.0485 85.3047L83.9689 99.0628H86.7357L88.128 95.8341H94.319L95.6905 99.0628H98.5353L92.4557 85.3047H90.0485Z" fill="#53565A"/>
<path d="M109.731 92.2508C109.731 94.8726 107.905 96.6338 105.188 96.6338H102.674V87.8278H105.188C107.862 87.8278 109.731 89.6465 109.731 92.2508ZM105.188 85.3994H99.9871V99.0657H105.188C109.442 99.0657 112.53 96.1846 112.53 92.2151C112.53 88.2672 109.442 85.4029 105.188 85.4029" fill="#53565A"/>
<path d="M154.899 92.2503C154.899 94.8694 153.004 96.845 150.491 96.845C147.955 96.845 146.044 94.8539 146.044 92.2125C146.044 89.5935 147.939 87.6185 150.452 87.6185C152.987 87.6185 154.899 89.6103 154.899 92.2503ZM150.491 85.1719C146.361 85.1719 143.245 88.2156 143.245 92.2503C143.245 96.2654 146.344 99.2923 150.452 99.2923C154.582 99.2923 157.697 96.2486 157.697 92.2139C157.697 88.1995 154.599 85.1726 150.49 85.1726" fill="#53565A"/>
<path d="M80.3522 89.9198C80.3522 91.2213 79.3448 92.03 77.7221 92.03H74.3967V87.8285H77.7036C79.4124 87.8285 80.3522 88.5707 80.3522 89.9198ZM83.0744 89.7853C83.0744 87.0807 81.0907 85.3994 77.8967 85.3994H71.7146V99.0657H74.3967V94.401H77.1382L80.4629 99.0629H83.6353L79.9369 93.9356C81.9622 93.3133 83.0744 91.8457 83.0744 89.786" fill="#53565A"/>
<path d="M117.439 85.3994H114.756V99.0622H117.439V85.3994Z" fill="#53565A"/>
<path d="M125.672 91.0224C123.048 90.4022 122.58 89.9635 122.58 89.0405C122.58 88.1672 123.404 87.5799 124.631 87.5799C125.81 87.5799 126.981 88.0207 128.208 88.9248L128.337 89.0201L129.782 87.0087L129.677 86.9246C128.222 85.7704 126.584 85.209 124.67 85.209C121.859 85.209 119.897 86.8714 119.897 89.2514C119.897 91.8018 121.591 92.7044 124.516 93.4032C127.03 93.9772 127.455 94.4607 127.455 95.327C127.455 96.2871 126.594 96.8828 125.21 96.8828C123.681 96.8828 122.435 96.374 121.042 95.1826L120.922 95.0789L119.301 96.9837L119.405 97.0749C121.02 98.5004 123.007 99.2545 125.152 99.2545C128.18 99.2545 130.137 97.6229 130.137 95.0971C130.137 92.9651 128.843 91.7849 125.672 91.0224Z" fill="#53565A"/>
<path d="M137.366 91.0224C134.741 90.4022 134.274 89.9635 134.274 89.0405C134.274 88.1672 135.098 87.5799 136.323 87.5799C137.503 87.5799 138.673 88.0207 139.902 88.9248L140.03 89.0201L141.475 87.0087L141.37 86.9246C139.916 85.7704 138.278 85.209 136.362 85.209C133.552 85.209 131.59 86.8714 131.59 89.2514C131.59 91.8018 133.284 92.7044 136.21 93.4032C138.723 93.9772 139.147 94.4607 139.147 95.327C139.147 96.2871 138.288 96.8828 136.904 96.8828C135.376 96.8828 134.129 96.374 132.735 95.1826L132.615 95.0789L130.994 96.9837L131.098 97.0749C132.712 98.5004 134.7 99.2545 136.845 99.2545C139.874 99.2545 141.83 97.6229 141.83 95.0971C141.83 92.9651 140.537 91.7849 137.366 91.0224Z" fill="#53565A"/>
<path d="M169.618 99.0043L169.664 99.0632H171.884V85.4004H169.24V94.3543L162.269 85.4586L162.223 85.4004H159.79V99.0632H162.433V89.8416L169.618 99.0043Z" fill="#53565A"/>
<path d="M171.878 102.014H71.7213V102.377H171.878V102.014Z" fill="#53565A"/>
<path d="M71.6537 105.278H73.3224V109.003H77.8544V105.278H79.5231V114.238H77.8544V110.46H73.3224V114.236H71.6537V105.278Z" fill="#53565A"/>
<path d="M89.6473 109.784V109.759C89.6473 107.236 91.7098 105.126 94.6251 105.126C97.5405 105.126 99.5777 107.212 99.5777 109.733V109.759C99.5777 112.282 97.5152 114.392 94.5999 114.392C91.6845 114.392 89.6473 112.305 89.6473 109.784ZM97.8288 109.784V109.759C97.8288 108.018 96.4855 106.585 94.5999 106.585C92.7143 106.585 91.3977 107.993 91.3977 109.733V109.759C91.3977 111.5 92.741 112.933 94.6266 112.933C96.5123 112.933 97.8258 111.525 97.8258 109.784L97.8288 109.784Z" fill="#53565A"/>
<path d="M112.233 106.737H109.208V105.278H116.928V106.737H113.902V114.236H112.233V106.737Z" fill="#53565A"/>
<path d="M128.305 105.278H135.347V106.686H129.973V109.016H134.736V110.436H129.973V112.83H135.413V114.238H128.303L128.305 105.278Z" fill="#53565A"/>
<path d="M147.895 105.278H149.564V112.804H154.557V114.238H147.895V105.278Z" fill="#53565A"/>
<path d="M164.751 112.932L165.756 111.806C166.664 112.548 167.587 112.971 168.754 112.971C169.785 112.971 170.436 112.51 170.436 111.845V111.819C170.436 111.179 170.057 110.833 168.293 110.449C166.271 109.989 165.131 109.425 165.131 107.774V107.749C165.131 106.213 166.488 105.15 168.374 105.15C169.758 105.15 170.857 105.548 171.82 106.277L170.924 107.469C170.07 106.867 169.216 106.547 168.347 106.547C167.37 106.547 166.8 107.021 166.8 107.61V107.635C166.8 108.326 167.234 108.634 169.066 109.043C171.072 109.504 172.105 110.182 172.105 111.667V111.692C172.105 113.369 170.707 114.367 168.713 114.367C167.249 114.373 165.835 113.861 164.751 112.932Z" fill="#53565A"/>
</svg>
