<svg width="210" height="200" viewBox="0 0 210 200" fill="none" xmlns="http://www.w3.org/2000/svg">
<path d="M95.3963 83.3747C95.3963 82.1727 95.9225 81.3437 96.9748 80.8878C98.071 80.4318 99.2549 80.1831 100.526 80.1417C102.806 80.0588 104.604 80.5355 105.92 81.5717C107.279 82.6079 107.958 83.126 107.958 83.126H108.024V81.3852C108.024 81.3852 107.235 81.1365 105.657 80.6391C104.122 80.1002 102.412 79.8308 100.526 79.8308C99.3864 79.8308 98.0273 80.121 96.4488 80.7013C94.9141 81.2815 94.1468 82.4836 94.1468 84.3074C94.1468 86.1311 94.8264 87.2917 96.1857 87.7891C97.5449 88.245 99.0357 88.5352 100.658 88.6595C102.324 88.7424 103.859 88.8667 105.262 89.0326C106.621 89.1984 107.301 89.903 107.301 91.1465C107.301 92.5143 106.577 93.3847 105.13 93.7578C103.727 94.0894 102.741 94.2759 102.171 94.3174C99.5399 94.3174 97.6326 93.7785 96.4488 92.7008C95.3087 91.6231 94.7386 91.0843 94.7386 91.0843C94.6948 91.0843 94.651 91.0843 94.6072 91.0843C94.6072 91.0843 94.5852 91.0843 94.5413 91.0843L94.6729 93.3226C94.6729 93.3226 95.5279 93.5505 97.2379 94.0065C98.9479 94.421 100.526 94.6282 101.973 94.6282C104.823 94.6282 106.709 93.9858 107.63 92.7008C108.55 91.4159 109.011 90.5248 109.011 90.0274C108.967 88.1207 108.243 86.9186 106.84 86.4213C105.437 85.9239 103.881 85.6337 102.171 85.5508C100.461 85.468 98.9041 85.3643 97.501 85.24C96.0979 85.1156 95.3963 84.4939 95.3963 83.3747ZM90.8582 77.5926L87.1093 76.3491C86.7147 76.1833 86.2981 76.1625 85.8596 76.2868C85.465 76.4112 85.1581 76.6599 84.9389 77.0329L89.9374 78.6494C90.0689 78.4422 90.2005 78.2557 90.332 78.0899C90.5074 77.9241 90.6828 77.7584 90.8582 77.5926ZM86.1227 87.2917L84.0181 86.6078L81.6503 85.7995C81.6503 86.0482 81.8476 86.3591 82.2423 86.7321C82.6807 87.1052 82.9 87.2917 82.9 87.2917C82.9 87.2917 82.6807 87.4782 82.2423 87.8513C81.8476 88.2243 81.6503 88.5352 81.6503 88.7839L84.0181 87.9756L86.1227 87.2917ZM94.6071 75.0434L90.0689 73.5513C89.6305 73.4269 89.1701 73.4062 88.6878 73.489C88.2493 73.5719 87.8547 73.7584 87.5039 74.0486L93.0286 75.8516C93.2917 75.7273 93.5548 75.6029 93.8179 75.4786C94.0809 75.3128 94.344 75.1678 94.6071 75.0434ZM88.5562 80.5769L85.0046 79.3956C84.61 79.2712 84.2373 79.292 83.8865 79.4578C83.5358 79.5822 83.2727 79.8102 83.0973 80.1417L87.8985 81.7583C87.9862 81.551 88.0739 81.3438 88.1616 81.1365C88.2931 80.9293 88.4247 80.7427 88.5562 80.5769ZM87.1093 83.8721L83.6235 82.753C83.2288 82.6287 82.8781 82.6701 82.5711 82.8773C82.2642 83.0431 82.0669 83.2918 81.9792 83.6234L86.7804 85.1777C86.8681 84.9705 86.912 84.7633 86.912 84.556C86.9559 84.3073 87.0216 84.0794 87.1093 83.8721ZM101.25 73.4891C101.776 73.4891 102.28 73.5305 102.763 73.6134C103.289 73.6549 103.793 73.717 104.275 73.7999L111.51 71.3751C111.028 71.085 110.502 70.9192 109.932 70.8777C109.362 70.8362 108.813 70.9191 108.287 71.1264L101.25 73.4268L94.2782 71.1886C93.7521 70.9813 93.204 70.9192 92.634 71.0021C92.064 71.0436 91.5378 71.2093 91.0555 71.4995L98.2245 73.8621C98.7068 73.7377 99.1891 73.6548 99.6714 73.6134C100.198 73.5305 100.724 73.4891 101.25 73.4891ZM114.601 81.696L119.468 80.0795C119.293 79.7479 119.008 79.5199 118.613 79.3956C118.263 79.2298 117.912 79.2091 117.561 79.3334L114.009 80.5147C114.097 80.7219 114.185 80.9292 114.272 81.1364C114.404 81.3022 114.514 81.4888 114.601 81.696ZM112.562 78.5873L117.561 76.9708C117.342 76.6392 117.013 76.4113 116.574 76.2869C116.18 76.1626 115.785 76.1626 115.391 76.2869L111.576 77.5304C111.751 77.6962 111.927 77.8827 112.102 78.09C112.277 78.2558 112.431 78.4216 112.562 78.5873ZM109.471 75.8517L115.062 74.0486C114.711 73.7585 114.294 73.572 113.812 73.4891C113.374 73.4062 112.935 73.4269 112.497 73.5513L107.893 75.0435C108.156 75.1264 108.419 75.2507 108.682 75.4165C108.945 75.5409 109.208 75.6859 109.471 75.8517ZM106.314 69.3234C106.227 69.3234 106.117 69.3027 105.985 69.2612C105.854 69.2197 105.744 69.199 105.657 69.199C105.043 69.0332 104.407 68.971 103.749 69.0124C103.091 69.0539 102.478 69.1783 101.908 69.3855L101.25 69.6342L100.592 69.4477C99.9345 69.2404 99.2549 69.1161 98.5533 69.0746C97.8956 69.0331 97.216 69.0953 96.5144 69.2611C96.4706 69.3026 96.4048 69.344 96.3171 69.3854C96.2732 69.3854 96.2075 69.3854 96.1198 69.3854L101.184 71.0641L106.314 69.3234ZM115.719 85.1156L120.521 83.4991C120.433 83.1675 120.236 82.9188 119.929 82.753C119.622 82.5457 119.271 82.5043 118.876 82.6287L115.391 83.81C115.478 84.0172 115.544 84.2452 115.588 84.4939C115.632 84.7012 115.676 84.9084 115.719 85.1156ZM89.8716 95.996L84.8731 97.6747C85.0923 98.0063 85.3993 98.2343 85.7939 98.3587C86.2323 98.4416 86.6489 98.4416 87.0435 98.3587L90.7924 97.053C90.617 96.8872 90.4416 96.7214 90.2663 96.5556C90.1347 96.3898 90.0032 96.2033 89.8716 95.996ZM114.009 94.1308L117.561 95.3121C117.912 95.4365 118.263 95.4365 118.613 95.3121C119.008 95.1463 119.293 94.8976 119.468 94.566L114.667 93.0117C114.579 93.1775 114.47 93.364 114.338 93.5713C114.251 93.7785 114.141 93.965 114.009 94.1308ZM107.958 99.7265L112.497 101.156C112.935 101.322 113.374 101.364 113.812 101.281C114.294 101.198 114.711 100.991 115.062 100.659L109.537 98.8561C109.274 98.9804 109.011 99.1255 108.748 99.2913C108.485 99.4156 108.222 99.5607 107.958 99.7265ZM111.707 97.1152L115.456 98.3587C115.851 98.5245 116.246 98.5452 116.64 98.4208C117.079 98.2965 117.407 98.0685 117.627 97.7369L112.628 96.0582C112.497 96.2655 112.343 96.452 112.168 96.6178C111.992 96.7836 111.839 96.9494 111.707 97.1152ZM119.468 87.2917C119.468 87.2917 119.709 87.1052 120.192 86.7321C120.674 86.3176 120.915 86.0068 120.915 85.7995L118.284 86.6078L116.18 87.2917L118.284 87.9756L120.915 88.846C120.915 88.5974 120.674 88.2865 120.192 87.9134C119.709 87.4989 119.468 87.2917 119.468 87.2917ZM115.456 90.8356L118.942 91.9548C119.337 92.0791 119.688 92.0583 119.994 91.8925C120.301 91.7267 120.499 91.4573 120.586 91.0843L115.785 89.5299C115.697 89.7372 115.632 89.9651 115.588 90.2138C115.588 90.4211 115.544 90.6284 115.456 90.8356ZM86.7804 89.4678L81.9792 91.0843C82.0231 91.4159 82.1985 91.6646 82.5054 91.8304C82.8561 91.9962 83.2288 92.0169 83.6235 91.8926L87.1093 90.7735C87.0216 90.5663 86.9558 90.359 86.912 90.1518C86.8681 89.9031 86.8242 89.675 86.7804 89.4678ZM92.8971 98.7317L87.3724 100.597C87.7231 100.929 88.1178 101.136 88.5562 101.219C89.0385 101.302 89.5209 101.26 90.0032 101.094L94.4756 99.6643C94.2125 99.4985 93.9494 99.3534 93.6863 99.2291C93.4671 99.0633 93.204 98.8975 92.8971 98.7317ZM87.8985 92.8874L83.0973 94.4417C83.2727 94.8147 83.5358 95.0842 83.8865 95.25C84.2373 95.3743 84.61 95.3743 85.0046 95.25L88.5562 94.1308C88.3808 93.9236 88.2493 93.7163 88.1616 93.5091C88.0739 93.3018 87.9862 93.0946 87.8985 92.8874ZM101.25 101.219C100.68 101.219 100.132 101.198 99.6056 101.157C99.0795 101.074 98.5533 100.991 98.0272 100.908L90.924 103.208C91.4063 103.498 91.9105 103.685 92.4367 103.768C93.0067 103.809 93.5767 103.747 94.1467 103.581L101.184 101.219L108.287 103.581C108.813 103.747 109.362 103.809 109.932 103.768C110.502 103.726 111.028 103.561 111.51 103.27L104.407 100.908C103.881 100.991 103.355 101.074 102.828 101.157C102.346 101.198 101.82 101.219 101.25 101.219ZM95.9883 105.26C96.7775 105.467 97.5448 105.571 98.2902 105.571C99.0795 105.529 99.8468 105.384 100.592 105.136L101.184 105.011L101.71 105.136C102.456 105.384 103.223 105.529 104.012 105.571C104.845 105.612 105.657 105.529 106.446 105.322L101.184 103.581L95.9883 105.26ZM173.4 115.208V131L160.641 118.565V130.627H158.865V114.897L171.624 127.332V115.208H173.4ZM144.856 114.959C142.356 114.959 140.274 115.726 138.607 117.26C136.985 118.793 136.174 120.679 136.174 122.917C136.174 125.197 136.985 127.104 138.607 128.637C140.274 130.171 142.356 130.938 144.856 130.938C147.355 130.938 149.438 130.171 151.104 128.637C152.77 127.104 153.603 125.197 153.603 122.917C153.603 120.679 152.77 118.793 151.104 117.26C149.438 115.726 147.355 114.959 144.856 114.959ZM144.856 129.57C142.839 129.57 141.151 128.928 139.791 127.643C138.432 126.399 137.752 124.824 137.752 122.917C137.752 121.052 138.432 119.477 139.791 118.192C141.151 116.907 142.839 116.265 144.856 116.265C146.873 116.265 148.561 116.907 149.92 118.192C151.279 119.477 151.959 121.052 151.959 122.917C151.959 124.824 151.279 126.399 149.92 127.643C148.561 128.928 146.873 129.57 144.856 129.57ZM120.915 115.208H132.622V116.576H127.69V130.689H125.914V116.576H120.981V115.208H120.915ZM43.1089 126.834C43.1089 128.078 42.6047 129.073 41.5962 129.819C40.6316 130.565 39.2942 130.938 37.5842 130.938C36.1373 130.938 34.8876 130.627 33.8353 130.005C32.783 129.383 32.0156 128.513 31.5333 127.394L33.046 126.834C33.4407 127.705 34.0326 128.368 34.8218 128.824C35.6549 129.321 36.5976 129.57 37.65 129.57C38.8338 129.57 39.7546 129.321 40.4123 128.824C41.1139 128.327 41.4646 127.663 41.4646 126.834C41.4646 125.84 41.092 125.114 40.3466 124.658C39.645 124.202 38.6584 123.726 37.3869 123.228C35.9838 122.689 34.8438 122.13 33.9668 121.55C33.0899 120.928 32.6514 120.016 32.6514 118.814C32.6514 117.653 33.1118 116.721 34.0326 116.016C34.9972 115.311 36.203 114.959 37.65 114.959C38.7023 114.959 39.6231 115.166 40.4123 115.581C41.2016 115.954 41.8593 116.534 42.3854 117.322L40.9385 118.006C40.5877 117.425 40.1273 116.99 39.5573 116.7C39.0311 116.41 38.3734 116.265 37.5842 116.265C36.7073 116.265 35.9399 116.513 35.2822 117.011C34.6684 117.467 34.3615 118.047 34.3615 118.752C34.3615 119.581 34.7342 120.223 35.4795 120.679C36.2249 121.094 37.1019 121.487 38.1104 121.86C39.8204 122.565 41.07 123.249 41.8593 123.912C42.6924 124.575 43.1089 125.549 43.1089 126.834ZM61.3931 115.208H63.1689V130.689H61.3931V124.472H51.0014V130.689H49.2913V115.208H51.0014V123.042H61.3273L61.3931 115.208ZM72.1136 129.321H80.5322V130.689H70.4036V115.208H80.4007V116.576H72.1136V123.042H79.4799V124.41H72.1136V129.321ZM94.7386 124.223L99.0795 130.689H97.0406L93.0286 124.534L92.9627 124.472H90.0688L90.595 123.104H92.8313C93.8836 123.104 94.7606 122.793 95.4621 122.171C96.2075 121.55 96.5802 120.762 96.5802 119.809C96.5802 118.897 96.2294 118.151 95.5279 117.57C94.8702 116.949 94.0151 116.638 92.9627 116.638H88.7534V130.751H87.0435V115.208H93.0944C94.5852 115.208 95.8348 115.643 96.8433 116.513C97.8956 117.384 98.4218 118.462 98.4218 119.747C98.4218 120.741 98.1148 121.632 97.501 122.42C96.8871 123.208 96.054 123.767 95.0017 124.099L94.7386 124.223ZM110.918 114.897L102.894 130.689H104.736L107.038 126.026H114.667L116.903 130.44L117.035 130.627H118.942L110.918 114.897ZM107.761 124.658L110.918 118.317L114.009 124.658H107.761Z" fill="#6E6260"/>
</svg>
