<svg width="207" height="200" viewBox="0 0 207 200" fill="none" xmlns="http://www.w3.org/2000/svg">
<path d="M108.161 82.1673C107.601 84.2264 107.027 86.4633 106.379 89.0409C105.303 93.3516 103.27 104.521 102.651 111.898C102.327 112.046 101.37 112.18 100.913 112.18C99.4251 112.18 97.6868 111.261 97.5836 108.891C97.4363 105.958 99.1452 95.1144 101.723 85.0708C101.812 84.7597 101.885 84.4486 101.974 84.1376C98.6591 85.2782 95.5801 86.4929 92.8105 87.678C91.7793 92.2406 90.4092 99.2178 89.8936 106.136C89.7905 106.239 88.8182 106.388 88.332 106.388C86.5642 106.388 85.3268 105.203 85.3415 103.188C85.3562 99.2474 86.2254 94.0775 86.9767 90.3445C83.2496 92.1665 80.4505 93.7516 78.8742 94.6997C78.5943 94.1664 78.5059 93.3072 78.5796 92.8924C78.668 92.2999 79.0215 90.9963 80.4358 90.0037C82.7487 88.4039 85.2826 86.8336 88.0669 85.3375C89.4959 79.4713 91.4405 73.5162 93.061 69.9906C94.1069 67.7093 95.4475 66.8501 97.7457 66.8501C98.3497 66.8501 99.1747 66.9982 99.6166 67.1315C97.5394 71.6645 95.5948 77.0566 94.0922 82.4192C96.9354 81.1748 100.014 79.9897 103.373 78.8787C105.008 73.1607 106.467 69.0721 107.837 66.4797C108.691 64.8502 110.106 64.1984 111.387 64.0503C112.522 63.917 113.509 64.0651 114.393 64.3021C112.271 69.398 110.872 73.1755 109.664 77.0418C111.962 76.4345 114.378 75.8419 116.927 75.3086C118.311 75.0124 123.305 74.1236 124.219 78.9972C118.606 79.5601 113.185 80.7304 108.161 82.1673ZM86.1812 118.713C85.312 118.713 84.4428 119.512 84.4428 120.431C84.4428 121.098 84.9143 121.572 85.5625 121.572C86.4316 121.572 87.3156 120.757 87.3156 119.853C87.3303 119.172 86.8294 118.713 86.1812 118.713ZM80.1853 119.498C79.6992 121.912 78.1376 129.512 78.1376 129.512C78.0345 129.926 77.4747 132.119 79.7581 132.119H80.097L83.0875 117.542C83.0875 117.542 80.6715 117.113 80.1853 119.498ZM83.7357 124.564C83.2348 126.919 82.7192 129.512 82.7192 129.512C82.6161 129.926 82.0563 132.119 84.3545 132.119H84.6933L86.6379 122.638C86.5348 122.653 84.2366 122.238 83.7357 124.564ZM77.1359 125.867C77.1359 127.882 76.3256 129.793 74.9113 130.949C74.0274 131.689 72.8342 132.134 71.5083 132.134C69.3869 132.134 67.8695 130.978 67.8695 128.741C67.8695 126.741 68.6798 124.831 70.094 123.69C70.9927 122.949 72.1712 122.505 73.5118 122.505C75.6037 122.49 77.1359 123.616 77.1359 125.867ZM74.5725 125.882C74.5725 124.89 74.1895 124.179 73.1877 124.179C72.5543 124.179 71.9944 124.549 71.582 125.082C70.8012 126.075 70.4034 127.66 70.4034 128.741C70.4034 129.749 70.8012 130.46 71.8177 130.46C72.4511 130.46 72.9667 130.089 73.394 129.556C74.1748 128.549 74.5725 126.949 74.5725 125.882ZM122.259 118.861C121.876 120.638 120.064 129.512 120.064 129.512C119.961 130.03 119.446 132.119 121.685 132.119H122.024L125.117 116.994C124.528 116.905 122.672 116.905 122.259 118.861ZM131.157 122.49C129.949 122.49 128.918 123.038 128.27 123.779C128.27 123.779 128.182 121.927 125.766 122.668C126.208 123.957 125.957 124.416 125.471 127.008L124.955 129.526C124.867 129.956 124.292 132.134 126.576 132.134H126.915L127.813 127.764C128.064 126.593 128.535 124.371 130.288 124.371C131.157 124.371 131.614 124.919 131.334 126.267L130.671 129.526C130.568 129.941 130.008 132.134 132.292 132.134H132.631L133.853 126.164C134.398 123.601 133.073 122.49 131.157 122.49ZM65.5714 118.979C65.4682 119.527 65.2031 120.742 64.7906 122.727L60.5773 123.571L61.8147 117.557C61.4317 117.483 59.3398 117.32 58.9273 119.498C58.7947 120.179 56.8648 129.512 56.8648 129.512C56.7617 130 56.2019 132.119 58.4853 132.119H58.8389L60.0617 126.208L64.275 125.364C63.8625 127.393 63.4205 129.512 63.4205 129.512C63.3174 129.926 62.7576 132.119 65.041 132.119H65.3798L68.4883 116.994C68.4735 116.994 66.0722 116.565 65.5714 118.979ZM141.485 122.49C140.276 122.49 139.245 123.038 138.597 123.779C138.597 123.779 138.509 121.927 136.093 122.668C136.535 123.957 136.284 124.416 135.798 127.008L135.282 129.526C135.194 129.956 134.619 132.134 136.918 132.134H137.256L138.155 127.764C138.406 126.593 138.877 124.371 140.63 124.371C141.499 124.371 141.956 124.919 141.676 126.267L141.013 129.526C140.91 129.941 140.35 132.134 142.634 132.134H142.972L144.195 126.164C144.726 123.601 143.4 122.49 141.485 122.49ZM93.9301 124.253C93.7976 124.179 93.4735 124.105 93.1936 124.105C91.249 124.105 89.6726 126.504 89.6726 128.727C89.6726 129.808 90.1883 130.415 91.028 130.415C91.632 130.415 92.0592 130.178 92.398 129.808C92.7369 129.408 92.9726 128.815 93.1199 128.119L93.9301 124.253ZM97.7899 117.542L94.7993 132.119H94.4605C93.6944 132.119 93.0315 131.837 92.8105 131.141C92.2802 131.704 91.3815 132.119 90.2472 132.119C88.332 132.119 87.0798 130.83 87.0798 128.786C87.0798 125.453 89.6726 122.49 93.3114 122.49C93.6797 122.49 94.048 122.52 94.2542 122.579C94.2248 122.683 94.652 120.698 94.873 119.542C95.3444 117.187 97.5836 117.527 97.7899 117.542ZM106.629 123.364L104.832 132.119H104.493C103.727 132.119 103.064 131.852 102.843 131.141C102.327 131.704 101.414 132.119 100.28 132.119C98.3644 132.119 97.2153 130.86 97.2153 128.801C97.2153 125.29 99.9702 122.475 103.447 122.475C104.64 122.49 105.657 122.831 106.629 123.364ZM103.963 124.238C103.8 124.164 103.624 124.09 103.388 124.09C101.178 124.09 99.7787 126.771 99.7787 128.727C99.7787 129.808 100.206 130.386 101.06 130.386C101.664 130.386 102.121 130.149 102.46 129.778C102.799 129.378 103.02 128.786 103.167 128.09L103.963 124.238ZM114.157 124.668C114.673 122.253 117.103 122.668 117.103 122.668L115.394 130.741C115.056 132.371 114.599 133.511 113.848 134.356C112.934 135.378 111.52 136 109.708 136C107.601 136 106.025 135.052 106.025 133.437C106.025 132.356 106.703 131.571 108.176 131.215C107.793 130.786 107.542 130.238 107.542 129.556C107.542 129.082 107.645 128.504 107.778 127.941C107.778 127.941 107.881 127.497 108.441 124.831C109.016 122.164 111.417 122.653 111.417 122.653L110.297 128.015C110.194 128.475 109.708 130.238 111.284 130.238C113.067 130.238 113.479 128.015 113.715 126.845C113.686 126.845 113.641 127.082 114.157 124.668ZM112.743 131.215C112.257 131.66 111.387 131.882 110.415 132C109.045 132.163 108.117 132.385 108.117 133.348C108.117 134.089 108.853 134.504 109.723 134.504C110.43 134.504 111.078 134.252 111.549 133.793C112.036 133.319 112.389 132.637 112.566 131.897L112.743 131.215Z" fill="#509E34"/>
</svg>
