<svg width="212" height="200" viewBox="0 0 212 200" fill="none" xmlns="http://www.w3.org/2000/svg">
<path d="M103.742 129.216H161.608V70.7835H103.742V129.216Z" fill="url(#paint0_radial_104_18270)"/>
<mask id="mask0_104_18270" style="mask-type:luminance" maskUnits="userSpaceOnUse" x="103" y="70" width="59" height="59">
<path d="M103.746 70.788H161.612V128.749H103.746V70.788Z" fill="white"/>
</mask>
<g mask="url(#mask0_104_18270)">
<g opacity="0.699997">
<path d="M103.742 128.749H104.205V70.7876H103.742V128.749Z" fill="url(#paint1_linear_104_18270)"/>
<path d="M103.742 71.2549H161.612V70.7877H103.742V71.2549Z" fill="url(#paint2_linear_104_18270)"/>
</g>
</g>
<mask id="mask1_104_18270" style="mask-type:luminance" maskUnits="userSpaceOnUse" x="103" y="71" width="59" height="59">
<path d="M103.746 71.2545H161.612V129.218H103.746V71.2545Z" fill="white"/>
</mask>
<g mask="url(#mask1_104_18270)">
<g opacity="0.649994">
<path d="M103.742 129.216H161.612V128.76H103.742V129.216Z" fill="url(#paint3_linear_104_18270)"/>
<path d="M161.149 129.216H161.612V71.2544H161.149V129.216Z" fill="url(#paint4_linear_104_18270)"/>
</g>
</g>
<path d="M124.449 85.7267C124.938 85.7267 125.419 85.2745 125.419 84.7699C125.419 84.3886 125.149 84.1345 124.783 84.1345C124.305 84.1345 123.82 84.5867 123.82 85.0913C123.82 85.4726 124.083 85.7267 124.449 85.7267ZM123.728 91.6959H123.905L125.027 86.3547H123.62L122.81 90.212C122.762 90.455 122.451 91.6959 123.728 91.6959ZM116.632 87.7115C116.865 87.4125 117.173 87.2106 117.528 87.2106C118.098 87.2106 118.316 87.6031 118.316 88.1675C118.316 88.7655 118.091 89.6701 117.654 90.2307C117.413 90.5298 117.113 90.7391 116.758 90.7391C116.203 90.7391 115.977 90.3354 115.977 89.771C115.977 89.1767 116.203 88.2796 116.632 87.7115ZM116.584 91.6959C117.336 91.6959 117.991 91.4455 118.494 91.0231C119.282 90.3578 119.745 89.2888 119.745 88.1563C119.745 86.8967 118.886 86.2612 117.695 86.2612C116.947 86.2612 116.292 86.5117 115.799 86.9228C115.004 87.5769 114.534 88.6422 114.534 89.771C114.534 91.0418 115.4 91.6959 116.584 91.6959ZM108.282 90.1747C108.23 90.4101 107.919 91.6473 109.189 91.6473H109.389L110.118 88.1226C110.906 87.8984 111.717 87.7115 112.753 87.5096L112.746 87.5769L112.209 90.1747C112.165 90.4101 111.835 91.6473 113.112 91.6473H113.312L115.037 83.2598H113.634L113.001 86.3248V86.3323C111.939 86.549 111.136 86.7322 110.366 86.9452L110.488 86.3248L111.128 83.2598H109.718L108.834 87.5283C108.63 87.6218 108.426 87.719 108.171 87.8535C107.794 88.0404 107.66 88.3469 107.612 88.4852C107.579 88.5899 107.579 88.7618 107.627 88.9076C107.964 88.7655 108.293 88.6422 108.63 88.5226L108.282 90.1747ZM120.966 91.6959H121.159L122.651 84.4895H121.248L120.063 90.212C120.012 90.455 119.69 91.6959 120.966 91.6959ZM128.665 87.1733C128.824 87.1733 129.017 87.1957 129.091 87.2405L128.628 89.4159C128.543 89.8084 128.425 90.1485 128.228 90.3578C128.029 90.5933 127.803 90.7241 127.455 90.7241C126.966 90.7241 126.678 90.3802 126.678 89.771C126.678 88.5188 127.566 87.1733 128.665 87.1733ZM127.026 91.6959C127.662 91.6959 128.199 91.4268 128.502 91.0717C128.606 91.4455 128.961 91.6399 129.387 91.6399H129.583L131.304 83.5327H129.872L129.283 86.3098C129.157 86.2837 128.943 86.2612 128.743 86.2612C126.711 86.2612 125.245 87.9358 125.245 89.8084C125.245 90.9596 125.952 91.6959 127.026 91.6959ZM144.525 91.6959H144.718L146.461 83.3009H145.047L143.611 90.212C143.563 90.455 143.256 91.6959 144.525 91.6959ZM153.612 89.1879C153.742 88.5226 153.99 87.2779 154.978 87.2779C155.463 87.2779 155.722 87.5881 155.566 88.3469L155.196 90.1747C155.137 90.4101 154.819 91.6399 156.103 91.6399H156.281L156.995 88.2834C157.302 86.8481 156.54 86.2201 155.463 86.2201C154.778 86.2201 154.215 86.5266 153.845 86.9452L153.712 86.3098H152.624C152.624 86.7546 152.565 87.3751 152.387 88.2908L151.698 91.5464H153.109L153.612 89.1879ZM134.313 87.1733C134.439 87.1733 134.558 87.1957 134.639 87.2517L134.176 89.4159C134.099 89.8084 133.984 90.1485 133.795 90.3578C133.592 90.5933 133.347 90.7241 133.014 90.7241C132.533 90.7241 132.281 90.3952 132.281 89.771C132.281 88.6833 133.073 87.1733 134.313 87.1733ZM132.57 91.6959C133.214 91.6959 133.762 91.4268 134.062 91.0717C134.154 91.4455 134.51 91.6399 134.943 91.6399H135.135L136.164 86.777C135.642 86.4519 135.006 86.2612 134.339 86.2612C132.392 86.2612 130.853 87.846 130.853 89.8196C130.853 90.9783 131.5 91.6959 132.57 91.6959ZM147.375 91.5464L147.89 89.1879C148.019 88.5226 148.267 87.2779 149.259 87.2779C149.74 87.2779 149.992 87.5881 149.84 88.3469L149.463 90.1747C149.418 90.4101 149.089 91.6399 150.366 91.6399H150.566L151.276 88.2834C151.58 86.8481 150.81 86.2201 149.74 86.2201C149.063 86.2201 148.489 86.5266 148.112 86.9452L147.986 86.3098H146.909C146.909 86.7546 146.846 87.3751 146.654 88.2908L145.965 91.5464H147.375ZM138.348 91.6287C138.896 91.5726 139.369 91.4455 139.651 91.1951L139.558 91.5875C139.447 91.9987 139.258 92.3687 138.977 92.6491C138.718 92.907 138.348 93.0415 137.948 93.0415C137.456 93.0415 137.049 92.806 137.049 92.3949C137.049 91.8492 137.571 91.7184 138.348 91.6287ZM135.868 92.4211C135.868 93.3368 136.76 93.8788 137.933 93.8788C138.947 93.8788 139.754 93.5274 140.276 92.9369C140.687 92.4734 140.939 91.8342 141.135 90.8998L142.086 86.3547H140.687L140.173 88.7169C140.039 89.3785 139.814 90.6157 138.81 90.6157C137.918 90.6157 138.207 89.6327 138.263 89.3785L138.896 86.3547H137.474L136.845 89.3337C136.782 89.6476 136.727 89.9766 136.727 90.2419C136.727 90.6157 136.86 90.9446 137.078 91.1764C136.253 91.3894 135.868 91.8118 135.868 92.4211ZM126.185 105.518C125.819 105.518 125.419 105.462 125.208 105.372L125.601 103.507L126.481 99.2313C126.87 99.0743 127.484 98.9621 127.947 98.9621C129.157 98.9621 129.761 99.5789 129.761 100.846C129.761 103.219 128.325 105.518 126.185 105.518ZM128.306 97.7623C128.306 97.7623 127.288 97.6988 124.994 98.2108L124.412 100.977L123.879 103.507L122.891 108.239C122.81 108.535 122.432 110.037 123.998 110.037H124.231L124.971 106.501C125.341 106.617 125.886 106.681 126.285 106.681C129.468 106.681 131.519 103.847 131.519 100.749C131.519 98.708 130.22 97.7623 128.306 97.7623ZM113.66 105.249H109.837L110.681 101.048H113.079H113.364C114.101 101.044 114.526 100.876 114.804 100.143C114.837 100.027 114.87 99.9003 114.885 99.7695H113.494H110.951L111.698 96.1925H113.16H115.296C116.047 96.1775 116.484 96.0205 116.758 95.273C116.799 95.1534 116.836 95.0188 116.854 94.8842H115.433H110.136L108.149 104.632C108.086 104.95 107.668 106.539 109.326 106.539H109.378V106.546H111.388H113.542C114.278 106.539 114.715 106.382 114.993 105.63C115.037 105.518 115.074 105.38 115.089 105.249H113.66ZM121.747 104.928L120.607 102.229L124.176 97.9193H122.591L120.119 101.066L118.809 97.9193H116.991L118.783 102.139L115.059 106.531H116.654L119.264 103.328L120.03 105.118C120.256 105.656 120.43 105.974 120.681 106.221C120.992 106.531 121.422 106.681 121.921 106.681C122.114 106.681 122.306 106.662 122.48 106.617L121.799 105.025C121.784 104.984 121.762 104.972 121.747 104.928ZM141.372 98.9621C142.075 98.9621 142.46 99.3882 142.46 100.02C142.46 101.25 141.457 102.035 139.754 102.035C139.292 102.035 138.618 101.945 138.333 101.859C138.718 100.525 139.869 98.9621 141.372 98.9621ZM139.839 103.212C142.416 103.212 144.074 101.751 144.074 99.9975C144.074 98.4762 142.812 97.7623 141.427 97.7623C138.511 97.7623 136.305 100.749 136.305 103.552C136.305 105.548 137.696 106.681 139.606 106.681C140.687 106.681 141.875 106.344 142.638 105.877L142.897 104.546C142.19 105.017 141.016 105.462 140.058 105.462C138.785 105.462 138.063 104.729 138.063 103.485C138.063 103.328 138.081 103.1 138.1 102.973C138.57 103.119 139.318 103.212 139.839 103.212ZM137.093 99.2761L137.408 97.8296C137.282 97.7847 136.978 97.7623 136.801 97.7623C135.712 97.7623 134.943 98.3865 134.458 99.2537V97.9193H133.17C133.17 97.9193 133.185 98.308 133.062 99.1714L132.041 104.027L131.882 104.759C131.819 105.047 131.437 106.561 133.003 106.561H133.233L133.61 104.778L134.04 102.782C134.302 101.534 134.558 100.386 135.191 99.7433C135.531 99.4069 135.949 99.2163 136.534 99.2163C136.734 99.2163 137.001 99.2537 137.093 99.2761ZM154.819 98.9322C155.514 98.9322 156.362 99.1341 156.906 99.4294L157.158 98.237C156.629 97.9754 155.659 97.7623 154.911 97.7623C152.82 97.7623 151.28 98.8388 151.28 100.427C151.28 101.661 152.231 102.259 153.246 102.73C154.423 103.261 154.926 103.552 154.926 104.202C154.926 104.928 154.219 105.492 152.979 105.492C152.109 105.492 151.154 105.271 150.44 104.744L150.181 105.993C150.932 106.468 151.969 106.681 152.879 106.681C155.026 106.681 156.58 105.675 156.58 103.937C156.58 102.73 155.74 102.165 154.423 101.515C153.508 101.096 152.916 100.741 152.916 100.173C152.916 99.4779 153.653 98.9322 154.819 98.9322ZM147.905 101.515C146.99 101.096 146.42 100.741 146.42 100.173C146.42 99.4779 147.15 98.9322 148.315 98.9322C149.015 98.9322 149.859 99.1341 150.399 99.4294L150.651 98.237C150.125 97.9754 149.152 97.7623 148.412 97.7623C146.306 97.7623 144.784 98.8388 144.784 100.427C144.784 101.661 145.728 102.259 146.746 102.73C147.905 103.261 148.423 103.552 148.423 104.202C148.423 104.928 147.708 105.492 146.468 105.492C145.602 105.492 144.64 105.271 143.944 104.744L143.667 105.993C144.433 106.468 145.462 106.681 146.376 106.681C148.523 106.681 150.066 105.675 150.066 103.937C150.066 102.73 149.244 102.165 147.905 101.515Z" fill="#002D61"/>
<path d="M124.382 85.6566C124.878 85.6566 125.366 85.2081 125.366 84.7072C125.366 84.326 125.089 84.0568 124.73 84.0568C124.23 84.0568 123.741 84.5166 123.741 85.0324C123.741 85.4062 124.019 85.6566 124.382 85.6566ZM123.66 91.6258H123.852L124.974 86.292H123.553L122.746 90.1531C122.698 90.3961 122.379 91.6258 123.66 91.6258ZM116.576 87.6488C116.805 87.3535 117.116 87.1442 117.464 87.1442C118.03 87.1442 118.252 87.5442 118.252 88.1048C118.252 88.7066 118.03 89.6037 117.59 90.1531C117.353 90.4633 117.053 90.6689 116.687 90.6689C116.132 90.6689 115.909 90.2765 115.909 89.7121C115.909 89.1065 116.132 88.2095 116.576 87.6488ZM116.516 91.6258C117.272 91.6258 117.934 91.3716 118.426 90.9455C119.222 90.2989 119.688 89.2299 119.688 88.0936C119.688 86.8377 118.826 86.1911 117.634 86.1911C116.89 86.1911 116.231 86.4415 115.724 86.8676C114.936 87.5105 114.477 88.5833 114.477 89.7121C114.477 90.9792 115.332 91.6258 116.516 91.6258ZM108.226 90.1195C108.17 90.3475 107.855 91.5884 109.132 91.5884H109.325L110.061 88.0562C110.839 87.8357 111.657 87.6488 112.697 87.4395L112.675 87.5143L112.145 90.1195C112.097 90.3475 111.779 91.5884 113.056 91.5884H113.248L114.977 83.1822H113.578L112.945 86.2584V86.2696C111.875 86.4752 111.068 86.6583 110.298 86.8901L110.42 86.2584L111.068 83.1822H109.654L108.762 87.4657C108.562 87.5516 108.359 87.66 108.107 87.7834C107.718 87.989 107.596 88.2842 107.541 88.4337C107.526 88.5197 107.522 88.7066 107.563 88.8412C107.896 88.7066 108.233 88.5833 108.562 88.4562L108.226 90.1195ZM120.91 91.6258H121.091L122.59 84.4306H121.173L119.996 90.1531C119.951 90.3961 119.633 91.6258 120.91 91.6258ZM128.594 87.1068C128.76 87.1068 128.949 87.133 129.023 87.1741L128.572 89.3495C128.486 89.7382 128.361 90.0784 128.164 90.2989C127.965 90.5232 127.731 90.654 127.387 90.654C126.906 90.654 126.617 90.3138 126.617 89.7083C126.617 88.4412 127.506 87.1068 128.594 87.1068ZM126.962 91.6258C127.591 91.6258 128.139 91.3679 128.438 91.0016C128.538 91.3903 128.901 91.5884 129.323 91.5884H129.515L131.24 83.4775H129.804L129.223 86.2472C129.094 86.221 128.883 86.1911 128.675 86.1911C126.632 86.1911 125.189 87.8693 125.189 89.7382C125.189 90.9007 125.888 91.6258 126.962 91.6258ZM144.461 91.6258H144.657L146.386 83.227H144.983L143.543 90.1531C143.503 90.3961 143.188 91.6258 144.461 91.6258ZM153.544 89.1215C153.681 88.4562 153.929 87.2115 154.91 87.2115C155.395 87.2115 155.658 87.5217 155.499 88.2768L155.117 90.1195C155.073 90.3475 154.751 91.5884 156.035 91.5884H156.224L156.938 88.2244C157.238 86.7891 156.479 86.1575 155.395 86.1575C154.718 86.1575 154.148 86.4639 153.781 86.8676L153.644 86.2472H152.563C152.563 86.6845 152.508 87.2975 152.304 88.2319L151.623 91.4763H153.045L153.544 89.1215ZM134.246 87.1068C134.375 87.1068 134.501 87.133 134.583 87.1853L134.116 89.3495C134.042 89.7382 133.92 90.0784 133.731 90.2989C133.539 90.5232 133.287 90.654 132.947 90.654C132.454 90.654 132.225 90.3251 132.225 89.7121C132.225 88.6132 133.009 87.1068 134.246 87.1068ZM132.514 91.6258C133.146 91.6258 133.694 91.3679 133.998 91.0016C134.083 91.3903 134.457 91.5884 134.882 91.5884H135.071L136.096 86.7144C135.582 86.3817 134.942 86.1911 134.275 86.1911C132.343 86.1911 130.789 87.7759 130.789 89.7532C130.789 90.9007 131.436 91.6258 132.514 91.6258ZM147.315 91.4763L147.822 89.1215C147.952 88.4562 148.2 87.2115 149.184 87.2115C149.684 87.2115 149.932 87.5217 149.78 88.2768L149.41 90.1195C149.351 90.3475 149.032 91.5884 150.309 91.5884H150.502L151.201 88.2244C151.512 86.7891 150.746 86.1575 149.684 86.1575C149.007 86.1575 148.429 86.4639 148.059 86.8676L147.929 86.2472H146.841C146.841 86.6845 146.778 87.2975 146.586 88.2319L145.901 91.4763H147.315ZM138.276 91.5735C138.824 91.5062 139.309 91.3716 139.579 91.1249L139.49 91.5137C139.387 91.9323 139.191 92.3098 138.909 92.5714C138.647 92.8368 138.276 92.9789 137.888 92.9789C137.396 92.9789 136.985 92.7359 136.985 92.321C136.985 91.7828 137.503 91.6482 138.276 91.5735ZM135.8 92.3696C135.8 93.2667 136.689 93.8086 137.873 93.8086C138.891 93.8086 139.694 93.4685 140.201 92.8817C140.619 92.4182 140.867 91.7753 141.067 90.8446L142.033 86.292H140.619L140.12 88.658C139.979 89.3121 139.757 90.5568 138.758 90.5568C137.854 90.5568 138.143 89.57 138.191 89.3121L138.824 86.292H137.418L136.781 89.2673C136.729 89.585 136.659 89.9102 136.659 90.1755C136.659 90.5568 136.8 90.8782 137.011 91.1175C136.189 91.323 135.8 91.7454 135.8 92.3696ZM126.118 105.452C125.766 105.452 125.366 105.396 125.148 105.299L125.559 103.437H125.54L126.425 99.1611C126.802 99.0079 127.413 98.9069 127.868 98.9069C129.101 98.9069 129.697 99.5199 129.697 100.78C129.697 103.157 128.261 105.452 126.118 105.452ZM128.238 97.6922C128.238 97.6922 127.228 97.6361 124.926 98.1407L124.356 100.914H124.341L123.819 103.437H123.804L122.823 108.169C122.746 108.472 122.368 109.971 123.934 109.971H124.167L124.904 106.442C125.274 106.551 125.81 106.622 126.225 106.622C129.401 106.622 131.455 103.785 131.455 100.69C131.455 98.649 130.156 97.6922 128.238 97.6922ZM113.596 105.183V105.171H109.78L110.613 100.989H113.019V100.978H113.296C114.029 100.978 114.462 100.817 114.74 100.077C114.769 99.9685 114.806 99.8302 114.821 99.6993H113.433H110.887L111.638 96.1186H113.093H115.232C115.995 96.1186 116.417 95.9541 116.687 95.2103C116.742 95.0944 116.768 94.9524 116.79 94.8328H115.362H115.369H110.076L108.085 104.573C108.026 104.88 107.6 106.468 109.258 106.468H109.321V106.476H111.324H113.474C114.214 106.468 114.655 106.315 114.925 105.568C114.969 105.452 115.006 105.313 115.025 105.183H113.596ZM121.683 104.865L120.555 102.166L124.119 97.8529H122.527L120.051 100.989L118.741 97.8529H116.935L118.722 102.08L114.995 106.461H116.594L119.215 103.258L119.97 105.052C120.192 105.59 120.366 105.9 120.618 106.158C120.928 106.461 121.354 106.622 121.876 106.622C122.054 106.622 122.231 106.592 122.402 106.551L121.732 104.947C121.713 104.928 121.698 104.902 121.683 104.865ZM141.312 98.9069C142.015 98.9069 142.396 99.3218 142.396 99.9498C142.396 101.191 141.397 101.976 139.694 101.976C139.231 101.976 138.55 101.882 138.273 101.789C138.654 100.469 139.816 98.9069 141.312 98.9069ZM139.779 103.131C142.348 103.131 144.01 101.684 144.01 99.9311C144.01 98.4136 142.751 97.6922 141.36 97.6922C138.45 97.6922 136.244 100.69 136.244 103.497C136.244 105.474 137.632 106.622 139.557 106.622C140.619 106.622 141.815 106.282 142.574 105.803L142.836 104.495C142.126 104.947 140.956 105.396 139.986 105.396C138.717 105.396 138.006 104.667 138.006 103.422C138.006 103.258 138.021 103.033 138.032 102.906C138.517 103.048 139.257 103.131 139.779 103.131ZM137.029 99.1947L137.347 97.7594C137.218 97.7295 136.914 97.6922 136.744 97.6922C135.66 97.6922 134.875 98.3313 134.394 99.1761V97.8529H133.102C133.102 97.8529 133.132 98.2379 133.006 99.1125L131.981 103.957L131.818 104.697C131.758 104.985 131.377 106.491 132.932 106.491H133.161L133.542 104.719L133.976 102.716C134.224 101.467 134.501 100.32 135.13 99.6769C135.467 99.3443 135.878 99.1574 136.478 99.1574C136.681 99.1574 136.94 99.1761 137.029 99.1947ZM154.751 98.8658C155.465 98.8658 156.294 99.0751 156.846 99.3629L157.101 98.1669C156.565 97.9015 155.599 97.6922 154.843 97.6922C152.752 97.6922 151.22 98.7761 151.22 100.357C151.22 101.594 152.179 102.204 153.178 102.667C154.348 103.19 154.858 103.497 154.858 104.144C154.858 104.865 154.155 105.426 152.915 105.426C152.049 105.426 151.087 105.198 150.38 104.682L150.117 105.934C150.879 106.412 151.901 106.622 152.819 106.622C154.958 106.622 156.513 105.616 156.513 103.871C156.513 102.667 155.691 102.095 154.347 101.456C153.444 101.026 152.86 100.675 152.86 100.103C152.86 99.4115 153.596 98.8658 154.751 98.8658ZM147.848 101.456C146.934 101.026 146.345 100.675 146.345 100.103C146.345 99.4115 147.082 98.8658 148.251 98.8658C148.94 98.8658 149.795 99.0751 150.339 99.3629L150.587 98.1669C150.061 97.9015 149.095 97.6922 148.329 97.6922C146.238 97.6922 144.713 98.7761 144.713 100.357C144.713 101.594 145.672 102.204 146.686 102.667C147.848 103.19 148.355 103.497 148.355 104.144C148.355 104.865 147.644 105.426 146.404 105.426C145.538 105.426 144.572 105.198 143.877 104.682L143.603 105.934C144.369 106.412 145.405 106.622 146.308 106.622C148.459 106.622 149.998 105.616 149.998 103.871C149.998 102.667 149.184 102.095 147.848 101.456Z" fill="white"/>
<path d="M158.116 96.4706H158.345C158.501 96.4706 158.597 96.4407 158.597 96.2875C158.597 96.1455 158.475 96.1043 158.345 96.1043H158.116V96.4706ZM157.909 95.9399H158.371C158.656 95.9399 158.793 96.052 158.793 96.2875C158.793 96.4931 158.671 96.6351 158.486 96.6351L158.819 97.1808H158.612L158.275 96.6351H158.116V97.1808H157.909V95.9399ZM158.297 97.4574C158.793 97.4574 159.145 97.0687 159.145 96.5566C159.145 96.052 158.793 95.6745 158.297 95.6745C157.831 95.6745 157.472 96.052 157.472 96.5566C157.472 97.0687 157.831 97.4574 158.297 97.4574ZM158.297 95.525C158.878 95.525 159.345 95.9847 159.345 96.5566C159.345 97.1397 158.878 97.5957 158.297 97.5957C157.731 97.5957 157.257 97.1397 157.257 96.5566C157.257 95.9847 157.731 95.525 158.297 95.525Z" fill="white"/>
<path d="M44.3879 129.216H102.273V70.7835H44.3879V129.216Z" fill="url(#paint5_radial_104_18270)"/>
<mask id="mask2_104_18270" style="mask-type:luminance" maskUnits="userSpaceOnUse" x="44" y="70" width="59" height="59">
<path d="M44.3879 70.788H102.273V128.749H44.3879V70.788Z" fill="white"/>
</mask>
<g mask="url(#mask2_104_18270)">
<g opacity="0.699997">
<path d="M44.3879 128.75H44.858V70.7886H44.3879V128.75Z" fill="url(#paint6_linear_104_18270)"/>
<path d="M44.3917 71.2559H102.269V70.7886H44.3917V71.2559Z" fill="url(#paint7_linear_104_18270)"/>
</g>
</g>
<mask id="mask3_104_18270" style="mask-type:luminance" maskUnits="userSpaceOnUse" x="44" y="71" width="59" height="59">
<path d="M44.3992 71.2545H102.273V129.218H44.3992V71.2545Z" fill="white"/>
</mask>
<g mask="url(#mask3_104_18270)">
<g opacity="0.649994">
<path d="M44.3992 129.216H102.273V128.76H44.3992V129.216Z" fill="url(#paint8_linear_104_18270)"/>
<path d="M101.795 71.2544V84.9047C101.943 84.8935 102.099 84.8823 102.269 84.8711V71.2544H101.795ZM101.795 89.7376V129.216H102.269V89.7227C102.099 89.7227 101.943 89.7339 101.795 89.7376Z" fill="url(#paint9_linear_104_18270)"/>
</g>
</g>
<mask id="mask4_104_18270" style="mask-type:luminance" maskUnits="userSpaceOnUse" x="49" y="80" width="54" height="50">
<path d="M49.8955 80.199H102.273V129.218H49.8955V80.199Z" fill="white"/>
</mask>
<g mask="url(#mask4_104_18270)">
<path d="M81.8267 82.8863C80.3388 85.8018 78.6769 90.616 77.1001 96.1292L76.7633 97.3776C73.1619 98.6073 70.0121 99.4558 67.188 100.17L67.225 100.02C68.8203 94.2753 70.7413 88.8069 72.9509 83.9553C72.492 83.7946 71.6185 83.6376 70.9707 83.6376C68.5427 83.6376 67.1251 84.5795 66.0221 86.9941C64.4083 90.4927 62.665 95.9236 61.2104 101.687C56.0952 103.003 55.1625 103.194 52.0719 103.956C49.307 104.633 49.8475 105.851 50.1436 106.419C50.3693 106.879 52.8454 106.83 55.0625 106.83C56.4579 106.827 58.1346 106.744 60.0926 106.524L59.741 108.101C58.6676 113.345 57.9643 118.373 57.9643 121.98C57.9643 124.121 59.2672 125.381 61.1401 125.381C61.6471 125.381 62.4837 125.261 62.7909 125.112C63.3128 118.608 64.3565 111.977 65.8296 105.575C68.6315 104.988 71.7813 104.147 75.2939 102.947C72.8473 112.792 70.9522 123.183 70.9522 128.319C70.9522 128.644 70.9966 128.943 71.0485 129.216H76.5301C77.4814 120.01 79.3579 109.97 81.934 100.409C87.9153 97.8822 94.6998 94.421 102.269 89.6442V84.8412C95.044 89.3937 88.874 92.5297 83.533 94.7911L83.7143 94.1706C85.2244 89.3751 86.8975 84.7739 88.7444 80.5839C88.1485 80.3559 87.1047 80.1989 86.1424 80.1989C84.103 80.1989 82.7187 81.1258 81.8267 82.8863Z" fill="url(#paint10_radial_104_18270)"/>
</g>
<path d="M82.6503 87.8447C84.1567 83.0417 85.8223 78.4442 87.6581 74.2467C87.0733 74.0225 86.0185 73.8692 85.0635 73.8692C83.0241 73.8692 81.6435 74.785 80.7478 76.5567C79.2599 79.4721 77.6017 84.305 76.0286 89.807C72.5901 90.9508 69.2886 92.259 66.1536 93.6831C67.7303 87.9344 69.6661 82.481 71.8795 77.6219C71.4205 77.4687 70.5359 77.3192 69.8919 77.3192C67.4601 77.3192 66.0388 78.2461 64.9358 80.6645C63.2036 84.4658 61.2789 90.5546 59.7503 96.8639C56.3192 98.7253 54.6647 99.5439 51.774 101.648C50.2898 102.713 49.9048 104.074 49.8086 104.702C49.7457 105.136 49.8345 105.894 50.1269 106.459C53.025 104.762 55.8676 103.214 58.6621 101.779C57.5924 107.016 56.8818 112.05 56.8818 115.661C56.8818 117.807 58.1846 119.055 60.0575 119.055C60.5794 119.055 61.4122 118.939 61.7046 118.797C62.2376 112.133 63.3258 105.33 64.847 98.7888C68.156 97.3012 71.4094 95.9893 74.6517 94.8717C71.9905 105.203 69.8808 116.551 69.8808 121.985C69.8808 124.224 71.2206 125.17 73.5525 125.17C74.0521 125.17 74.9738 125.032 75.2403 124.916C76.1619 114.771 78.2198 103.48 81.166 92.857C88.0727 90.9919 95.0311 89.9453 102.278 89.6837V84.8507C95.4346 85.1722 88.8314 86.2449 82.6503 87.8447Z" fill="white"/>
<path d="M98.7639 85.0916C74.3242 90.1151 56.1322 100.394 50.1176 106.445L50.1287 106.46C53.0268 104.763 55.8621 103.208 58.6603 101.781C57.5906 107.014 56.8836 112.048 56.8836 115.663C56.8836 117.801 58.1828 119.057 60.0593 119.057C60.5775 119.057 61.4103 118.941 61.7064 118.799C62.2394 112.13 63.3276 105.328 64.8526 98.7905C68.1541 97.3028 71.4112 95.9909 74.6536 94.8733C71.9886 105.204 69.8826 116.552 69.8826 121.983C69.8826 124.222 71.2225 125.164 73.5543 125.164C74.0503 125.164 74.9756 125.033 75.2421 124.917C76.16 114.773 78.2179 103.478 81.1642 92.8586C88.0745 90.9898 95.0144 89.9469 102.269 89.6815V84.8523C101.092 84.9084 99.9261 84.9869 98.7639 85.0916Z" fill="url(#paint11_linear_104_18270)"/>
<path d="M79.3695 117.333H79.5656C79.6952 117.333 79.784 117.295 79.784 117.157C79.784 117.049 79.6656 117.008 79.5656 117.008H79.3695V117.333ZM79.1881 116.873H79.5915C79.8358 116.873 79.9469 116.978 79.9469 117.165C79.9469 117.337 79.8469 117.452 79.6878 117.452L79.9765 117.92H79.7914L79.5027 117.452H79.3695V117.92H79.1881V116.873ZM79.5434 118.151C79.9469 118.151 80.2467 117.826 80.2467 117.396C80.2467 116.978 79.9469 116.641 79.5434 116.641C79.1215 116.641 78.8254 116.978 78.8254 117.396C78.8254 117.826 79.1215 118.151 79.5434 118.151ZM79.5286 116.511C80.0172 116.511 80.4169 116.91 80.4169 117.396C80.4169 117.897 80.0172 118.282 79.5286 118.282C79.0437 118.282 78.6514 117.897 78.6514 117.396C78.6514 116.91 79.0437 116.511 79.5286 116.511Z" fill="white"/>
<defs>
<radialGradient id="paint0_radial_104_18270" cx="0" cy="0" r="1" gradientUnits="userSpaceOnUse" gradientTransform="translate(93.7432 63.5033) scale(64.2057 64.838)">
<stop stop-color="#0078BF"/>
<stop offset="0.488764" stop-color="#0078BF"/>
<stop offset="0.97449" stop-color="#004A99"/>
<stop offset="1" stop-color="#004A99"/>
</radialGradient>
<linearGradient id="paint1_linear_104_18270" x1="103.975" y1="70.7873" x2="103.975" y2="128.749" gradientUnits="userSpaceOnUse">
<stop stop-color="white"/>
<stop offset="1" stop-color="#0078BF"/>
</linearGradient>
<linearGradient id="paint2_linear_104_18270" x1="103.743" y1="71.0205" x2="161.612" y2="71.0205" gradientUnits="userSpaceOnUse">
<stop stop-color="white"/>
<stop offset="1" stop-color="#0078BF"/>
</linearGradient>
<linearGradient id="paint3_linear_104_18270" x1="161.612" y1="128.989" x2="103.743" y2="128.989" gradientUnits="userSpaceOnUse">
<stop stop-color="#002D61"/>
<stop offset="1" stop-color="#0078BF"/>
</linearGradient>
<linearGradient id="paint4_linear_104_18270" x1="161.38" y1="129.218" x2="161.38" y2="71.2532" gradientUnits="userSpaceOnUse">
<stop stop-color="#002D61"/>
<stop offset="1" stop-color="#0078BF"/>
</linearGradient>
<radialGradient id="paint5_radial_104_18270" cx="0" cy="0" r="1" gradientUnits="userSpaceOnUse" gradientTransform="translate(34.3869 63.5033) scale(64.2131 64.8455)">
<stop stop-color="#8CB51D"/>
<stop offset="0.488764" stop-color="#8CB51D"/>
<stop offset="1" stop-color="#4DA32F"/>
</radialGradient>
<linearGradient id="paint6_linear_104_18270" x1="44.6246" y1="70.7883" x2="44.6246" y2="128.75" gradientUnits="userSpaceOnUse">
<stop stop-color="white"/>
<stop offset="1" stop-color="#4DA32F"/>
</linearGradient>
<linearGradient id="paint7_linear_104_18270" x1="44.3889" y1="71.0215" x2="102.271" y2="71.0215" gradientUnits="userSpaceOnUse">
<stop stop-color="white"/>
<stop offset="1" stop-color="#4DA32F"/>
</linearGradient>
<linearGradient id="paint8_linear_104_18270" x1="102.271" y1="128.989" x2="44.3972" y2="128.989" gradientUnits="userSpaceOnUse">
<stop stop-color="#006A32"/>
<stop offset="1" stop-color="#4DA32F"/>
</linearGradient>
<linearGradient id="paint9_linear_104_18270" x1="102.033" y1="129.218" x2="102.033" y2="71.2532" gradientUnits="userSpaceOnUse">
<stop stop-color="#006A32"/>
<stop offset="1" stop-color="#4DA32F"/>
</linearGradient>
<radialGradient id="paint10_radial_104_18270" cx="0" cy="0" r="1" gradientUnits="userSpaceOnUse" gradientTransform="translate(72.0834 100.12) scale(28.6613 28.9436)">
<stop stop-color="#A0C680"/>
<stop offset="1" stop-color="#318C2C"/>
</radialGradient>
<linearGradient id="paint11_linear_104_18270" x1="78.8812" y1="100.748" x2="71.0642" y2="86.1902" gradientUnits="userSpaceOnUse">
<stop stop-color="white"/>
<stop offset="0.213483" stop-color="white"/>
<stop offset="1" stop-color="#CADEB7"/>
</linearGradient>
</defs>
</svg>
