<svg width="210" height="200" viewBox="0 0 210 200" fill="none" xmlns="http://www.w3.org/2000/svg">
<path fill-rule="evenodd" clip-rule="evenodd" d="M119.762 69.9761C119.511 70.2049 119.261 70.4337 119.023 70.6756C116.724 72.6955 114.353 74.6517 111.749 76.2519C108.682 78.2406 105.367 79.8257 101.905 80.9505C95.4891 83.0423 88.6593 83.5989 81.9627 83.0956L81.957 83.1525C87.4174 84.6692 93.1985 85.046 98.7942 84.1497C101.055 83.7786 103.267 83.1374 105.417 82.3408C109.748 80.6606 113.726 77.9982 116.86 74.5079C118.334 72.8126 119.69 70.9898 120.761 69C120.449 69.3476 120.105 69.6617 119.762 69.976L119.762 69.976L119.762 69.9761ZM64.7899 94.0785C63.3421 93.7921 61.8487 93.748 60.3895 93.9637C57.9158 94.2745 55.5331 95.6242 54.1432 97.7613C52.7864 99.7534 52.3462 102.273 52.5555 104.658C52.7056 106.741 53.4733 108.796 54.8495 110.358C56.3963 112.103 58.6221 113.157 60.9104 113.355C62.8109 113.557 64.7763 113.353 66.5505 112.606C68.1439 111.892 69.5713 110.734 70.4948 109.219C71.846 107.067 72.2156 104.382 71.8551 101.882C71.5776 99.8404 70.7155 97.8355 69.2199 96.4162C68.0097 95.2102 66.4391 94.4264 64.7899 94.0785ZM57.2357 99.7395C58.0364 98.3747 59.5058 97.5085 61.0298 97.2847C62.9042 96.9716 64.9901 97.3392 66.4265 98.6785C67.5639 99.7627 68.0643 101.359 68.2031 102.903C68.3134 104.539 68.0439 106.268 67.1362 107.654C66.3083 108.871 64.9355 109.651 63.5024 109.835C62.0341 110.065 60.4805 109.912 59.1339 109.248C57.6099 108.443 56.6511 106.807 56.4009 105.107C56.1393 103.296 56.2587 101.326 57.2357 99.7395ZM108.805 93.8943C110.831 93.6972 112.935 93.9233 114.794 94.8069C116.627 95.7102 118.17 97.2674 118.962 99.1912C119.589 100.616 119.801 102.185 119.854 103.733C119.795 105.691 119.353 107.691 118.268 109.333C117.427 110.671 116.182 111.71 114.797 112.418C112.619 113.469 110.109 113.635 107.759 113.211C105.865 112.847 104.091 111.878 102.772 110.445C101.476 108.996 100.678 107.117 100.455 105.175C100.157 102.76 100.484 100.18 101.779 98.0954C102.678 96.559 104.093 95.36 105.702 94.6631C106.683 94.2224 107.744 94.0021 108.805 93.8943ZM109.45 97.2071C107.967 97.3219 106.483 97.9493 105.511 99.1239C104.046 100.962 103.834 103.552 104.389 105.786C104.77 107.329 105.809 108.732 107.255 109.378C108.744 110.012 110.425 110.074 111.987 109.713C113.344 109.363 114.595 108.479 115.249 107.197C116.078 105.699 116.147 103.914 115.974 102.241C115.728 100.701 115.039 99.1227 113.723 98.2403C112.494 97.3544 110.925 97.0912 109.45 97.2071ZM45.0433 94.1611H45.0424H45.0416H45.0407H45.0398H45.039H45.0381H45.0373H45.0364H45.0356H45.0347H45.0339H45.033H45.0322H45.0313H45.0305H45.0296H45.0288H45.0279C43.8464 94.1599 42.6661 94.1588 41.4857 94.1622C41.4793 96.5988 41.4803 99.0351 41.4813 101.471V101.472V101.472V101.472V101.472V101.472V101.472V101.472V101.472V101.473V101.473V101.473V101.473V101.473V101.473V101.473V101.473V101.473V101.473V101.473C41.4823 103.812 41.4833 106.15 41.4777 108.489C40.677 107.874 39.981 107.131 39.3361 106.353C38.2749 105.074 37.2998 103.725 36.3249 102.377C35.0084 100.556 33.6922 98.7358 32.1651 97.089C31.1086 95.9735 29.9371 94.8916 28.4745 94.3779C27.8549 94.142 27.1973 94.1508 26.5438 94.1596H26.5438H26.5438H26.5437H26.5437H26.5436H26.5436H26.5436H26.5435H26.5435H26.5435H26.5434H26.5434H26.5433H26.5433H26.5433H26.5432H26.5432H26.5432C26.32 94.1626 26.0973 94.1656 25.8768 94.1588V113.056C26.2937 113.055 26.7105 113.056 27.1274 113.056C27.857 113.057 28.5865 113.057 29.3161 113.052C29.3328 110.465 29.3303 107.879 29.3278 105.292C29.3259 103.291 29.3239 101.291 29.3309 99.2898C30.3055 100.075 31.0687 101.082 31.8253 102.081L31.8254 102.081L31.8254 102.081L31.8255 102.081L31.8256 102.081C31.9395 102.232 32.0532 102.382 32.1674 102.531C32.6659 103.208 33.1505 103.897 33.6351 104.587L33.6352 104.587L33.6353 104.587C34.8833 106.363 36.1323 108.14 37.6233 109.714C38.7731 110.984 40.1436 112.102 41.7496 112.702C42.8039 113.069 43.9344 113.074 45.0353 113.055C45.0512 109.057 45.0488 105.058 45.0463 101.059V101.055V101.055V101.055V101.055V101.055V101.055V101.055V101.055V101.055V101.055V101.055V101.055V101.055V101.055V101.055V101.055V101.055V101.054C45.0449 98.7566 45.0435 96.4588 45.0456 94.1611H45.0433ZM146.822 94.1543C148.885 94.1602 150.948 94.1589 153.011 94.1577C155.429 94.1562 157.848 94.1547 160.267 94.1647C160.283 94.8579 160.28 95.551 160.278 96.2441V96.2459C160.276 96.6816 160.275 97.1173 160.278 97.553C159.576 97.6175 158.87 97.6086 158.164 97.5996C157.741 97.5943 157.318 97.5889 156.897 97.5994C156.073 97.6068 155.249 97.6028 154.425 97.5988C153.075 97.5922 151.726 97.5856 150.38 97.6295C150.386 98.3354 150.385 99.0413 150.384 99.7471V99.7493C150.384 100.397 150.383 101.045 150.388 101.693C152.009 101.712 153.631 101.709 155.253 101.707C156.686 101.704 158.12 101.702 159.553 101.715C159.57 102.554 159.567 103.394 159.564 104.234C159.563 104.523 159.562 104.811 159.561 105.099C158.982 105.151 158.401 105.136 157.82 105.121C157.438 105.112 157.056 105.102 156.674 105.111C155.384 105.119 154.096 105.118 152.808 105.116C152.202 105.116 151.596 105.115 150.989 105.116C150.783 105.121 150.58 105.143 150.38 105.175C150.389 105.429 150.386 105.69 150.384 105.952V105.953V105.953V105.953V105.953V105.953V105.954V105.954V105.954V105.954V105.954V105.955C150.376 106.902 150.367 107.876 150.891 108.688C151.533 109.655 152.778 109.813 153.829 109.897C155.99 109.966 158.159 109.873 160.296 109.522C160.29 109.963 160.293 110.404 160.295 110.845C160.3 111.519 160.304 112.194 160.276 112.866C159.239 113.119 158.175 113.23 157.114 113.34C156.998 113.352 156.883 113.364 156.767 113.376C154.879 113.452 152.957 113.517 151.108 113.052C149.719 112.705 148.374 111.891 147.657 110.596C146.961 109.361 146.807 107.908 146.795 106.509C146.793 104.367 146.794 102.224 146.794 100.081C146.794 98.4737 146.794 96.8665 146.794 95.2594L146.793 95.1239C146.79 94.8001 146.787 94.4759 146.822 94.1543ZM169.146 94.1586H169.146H169.146H169.146H169.146H169.146H169.146H169.145H169.145H169.145H169.145H169.145H169.145H169.145H169.145H169.144C168.759 94.1613 168.373 94.164 167.988 94.1625C167.986 96.9258 167.986 99.6891 167.987 102.453V102.453V102.453V102.453V102.454V102.454V102.454V102.454V102.454V102.454V102.455V102.455V102.455V102.455V102.455V102.455V102.455L167.987 105.233C167.99 105.482 167.988 105.732 167.987 105.982V105.982V105.982V105.982V105.982C167.982 106.66 167.977 107.339 168.074 108.011C168.186 109.239 168.57 110.467 169.331 111.441C169.843 112.066 170.532 112.523 171.277 112.809C172.774 113.431 174.423 113.452 176.014 113.415C177.691 113.389 179.361 113.205 181.011 112.895V109.553C178.646 109.809 176.257 110.06 173.879 109.836C173.188 109.715 172.451 109.42 172.06 108.793C171.687 108.184 171.593 107.448 171.597 106.743V94.1811C170.781 94.1472 169.963 94.1529 169.146 94.1586ZM78.4336 94.1687H78.4344C79.0917 94.1694 79.7491 94.1701 80.4068 94.1667C81.399 96.3582 82.3609 98.5642 83.3227 100.77C84.2583 102.916 85.1937 105.061 86.1572 107.193C87.0345 105.235 87.8924 103.267 88.7504 101.3L88.7506 101.299L88.7508 101.299L88.751 101.298L88.7511 101.298L88.7513 101.298L88.7515 101.297L88.7517 101.297L88.7519 101.296L88.7521 101.296L88.7522 101.295L88.7524 101.295L88.7526 101.295L88.7528 101.294L88.753 101.294L88.7532 101.293C89.792 98.911 90.8309 96.5284 91.9042 94.1621C92.6489 94.1716 93.3937 94.1704 94.1384 94.1692C94.763 94.1682 95.3876 94.1673 96.0123 94.1725C94.0879 98.2724 92.1417 102.362 90.1954 106.452C89.128 108.695 88.0605 110.939 86.9965 113.184C86.4324 113.192 85.8694 113.192 85.3064 113.184C84.2819 111.013 83.2552 108.843 82.2284 106.673L82.2278 106.672L82.2274 106.671L82.2271 106.671L82.2268 106.67L82.2265 106.669L82.2262 106.669L82.2259 106.668L82.2256 106.667L82.2253 106.667L82.225 106.666L82.2247 106.665L82.2244 106.665L82.224 106.664L82.2237 106.663L82.2234 106.663C80.2543 102.501 78.285 98.3396 76.3305 94.1714C77.0317 94.1672 77.7326 94.1679 78.4336 94.1687ZM135.972 94.1705H135.97H135.97H135.97H135.97H135.969H135.969H135.969H135.969H135.968H135.968H135.968H135.968H135.968H135.967C131.936 94.1686 127.905 94.1667 123.874 94.1766C123.854 95.0302 123.858 95.8844 123.863 96.7388C123.864 96.9651 123.865 97.1913 123.866 97.4176C125.177 97.4527 126.489 97.4478 127.801 97.4428H127.801H127.801H127.801H127.801H127.801H127.801H127.801H127.801H127.802H127.802H127.802H127.802H127.802H127.802C128.699 97.4394 129.597 97.436 130.494 97.4454C130.493 102.245 130.493 107.043 130.494 111.843L130.494 111.89L130.493 111.983L130.492 112.062C130.488 112.398 130.483 112.735 130.552 113.066C131.12 113.057 131.687 113.058 132.255 113.06C132.88 113.061 133.506 113.063 134.132 113.051C134.132 111.521 134.131 109.99 134.131 108.46V108.46V108.46V108.46V108.46V108.459V108.459V108.459V108.459V108.459V108.459V108.459V108.459V108.458V108.458C134.129 104.787 134.128 101.115 134.134 97.4431C135.007 97.4395 135.879 97.441 136.752 97.4425C138.106 97.4449 139.46 97.4473 140.815 97.4303C140.812 96.8095 140.812 96.1886 140.813 95.5679C140.813 95.1024 140.813 94.6371 140.812 94.172C139.199 94.172 137.586 94.1712 135.972 94.1705ZM125.591 124.56C126.478 124.285 127.46 124.391 128.322 124.714C128.319 124.926 128.319 125.14 128.32 125.353C128.245 125.332 128.169 125.31 128.092 125.288C127.3 125.059 126.431 124.809 125.667 125.233C125.067 125.543 125.084 126.549 125.691 126.843C126.017 127.012 126.373 127.112 126.729 127.212C127.253 127.359 127.776 127.506 128.2 127.872C129.02 128.653 128.783 130.238 127.749 130.711C126.741 131.182 125.532 130.997 124.547 130.546C124.547 130.331 124.547 130.118 124.548 129.906C125.455 130.219 126.481 130.56 127.405 130.122C128.098 129.863 128.226 128.802 127.663 128.345C127.29 128.081 126.854 127.965 126.418 127.849C125.959 127.727 125.5 127.605 125.117 127.31C124.233 126.582 124.523 124.947 125.591 124.56ZM158.707 124.429C158.232 124.462 157.742 124.648 157.453 125.051C156.911 125.72 156.984 126.861 157.7 127.374C158.07 127.622 158.495 127.736 158.92 127.85C159.328 127.959 159.736 128.068 160.097 128.297C160.56 128.598 160.645 129.308 160.35 129.759C160.189 130.018 159.898 130.15 159.622 130.233C158.753 130.48 157.841 130.217 157.04 129.862C157.041 130.012 157.047 130.162 157.053 130.312L157.057 130.427L157.058 130.462L157.06 130.513L157.062 130.558C158.025 130.98 159.187 131.176 160.177 130.738C161.198 130.292 161.546 128.775 160.775 127.943C160.347 127.523 159.788 127.367 159.23 127.211C158.879 127.113 158.527 127.015 158.208 126.851C157.585 126.562 157.568 125.53 158.185 125.228C158.945 124.814 159.804 125.061 160.589 125.287L160.59 125.287C160.668 125.31 160.747 125.332 160.824 125.354C160.823 125.138 160.823 124.924 160.825 124.71C160.153 124.453 159.42 124.364 158.707 124.429ZM56.3667 124.502C57.0548 124.373 57.7941 124.491 58.406 124.839C59.226 125.301 59.6946 126.235 59.7947 127.162C59.9323 128.21 59.6878 129.368 58.9417 130.138C57.8646 131.305 55.7958 131.278 54.7699 130.054C54.0181 129.181 53.8611 127.912 54.0784 126.805C54.3024 125.663 55.2078 124.658 56.3667 124.502ZM56.4167 125.143C55.9493 125.237 55.5262 125.518 55.2441 125.907C54.5253 126.907 54.5265 128.369 55.1805 129.402C55.8594 130.474 57.5234 130.588 58.3809 129.684C59.2647 128.764 59.3033 127.24 58.713 126.147C58.2627 125.348 57.2971 124.927 56.4167 125.143ZM90.3028 124.737C89.294 124.459 88.1294 124.246 87.1819 124.82C86.313 125.369 86.3278 126.83 87.1694 127.396C87.5326 127.626 87.9434 127.737 88.3541 127.848C88.7756 127.962 89.1971 128.075 89.567 128.318C90.1561 128.74 90.0685 129.814 89.3929 130.103C88.4615 130.57 87.414 130.226 86.4938 129.908C86.4927 130.013 86.4918 130.119 86.491 130.225C86.4901 130.33 86.4893 130.435 86.4882 130.54C87.2286 130.915 88.0782 131.04 88.8971 130.949C89.4839 130.886 90.0617 130.58 90.404 130.084C90.8954 129.37 90.7088 128.238 89.9593 127.786C89.6027 127.559 89.1992 127.448 88.7959 127.337C88.3942 127.227 87.9927 127.117 87.638 126.892C87.0978 126.565 87.0432 125.617 87.6414 125.322C88.4762 124.912 89.4646 125.133 90.3096 125.405C90.3051 125.18 90.304 124.959 90.3028 124.737ZM99.1104 124.588C99.7872 124.36 100.531 124.421 101.197 124.658C101.196 124.86 101.196 125.062 101.199 125.265C100.634 125.072 100.02 124.981 99.438 125.145C99.016 125.308 98.7067 125.773 98.7897 126.241C98.8535 126.694 99.1597 127.032 99.457 127.361C99.5359 127.448 99.6141 127.535 99.6871 127.622C99.8049 127.742 99.9219 127.864 100.039 127.985C100.386 128.345 100.734 128.706 101.108 129.039C101.243 128.556 101.266 128.051 101.205 127.555C101.402 127.555 101.599 127.555 101.796 127.556C101.93 128.228 101.871 128.934 101.585 129.559C101.938 129.909 102.287 130.263 102.636 130.617L102.637 130.618L102.639 130.62L102.848 130.832C102.552 130.832 102.257 130.832 101.964 130.833L101.89 130.759L101.795 130.663L101.694 130.562L101.693 130.56C101.536 130.402 101.379 130.245 101.221 130.089C100.64 130.736 99.7394 131.024 98.8955 130.898C98.1244 130.866 97.3441 130.296 97.244 129.483C97.0689 128.553 97.6194 127.606 98.4394 127.206C98.1539 126.741 97.9617 126.173 98.1221 125.628C98.2335 125.127 98.643 124.747 99.1104 124.588ZM97.9321 129.459C98.0072 129.873 98.3814 130.154 98.7624 130.255C99.4801 130.466 100.3 130.219 100.794 129.646C100.517 129.374 100.245 129.096 99.9735 128.819L99.9732 128.818L99.9729 128.818L99.9726 128.818L99.9722 128.817L99.9719 128.817L99.9716 128.817L99.9713 128.816L99.971 128.816L99.9706 128.816C99.5899 128.427 99.209 128.038 98.8147 127.664C98.1812 127.982 97.7593 128.741 97.9321 129.459ZM136.54 124.831C135.869 124.458 135.053 124.352 134.312 124.547C133.203 124.776 132.396 125.799 132.203 126.904C132.023 127.978 132.183 129.19 132.902 130.038C133.921 131.275 136 131.311 137.084 130.143C137.861 129.342 138.096 128.127 137.925 127.04C137.802 126.151 137.33 125.272 136.54 124.831ZM132.867 127.28C132.962 126.325 133.578 125.334 134.556 125.145C135.434 124.927 136.402 125.341 136.855 126.139C137.451 127.233 137.412 128.76 136.53 129.684C135.76 130.482 134.352 130.503 133.575 129.705C132.962 129.077 132.791 128.134 132.867 127.28ZM45.4289 124.571C45.6541 124.57 45.8793 124.57 46.1044 124.571V127.295C47.2771 127.296 48.4497 127.296 49.6223 127.295V124.571C49.8475 124.57 50.0738 124.57 50.3001 124.571C50.2996 125.465 50.2998 126.36 50.2999 127.254C50.3001 128.447 50.3003 129.64 50.299 130.833H49.6223V127.964C48.7428 127.962 47.8634 127.963 46.9839 127.963L46.1044 127.963C46.1044 128.92 46.1044 129.876 46.1033 130.833H45.4277C45.4277 130.237 45.4275 129.64 45.4274 129.044V129.041C45.4269 127.551 45.4264 126.061 45.4289 124.571ZM65.9523 124.571H65.9396C64.7943 124.57 63.6491 124.57 62.5038 124.571L62.5072 125.239C63.2556 125.236 64.004 125.238 64.7524 125.239C64.7544 125.926 64.7533 126.613 64.7522 127.3V127.3V127.301V127.301V127.301V127.301V127.301C64.7502 128.48 64.7482 129.659 64.7626 130.838C64.9844 130.834 65.2073 130.832 65.4302 130.831C65.4297 130.032 65.4299 129.233 65.43 128.434C65.4302 127.369 65.4304 126.305 65.4291 125.241C65.8864 125.237 66.3438 125.237 66.8011 125.238C67.0921 125.238 67.3832 125.238 67.6742 125.238C67.6742 125.015 67.6753 124.792 67.6765 124.571L65.9523 124.571ZM71.4047 128.547C71.4075 128.006 71.4065 127.464 71.4055 126.922C71.404 126.137 71.4025 125.351 71.4126 124.566C72.1484 124.573 72.8841 124.572 73.6198 124.571H73.621C74.0973 124.57 74.5736 124.57 75.0499 124.571C75.0487 124.793 75.0487 125.014 75.0499 125.238C74.0615 125.239 73.0732 125.239 72.0848 125.237L72.0842 125.417C72.082 126.015 72.0798 126.613 72.0871 127.211C73.0322 127.207 73.9774 127.207 74.9225 127.211C74.9213 127.432 74.9202 127.653 74.9202 127.876H72.0837C72.0881 128.05 72.0853 128.224 72.0825 128.399C72.0767 128.76 72.0709 129.121 72.1292 129.478C72.1701 129.823 72.4624 130.096 72.7945 130.142C73.3431 130.238 73.8977 130.194 74.4509 130.15C74.6649 130.134 74.8787 130.117 75.0919 130.108C75.0912 130.246 75.0914 130.386 75.0917 130.526V130.528L75.0919 130.739C74.972 130.752 74.8517 130.766 74.731 130.781L74.7306 130.781C73.9447 130.875 73.145 130.97 72.3691 130.772C71.987 130.687 71.681 130.376 71.5503 130.006C71.4032 129.596 71.404 129.156 71.4047 128.724V128.724V128.724V128.724L71.4048 128.65C71.4049 128.615 71.4048 128.581 71.4047 128.547ZM79.508 124.631L79.4992 124.631C79.5029 125.311 79.5015 125.992 79.5001 126.672C79.498 127.654 79.496 128.637 79.5094 129.618C79.5049 130.097 79.7255 130.624 80.1998 130.79C81.0006 131.059 81.849 130.966 82.676 130.874L82.6766 130.874C82.789 130.862 82.901 130.85 83.0124 130.838C83.0136 130.731 83.0141 130.624 83.0147 130.517V130.516C83.0153 130.408 83.0158 130.3 83.017 130.194C82.8243 130.203 82.6304 130.22 82.436 130.236C81.8424 130.287 81.2445 130.338 80.6627 130.197C80.326 130.126 80.1759 129.776 80.1838 129.456C80.1722 128.633 80.1743 127.809 80.1763 126.986C80.1783 126.198 80.1802 125.41 80.1702 124.623C79.9491 124.626 79.728 124.629 79.508 124.631ZM108.741 124.57C109.051 124.573 109.361 124.571 109.67 124.57C110.172 124.568 110.673 124.566 111.174 124.579C111.683 124.587 112.172 124.821 112.53 125.184C113.203 125.888 113.1 127.193 112.32 127.775C112.122 127.942 111.877 128.028 111.637 128.112L111.599 128.125L111.542 128.145C112.149 129.039 112.755 129.935 113.356 130.833C113.088 130.832 112.822 130.832 112.557 130.833C112.368 130.558 112.177 130.283 111.986 130.008L111.986 130.008L111.986 130.008C111.584 129.428 111.181 128.849 110.791 128.261C110.417 128.249 110.042 128.251 109.668 128.252H109.668C109.585 128.253 109.502 128.253 109.419 128.253C109.418 129.107 109.418 129.96 109.418 130.815V130.832C109.192 130.832 108.967 130.832 108.741 130.833C108.741 129.442 108.741 128.05 108.741 126.658L108.741 124.57ZM109.461 125.237V127.556C109.714 127.539 109.97 127.548 110.226 127.557C110.706 127.574 111.187 127.591 111.644 127.435C112.502 127.135 112.511 125.702 111.669 125.379C111.195 125.206 110.692 125.221 110.191 125.237C109.947 125.244 109.702 125.252 109.461 125.237ZM120.736 124.571H117.09C117.093 125.247 117.093 125.922 117.092 126.598V126.6C117.09 127.48 117.089 128.361 117.099 129.241C117.108 129.816 117.314 130.493 117.889 130.717C118.676 130.984 119.508 130.887 120.321 130.792C120.474 130.774 120.625 130.757 120.776 130.741C120.775 130.529 120.775 130.318 120.776 130.108C120.56 130.117 120.343 130.134 120.126 130.151C119.572 130.195 119.016 130.239 118.467 130.138C118.136 130.09 117.854 129.814 117.812 129.473C117.756 129.109 117.761 128.741 117.767 128.373C117.769 128.207 117.772 128.042 117.769 127.876H120.607C120.606 127.654 120.606 127.434 120.606 127.213V127.208C119.66 127.209 118.715 127.209 117.77 127.208C117.765 126.552 117.766 125.896 117.77 125.239C118.051 125.239 118.332 125.239 118.614 125.238H118.614H118.614H118.615C119.319 125.237 120.023 125.237 120.727 125.242C120.729 125.018 120.732 124.794 120.736 124.571ZM142.463 124.571H142.463C142.95 124.569 143.437 124.567 143.925 124.577C144.497 124.577 145.057 124.85 145.427 125.294C145.864 125.851 145.876 126.681 145.544 127.294C145.29 127.739 144.832 128.014 144.353 128.142C144.689 128.661 145.037 129.174 145.385 129.686C145.644 130.067 145.903 130.448 146.158 130.833C145.887 130.833 145.619 130.833 145.35 130.831C144.76 129.968 144.169 129.106 143.57 128.251C143.123 128.254 142.678 128.255 142.232 128.248C142.216 128.778 142.218 129.309 142.22 129.839C142.221 130.17 142.222 130.502 142.219 130.833C141.994 130.833 141.769 130.833 141.546 130.834C141.544 129.906 141.545 128.978 141.545 128.049C141.545 126.89 141.546 125.73 141.542 124.571C141.849 124.573 142.156 124.572 142.463 124.571ZM142.223 125.239C142.218 126.011 142.219 126.784 142.223 127.556C142.474 127.539 142.731 127.548 142.987 127.558C143.469 127.576 143.952 127.594 144.41 127.433C145.262 127.127 145.266 125.702 144.428 125.378C143.953 125.206 143.451 125.222 142.95 125.238C142.706 125.246 142.463 125.253 142.223 125.239ZM150.071 124.571C149.644 124.571 149.216 124.571 148.789 124.571C148.787 124.792 148.787 125.015 148.79 125.238C149.02 125.237 149.251 125.238 149.482 125.238C149.982 125.239 150.482 125.239 150.981 125.233C150.998 126.348 150.995 127.464 150.993 128.579C150.991 129.33 150.99 130.082 150.994 130.834C151.218 130.833 151.442 130.833 151.668 130.833C151.672 129.735 151.671 128.638 151.67 127.541C151.67 126.773 151.67 126.006 151.671 125.238H153.917C153.916 125.016 153.916 124.794 153.918 124.573C152.636 124.57 151.354 124.57 150.071 124.571Z" fill="#171F5F"/>
</svg>
