<svg width="317" height="94" viewBox="0 0 317 94" fill="none" xmlns="http://www.w3.org/2000/svg">
<path fill-rule="evenodd" clip-rule="evenodd" d="M222.18 24.1227L222.199 24V24.1227H222.18ZM222.18 24.1227C221.932 25.7228 221.51 27.0327 220.912 28.1094C220.299 29.2134 219.563 30.072 218.705 30.7467C217.847 31.4214 216.928 31.9734 215.886 32.28C214.844 32.648 213.741 32.8934 212.638 33.0774L207.734 33.8134C206.386 33.9974 205.099 34.3041 203.75 34.7334C202.402 35.1627 201.176 35.7761 200.073 36.6347C198.97 37.4934 198.05 38.6588 197.315 40.1308C196.58 41.6028 196.15 43.5655 196.028 45.9575H196.15C197.499 43.9335 199.276 42.3387 201.36 41.2348C203.444 40.1307 205.773 39.5788 208.225 39.5788C210.676 39.5788 212.699 39.9468 214.292 40.6828C215.886 41.4188 217.173 42.1547 218.154 43.0135C219.625 44.2401 220.728 45.7735 221.586 47.6135C222.444 49.4535 222.873 51.6615 222.873 54.2989C222.873 57.2429 222.383 59.6961 221.341 61.6589C220.299 63.6215 219.073 65.1549 217.48 66.2589C215.947 67.4242 214.231 68.1602 212.331 68.651C210.431 69.0802 208.592 69.3256 206.815 69.3256C204.118 69.3256 201.85 68.8962 200.134 68.099C198.418 67.3016 197.07 66.5042 196.089 65.6455C195.047 64.7255 194.25 63.7442 193.576 62.6401C192.963 61.5361 192.473 60.4321 192.105 59.2055C191.799 58.0401 191.554 56.8135 191.431 55.6481C191.309 54.4215 191.247 53.3175 191.247 52.1521C191.247 50.4349 191.37 48.6561 191.554 46.8161C191.738 44.9761 192.105 43.1361 192.534 41.3574C192.963 39.5788 193.576 37.9227 194.373 36.3281C195.109 34.7334 196.028 33.3841 197.131 32.2187C198.05 31.2374 198.97 30.44 200.012 29.8267C200.992 29.2134 202.034 28.6614 203.015 28.2934C204.057 27.9254 205.038 27.6187 206.018 27.4347C206.999 27.2507 207.98 27.0667 208.96 26.944L213.863 26.3307C214.967 26.208 215.947 26.024 216.989 25.7174C217.97 25.4107 218.583 24.92 218.828 24.1227H222.18ZM203.505 43.7495C204.363 43.0747 205.528 42.7067 206.999 42.7067C208.47 42.7067 209.696 43.0749 210.676 43.8721C211.596 44.5469 212.331 45.4669 212.883 46.6321C213.435 47.7361 213.802 49.0241 213.986 50.4349C214.17 51.8455 214.292 53.2561 214.292 54.6055C214.292 55.3415 214.231 56.3229 214.109 57.6109C213.986 58.8375 213.741 60.1255 213.251 61.3521C212.76 62.5789 212.025 63.6829 211.044 64.6029C210.063 65.5229 208.654 65.9522 206.938 65.9522C205.222 65.9522 203.934 65.5229 202.954 64.6029C201.973 63.6829 201.299 62.6401 200.809 61.3521C200.318 60.0641 200.012 58.7761 199.889 57.4881C199.767 56.1389 199.705 55.0961 199.705 54.2375C199.705 52.0909 199.889 50.3735 200.257 49.1467C200.625 47.9201 200.992 46.8775 201.422 46.1415C201.912 45.2215 202.647 44.4241 203.505 43.7495ZM96.0624 69.387C91.7721 69.5096 86.6849 68.651 82.7623 66.7496L84.2946 62.7015C86.6849 64.2349 90.3011 65.4003 94.714 65.4616C99.1269 65.5229 103.172 63.7443 105.685 60.0643C106.788 58.4695 107.585 56.6295 108.075 54.5443C108.504 52.4589 108.75 50.3123 108.688 48.0429C108.627 46.2643 108.443 44.7309 108.137 43.3203C107.83 41.9095 107.401 40.6828 106.972 39.6401C106.543 38.5361 105.991 37.6161 105.44 36.8801C104.888 36.1441 104.337 35.4695 103.724 34.9175C102.498 33.8135 101.15 33.0161 99.5559 32.4028C96.4301 31.1761 93.1204 31.4828 90.0559 32.8934L89.969 32.9388C90.5529 33.2238 91.0832 33.5624 91.5174 33.9975C92.0069 34.4882 92.4353 35.0402 92.7413 35.7149C93.0473 36.3895 93.2308 37.0642 93.2308 37.7389C93.2308 39.2109 92.7413 40.4989 91.7009 41.5415C90.6606 42.5842 89.3143 43.1362 87.7844 43.1976C86.3157 43.1976 85.0306 42.7069 83.9902 41.7256C82.8887 40.7442 82.3379 39.4562 82.3379 37.9842C82.3243 37.6431 82.341 37.3141 82.3859 36.9973L82.3333 36.9415C84.2946 28.6001 96.4301 26.5761 103.785 28.8454C106.42 29.6428 108.627 30.8081 110.527 32.2801C112.611 33.9361 114.388 36.0828 115.798 38.7201C117.269 41.3575 118.004 44.4855 118.066 48.1655C118.066 49.3923 118.004 50.6189 117.82 51.9069C117.637 53.1949 117.33 54.4829 116.84 55.7709C116.35 57.1203 115.737 58.4083 114.94 59.6963C114.143 61.0455 113.162 62.2723 111.937 63.4375C110.772 64.6029 109.608 65.5229 108.382 66.2589C107.156 66.9949 105.869 67.6083 104.52 68.0376C103.172 68.467 101.824 68.835 100.414 69.019C99.0043 69.2644 97.5334 69.387 96.0624 69.387ZM124.563 62.3949C124.563 65.4003 122.97 65.8909 120.395 65.9523V68.7737H136.208V66.0749C133.634 66.0137 132.163 65.5229 132.163 62.5177V59.1443V55.2189H143.931V56.4457V60.0643V62.5177C143.931 65.5229 142.46 66.0137 139.886 66.0749V68.7737H155.699V66.0749C153.124 66.0137 151.531 65.5229 151.531 62.5177V58.1017V48.7789V45.8349C151.531 42.8296 153.124 42.3389 155.699 42.2776V39.5789H139.886V42.2776C142.46 42.3389 143.931 42.8296 143.931 45.8349V47.6137V51.8457H139.763H138.415H137.618H136.27H132.102V49.8829V49.7603V45.7737C132.102 42.8296 133.512 42.3389 136.024 42.2162H136.147V39.5176H120.395V42.2162C122.97 42.2776 124.563 42.7682 124.563 45.7737V47.3683V62.3949ZM172.432 38.7815C174.7 38.7815 176.722 39.0882 178.438 39.7629C180.154 40.4375 181.625 41.2962 182.851 42.2776C183.403 42.7682 183.954 43.3202 184.567 44.0563C185.18 44.7309 185.732 45.5897 186.161 46.5097C186.651 47.4909 187.019 48.5335 187.325 49.7603C187.632 50.9869 187.816 52.3363 187.816 53.9309C187.816 56.9363 187.325 59.4509 186.283 61.4137C185.241 63.3763 183.954 64.9097 182.422 66.0749C180.828 67.2403 179.112 68.0377 177.274 68.467C175.374 68.8963 173.596 69.1417 171.941 69.1417C169.796 69.1417 167.774 68.835 165.874 68.2217C163.974 67.6083 162.319 66.6883 160.909 65.4617C159.499 64.2349 158.335 62.6403 157.538 60.7389C156.741 58.8377 156.312 56.6297 156.312 53.9923C156.312 51.2323 156.741 48.9017 157.661 46.9389C158.519 44.9763 159.745 43.4429 161.215 42.2162C162.687 40.9895 164.403 40.1309 166.364 39.5175C168.264 39.0882 170.287 38.7815 172.432 38.7815ZM171.941 42.0322C171.145 42.0322 170.409 42.1549 169.796 42.4002C169.183 42.6455 168.693 42.9522 168.264 43.3203C167.835 43.6883 167.467 44.0563 167.161 44.4856C166.854 44.8536 166.609 45.2829 166.425 45.6509C165.996 46.4483 165.628 47.4909 165.261 48.8403C164.893 50.1283 164.709 51.9069 164.709 54.0535C164.709 55.1577 164.832 56.3843 165.015 57.7337C165.199 59.0829 165.567 60.4323 166.119 61.6589C166.67 62.8857 167.406 63.9283 168.325 64.7869C169.245 65.6457 170.47 66.0749 171.88 66.0749C173.351 66.0749 174.577 65.6457 175.557 64.7869C176.538 63.9283 177.274 62.8857 177.764 61.6589C178.316 60.4323 178.683 59.1443 178.867 57.7949C179.051 56.4457 179.174 55.2803 179.174 54.2377C179.174 53.3789 179.051 52.2749 178.867 50.9257C178.683 49.5763 178.316 48.2269 177.825 46.9389C177.335 45.6509 176.538 44.4856 175.619 43.5656C174.761 42.4616 173.474 42.0322 171.941 42.0322ZM229.308 60.4934C229.982 60.4934 230.595 60.616 231.208 60.8614C231.821 61.1068 232.311 61.4748 232.801 61.904C233.23 62.3334 233.598 62.824 233.904 63.4374C234.211 64.0508 234.333 64.6028 234.333 65.2774C234.333 66.5654 233.843 67.7308 232.862 68.6508C231.882 69.5708 230.717 70 229.308 70C227.959 70 226.856 69.5708 225.875 68.6508C224.895 67.7308 224.466 66.6268 224.466 65.2774C224.466 63.928 224.956 62.7628 225.875 61.8428C226.795 60.9227 227.959 60.4934 229.308 60.4934Z" fill="white"/>
</svg>
