<svg width="316" height="94" viewBox="0 0 316 94" fill="none" xmlns="http://www.w3.org/2000/svg">
<path fill-rule="evenodd" clip-rule="evenodd" d="M300.396 33.0915C300.397 31.7761 299.657 30.6297 298.564 30.0322C298.58 30.1205 298.577 30.2289 298.528 30.372C298.452 30.5901 298.323 30.8016 298.25 30.9155C298.061 31.2149 297.876 31.4784 297.654 31.7551C297.46 31.9931 297.238 32.2047 297.015 32.4168L297.015 32.417C296.824 32.5993 296.632 32.782 296.458 32.9821C295.878 33.646 295.55 34.6712 295.729 35.5369C295.775 35.758 295.881 36.038 296.097 36.155C297.375 36.8517 298.313 33.864 297.879 32.9821C297.819 32.8682 297.7 32.6631 297.541 32.6925C296.739 32.839 296.368 35.3969 296.868 35.5823C296.844 35.8851 296.355 36.0706 296.213 35.5108C296.166 35.3155 296.156 35.1104 296.163 34.9086C296.187 34.0559 296.882 32.7672 297.677 32.3735C298.038 32.1911 298.548 32.1945 298.75 32.6013C299.442 34.0075 297.647 36.5707 296.017 36.4945C296.28 36.5563 296.554 36.5891 296.835 36.5892C298.79 36.5899 300.396 35.0106 300.396 33.0915ZM298.191 30.0613C298.247 30.0059 298.3 29.9538 298.343 29.9211C297.885 29.7105 297.374 29.5928 296.835 29.5928C294.881 29.593 293.273 31.1726 293.274 33.0912C293.274 34.482 294.119 35.694 295.327 36.2559C294.934 35.9525 294.792 35.4072 294.837 34.8826C294.887 34.2905 295.139 33.7273 295.487 33.2456C295.857 32.7344 296.34 32.4141 296.792 32.1138C297.198 31.8445 297.579 31.5913 297.833 31.2312C297.833 31.2312 297.853 31.202 297.857 31.1857C297.865 31.1618 297.837 31.1336 297.8 31.1618C297.741 31.214 297.433 31.3703 297.217 31.3961C296.783 31.4449 296.548 30.8624 296.475 30.5403L296.471 30.523C296.458 30.4606 296.449 30.4209 296.386 30.5044C296.287 30.6308 296.198 31.0284 296.11 31.4245L296.11 31.4248C296.01 31.8755 295.91 32.3242 295.796 32.3692L294.954 32.698C294.954 32.698 294.918 32.7148 294.905 32.6655C294.828 32.3864 295.36 31.5602 295.703 31.026L295.703 31.0259L295.704 31.0251C295.793 30.8866 295.869 30.7679 295.919 30.6834C295.929 30.667 295.956 30.6179 295.989 30.5575L295.99 30.5557C296.062 30.4246 296.162 30.2413 296.187 30.2213C296.25 30.1693 296.633 30.0726 296.712 30.0856C296.822 31.0881 297.643 30.5185 297.998 30.2385C298.059 30.1908 298.127 30.124 298.191 30.0614L298.191 30.0613ZM292.67 33.0912C292.67 30.8461 294.549 29 296.835 29C299.132 29 301 30.8339 301 33.0903C301 35.3349 299.12 37.1812 296.835 37.182C294.55 37.1827 292.67 35.3363 292.67 33.0912ZM33.0938 58.7804H44.684L32.7054 40.543L43.3598 29.6948H31.9964L23.6888 39.0822V29.6948H14V58.7804H23.6888V49.5767L25.9952 47.2196L33.0938 58.7804ZM56.7029 44.3861C57.3391 45.4542 57.6568 46.6601 57.6568 47.99C57.6568 49.4717 57.3805 50.8224 56.8274 52.042C56.2743 53.2616 55.355 53.868 54.069 53.868C52.7348 53.868 51.7395 53.241 51.0967 51.9869C50.4466 50.7396 50.1219 49.4027 50.1219 47.99C50.1219 46.674 50.4259 45.4747 51.0343 44.393C51.6427 43.318 52.5481 42.7804 53.7442 42.7804C55.0853 42.7804 56.067 43.318 56.7029 44.3861ZM54.1048 59.438C58.1633 59.438 62.0873 57.8776 64.3767 54.5431C66.2119 51.8697 66.5764 47.4872 65.555 44.3748C64.6196 41.5242 62.4713 39.1262 59.5836 37.9607C56.4955 36.7095 53.0142 36.52 49.7978 37.3969C46.8776 38.1639 44.3307 40.0517 42.9412 42.6634C41.135 46.057 41.4094 51.2431 43.5535 54.4237C45.8911 57.8908 49.9223 59.438 54.1048 59.438ZM137.971 42.976C138.659 43.5111 139.157 44.4713 139.46 45.8565H131.482C131.799 44.4399 132.257 43.4718 132.864 42.9523C133.47 42.4253 134.292 42.1654 135.33 42.1654C136.401 42.1654 137.277 42.4329 137.971 42.976ZM131.566 49.9642H147.749C147.85 48.3617 147.692 46.8611 147.277 45.295C146.436 42.1817 144.414 39.715 141.448 38.268C138.106 36.6313 133.268 36.5365 129.811 37.9342C126.969 39.0884 124.778 41.2651 123.713 44.0795C122.687 46.7924 122.701 49.7778 123.76 52.4692C124.913 55.2305 127.03 57.3703 129.865 58.5276C132.302 59.527 135.347 59.6134 137.978 59.2959C140.03 59.0659 142.108 58.4144 143.8 57.2451C145.477 56.0825 146.78 54.3132 147.095 52.3079H138.807C138.522 53.7211 136.994 54.245 135.67 54.245C133.866 54.245 132.606 53.2171 131.91 51.6943C131.681 51.1936 131.566 50.619 131.566 49.9642ZM162.885 59.427C166.43 59.427 169.37 57.5648 170.963 54.5836C172.459 51.8031 172.74 47.537 171.931 44.4246C171.066 41.076 168.637 38.0967 165.029 37.2128C161.718 36.3941 157.614 37.5733 155.955 40.8187V37.6587H148.311V66H156.944V56.8799C158.665 58.6143 160.339 59.427 162.885 59.427ZM163.016 44.7656C163.628 45.8189 163.93 46.7968 163.93 47.6925C163.93 48.8798 163.642 50.0779 163.188 51.1735C162.686 52.3086 161.75 52.8763 160.361 52.8763C158.938 52.8763 157.988 52.3292 157.5 51.235C157.019 50.1408 156.778 48.9578 156.778 47.6925C156.778 46.6599 157.088 45.6547 157.707 44.6699C158.326 43.6784 159.213 43.1861 160.361 43.1861C161.517 43.1861 162.404 43.7126 163.016 44.7656ZM179.694 58.5032C183.034 59.8683 187.593 59.6912 190.948 58.5372C194.714 57.2415 196.871 54.1423 196.961 50.5984H188.423L188.419 50.6122C187.858 52.3782 187.407 53.7967 185.257 53.7967C183.736 53.7967 182.171 52.5965 181.695 51.1809C180.974 49.0332 181.163 46.1391 182.303 44.1798C183.197 42.6443 185.998 41.8839 187.235 43.44C187.672 43.989 187.971 44.6326 188.126 45.6736H196.961C196.532 42.2891 194.898 39.9926 191.779 38.325C188.505 36.5753 183.384 36.525 179.937 37.9059C176.924 39.1123 174.837 40.8539 173.631 43.889C173.11 45.2388 172.8 46.6603 172.8 48.107C172.8 50.2791 173.398 52.4129 174.549 54.2651C175.726 56.1935 177.59 57.6438 179.694 58.5032ZM212.6 49.5131C212.673 49.7588 212.709 50.0817 212.709 50.4749C212.709 51.7809 212.21 52.8899 211.228 53.8099C210.195 54.8265 208.135 54.8863 206.907 54.1607C205.846 53.4779 205.78 51.7876 206.994 51.1981C207.85 50.7374 208.869 50.5273 209.826 50.3555C211.083 50.1169 212.008 49.8359 212.6 49.5131ZM213.477 58.7804H222.314V58.1248C221.448 57.5706 221.012 56.7188 221.012 55.5696V44.4028C220.871 42.7534 220.567 41.4089 220.119 40.374C219.667 39.3337 218.7 38.7759 217.218 38.0835C215.733 37.3902 213.505 37.0427 210.53 37.0427C209.308 37.0427 208.207 37.0862 207.213 37.1643C206.227 37.2416 205.358 37.3459 204.628 37.4955C203.116 37.8054 201.936 38.273 201.076 38.8745C200.217 39.4761 199.588 40.2005 199.189 41.0442C198.932 41.588 198.861 42.1163 198.77 42.7923C198.719 43.1682 198.662 43.5898 198.564 44.085H206.75C206.911 43.3213 207.254 42.8075 207.784 42.5507C208.314 42.2939 209.408 42.1654 210.288 42.1654C211.019 42.1654 211.584 42.3006 211.979 42.571C212.376 42.8412 212.57 43.1724 212.57 43.5714C212.57 43.6045 212.571 43.6376 212.571 43.6706C212.575 43.9266 212.578 44.1768 212.37 44.4162C212.135 44.6866 211.658 45.1155 211.254 45.2469C210.694 45.4288 209.531 45.5978 208.248 45.7842C208.027 45.8163 207.802 45.849 207.576 45.8823L203.957 46.4162C203.543 46.4773 203.108 46.6001 202.65 46.7296L202.634 46.734C202.165 46.8664 201.687 47.0248 201.204 47.2072C200.183 47.5923 199.618 47.9606 199.04 48.6161C198.027 49.7653 197.289 51.0474 197.289 52.6022C197.289 53.8324 197.578 55.0357 198.155 56.2253C198.8 57.3068 199.733 58.1112 200.969 58.625C202.204 59.1389 203.567 59.3956 205.058 59.3956C205.884 59.3956 206.676 59.3279 207.421 59.1994C208.167 59.0644 208.895 58.8524 209.604 58.5844C211.057 58.0346 212.497 57.3609 213.141 56.5432L213.477 58.7804ZM237.804 58.7804H246.328L246.32 58.402L246.328 37.6702H237.708V44.7436H231.49V37.6702H223.047L223.039 37.988L223.047 58.7804H231.49V50.8863H237.804V58.7804ZM262.676 43.8919H270.016V37.6702H246.722V43.8919H254.124V58.7804H262.676V43.8919ZM295.362 56.6702C296.807 55.5083 297.706 53.8793 297.706 52.025C297.706 50.0915 296.714 48.3921 295.221 47.177C293.235 45.5607 290.457 45.0794 287.952 45.0794H283.451V37.6702H270.295V43.8919H275.224V58.7804H288.42C290.833 58.7804 293.461 58.2144 295.362 56.6702ZM287.164 50.0013C288.456 50.1533 289.207 50.7128 289.207 52.0465C289.207 53.5313 288.336 53.8816 287.023 53.9774C286.652 54.0058 286.172 54.0299 285.589 54.0178L283.451 53.9774V49.9003C283.816 49.9003 284.846 49.9137 285.614 49.9474C286.383 49.9797 286.902 50.0013 287.164 50.0013ZM78.517 58.7801H82.6606L87.1881 44.678L86.4888 50.2054V58.7801H94.0496V37.5484H84.353L80.5888 49.2764L76.8246 37.5484H67.1283V58.7801H74.6888V50.2054L73.9895 44.678L78.517 58.7801ZM106.83 58.7801H110.974L115.501 44.678L114.802 50.2054V58.7801H122.363V37.5484H112.666L108.902 49.2764L105.138 37.5484H95.4413V58.7801H103.002V50.2054L102.303 44.678L106.83 58.7801Z" fill="white"/>
</svg>
