<svg xmlns="http://www.w3.org/2000/svg" width="217" height="20" viewBox="0 0 217 20" fill="none"> <path d="M5.08756 4.67378H0.5V1.03223H14.3126V4.67378H9.75923H9.25923V5.17378V18.5984H5.58756V5.17378V4.67378H5.08756Z" fill="white" stroke="white"/> <path d="M21.0164 15.0923H28.3272V18.5984H16.8447V1.03223H28.3272V4.53831H21.0164H20.5164V5.03831V7.55933V8.05933H21.0164H27.2903V11.5713H21.0164H20.5164V12.0713V14.5923V15.0923H21.0164Z" fill="white" stroke="white"/> <path d="M35.7791 14.2978V18.5984H32.1074V1.03223H38.7687C41.2507 1.03223 43.0372 1.59526 44.214 2.63818C45.3787 3.67032 46.0017 5.23614 46.0055 7.43003C46.0054 9.62802 45.3823 11.1878 44.2165 12.2074C43.0354 13.2403 41.2476 13.7978 38.7687 13.7978H36.2791H35.7791V14.2978ZM35.7791 9.76233V10.2623H36.2791H38.7532C39.6299 10.3155 40.5037 10.124 41.2828 9.70877L41.3174 9.69034L41.3486 9.66675C41.6919 9.40793 41.9607 9.06109 42.1295 8.66295C42.2914 8.28104 42.3562 7.8639 42.3189 7.45047C42.3514 7.03934 42.2847 6.62562 42.1239 6.24623C41.9561 5.85064 41.6913 5.50478 41.3534 5.24356L41.3251 5.22167L41.294 5.20404C40.5185 4.76494 39.6376 4.5603 38.7529 4.61489H36.2791H35.7791V5.11489V9.76233Z" fill="white" stroke="white"/> <path d="M52.9549 13.7978H52.4549V14.2978V18.5984H48.7832V1.03223H55.4445C57.9183 1.03223 59.7035 1.59499 60.8847 2.63865C62.0527 3.67074 62.6756 5.23619 62.6756 7.42977C62.6756 9.6279 62.0524 11.1878 60.8866 12.2074C59.7054 13.2405 57.9193 13.7978 55.4445 13.7978H52.9549ZM52.4549 9.76233V10.2623H52.9549H55.4293C56.3056 10.3143 57.1788 10.1229 57.9579 9.70911L57.9944 9.68974L58.0272 9.66465C58.3675 9.40429 58.6337 9.0574 58.8009 8.66007C58.9613 8.27891 59.0257 7.8631 58.989 7.45091C59.0216 7.04065 58.9557 6.62774 58.7962 6.24872C58.6299 5.85355 58.367 5.50749 58.0312 5.24513L58.0016 5.222L57.9689 5.20355C57.1932 4.76637 56.3132 4.56201 55.4292 4.61489H52.9549H52.4549V5.11489V9.76233Z" fill="white" stroke="white"/> <path d="M76.1336 8.60541L68.7576 18.5984H65.4365V1.03223H68.9942V10.7519V12.2741L69.8969 11.0484L77.2729 1.03223H80.5936V18.5984H77.0359V8.90234V7.383L76.1336 8.60541Z" fill="white" stroke="white"/> <path d="M87.696 4.67378H83.1084V1.03223H96.9495V4.67378H92.3676H91.8676V5.17378V18.5984H88.196V5.17378V4.67378H87.696Z" fill="white" stroke="white"/> <path d="M107.762 0.715623C108.918 0.737633 110.062 0.966399 111.144 1.39289C112.17 1.7985 113.1 2.42932 113.869 3.24317C114.639 4.05713 115.23 5.03478 115.601 6.10947L115.601 6.10948L115.602 6.11324C116.019 7.28931 116.226 8.53424 116.212 9.78726L116.212 9.78726L116.212 9.79836C116.226 11.0533 116.019 12.3002 115.602 13.4781L115.602 13.4781L115.601 13.4835C115.229 14.5732 114.642 15.5696 113.878 16.4095C113.106 17.2299 112.173 17.8679 111.143 18.2814C109.957 18.7487 108.696 18.9784 107.428 18.9587L107.42 18.9586L107.412 18.9587C106.143 18.9779 104.882 18.748 103.695 18.281C102.658 17.8687 101.717 17.2303 100.937 16.4079C100.18 15.5842 99.5929 14.6073 99.2145 13.5375C98.8001 12.3583 98.5935 11.1114 98.6049 9.85615L98.605 9.85615L98.6049 9.84719C98.5939 8.5937 98.8005 7.3486 99.2147 6.17117L99.2147 6.17118L99.2157 6.1684C99.5866 5.0937 100.178 4.11601 100.947 3.30206C101.717 2.48825 102.647 1.85745 103.672 1.45184C104.859 0.984692 106.12 0.754803 107.389 0.773962L107.738 0.779219L107.762 0.715623ZM109.56 15.0315L109.56 15.0315L109.568 15.0281C110.188 14.7577 110.743 14.3522 111.196 13.8406L111.196 13.8406L111.2 13.8352C111.65 13.3114 111.993 12.7003 112.208 12.0385L112.209 12.0361C112.435 11.3296 112.547 10.5897 112.54 9.84597C112.547 9.1073 112.435 8.37232 112.208 7.6713L112.208 7.6713L112.207 7.6686C111.99 7.01145 111.648 6.40483 111.2 5.88487L111.2 5.88484L111.196 5.88028C110.743 5.36865 110.188 4.96317 109.568 4.69279L109.568 4.69272L109.56 4.6894C108.88 4.40717 108.153 4.26784 107.42 4.27999C106.687 4.26854 105.959 4.40778 105.28 4.68922L105.28 4.68914L105.272 4.69279C104.651 4.96317 104.096 5.36865 103.644 5.88028L103.644 5.88026L103.64 5.88476C103.192 6.4043 102.851 7.01162 102.638 7.66957C102.406 8.37009 102.291 9.10613 102.299 9.84593C102.292 10.5907 102.406 11.3315 102.637 12.0376C102.849 12.7002 103.19 13.3122 103.639 13.8355L103.639 13.8355L103.644 13.8406C104.096 14.3522 104.651 14.7577 105.272 15.0281L105.272 15.0282L105.28 15.0317C105.959 15.3131 106.687 15.4523 107.42 15.4409C108.153 15.453 108.88 15.3137 109.56 15.0315Z" fill="white" stroke="white"/> <path d="M122.986 14.3214V18.5984H119.32V1.03223H125.982C128.455 1.03223 130.241 1.59499 131.422 2.63866C132.59 3.67074 133.213 5.23619 133.213 7.42977C133.213 9.6279 132.59 11.1878 131.424 12.2074C130.242 13.2413 128.455 13.8059 125.98 13.8214H123.486H122.986V14.3214ZM122.986 9.76233V10.2623H123.486H125.966C126.843 10.3143 127.716 10.1229 128.495 9.70912L128.532 9.68974L128.564 9.66465C128.905 9.4043 129.171 9.0574 129.338 8.66007C129.498 8.2789 129.563 7.86309 129.526 7.4509C129.559 7.04065 129.493 6.62774 129.333 6.24872C129.167 5.85355 128.904 5.50749 128.568 5.24513L128.539 5.222L128.506 5.20355C127.73 4.76637 126.85 4.56201 125.966 4.61489H123.486H122.986V5.11489V9.76233Z" fill="white" stroke="white"/> <path d="M146.657 8.60643L139.321 18.5984H136.001V1.03223H139.559V10.7519V12.2768L140.462 11.0479L147.821 1.03223H151.118V18.5984H147.561V8.90234V7.37649L146.657 8.60643Z" fill="white" stroke="white"/> <path d="M165.926 8.60584L158.567 18.5984H155.246V1.03223H158.804V10.7519V12.2778L159.707 11.0478L167.06 1.03223H170.386V18.5984H166.828V8.90234V7.38022L165.926 8.60584Z" fill="white" stroke="white"/> <path d="M174.001 16.8328L174.001 16.8213L174.001 16.8097C173.995 16.5339 174.046 16.2603 174.151 16.0077C174.256 15.7559 174.411 15.5315 174.605 15.349C175.066 14.9248 175.667 14.7078 176.277 14.7399L176.301 14.7412L176.325 14.7402C176.928 14.7144 177.519 14.9311 177.975 15.3497C178.17 15.5313 178.325 15.7553 178.43 16.007C178.534 16.2592 178.585 16.5326 178.578 16.8081L178.578 16.8215L178.578 16.8349C178.586 17.1142 178.536 17.3916 178.431 17.6478L178.893 17.8376L178.431 17.6478C178.326 17.9031 178.17 18.1308 177.974 18.3159C177.519 18.7339 176.927 18.9503 176.325 18.9245L176.301 18.9235L176.277 18.9248C175.668 18.9569 175.067 18.7403 174.606 18.3168C174.411 18.1305 174.255 17.9024 174.15 17.6469C174.045 17.3902 173.994 17.1126 174.001 16.8328Z" fill="white" stroke="white"/> <path d="M185.871 14.2978V18.5984H182.199V1.03223H188.872C191.349 1.03223 193.133 1.60554 194.32 2.64081C195.488 3.65947 196.109 5.23181 196.109 7.42977C196.109 9.62774 195.486 11.1875 194.32 12.2072C193.135 13.2407 191.352 13.7978 188.872 13.7978H186.371H185.871V14.2978ZM185.871 9.76233V10.2623H186.371H188.845C189.722 10.3149 190.595 10.1235 191.374 9.70894L191.409 9.69045L191.44 9.66675C191.784 9.40793 192.052 9.06109 192.221 8.66295C192.383 8.28104 192.448 7.8639 192.411 7.45047C192.443 7.03934 192.376 6.62562 192.216 6.24623C192.048 5.85064 191.783 5.50478 191.445 5.24356L191.417 5.22155L191.385 5.20384C190.61 4.76551 189.729 4.56098 188.845 4.61489H186.371H185.871V5.11489V9.76233Z" fill="white" stroke="white"/> <path d="M204.946 2.80551L205.387 2.75325V2.30898V0.5H209.059V2.30898V2.74936L209.496 2.80497C210.554 2.93973 211.588 3.23713 212.562 3.6876L212.563 3.68794C213.357 4.05331 214.077 4.57091 214.687 5.2142C215.237 5.80093 215.665 6.49992 215.942 7.26771L215.942 7.26778C216.233 8.07189 216.377 8.92511 216.368 9.78425L216.368 9.78425L216.368 9.79464C216.377 10.6601 216.232 11.5196 215.942 12.3305L215.941 12.3321C215.666 13.1096 215.237 13.8185 214.685 14.4144C214.078 15.0628 213.358 15.584 212.563 15.9503L212.561 15.9509C211.587 16.4033 210.554 16.7026 209.495 16.8392L209.059 16.8954V17.3351V19.144H205.387V17.3351V16.8901L204.945 16.8384C203.897 16.716 202.872 16.4287 201.907 15.9861C201.113 15.6146 200.392 15.0932 199.782 14.4477C199.225 13.8536 198.792 13.1461 198.511 12.369C197.948 10.713 197.948 8.90761 198.511 7.25163C198.791 6.48012 199.223 5.77891 199.78 5.19268C200.393 4.55185 201.114 4.03386 201.907 3.66382C202.872 3.21911 203.897 2.92975 204.946 2.80551ZM202.255 12.3318L202.266 12.3459L202.279 12.3591C202.991 13.1151 203.931 13.6055 204.949 13.7483L205.518 13.8282V13.2531V6.38504V5.8095L204.948 5.88994C203.933 6.03328 202.995 6.52046 202.28 7.27144L202.268 7.28446L202.256 7.29834C201.684 7.99385 201.381 8.87992 201.402 9.78733C201.372 10.7127 201.674 11.6191 202.255 12.3318ZM212.191 7.29968L212.178 7.28454L212.165 7.27042C211.449 6.52251 210.513 6.03623 209.499 5.89015L208.928 5.80781V6.38504V13.2531V13.8299L209.499 13.7481C210.515 13.6024 211.452 13.113 212.166 12.3602L212.18 12.3458L212.192 12.3305C212.769 11.6167 213.071 10.7117 213.044 9.78733C213.062 8.8809 212.76 7.99633 212.191 7.29968Z" fill="white" stroke="white"/> </svg>