<svg width="229" height="80" viewBox="0 0 229 80" fill="none" xmlns="http://www.w3.org/2000/svg">
<path fill-rule="evenodd" clip-rule="evenodd" d="M187.23 30.6641C187.23 29.801 186.748 29.0488 186.034 28.6568C186.045 28.7147 186.043 28.7858 186.011 28.8798C185.962 29.0228 185.877 29.1616 185.83 29.2364C185.707 29.4328 185.586 29.6057 185.441 29.7873C185.314 29.9434 185.169 30.0823 185.024 30.2214L185.024 30.2216C184.899 30.3412 184.774 30.4611 184.66 30.5924C184.282 31.028 184.068 31.7007 184.185 32.2687C184.215 32.4138 184.284 32.5975 184.425 32.6743C185.259 33.1314 185.871 31.171 185.588 30.5924C185.549 30.5176 185.471 30.383 185.367 30.4024C184.844 30.4985 184.602 32.1768 184.928 32.2985C184.913 32.4972 184.593 32.6189 184.5 32.2516C184.47 32.1235 184.464 31.9889 184.468 31.8565C184.484 31.297 184.937 30.4514 185.456 30.193C185.692 30.0734 186.025 30.0756 186.156 30.3425C186.608 31.2652 185.436 32.9471 184.373 32.897C184.544 32.9376 184.723 32.9591 184.907 32.9592C186.182 32.9597 187.23 31.9234 187.23 30.6641ZM185.791 28.6759C185.828 28.6395 185.863 28.6053 185.89 28.5839C185.591 28.4457 185.258 28.3685 184.906 28.3685C183.632 28.3686 182.583 29.405 182.583 30.664C182.583 31.5765 183.134 32.3718 183.923 32.7405C183.666 32.5414 183.573 32.1836 183.603 31.8394C183.636 31.4509 183.8 31.0814 184.027 30.7653C184.269 30.4299 184.583 30.2197 184.878 30.0227C185.143 29.8459 185.392 29.6798 185.557 29.4435C185.557 29.4435 185.571 29.4244 185.573 29.4137C185.579 29.398 185.56 29.3794 185.536 29.398C185.498 29.4322 185.297 29.5348 185.156 29.5517C184.873 29.5837 184.719 29.2015 184.672 28.9902L184.669 28.9788C184.66 28.9379 184.655 28.9119 184.613 28.9666C184.549 29.0495 184.491 29.3104 184.434 29.5703L184.434 29.5705C184.368 29.8663 184.303 30.1607 184.229 30.1902L183.68 30.406C183.68 30.406 183.656 30.417 183.647 30.3846C183.597 30.2015 183.944 29.6594 184.168 29.3089L184.168 29.3088L184.168 29.3083C184.226 29.2174 184.276 29.1395 184.309 29.0841C184.316 29.0733 184.333 29.0411 184.355 29.0014L184.355 29.0003C184.402 28.9143 184.468 28.794 184.484 28.7808C184.525 28.7468 184.775 28.6833 184.827 28.6918C184.898 29.3496 185.434 28.9759 185.665 28.7921C185.705 28.7608 185.75 28.717 185.791 28.676L185.791 28.6759ZM182.189 30.664C182.189 29.1908 183.415 27.9795 184.906 27.9795C186.405 27.9795 187.624 29.1828 187.624 30.6634C187.624 32.1362 186.398 33.3477 184.907 33.3482C183.415 33.3486 182.189 32.1371 182.189 30.664ZM12.8334 47.5201H20.3952L12.58 35.5535L19.5312 28.4354H12.1174L6.69727 34.595V28.4354H0.375977V47.5201H6.69727V41.4811L8.20204 39.9345L12.8334 47.5201ZM28.2367 38.0752C28.6518 38.776 28.8591 39.5673 28.8591 40.4399C28.8591 41.4121 28.6788 42.2984 28.3179 43.0987C27.9571 43.8989 27.3573 44.2968 26.5183 44.2968C25.6478 44.2968 24.9984 43.8854 24.5791 43.0626C24.1549 42.2441 23.943 41.3669 23.943 40.4399C23.943 39.5764 24.1414 38.7895 24.5384 38.0797C24.9353 37.3743 25.526 37.0216 26.3064 37.0216C27.1813 37.0216 27.8218 37.3743 28.2367 38.0752ZM26.5417 47.9516C29.1896 47.9516 31.7497 46.9278 33.2433 44.7398C34.4407 42.9856 34.6785 40.11 34.0121 38.0678C33.4018 36.1974 32.0002 34.6239 30.1162 33.8591C28.1014 33.0382 25.8301 32.9138 23.7316 33.4892C21.8264 33.9925 20.1647 35.2311 19.2581 36.9448C18.0797 39.1716 18.2587 42.5745 19.6576 44.6615C21.1827 46.9364 23.8128 47.9516 26.5417 47.9516ZM81.2588 37.1499C81.7074 37.5011 82.0326 38.1311 82.2304 39.04H77.0252C77.2318 38.1105 77.5308 37.4753 77.9265 37.1344C78.3222 36.7886 78.8585 36.6181 79.5356 36.6181C80.2345 36.6181 80.806 36.7936 81.2588 37.1499ZM77.0799 41.7353H87.6379C87.7037 40.6838 87.6009 39.6992 87.3302 38.6716C86.7816 36.6287 85.462 35.0102 83.5274 34.0608C81.347 32.9868 78.1899 32.9246 75.935 33.8417C74.0808 34.5991 72.6509 36.0273 71.9564 37.874C71.2868 39.6541 71.2962 41.613 71.9871 43.379C72.7391 45.1908 74.1204 46.5949 75.9701 47.3543C77.5601 48.0101 79.5464 48.0667 81.2632 47.8584C82.6019 47.7074 83.9577 47.28 85.0617 46.5127C86.156 45.7499 87.0062 44.5889 87.2114 43.2731H81.804C81.6182 44.2004 80.6215 44.5442 79.7572 44.5442C78.5803 44.5442 77.7583 43.8697 77.304 42.8705C77.1546 42.542 77.0799 42.165 77.0799 41.7353ZM97.5134 47.9444C99.826 47.9444 101.745 46.7225 102.783 44.7664C103.76 42.942 103.943 40.1427 103.415 38.1005C102.851 35.9032 101.266 33.9483 98.9121 33.3684C96.7518 32.8312 94.0741 33.6049 92.9922 35.7344V33.661H88.0046V52.2573H93.6375V46.2731C94.7599 47.4111 95.8525 47.9444 97.5134 47.9444ZM97.5986 38.3242C97.9981 39.0153 98.1953 39.657 98.1953 40.2448C98.1953 41.0238 98.0073 41.8099 97.7108 42.5288C97.3833 43.2736 96.7731 43.6461 95.8666 43.6461C94.938 43.6461 94.3186 43.2871 94.0002 42.5692C93.6861 41.8512 93.529 41.075 93.529 40.2448C93.529 39.5672 93.7309 38.9076 94.1349 38.2614C94.5386 37.6108 95.1174 37.2878 95.8666 37.2878C96.6205 37.2878 97.1993 37.6333 97.5986 38.3242ZM108.48 47.3383C110.659 48.234 113.634 48.1178 115.823 47.3606C118.279 46.5104 119.687 44.4768 119.745 42.1514H114.175L114.172 42.1605C113.806 43.3193 113.512 44.25 112.109 44.25C111.117 44.25 110.096 43.4625 109.786 42.5337C109.315 41.1245 109.438 39.2254 110.182 37.9398C110.765 36.9323 112.593 36.4334 113.4 37.4544C113.685 37.8147 113.88 38.2369 113.981 38.92H119.745C119.465 36.6993 118.4 35.1924 116.365 34.0982C114.229 32.9501 110.888 32.9171 108.638 33.8232C106.673 34.6148 105.311 35.7575 104.524 37.749C104.185 38.6347 103.982 39.5675 103.982 40.5167C103.982 41.942 104.372 43.3421 105.123 44.5574C105.891 45.8227 107.108 46.7744 108.48 47.3383ZM129.949 41.4393C129.996 41.6006 130.02 41.8124 130.02 42.0704C130.02 42.9274 129.695 43.655 129.054 44.2587C128.38 44.9258 127.036 44.965 126.235 44.4889C125.542 44.0409 125.5 42.9317 126.291 42.545C126.85 42.2427 127.514 42.1048 128.139 41.9921C128.959 41.8355 129.563 41.6511 129.949 41.4393ZM130.521 47.5201H136.287V47.09C135.722 46.7263 135.437 46.1674 135.437 45.4133V38.0862C135.345 37.0039 135.147 36.1217 134.854 35.4427C134.56 34.76 133.929 34.394 132.962 33.9397C131.993 33.4848 130.539 33.2568 128.599 33.2568C127.801 33.2568 127.083 33.2853 126.435 33.3365C125.791 33.3873 125.224 33.4557 124.748 33.5539C123.761 33.7572 122.991 34.0641 122.431 34.4587C121.87 34.8535 121.46 35.3288 121.199 35.8824C121.032 36.2392 120.985 36.5859 120.926 37.0294C120.893 37.2761 120.856 37.5527 120.791 37.8776H126.132C126.237 37.3765 126.461 37.0394 126.807 36.8709C127.153 36.7024 127.866 36.6181 128.44 36.6181C128.918 36.6181 129.286 36.7068 129.544 36.8842C129.803 37.0615 129.93 37.2789 129.93 37.5406C129.93 37.5624 129.93 37.5841 129.93 37.6057C129.932 37.7737 129.935 37.9379 129.799 38.095C129.646 38.2724 129.335 38.5538 129.071 38.64C128.706 38.7594 127.947 38.8702 127.11 38.9926C126.965 39.0136 126.818 39.0351 126.671 39.0569L124.31 39.4073C124.04 39.4473 123.756 39.5279 123.457 39.6129L123.447 39.6158C123.141 39.7027 122.829 39.8066 122.514 39.9263C121.848 40.179 121.479 40.4206 121.102 40.8507C120.441 41.6048 119.96 42.446 119.96 43.4663C119.96 44.2734 120.148 45.063 120.525 45.8436C120.945 46.5533 121.554 47.081 122.36 47.4182C123.166 47.7553 124.056 47.9238 125.028 47.9238C125.567 47.9238 126.084 47.8794 126.57 47.7951C127.057 47.7065 127.532 47.5674 127.994 47.3915C128.942 47.0308 129.881 46.5887 130.302 46.0522L130.521 47.5201ZM146.393 47.5201H151.955L151.949 47.2718L151.955 33.6685H146.33V38.3098H142.273V33.6685H136.765L136.76 33.877L136.765 47.5201H142.273V42.3404H146.393V47.5201ZM162.62 37.7509H167.409V33.6685H152.211V37.7509H157.041V47.5201H162.62V37.7509ZM183.946 46.1355C184.888 45.3731 185.475 44.3042 185.475 43.0875C185.475 41.8189 184.828 40.7038 183.854 39.9065C182.558 38.8459 180.746 38.5301 179.111 38.5301H176.175V33.6685H167.591V37.7509H170.807V47.5201H179.416C180.99 47.5201 182.706 47.1487 183.946 46.1355ZM178.597 41.7597C179.44 41.8594 179.93 42.2265 179.93 43.1017C179.93 44.0759 179.362 44.3058 178.505 44.3686C178.263 44.3872 177.949 44.403 177.569 44.3951L176.175 44.3686V41.6934C176.413 41.6934 177.085 41.7022 177.586 41.7243C178.087 41.7455 178.426 41.7597 178.597 41.7597ZM42.4689 47.52H45.1723L48.1262 38.2668L47.67 41.8936V47.52H52.6029V33.5886H46.2765L43.8206 41.284L41.3648 33.5886H35.0386V47.52H39.9713V41.8936L39.515 38.2668L42.4689 47.52ZM60.9415 47.52H63.6448L66.5987 38.2668L66.1425 41.8936V47.52H71.0752V33.5886H64.749L62.2931 41.284L59.8373 33.5886H53.5109V47.52H58.4438V41.8936L57.9875 38.2668L60.9415 47.52Z" fill="black"/>
</svg>
