<svg width="317" height="94" viewBox="0 0 317 94" fill="none" xmlns="http://www.w3.org/2000/svg">
<path fill-rule="evenodd" clip-rule="evenodd" d="M161.193 55.6683C162.12 55.6168 162.877 55.3465 163.465 54.8574C163.617 54.7295 163.803 54.6468 164.001 54.6184C164.199 54.59 164.401 54.617 164.584 54.6965C165.194 54.9668 165.462 55.3487 165.389 55.8421C165.35 56.0952 165.245 56.3312 165.074 56.55C163.542 58.4935 159.468 59.7678 158.271 56.801C158.194 56.6104 158.164 56.4044 158.182 56.1998C158.2 55.9952 158.267 55.7979 158.376 55.6239C158.485 55.45 158.634 55.3044 158.811 55.1992C158.987 55.0939 159.186 55.0319 159.391 55.0183C159.884 54.9883 160.315 55.1449 160.684 55.4881C160.83 55.6211 161 55.6812 161.193 55.6683ZM66.5889 62.3486C66.4993 62.2954 66.3938 62.2759 66.2911 62.2936C66.1885 62.3113 66.0956 62.365 66.029 62.4451C65.0894 63.5906 63.3453 66.9307 64.2206 68.4495C64.4737 68.8872 64.8727 69.033 65.4176 68.8872C65.6002 68.8371 65.7577 68.7253 65.8616 68.5718L66.3829 67.8317C66.5838 67.5434 66.8888 67.344 67.2349 67.2745C67.581 67.2051 67.9418 67.2709 68.2428 67.4585C69.6072 68.3144 69.3498 69.9941 68.2107 70.9015C66.5588 72.2187 64.9414 72.6627 63.3582 72.2337C58.8918 71.0174 60.8676 64.556 62.5409 61.8659C63.7894 59.858 67.8696 57.2901 69.6651 60.2055C70.5618 61.6685 70.2894 62.9085 68.8478 63.9253C68.7074 64.0247 68.5444 64.0873 68.3735 64.1075C68.2026 64.1277 68.0292 64.1049 67.8689 64.041C67.7087 63.9772 67.5666 63.8743 67.4554 63.7418C67.3443 63.6092 67.2677 63.4511 67.2324 63.2817C67.1509 62.8656 66.9364 62.5545 66.5889 62.3486ZM76.0493 69.048L73.6488 69.0351C73.6032 69.0346 73.5583 69.0245 73.517 69.0054C73.4757 68.9863 73.4392 68.9587 73.4098 68.9244C73.3804 68.8901 73.359 68.8501 73.3469 68.807C73.3348 68.7639 73.3325 68.7187 73.3399 68.6747L73.5265 67.4905C73.5523 67.3404 73.6402 67.2653 73.7904 67.2653L76.783 67.2782C77.5123 67.2782 77.9092 66.9135 77.9736 66.1841L78.0444 65.3668C78.1087 64.6717 77.7912 64.3006 77.0919 64.2534L75.1805 64.1247C74.7772 64.0947 74.6206 63.8823 74.7107 63.4876L74.8265 63.0113C74.9123 62.6381 75.1483 62.4514 75.5345 62.4514L78.1023 62.4321C78.3511 62.4321 78.5635 62.3442 78.7394 62.1683C79.4774 61.4517 79.6597 60.6602 79.2864 59.7935C79.1835 59.5532 79.0011 59.4202 78.7394 59.3945C77.0147 59.2357 75.1955 59.1156 73.282 59.0341C71.3513 58.9504 70.5468 61.0034 71.4285 62.4643C71.5572 62.6745 71.5851 62.8955 71.5122 63.1272C70.9373 64.9206 70.4567 66.7225 70.0706 68.5331C69.2197 72.5611 72.5147 72.3967 75.1369 72.2658H75.1369C75.2714 72.2591 75.4041 72.2524 75.5345 72.2465C76.4054 72.2079 76.8559 71.7531 76.8859 70.8821L76.9181 69.9554C76.9396 69.3547 76.65 69.0522 76.0493 69.048ZM82.6845 68.9579L81.8156 71.5965C81.7625 71.7583 81.6757 71.907 81.5608 72.0327C81.446 72.1585 81.3057 72.2584 81.1494 72.3259C80.9931 72.3934 80.8242 72.427 80.6539 72.4244C80.4837 72.4218 80.3159 72.3831 80.1617 72.3109L79.8206 72.15C78.9668 71.751 78.6772 71.0989 78.9518 70.1936C79.5953 68.087 80.2582 65.8109 80.9404 63.3654C81.0648 62.9277 80.9297 62.5931 80.5349 62.3614C80.3891 62.2799 80.299 62.1576 80.2647 61.9946C79.3186 57.9272 85.6642 58.9634 87.3632 59.7163C89.8216 60.8168 89.4805 64.0218 88.1612 65.8109C87.0543 67.3168 85.3917 68.2286 83.1736 68.546C82.9247 68.5804 82.7617 68.7177 82.6845 68.9579ZM84.377 61.7886L83.6112 65.2317C83.6073 65.2513 83.6112 65.2716 83.622 65.2884C83.6328 65.3052 83.6497 65.3172 83.6691 65.3218L83.6884 65.3282C84.1465 65.4292 84.6269 65.3402 85.0239 65.0807C85.421 64.8213 85.7022 64.4126 85.8057 63.9446L85.825 63.8866C85.8766 63.6546 85.8828 63.4148 85.8434 63.1812C85.8039 62.9475 85.7196 62.7244 85.5953 62.5248C85.471 62.3251 85.3091 62.1528 85.1188 62.0177C84.9285 61.8825 84.7136 61.7872 84.4864 61.7371L84.4671 61.7307C84.4475 61.7268 84.4272 61.7307 84.4104 61.7415C84.3936 61.7523 84.3816 61.7692 84.377 61.7886ZM95.8775 64.2535L94.024 64.099C93.758 64.0776 93.6508 63.936 93.7023 63.6743L93.8438 62.8891C93.8678 62.7655 93.9336 62.6541 94.03 62.5743C94.1263 62.4944 94.2471 62.4509 94.3716 62.4515L96.8042 62.445C97.8425 62.4408 98.3938 61.9216 98.4582 60.8876L98.4775 60.5723C98.5247 59.8172 98.1707 59.4139 97.4156 59.3624C96.0985 59.2723 94.6783 59.165 93.1552 59.0406C92.2671 58.9698 91.0765 58.9312 90.5231 59.7936C89.9396 60.7031 89.9138 61.587 90.4458 62.445C90.5745 62.6467 90.6003 62.8612 90.5231 63.0886C89.858 65.148 89.3389 67.1409 88.9656 69.0673C88.2867 72.5955 92.0104 72.3777 94.2091 72.2491C94.3446 72.2412 94.4743 72.2336 94.5968 72.2272C95.3519 72.1886 95.766 71.7939 95.8389 71.0431L95.9226 70.1549C95.9955 69.4127 95.6587 69.0416 94.9122 69.0416H92.6404C92.4001 69.0416 92.295 68.9214 92.325 68.6812L92.4537 67.748C92.4967 67.4305 92.679 67.2718 93.0008 67.2718H95.5622C96.5318 67.2761 97.0166 66.7934 97.0166 65.8238V65.4955C97.0209 64.7276 96.6412 64.3135 95.8775 64.2535ZM103.021 62.8955L102.867 63.893C102.815 64.2234 102.952 64.3564 103.278 64.292C107.018 63.5455 108.343 67.4326 106.49 69.9618C104.855 72.195 99.977 74.2415 98.2072 70.6891C97.8339 69.9382 97.7824 69.1745 98.0527 68.398C98.7306 66.463 99.269 64.6353 99.6681 62.9148C99.711 62.7346 99.6788 62.5651 99.5715 62.4064C98.6126 60.9841 99.6101 58.9891 101.393 59.047C103.16 59.1071 104.947 59.21 106.754 59.3559C107.607 59.4245 108.011 59.8858 107.964 60.7396L107.951 61.042C107.899 61.9773 107.404 62.445 106.464 62.445H103.549C103.422 62.445 103.299 62.4903 103.202 62.5729C103.105 62.6555 103.041 62.7699 103.021 62.8955ZM103.343 69.0094C103.49 68.951 103.612 68.8443 103.69 68.7069L104.186 67.8316C104.25 67.7196 104.282 67.5918 104.278 67.4627C104.274 67.3335 104.234 67.2081 104.162 67.1005C104.091 66.9929 103.991 66.9073 103.873 66.8534C103.756 66.7996 103.625 66.7795 103.497 66.7955L102.442 66.9242C102.303 66.9404 102.172 66.9982 102.066 67.0901C101.961 67.182 101.885 67.3036 101.85 67.4391L101.567 68.5203C101.534 68.6445 101.536 68.7753 101.573 68.8982C101.61 69.0212 101.681 69.1314 101.777 69.2168C101.873 69.3021 101.991 69.3591 102.117 69.3816C102.244 69.4041 102.374 69.3911 102.493 69.344L103.343 69.0094ZM110.731 71.1588L111.362 69.0286C111.447 68.7369 111.641 68.5717 111.941 68.5331C115.262 68.1083 118.151 65.8108 117.907 62.2648C117.656 58.7187 112.546 58.7316 110.062 59.3945C109.102 59.6486 108.996 60.6303 108.907 61.4541L108.903 61.4861C108.856 61.9966 109.062 62.3527 109.521 62.5544C109.614 62.5949 109.688 62.6688 109.731 62.7623C109.774 62.8557 109.781 62.9625 109.753 63.0628L107.764 70.0519C107.498 70.9872 107.773 71.7187 108.588 72.2465C108.781 72.3709 109.004 72.4181 109.257 72.388C110.021 72.3022 110.512 71.8925 110.731 71.1588ZM112.396 65.4336C112.389 65.4121 112.387 65.3891 112.391 65.3668L112.926 62.4064C113.02 61.8658 113.303 61.7328 113.775 62.0074C115.822 63.1915 114.032 65.1608 112.559 65.5212C112.537 65.527 112.514 65.5271 112.492 65.5216C112.47 65.5161 112.449 65.5052 112.433 65.4898C112.416 65.4744 112.404 65.4551 112.396 65.4336ZM133.275 64.0604C133.254 64.1548 133.29 64.202 133.384 64.202L135.65 64.2277C135.787 64.2277 135.875 64.1634 135.914 64.0347L136.988 60.3599C137.068 60.0914 137.225 59.8538 137.439 59.6777C138.275 58.9955 138.936 58.8647 139.421 59.2852C139.979 59.77 140.159 60.3663 139.962 61.0743L137.201 71.1396C136.922 72.1436 136.276 72.5319 135.264 72.3045C135.092 72.2658 134.931 72.1972 134.781 72.0985C134.112 71.648 133.889 71.0366 134.112 70.2644L134.871 67.5743C134.881 67.5387 134.883 67.5012 134.876 67.4649C134.869 67.4286 134.853 67.3944 134.831 67.3651C134.808 67.3357 134.779 67.312 134.746 67.2958C134.713 67.2796 134.676 67.2714 134.639 67.2718H132.747C132.65 67.2715 132.556 67.302 132.478 67.3588C132.401 67.4156 132.344 67.4957 132.316 67.5871L131.164 71.3005C130.821 72.4203 130.122 72.7206 129.066 72.2015L128.892 72.1178C128.15 71.7531 127.899 71.1739 128.139 70.3802L128.867 67.999C128.94 67.7459 128.922 67.5013 128.815 67.2653C128.223 66.0083 128.564 64.9485 129.838 64.0861C129.963 64.0046 130.046 63.8909 130.089 63.7451L131.093 60.3277C131.351 59.4568 131.934 59.0363 132.844 59.0663C133.17 59.0749 133.487 59.2122 133.796 59.4782C133.932 59.5942 134.033 59.7451 134.089 59.9143C134.145 60.0834 134.152 60.2643 134.112 60.4371L133.275 64.0604ZM148.206 66.1133C147.826 64.5945 146.217 63.8994 144.782 64.0539C144.456 64.0882 144.332 63.9466 144.409 63.6291L145.207 60.4499C145.242 60.3048 145.242 60.1533 145.206 60.0086C145.17 59.864 145.1 59.7305 145.001 59.6197C144.683 59.2636 144.349 59.077 143.997 59.0598C143.062 59.0126 142.457 59.4352 142.182 60.3277C141.423 62.7861 140.663 65.2295 139.904 67.6579C139.363 69.4084 139.357 72.0277 141.828 72.1821C145.239 72.4009 149.235 70.2064 148.206 66.1133ZM143.262 67.9435L143.262 67.9434L143.262 67.9432L143.262 67.9431L143.262 67.943L143.262 67.9428L143.263 67.9427L143.263 67.9426L143.263 67.9424L143.263 67.9423L143.263 67.9421L143.263 67.942L143.263 67.9419L143.263 67.9417L143.263 67.9416L143.263 67.9415L143.263 67.9413C143.294 67.8188 143.324 67.6965 143.347 67.5742C143.368 67.4541 143.407 67.3404 143.463 67.2331C143.557 67.0486 143.707 66.9542 143.913 66.9499H144.628C144.728 66.9496 144.826 66.9736 144.915 67.0198C145.004 67.066 145.08 67.133 145.136 67.215C145.193 67.297 145.228 67.3914 145.24 67.4899C145.251 67.5885 145.237 67.6881 145.2 67.7801C144.87 68.6425 144.282 69.0329 143.437 68.9514C143.355 68.9449 143.279 68.9072 143.224 68.8462C143.169 68.7852 143.139 68.7054 143.141 68.6232C143.149 68.3945 143.206 68.1685 143.262 67.9435ZM153.081 59.1564L152.995 59.1319C152.184 58.9025 151.341 59.3737 151.112 60.1842L148.224 70.3894C147.995 71.2 148.466 72.043 149.276 72.2723L149.363 72.2969C150.174 72.5262 151.017 72.0551 151.246 71.2446L154.134 61.0393C154.363 60.2288 153.892 59.3858 153.081 59.1564ZM122.515 68.089C122.875 67.5356 123.06 67.5892 123.068 68.2499C123.077 68.6833 122.961 69.1059 122.721 69.5177C122.574 69.7692 122.47 70.0425 122.415 70.3207C122.359 70.5989 122.353 70.876 122.398 71.1349C122.443 71.3938 122.537 71.6289 122.674 71.8256C122.812 72.0224 122.989 72.1766 123.197 72.2786C124.194 72.7677 125.282 72.1564 125.572 71.1009C126.318 68.4323 127.056 65.8902 127.785 63.4747C127.909 63.0665 128.088 62.7067 128.263 62.3567L128.263 62.3566L128.263 62.3565C128.617 61.6471 128.951 60.9775 128.757 60.0252C128.724 59.8529 128.637 59.6956 128.51 59.5755C128.383 59.4554 128.222 59.3785 128.049 59.3559C124.696 58.9311 120.841 58.9633 119.297 62.5351C118.606 64.1225 118.73 65.5813 119.67 66.9113C119.786 67.0744 119.777 67.2352 119.644 67.394C118.821 68.3765 117.838 69.2239 116.697 69.9361C115.955 70.3994 115.691 71.0473 115.905 71.8796C115.992 72.2133 116.205 72.5001 116.501 72.6791C116.796 72.8581 117.151 72.9153 117.488 72.8385C119.535 72.3687 121.369 69.846 122.515 68.089ZM124.838 62.3291C124.984 62.3635 125.042 62.4536 125.012 62.5994C124.84 63.4017 124.574 64.1097 124.214 64.7232C124.104 64.9122 123.939 65.0624 123.74 65.1534C123.542 65.2443 123.32 65.2716 123.104 65.2315C122.889 65.1914 122.691 65.0859 122.537 64.9293C122.383 64.7727 122.281 64.5726 122.244 64.3564C122.026 63.0692 123.68 62.0331 124.838 62.3291ZM158.754 64.3822L162.943 59.5619C163.093 59.386 163.282 59.2766 163.51 59.2337C164.23 59.0921 164.801 59.2851 165.222 59.8129C165.335 59.9545 165.414 60.1209 165.452 60.2985C165.49 60.4762 165.486 60.6603 165.44 60.8361L162.757 71.0173C162.551 71.7896 162.051 72.1543 161.257 72.1114C161.116 72.1028 160.978 72.0749 160.845 72.0277C159.936 71.6931 159.59 71.0538 159.809 70.1099L160.485 67.201C160.579 66.7977 160.493 66.7548 160.227 67.0723C159.035 68.4881 157.866 69.9104 156.72 71.3391C155.948 72.3002 155.083 72.4611 154.126 71.8218C153.933 71.6913 153.782 71.5079 153.692 71.2941C153.601 71.0802 153.576 70.8454 153.618 70.6183C154.326 66.8213 155.201 63.3954 156.244 60.3406C156.51 59.5469 157.059 59.1736 157.891 59.2208L158.471 59.2465C158.622 59.2556 158.77 59.2984 158.903 59.3716C159.036 59.4449 159.151 59.5468 159.24 59.67C159.328 59.7933 159.388 59.9347 159.416 60.0841C159.443 60.2334 159.437 60.387 159.397 60.5337L158.406 64.1955C158.252 64.7619 158.368 64.8241 158.754 64.3822ZM192.805 74.8659L191.646 77.7169C191.492 78.1073 191.32 78.1137 191.131 77.7362L189.664 74.7886C189.54 74.5398 189.34 74.4197 189.066 74.4283L188.879 74.4347C188.822 74.4354 188.766 74.4509 188.717 74.4797C188.668 74.5086 188.627 74.5497 188.598 74.5993C188.569 74.6489 188.553 74.7053 188.551 74.7632C188.55 74.8211 188.563 74.8786 188.589 74.9302L190.771 79.0555C190.9 79.2957 190.863 79.5103 190.662 79.699C190.37 79.9693 189.971 80.1495 189.465 80.2396C189.443 80.2426 189.422 80.251 189.405 80.264C189.387 80.2771 189.373 80.2945 189.364 80.3148C189.354 80.335 189.349 80.3575 189.35 80.3803C189.351 80.4031 189.357 80.4255 189.368 80.4456L189.465 80.6065C189.61 80.8553 189.825 80.984 190.108 80.9926C190.786 81.0141 191.264 80.7287 191.543 80.1367C192.341 78.4548 193.111 76.7108 193.854 74.9045C193.978 74.6084 193.879 74.469 193.558 74.4862L193.32 74.5055C193.071 74.5183 192.899 74.6385 192.805 74.8659ZM209.344 82.756C211.043 81.7263 213.354 82.3956 213.901 84.4164C215.368 89.906 207.259 90.7169 207.903 84.5193C208.104 82.5629 208.113 80.6622 207.928 78.8174C207.735 76.8609 208.553 74.4669 210.895 74.4283C213.585 74.3768 214.718 76.9961 213.785 79.2743C213.038 81.0763 210.985 81.456 209.415 80.5292C209.145 80.3705 209.01 80.4477 209.01 80.7609L208.997 82.5629C208.997 82.8332 209.113 82.8976 209.344 82.756ZM211.056 80.1623C211.326 80.1609 211.594 80.0965 211.843 79.9726C212.092 79.8487 212.318 79.6679 212.509 79.4404C212.699 79.2129 212.849 78.9432 212.951 78.6467C213.053 78.3503 213.104 78.0328 213.103 77.7125C213.099 77.0656 212.879 76.4464 212.49 75.991C212.102 75.5356 211.577 75.2814 211.031 75.2843C210.76 75.2857 210.493 75.3501 210.243 75.474C209.994 75.5979 209.768 75.7788 209.578 76.0062C209.388 76.2337 209.238 76.5034 209.136 76.7999C209.034 77.0964 208.982 77.4138 208.984 77.7341C208.987 78.381 209.208 79.0002 209.596 79.4556C209.985 79.911 210.51 80.1652 211.056 80.1623ZM210.988 88.0331C211.258 88.035 211.526 87.9735 211.777 87.852C212.028 87.7305 212.256 87.5515 212.449 87.3251C212.642 87.0988 212.795 86.8295 212.901 86.5328C213.006 86.236 213.062 85.9176 213.064 85.5956C213.069 84.9453 212.856 84.3201 212.473 83.8576C212.09 83.3951 211.568 83.1331 211.022 83.1293C210.751 83.1274 210.483 83.189 210.232 83.3104C209.982 83.4319 209.753 83.611 209.561 83.8373C209.368 84.0637 209.214 84.3329 209.109 84.6297C209.003 84.9264 208.948 85.2449 208.945 85.5669C208.941 86.2172 209.153 86.8423 209.536 87.3048C209.919 87.7673 210.441 88.0293 210.988 88.0331ZM195.488 80.6064C195.424 79.4437 195.467 78.2917 195.617 77.1505C195.673 76.73 195.767 76.7214 195.9 77.1247L196.859 79.9822C197.348 81.4452 197.87 81.4559 198.423 80.0143L199.523 77.144C199.721 76.6249 199.82 76.6442 199.82 77.202L199.826 80.6257C199.826 80.8403 199.933 80.9497 200.148 80.954L200.457 80.9604C200.675 80.9647 200.785 80.8574 200.785 80.6386L200.791 74.8337C200.791 74.6234 200.684 74.5162 200.469 74.5119H199.858C199.665 74.5076 199.532 74.5977 199.459 74.7822L197.85 79.0554C197.721 79.3901 197.595 79.3901 197.47 79.0554L195.913 74.9044C195.814 74.6384 195.621 74.5076 195.334 74.5119H194.999C194.677 74.5119 194.517 74.6728 194.517 74.9945V80.6515C194.517 80.8832 194.632 81.0011 194.864 81.0054L195.102 81.0119C195.377 81.0119 195.505 80.8767 195.488 80.6064ZM203.057 78.2446L203.018 80.7802C203.018 80.8069 203.013 80.8334 203.002 80.8581C202.992 80.8827 202.977 80.905 202.957 80.9236C202.938 80.9422 202.915 80.9568 202.89 80.9664C202.865 80.976 202.839 80.9806 202.812 80.9797L202.278 80.9604C202.226 80.9587 202.177 80.937 202.141 80.8997C202.105 80.8625 202.085 80.8127 202.085 80.7609L202.078 74.7307C202.078 74.6778 202.099 74.627 202.137 74.5896C202.174 74.5522 202.225 74.5312 202.278 74.5312L202.838 74.5247C202.891 74.5247 202.941 74.5458 202.979 74.5832C203.016 74.6206 203.037 74.6713 203.037 74.7243L203.044 77.054C203.044 77.1069 203.065 77.1576 203.102 77.195C203.14 77.2324 203.19 77.2535 203.243 77.2535L205.901 77.2342C205.954 77.2342 206.005 77.2131 206.042 77.1757C206.08 77.1383 206.101 77.0876 206.101 77.0347V74.7114C206.101 74.6585 206.122 74.6077 206.159 74.5703C206.197 74.5329 206.247 74.5119 206.3 74.5119L207.027 74.5247C207.08 74.5247 207.131 74.5458 207.168 74.5832C207.206 74.6206 207.227 74.6713 207.227 74.7243L207.22 80.7158C207.221 80.7666 207.201 80.8155 207.167 80.8525C207.132 80.8896 207.085 80.9121 207.034 80.9153L206.326 80.9475C206.3 80.9484 206.274 80.9441 206.249 80.9348C206.225 80.9256 206.202 80.9116 206.183 80.8937C206.164 80.8757 206.148 80.8542 206.138 80.8303C206.127 80.8064 206.121 80.7807 206.12 80.7545L206.081 78.2574C206.08 78.2067 206.059 78.1586 206.023 78.1227C205.987 78.0868 205.939 78.066 205.888 78.0644L203.256 78.045C203.203 78.045 203.152 78.0661 203.115 78.1035C203.078 78.1409 203.057 78.1916 203.057 78.2446ZM215.909 79.7891L215.922 78.2317C215.922 78.1839 215.941 78.1381 215.974 78.1043C216.008 78.0705 216.054 78.0515 216.102 78.0515L218.991 78.045C219.016 78.0451 219.04 78.0402 219.062 78.0307C219.084 78.0213 219.104 78.0074 219.121 77.99C219.138 77.9726 219.151 77.952 219.16 77.9294C219.168 77.9067 219.172 77.8826 219.172 77.8584L219.146 77.4465C219.143 77.4021 219.123 77.3604 219.091 77.3295C219.059 77.2986 219.017 77.2807 218.972 77.2792L216.089 77.2277C216.043 77.2261 216 77.2073 215.968 77.1751C215.936 77.1428 215.917 77.0995 215.915 77.054L215.909 75.503C215.909 75.4552 215.928 75.4093 215.962 75.3756C215.995 75.3418 216.041 75.3228 216.089 75.3228L219.249 75.297C219.293 75.2973 219.337 75.281 219.37 75.2513C219.403 75.2215 219.424 75.1805 219.429 75.1361L219.474 74.7114C219.477 74.6862 219.474 74.6606 219.466 74.6365C219.459 74.6123 219.446 74.5901 219.429 74.5713C219.412 74.5525 219.391 74.5374 219.368 74.5272C219.344 74.517 219.319 74.5117 219.294 74.5119H215.13C215.082 74.5119 215.036 74.5309 215.003 74.5647C214.969 74.5985 214.95 74.6443 214.95 74.6921L214.943 80.7738C214.943 80.8216 214.962 80.8674 214.996 80.9012C215.03 80.935 215.076 80.954 215.124 80.954L219.262 80.9347C219.31 80.9347 219.355 80.9157 219.389 80.8819C219.423 80.8481 219.442 80.8022 219.442 80.7545V80.1688C219.442 80.121 219.423 80.0752 219.389 80.0414C219.355 80.0076 219.31 79.9886 219.262 79.9886L216.089 79.9693C216.041 79.9693 215.995 79.9503 215.962 79.9165C215.928 79.8827 215.909 79.8369 215.909 79.7891ZM135.437 83.998L134.33 87.6213C134.069 88.4793 133.511 88.7711 132.657 88.4965L132.477 88.4322C131.422 88.0889 131.05 87.3853 131.364 86.3213L131.936 84.3455C132.172 83.5303 131.999 83.4317 131.415 84.0495C130.175 85.3752 129.214 86.5894 128.532 87.692C128.034 88.5029 127.363 88.6917 126.518 88.2584L126.286 88.1425C125.458 87.7221 125.308 87.1279 125.835 86.3599C127.238 84.3133 128.744 82.5264 130.353 80.999C130.424 80.9316 130.473 80.8433 130.491 80.7464C130.51 80.6494 130.497 80.5487 130.456 80.4584C129.855 79.1627 129.489 77.8241 129.356 76.4425C129.27 75.5201 129.677 74.9473 130.578 74.7242C130.669 74.6985 130.761 74.6813 130.855 74.6727C131.756 74.5612 132.217 74.9581 132.239 75.8633C132.273 77.1076 132.561 78.2724 133.101 79.3579C133.243 79.6411 133.359 79.6303 133.449 79.3257L134.356 76.2044C134.639 75.2477 135.279 74.8057 136.274 74.8787C136.484 74.8958 136.673 74.9602 136.84 75.0718C137.497 75.4965 137.722 76.0864 137.516 76.8416L136.795 79.493C136.688 79.8792 136.789 79.9435 137.098 79.6861C138.303 78.6736 139.185 77.365 139.743 75.7604C139.834 75.5018 140.01 75.2825 140.243 75.1394C140.475 74.9964 140.748 74.9384 141.017 74.9752L141.822 75.0846C142.624 75.1919 142.892 75.6274 142.626 76.3911C141.704 79.0554 140.356 81.0419 138.584 82.3505C138.43 82.4663 138.391 82.6143 138.469 82.7945C139.001 83.9701 139.385 85.3194 139.621 86.8425C139.779 87.8508 139.35 88.4 138.333 88.4901C138.265 88.4944 138.198 88.5008 138.134 88.5094C137.194 88.5823 136.675 88.1511 136.576 87.2158C136.456 86.0445 136.199 84.9655 135.804 83.9787C135.667 83.6355 135.545 83.6419 135.437 83.998ZM115.834 88.1941C116.268 86.9927 116.008 86.081 115.056 85.4589C114.85 85.3259 114.749 85.1371 114.753 84.8926L114.921 76.153C114.924 76.0021 114.897 75.852 114.841 75.7116C114.786 75.5712 114.702 75.4433 114.596 75.3354C114.49 75.2275 114.363 75.1417 114.223 75.0832C114.083 75.0247 113.933 74.9945 113.781 74.9946H111.812C111.569 74.9945 111.334 75.089 111.156 75.2584C110.718 75.6789 110.373 76.1723 110.12 76.7386C108.948 79.3558 107.734 81.9751 106.477 84.5965C106.361 84.8454 106.175 85.017 105.917 85.1114C104.518 85.6348 103.881 86.6109 104.006 88.0396C104.087 88.9663 104.619 89.3975 105.602 89.3332C106.143 89.2945 106.39 89.057 106.714 88.7466L106.714 88.7465L106.714 88.7465L106.714 88.7465C106.767 88.695 106.823 88.6415 106.882 88.5866C107.054 88.4279 107.256 88.3485 107.487 88.3485H112.192C112.317 88.3486 112.44 88.3785 112.55 88.4357C112.66 88.4929 112.753 88.5756 112.823 88.6767C113.582 89.7901 115.377 89.4426 115.834 88.1941ZM109.506 85.0861C109.506 85.0498 109.516 85.0141 109.534 84.9827C110.263 83.6741 110.836 82.3998 111.252 81.1599C111.578 80.186 111.735 80.2117 111.722 81.2371C111.705 82.4384 111.636 83.6462 111.516 84.8604C111.505 84.9787 111.45 85.0886 111.362 85.1684C111.274 85.2482 111.159 85.2921 111.04 85.2916H109.714C109.678 85.2919 109.642 85.2826 109.611 85.2647C109.579 85.2467 109.553 85.2208 109.534 85.1894C109.516 85.1581 109.506 85.1224 109.506 85.0861ZM123.982 75.7346C124.325 75.4042 124.743 75.2605 125.237 75.3034C125.49 75.3249 125.69 75.4407 125.835 75.6509C126.363 76.4146 126.638 77.4057 126.659 78.6242C126.732 82.2796 125.679 85.1414 123.499 87.2093C120.642 89.9123 116.98 87.8529 116.716 84.3455C116.403 80.2567 117.971 77.2105 121.421 75.2069C122.266 74.7178 122.916 74.8658 123.371 75.6509C123.538 75.9427 123.742 75.9706 123.982 75.7346ZM120.691 84.6893C121.001 84.7851 121.399 84.55 121.799 84.0356C122.198 83.5211 122.565 82.7695 122.82 81.9461C123.075 81.1227 123.197 80.295 123.158 79.6449C123.119 78.9949 122.923 78.5758 122.613 78.4799C122.303 78.3841 121.905 78.6192 121.506 79.1336C121.107 79.6481 120.739 80.3996 120.484 81.223C120.229 82.0464 120.108 82.8742 120.147 83.5243C120.186 84.1743 120.381 84.5934 120.691 84.6893ZM151.958 87.8272C152.245 86.7503 151.956 85.9888 151.089 85.5426C150.977 85.485 150.883 85.3967 150.819 85.2875C150.754 85.1784 150.72 85.0528 150.722 84.9248L150.838 76.2559C150.84 76.0917 150.809 75.9288 150.748 75.7767C150.686 75.6245 150.595 75.486 150.481 75.3693C150.366 75.2526 150.229 75.16 150.078 75.0967C149.927 75.0335 149.766 75.001 149.602 75.001H148.026C147.356 75.001 146.874 75.3035 146.577 75.9084C145.217 78.6972 143.92 81.486 142.684 84.2748C142.381 84.9634 141.879 85.298 141.204 85.5619C140.998 85.6434 140.845 85.7871 140.747 85.9931C140.399 86.7224 140.234 87.381 140.251 87.9688C140.296 89.6292 142.253 89.7064 143.147 88.6124C143.289 88.4365 143.473 88.3485 143.701 88.3485H148.18C148.455 88.3485 148.676 88.4601 148.843 88.6832C149.802 89.996 151.572 89.2946 151.958 87.8272ZM145.496 85.2079C145.912 84.3026 146.329 83.421 146.745 82.5629C146.967 82.1151 147.087 81.6899 147.21 81.2536L147.21 81.2533L147.21 81.2529C147.273 81.0311 147.336 80.8063 147.414 80.5743C147.556 80.1581 147.637 80.1688 147.659 80.6064C147.74 82.1081 147.676 83.6054 147.466 85.0985C147.448 85.2315 147.373 85.2959 147.24 85.2916L145.541 85.2787C145.536 85.2785 145.531 85.2774 145.526 85.2756C145.523 85.2746 145.521 85.2733 145.518 85.2718C145.511 85.2676 145.505 85.2619 145.501 85.2549C145.496 85.248 145.493 85.2401 145.493 85.232C145.492 85.2262 145.493 85.2204 145.494 85.2149C145.495 85.2125 145.495 85.2102 145.496 85.2079ZM157.962 79.995C159.269 79.8856 160.858 80.0401 161.566 81.3465C163.986 85.845 158.94 88.3678 155.259 88.2262C153.444 88.1554 152.099 85.7871 152.685 84.1718C153.607 81.6061 154.358 79.079 154.937 76.5906C155.173 75.578 155.811 75.0954 156.849 75.1426C157.003 75.1512 157.156 75.1833 157.306 75.2391C158.065 75.5223 158.353 76.0586 158.168 76.848L157.55 79.5124C157.464 79.8642 157.602 80.0251 157.962 79.995ZM156.984 82.8846C156.875 82.8858 156.77 82.9232 156.685 82.9908C156.6 83.0584 156.54 83.1524 156.514 83.2579L156.199 84.5064C156.178 84.5888 156.179 84.6752 156.202 84.7571C156.225 84.8389 156.269 84.9134 156.329 84.9731C156.39 85.0329 156.465 85.0759 156.547 85.0979C156.629 85.1198 156.715 85.1201 156.797 85.0985L157.988 84.7767C158.051 84.7588 158.109 84.7285 158.16 84.6876C158.211 84.6467 158.253 84.596 158.284 84.5386L158.805 83.599C158.847 83.5238 158.869 83.4388 158.867 83.3527C158.866 83.2666 158.842 83.1824 158.797 83.1086C158.753 83.0348 158.69 82.974 158.614 82.9324C158.539 82.8909 158.454 82.8699 158.368 82.8718L156.984 82.8846ZM185.352 88.5029L185.339 86.5722C185.338 86.5271 185.347 86.4824 185.364 86.4408C185.381 86.3992 185.407 86.3617 185.44 86.3308C185.473 86.2998 185.512 86.2761 185.554 86.2612C185.597 86.2462 185.642 86.2404 185.687 86.244C187.515 86.3856 189.542 85.9994 188.911 83.5474C188.787 83.0498 188.473 82.7387 187.971 82.6143C186.998 82.3783 185.906 82.3075 184.696 82.4019C184.486 82.4191 184.38 82.5328 184.38 82.743V88.5093C184.38 88.7281 184.488 88.8354 184.702 88.8311L185.03 88.8247C185.245 88.8247 185.352 88.7174 185.352 88.5029ZM185.346 85.0148V83.5217C185.346 83.4828 185.353 83.4443 185.368 83.4084C185.383 83.3725 185.405 83.3399 185.432 83.3124C185.46 83.2849 185.493 83.2631 185.528 83.2482C185.564 83.2333 185.603 83.2257 185.642 83.2257H186.594C186.784 83.2255 186.971 83.2493 187.146 83.2958C187.322 83.3423 187.481 83.4105 187.614 83.4966C187.748 83.5826 187.854 83.6849 187.927 83.7974C187.999 83.9099 188.036 84.0306 188.036 84.1524V84.3841C188.035 84.6296 187.883 84.8651 187.613 85.0389C187.343 85.2126 186.976 85.3104 186.594 85.3108H185.642C185.603 85.3108 185.564 85.3032 185.528 85.2883C185.493 85.2734 185.46 85.2516 185.432 85.2241C185.405 85.1966 185.383 85.164 185.368 85.1281C185.353 85.0921 185.346 85.0536 185.346 85.0148ZM194.761 87.5698C195.139 88.518 195.476 88.5051 195.772 87.5312C196.286 85.845 196.51 84.1889 196.441 82.5629C196.437 82.4556 196.488 82.402 196.595 82.402L200.47 82.3955C200.512 82.3955 200.553 82.4125 200.583 82.4427C200.614 82.4728 200.631 82.5138 200.631 82.5564V87.0678C200.631 87.2737 200.691 87.4582 200.811 87.6213C201.283 88.2605 201.424 89.065 201.235 90.0346C201.22 90.1037 201.183 90.1661 201.13 90.2124C201.077 90.2588 201.01 90.2868 200.939 90.2921L200.663 90.3114C200.427 90.3285 200.309 90.2213 200.309 89.9896L200.315 89.153C200.315 88.9384 200.206 88.8312 199.987 88.8312H196.28C196.061 88.8312 195.954 88.9406 195.958 89.1594L195.971 89.951C195.98 90.2985 195.817 90.4272 195.482 90.3371L195.186 90.2535C195.144 90.2414 195.105 90.2213 195.071 90.1944C195.037 90.1674 195.008 90.134 194.987 90.0963C194.966 90.0585 194.953 90.0171 194.949 89.9745C194.944 89.9319 194.948 89.8889 194.961 89.848C195.167 89.2044 194.967 88.8462 194.362 88.7733C194.122 88.7432 193.967 88.6145 193.899 88.3871L193.551 87.2416C193.478 87.0142 193.324 86.9005 193.088 86.9005L191.286 86.894C191.041 86.894 190.876 87.0099 190.79 87.2416L190.282 88.5931C190.25 88.6741 190.193 88.7425 190.118 88.7878C190.044 88.8331 189.957 88.8529 189.87 88.844L189.484 88.8054C189.252 88.7797 189.179 88.6596 189.265 88.445L191.138 83.6891C191.824 81.9472 192.515 81.9472 193.21 83.6891L194.761 87.5698ZM196.936 87.647C196.932 87.6789 196.934 87.7114 196.943 87.7423C196.953 87.7731 196.968 87.8015 196.99 87.8255C197.012 87.8495 197.038 87.8684 197.068 87.8809C197.097 87.8935 197.13 87.8993 197.162 87.898L199.466 87.8336C199.523 87.832 199.577 87.8082 199.616 87.7673C199.656 87.7265 199.678 87.6718 199.678 87.6148L199.659 83.4317C199.659 83.3747 199.637 83.32 199.597 83.2792C199.557 83.2383 199.503 83.2145 199.446 83.2129L197.734 83.1871C197.682 83.1865 197.63 83.2051 197.59 83.2394C197.55 83.2737 197.523 83.3215 197.516 83.3737L196.936 87.647ZM192.946 85.6069L192.251 83.85C192.174 83.6483 192.097 83.6505 192.02 83.8564L191.363 85.6648C191.265 85.9351 191.359 86.0746 191.646 86.0831L192.586 86.1153C192.968 86.1282 193.088 85.9587 192.946 85.6069ZM203.951 87.4088L205.785 84.2811C205.996 83.9207 206.101 83.9486 206.101 84.3648L206.094 88.4964C206.094 88.7024 206.199 88.8096 206.41 88.8182L206.738 88.8311C206.957 88.8354 207.066 88.7303 207.066 88.5157L207.072 82.7558C207.072 82.5285 206.961 82.3976 206.738 82.3633C206.197 82.2818 205.794 82.477 205.528 82.9489C204.756 84.3261 203.973 85.6648 203.179 86.9648C202.973 87.3037 202.872 87.2737 202.876 86.8747L202.889 82.7237C202.889 82.5134 202.782 82.4062 202.568 82.4019L202.246 82.3955C202.027 82.3912 201.918 82.4984 201.918 82.7172L201.924 86.8554C201.924 89.5283 202.6 89.7128 203.951 87.4088Z" fill="white"/>
<path fill-rule="evenodd" clip-rule="evenodd" d="M186.047 65.3287C186.146 65.1314 187.785 63.2929 190.964 59.8134C191.041 59.7276 191.136 59.6975 191.247 59.7233C199.279 61.2978 207.278 61.2528 215.246 59.5881C219.51 58.6957 223.344 57.1318 226.746 54.8965C226.931 54.7764 227.132 54.7356 227.351 54.7743C238.993 56.7564 253.229 52.245 254.709 38.5371C255.516 31.0374 252.703 25.4599 246.272 21.8044C246.062 21.6843 245.929 21.5063 245.873 21.2703C243.569 11.4173 233.471 7.44652 224.101 8.64355C222.707 8.82375 221.263 9.11336 219.77 9.51236C219.679 9.53814 219.583 9.54105 219.491 9.52084C219.399 9.50062 219.313 9.4579 219.242 9.39652C214.948 5.84834 209.767 3.90477 203.7 3.56583C191.247 2.87078 178.974 8.87524 175.461 21.3668C175.379 21.6672 175.203 21.8967 174.933 22.0554C169.308 25.2604 164.945 29.997 164.089 36.5099C162.924 45.3074 168.613 53.8411 177.05 56.7886C177.402 56.913 177.499 57.1447 177.34 57.4837C175.177 62.1431 173.062 66.7081 170.994 71.1787C170.728 71.745 170.848 72.2084 171.355 72.5688C171.995 73.0234 173.133 72.9555 174.047 72.9011C174.271 72.8877 174.482 72.8751 174.669 72.8713C175.004 72.867 175.089 73.0107 174.926 73.3025L166.554 88.3554C166.472 88.5019 166.43 88.667 166.432 88.8347C166.433 89.0023 166.479 89.1666 166.563 89.3114C166.647 89.4563 166.768 89.5766 166.913 89.6606C167.058 89.7446 167.223 89.7894 167.39 89.7906L168.118 89.797C168.244 89.7989 168.37 89.7748 168.488 89.7262C168.606 89.6775 168.715 89.6053 168.806 89.5139C176.057 82.2587 183.31 75.0058 190.565 67.7549C190.791 67.5274 190.952 67.2473 191.031 66.9447C191.11 66.6421 191.105 66.3283 191.016 66.0366C190.818 65.3931 189.171 65.17 186.073 65.3673C186.068 65.368 186.063 65.3673 186.059 65.3653C186.054 65.3633 186.051 65.3601 186.048 65.3561C186.046 65.3536 186.045 65.3508 186.044 65.3479C186.044 65.3461 186.044 65.3443 186.044 65.3425C186.043 65.3377 186.045 65.3329 186.047 65.3287ZM179.753 41.2208L183.421 29.1411C183.512 28.8365 183.404 28.7292 183.1 28.8193L181.394 29.3277C181.169 29.3945 180.932 29.4147 180.699 29.3872C180.466 29.3596 180.241 29.2849 180.037 29.1675C179.834 29.0501 179.656 28.8924 179.515 28.7042C179.375 28.5161 179.274 28.3012 179.219 28.0728C179.202 27.9912 179.185 27.9076 179.168 27.8218C179.085 27.4094 179.15 26.981 179.353 26.6124C179.556 26.2438 179.882 25.9586 180.274 25.8074C182.248 25.0523 184.23 24.3637 186.221 23.7416C188.074 23.1624 188.93 24.7906 188.506 26.4059C187.064 31.9106 185.582 37.2865 184.059 42.5337C183.771 43.5333 183.11 44.0975 182.076 44.2262C181.763 44.2648 181.461 44.2284 181.169 44.1168C179.8 43.5891 179.328 42.6238 179.753 41.2208ZM191.318 27.4936C192.309 26.0069 196.859 21.6693 198.339 24.797C198.494 25.1274 198.695 25.1596 198.944 24.8936L199.137 24.694C199.734 24.0591 200.291 24.0912 200.811 24.7906C201.716 26.0134 202.192 27.4421 202.239 29.0767C202.387 34.502 200.251 41.3495 194.896 43.6342C190.996 45.2945 188.634 42.5272 188.3 38.9039C187.922 34.8752 188.928 31.0718 191.318 27.4936ZM208.868 24.8485C209.981 24.0183 212.717 22.7312 213.257 24.8614C213.321 25.1274 213.463 25.1767 213.682 25.0094L214.467 24.4173C214.69 24.2457 214.922 24.235 215.162 24.3851C216.629 25.3054 217.061 27.4163 217.125 28.9931C217.297 33.1719 216.245 36.9282 213.971 40.2619C211.487 43.898 205.354 46.5817 203.571 40.5386C202.008 35.2356 204.498 28.1178 208.868 24.8485ZM222.447 41.2079L226.09 29.1282C226.21 28.7378 226.083 28.6262 225.71 28.7936C225.045 29.0853 224.339 29.2634 223.593 29.3277C222.443 29.4221 221.868 28.8922 221.868 27.7381V27.5643C221.868 26.6076 222.321 25.9726 223.226 25.6594C225.092 25.0158 226.976 24.3808 228.876 23.7544C230.543 23.201 231.65 24.694 231.238 26.2064C229.711 31.9041 228.22 37.3444 226.766 42.5272C226.367 43.9388 225.453 44.4794 224.024 44.149C223.938 44.1275 223.854 44.0997 223.773 44.0653C222.482 43.5076 222.04 42.5551 222.447 41.2079ZM233.78 37.9965C233.441 37.9965 233.242 38.1639 233.182 38.4985L233.137 38.7624C233.127 38.8146 233.13 38.8684 233.147 38.919C233.163 38.9696 233.192 39.0154 233.231 39.0524C233.27 39.0893 233.317 39.1163 233.369 39.1308C233.421 39.1453 233.476 39.147 233.529 39.1356C234.302 38.9554 234.851 39.23 235.177 39.9594C235.238 40.0934 235.265 40.2407 235.255 40.3877C235.244 40.5348 235.197 40.6769 235.118 40.8011C235.039 40.9253 234.929 41.0276 234.8 41.0987C234.671 41.1697 234.526 41.2073 234.379 41.2079H232.989C232.667 41.2079 232.463 41.3645 232.377 41.6777L231.882 43.499C231.745 44.0096 231.41 44.267 230.878 44.2713C230.753 44.2713 230.633 44.2412 230.518 44.1812C229.934 43.8551 229.73 43.3681 229.906 42.7203L231.045 38.5243C231.11 38.2926 231.097 38.0652 231.007 37.8421C230.715 37.1213 230.829 36.4992 231.348 35.9757C231.502 35.8213 231.689 35.744 231.908 35.744L234.919 35.7376C235.464 35.7333 235.836 35.9865 236.033 36.497C236.102 36.6772 236.14 36.8574 236.149 37.0376C236.153 37.1606 236.133 37.2832 236.089 37.3982C236.045 37.5132 235.978 37.6182 235.893 37.707C235.808 37.7958 235.706 37.8666 235.593 37.9152C235.48 37.9638 235.358 37.9893 235.235 37.9901L233.78 37.9965ZM238.916 42.4629L238.755 40.6351C238.747 40.485 238.714 40.4785 238.659 40.6158C238.315 41.5168 238.062 42.4071 237.899 43.2866C237.783 43.9259 237.402 44.2541 236.754 44.2713C236.393 44.2799 236.106 44.0417 235.891 43.5569C235.8 43.3444 235.784 43.1059 235.846 42.8812L237.648 36.5614C237.721 36.3082 237.88 36.1366 238.124 36.0465C239.527 35.5124 240.486 36.201 240.383 37.6297C240.328 38.3934 240.383 39.1142 240.551 39.7921C240.662 40.2511 240.819 40.2683 241.02 39.8436C241.578 38.668 242.215 37.5632 242.932 36.5292C243.369 35.8985 243.953 35.7097 244.682 35.9629C244.939 36.0512 245.154 36.23 245.288 36.4658C245.422 36.7016 245.465 36.9781 245.41 37.2436C244.908 39.6805 244.356 41.8536 243.756 43.7629C243.584 44.3078 243.239 44.4665 242.719 44.2391L242.52 44.149C241.855 43.8615 241.66 43.3832 241.934 42.7139C242.162 42.169 242.286 41.6176 242.308 41.0599C242.32 40.6652 242.245 40.648 242.082 41.0084C241.752 41.7421 241.362 42.4157 240.911 43.0292C239.744 44.6081 239.079 44.4193 238.916 42.4629ZM220.363 41.7236C220.384 42.0066 220.346 42.2888 220.252 42.5541C220.158 42.8193 220.01 43.0625 219.816 43.2697C219.622 43.4769 219.386 43.6441 219.122 43.7617C218.858 43.8792 218.571 43.9449 218.276 43.9549C217.982 43.965 217.687 43.9192 217.407 43.8201C217.127 43.7211 216.869 43.5708 216.647 43.3778C216.424 43.1848 216.242 42.9529 216.111 42.6953C215.98 42.4376 215.902 42.1594 215.881 41.8764C215.861 41.5934 215.899 41.3112 215.993 41.0459C216.087 40.7806 216.235 40.5374 216.429 40.3302C216.623 40.123 216.858 39.9559 217.123 39.8383C217.387 39.7208 217.674 39.6551 217.969 39.645C218.263 39.635 218.558 39.6808 218.838 39.7798C219.117 39.8789 219.376 40.0292 219.598 40.2222C219.821 40.4152 220.003 40.6471 220.134 40.9047C220.265 41.1623 220.343 41.4406 220.363 41.7236ZM208.12 33.0467C207.12 36.0179 207.235 38.738 208.377 39.1223C209.519 39.5066 211.255 37.4096 212.255 34.4384C213.255 31.4673 213.14 28.7471 211.998 28.3628C210.856 27.9785 209.119 30.0755 208.12 33.0467ZM193.205 33.0624C192.218 36.0303 192.342 38.7437 193.482 39.1229C194.622 39.5021 196.346 37.4035 197.334 34.4356C198.321 31.4678 198.197 28.7544 197.057 28.3752C195.917 27.996 194.193 30.0945 193.205 33.0624Z" fill="white"/>
<path fill-rule="evenodd" clip-rule="evenodd" d="M183.1 28.8194L181.394 29.3278C181.169 29.3946 180.932 29.4148 180.699 29.3872C180.466 29.3597 180.241 29.2849 180.037 29.1675C179.834 29.0501 179.656 28.8925 179.515 28.7043C179.375 28.5161 179.274 28.3013 179.219 28.0728C179.202 27.9913 179.185 27.9076 179.167 27.8218C179.085 27.4095 179.15 26.9811 179.353 26.6124C179.556 26.2438 179.882 25.9587 180.274 25.8075C182.248 25.0524 184.23 24.3638 186.221 23.7416C188.074 23.1624 188.93 24.7907 188.506 26.406C187.064 31.9106 185.582 37.2865 184.059 42.5337C183.771 43.5334 183.11 44.0976 182.076 44.2263C181.763 44.2649 181.461 44.2284 181.169 44.1169C179.8 43.5892 179.328 42.6238 179.753 41.2208L183.421 29.1411C183.512 28.8365 183.404 28.7293 183.1 28.8194ZM198.944 24.8936L199.137 24.6941C199.734 24.0592 200.291 24.0913 200.81 24.7907C201.716 26.0134 202.192 27.4422 202.239 29.0768C202.387 34.5021 200.251 41.3496 194.896 43.6342C190.996 45.2946 188.634 42.5273 188.3 38.904C187.922 34.8753 188.928 31.0719 191.318 27.4936C192.309 26.007 196.859 21.6694 198.339 24.7971C198.494 25.1275 198.695 25.1597 198.944 24.8936ZM193.482 39.1229C194.029 39.305 194.743 38.9135 195.465 38.0345C196.187 37.1554 196.859 35.8609 197.333 34.4357C197.568 33.73 197.747 33.0135 197.86 32.327C197.974 31.6405 198.019 30.9975 197.993 30.4347C197.967 29.872 197.871 29.4004 197.711 29.0471C197.55 28.6937 197.328 28.4654 197.057 28.3753C196.51 28.1932 195.796 28.5847 195.074 29.4637C194.352 30.3427 193.679 31.6372 193.205 33.0625C192.971 33.7682 192.792 34.4847 192.678 35.1712C192.565 35.8577 192.52 36.5007 192.546 37.0635C192.572 37.6262 192.667 38.0977 192.828 38.4511C192.989 38.8045 193.211 39.0328 193.482 39.1229ZM214.467 24.4174L213.682 25.0095C213.463 25.1768 213.321 25.1275 213.257 24.8615C212.716 22.7313 209.981 24.0184 208.868 24.8486C204.498 28.1179 202.008 35.2357 203.571 40.5387C205.354 46.5818 211.487 43.8981 213.971 40.262C216.245 36.9283 217.297 33.172 217.125 28.9932C217.061 27.4164 216.629 25.3055 215.162 24.3852C214.922 24.2351 214.69 24.2458 214.467 24.4174ZM210.369 38.0387C209.642 38.9171 208.925 39.3069 208.377 39.1224C207.828 38.9378 207.493 38.194 207.445 37.0546C207.397 35.9152 207.639 34.4736 208.12 33.0468C208.6 31.62 209.278 30.325 210.005 29.4466C210.733 28.5682 211.449 28.1784 211.998 28.3629C212.546 28.5475 212.881 29.2913 212.93 30.4307C212.978 31.5701 212.735 33.0117 212.255 34.4385C211.775 35.8653 211.096 37.1604 210.369 38.0387ZM225.71 28.7936C225.045 29.0854 224.339 29.2634 223.593 29.3278C222.443 29.4222 221.868 28.8923 221.868 27.7382V27.5644C221.868 26.6077 222.321 25.9727 223.226 25.6595C225.092 25.0159 226.976 24.3809 228.876 23.7545C230.543 23.2011 231.65 24.6941 231.238 26.2065C229.711 31.9042 228.22 37.3445 226.766 42.5273C226.367 43.9389 225.453 44.4795 224.024 44.1491C223.938 44.1276 223.855 44.0998 223.773 44.0654C222.482 43.5077 222.04 42.5552 222.447 41.208L226.09 29.1283C226.21 28.7379 226.083 28.6263 225.71 28.7936ZM235.177 39.9594C234.851 39.2301 234.302 38.9555 233.529 39.1357C233.476 39.147 233.422 39.1454 233.369 39.1309C233.317 39.1163 233.27 39.0894 233.231 39.0524C233.192 39.0155 233.163 38.9696 233.147 38.919C233.13 38.8684 233.127 38.8146 233.137 38.7624L233.182 38.4986C233.242 38.1639 233.441 37.9966 233.78 37.9966L235.235 37.9901C235.358 37.9894 235.48 37.9639 235.593 37.9153C235.706 37.8666 235.808 37.7958 235.893 37.707C235.978 37.6182 236.045 37.5132 236.089 37.3982C236.133 37.2833 236.153 37.1607 236.149 37.0377C236.14 36.8575 236.102 36.6773 236.033 36.4971C235.836 35.9865 235.464 35.7334 234.92 35.7377L231.908 35.7441C231.689 35.7441 231.502 35.8213 231.348 35.9758C230.829 36.4992 230.715 37.1213 231.007 37.8421C231.097 38.0652 231.11 38.2926 231.045 38.5243L229.906 42.7203C229.73 43.3682 229.934 43.8552 230.518 44.1812C230.633 44.2413 230.754 44.2713 230.878 44.2713C231.41 44.267 231.745 44.0096 231.882 43.4991L232.377 41.6778C232.463 41.3646 232.667 41.208 232.989 41.208H234.379C234.526 41.2073 234.671 41.1698 234.8 41.0987C234.929 41.0276 235.039 40.9253 235.118 40.8011C235.197 40.6769 235.244 40.5348 235.255 40.3878C235.265 40.2407 235.238 40.0935 235.177 39.9594ZM238.658 40.6159C238.315 41.5169 238.062 42.4072 237.899 43.2867C237.783 43.926 237.401 44.2542 236.754 44.2714C236.393 44.2799 236.106 44.0418 235.891 43.557C235.799 43.3445 235.784 43.106 235.846 42.8813L237.648 36.5615C237.721 36.3083 237.88 36.1367 238.124 36.0466C239.527 35.5124 240.486 36.2011 240.383 37.6298C240.327 38.3935 240.383 39.1143 240.551 39.7922C240.662 40.2512 240.819 40.2684 241.02 39.8436C241.578 38.6681 242.215 37.5633 242.932 36.5293C243.369 35.8986 243.953 35.7098 244.682 35.9629C244.939 36.0512 245.154 36.2301 245.288 36.4659C245.422 36.7017 245.465 36.9782 245.409 37.2436C244.907 39.6806 244.356 41.8537 243.756 43.7629C243.584 44.3078 243.239 44.4666 242.719 44.2392L242.52 44.1491C241.855 43.8616 241.66 43.3832 241.934 42.7139C242.162 42.169 242.286 41.6177 242.307 41.06C242.32 40.6653 242.245 40.6481 242.082 41.0085C241.752 41.7421 241.361 42.4157 240.911 43.0293C239.744 44.6082 239.079 44.4194 238.916 42.4629L238.755 40.6352C238.746 40.4851 238.714 40.4786 238.658 40.6159ZM220.252 42.554C219.857 43.6697 218.583 44.2366 217.407 43.8202C216.231 43.4037 215.598 42.1617 215.993 41.046C216.388 39.9303 217.662 39.3634 218.838 39.7799C220.014 40.1963 220.647 41.4384 220.252 42.554Z" fill="#1E1E1E"/>
</svg>
