<svg xmlns="http://www.w3.org/2000/svg" data-name="Layer 1" viewBox="0 0 365.38 60.46"><path d="M78.56 52.51A26.39 26.39 0 0 1 70 32.33a26.4 26.4 0 0 1 8.54-20.18A29.47 29.47 0 0 1 99.42 4.2a29.81 29.81 0 0 1 21 8A26.34 26.34 0 0 1 129 32.33a26.39 26.39 0 0 1-8.54 20.18 29.61 29.61 0 0 1-21 8 29.62 29.62 0 0 1-20.9-8Zm5.06-20.18A16.53 16.53 0 0 0 88.2 44.4a15.22 15.22 0 0 0 11.33 4.68 15.38 15.38 0 0 0 11.37-4.68 16.41 16.41 0 0 0 4.64-12.07 16.35 16.35 0 0 0-4.69-12 15.84 15.84 0 0 0-22.6 0 16.46 16.46 0 0 0-4.63 12Zm100.76 20.18a26.4 26.4 0 0 1-8.54-20.18 26.4 26.4 0 0 1 8.54-20.18 29.47 29.47 0 0 1 20.86-7.95 29.81 29.81 0 0 1 21 8 26.34 26.34 0 0 1 8.59 20.18 26.4 26.4 0 0 1-8.54 20.18 31.62 31.62 0 0 1-41.93 0Zm5.05-20.18A16.5 16.5 0 0 0 194 44.39a15.18 15.18 0 0 0 11.32 4.69 15.36 15.36 0 0 0 11.38-4.69 16.41 16.41 0 0 0 4.64-12.06 16.39 16.39 0 0 0-4.69-12 15.36 15.36 0 0 0-11.33-4.74 15.18 15.18 0 0 0-11.27 4.74 16.47 16.47 0 0 0-4.62 12Zm-175 27.43H0L9.19 0l24.23 34.72L57.73 0l9.19 59.76H52.45L49 30.74 33.42 54.48 17.89 30.74Zm121.93-1.46v-52h12v20.46h9.47V6.25h11.78V58.3h-11.8V35.8h-9.47v22.5Zm105 0v-52h12v18.04a38.92 38.92 0 0 1 6.78-9.62 27.83 27.83 0 0 1 8.47-6.1A17.09 17.09 0 0 1 277.44 7v7.88a13.24 13.24 0 0 0-4.52 1.84 18.53 18.53 0 0 0-3.47 2.9c-.63.7-1.23 1.42-1.79 2.15a23.8 23.8 0 0 0-1.58 2.37l11.15 34.16h-13.78l-7.88-20.92a17.16 17.16 0 0 0-1.21 2.15c-.39.81-.72 1.46-1 1.95V58.3Zm43.15 0V52c1.33 0 2.55-.77 3.68-2.31a10.55 10.55 0 0 0 1.9-5.69l3.26-37.75h32.18V58.3h-12.31V14.77h-7.67l-3.26 32.39c-.14 1.12-.28 2.33-.42 3.62a9.38 9.38 0 0 1-1.16 3.63 7.48 7.48 0 0 1-2.89 2.79 11.55 11.55 0 0 1-5.63 1.1Zm47.63 0V6.36h12v16.19h9.25a16.51 16.51 0 0 1 6.26 1.1 8.5 8.5 0 0 1 4.21 3.79 15.42 15.42 0 0 1 1.52 7.56v6.31a34.71 34.71 0 0 1-.89 8.62 11.9 11.9 0 0 1-2.58 5.07 9.09 9.09 0 0 1-4.26 2.53 22.18 22.18 0 0 1-6 .73Zm12-6.31h4.73a4.84 4.84 0 0 0 2.95-.73 3.65 3.65 0 0 0 1.26-2.21 16.19 16.19 0 0 0 .31-3.37v-8.83a23.06 23.06 0 0 0-.26-3.73 3.75 3.75 0 0 0-1.21-2.32 4.79 4.79 0 0 0-3.05-.78h-4.73Z" style="fill:#fff"/></svg>