<svg width="230" height="80" viewBox="0 0 230 80" fill="none" xmlns="http://www.w3.org/2000/svg">
<path fill-rule="evenodd" clip-rule="evenodd" d="M80.1807 59.9832C80.9905 59.9315 81.6514 59.2311 81.6514 58.4069C81.6514 58.4069 81.5901 57.9684 81.4447 57.6788C81.2837 57.3508 80.9665 57.0385 80.9665 57.0385L67.6366 40.8672C67.5729 40.8048 67.5164 40.7411 67.4648 40.6738L67.3939 40.6005L67.4023 40.5945C67.1896 40.2905 67.067 39.9193 67.067 39.5204C67.067 39.0999 67.204 38.7143 67.4407 38.4031L67.4347 38.3995L67.4479 38.3911C67.5104 38.307 67.5813 38.2265 67.6594 38.158C67.6678 38.152 67.6702 38.14 67.6798 38.1352L81.0266 21.9519C81.0266 21.9519 81.3378 21.6371 81.5036 21.308C81.649 21.0172 81.7127 20.5799 81.7127 20.5799C81.7127 19.7545 81.0482 19.0565 80.2348 19H2.93465C1.78717 19 0.857178 19.9323 0.857178 21.0785V57.9251C0.857178 59.0713 1.78717 60 2.93465 60L80.1807 59.9832Z" fill="#DA2B3E"/>
<path fill-rule="evenodd" clip-rule="evenodd" d="M23.7996 35.7228C23.7996 36.9838 22.9414 37.7999 21.6045 37.7999H19.4462V33.6445H21.6045C22.9414 33.6445 23.7996 34.4595 23.7996 35.7228ZM28.2038 30.0787C26.542 28.6955 24.2364 27.9336 21.7011 27.9336H13.6863C13.1048 27.9336 12.6287 28.3624 12.6287 28.8938L12.5894 49.4492C12.5894 49.7063 12.6998 49.9506 12.9004 50.1316C13.0947 50.3114 13.3664 50.4175 13.6495 50.4175H18.385C18.9728 50.4175 19.4463 49.9864 19.4463 49.4515V43.5107H21.8953C24.3075 43.5107 26.5407 42.7741 28.1708 41.4324C29.9 40.0193 30.8471 37.9987 30.8471 35.7498C30.8471 33.5125 29.9088 31.4953 28.2038 30.0787Z" fill="#FFFFFE"/>
<path fill-rule="evenodd" clip-rule="evenodd" d="M39.6813 28.9281V49.4628C39.6813 49.9935 39.2289 50.4214 38.6715 50.4214H34.1704C33.6119 50.4214 33.1607 49.9935 33.1607 49.4628V28.9281C33.1607 28.4076 33.601 27.9821 34.1511 27.973L36.4035 27.9375H36.436L38.6872 27.973C39.2385 27.9821 39.6813 28.4076 39.6813 28.9281Z" fill="#FFFFFE"/>
<path fill-rule="evenodd" clip-rule="evenodd" d="M54.8736 35.7189C54.8736 36.9799 54.0307 37.796 52.7241 37.796H50.6082V33.6406H52.7241C54.0307 33.6406 54.8736 34.4556 54.8736 35.7189ZM63.2176 48.8256L57.5586 42.4779C58.6115 41.9477 59.5153 41.2284 60.2066 40.357C61.2322 39.0706 61.7717 37.4765 61.7717 35.7498C61.7717 33.5125 60.8543 31.4965 59.1822 30.0787C57.5586 28.6955 55.2947 27.9336 52.812 27.9336H44.97C44.3968 27.9336 43.9319 28.3635 43.9319 28.8938L43.8921 49.4492C43.8921 49.7063 44.0003 49.9506 44.1967 50.1316C44.3906 50.3114 44.6554 50.4175 44.9302 50.4175H49.5698C50.1454 50.4175 50.6066 49.9864 50.6066 49.4515V43.6271L56.4272 50.0567C56.6299 50.2745 56.9171 50.399 57.2254 50.399H62.417C62.8173 50.399 63.1865 50.1846 63.3556 49.8469C63.5271 49.5092 63.4699 49.1115 63.2176 48.8256Z" fill="#FFFFFE"/>
<path fill-rule="evenodd" clip-rule="evenodd" d="M86.9309 45.6016C86.9309 46.5527 87.6051 47.1851 88.5064 47.1851H93.7817C94.7434 47.1851 95.2331 46.4489 95.2331 45.7298C95.2331 44.99 94.7647 44.2697 93.7817 44.2697H89.9979V41.0638H93.3548C94.3365 41.0638 94.8475 40.3252 94.8475 39.6097C94.8475 38.8724 94.3554 38.1533 93.3548 38.1533H89.9979V35.0731H93.5972C94.5612 35.0731 95.0521 34.3333 95.0521 33.6154C95.0521 32.8768 94.579 32.1602 93.5972 32.1602H88.5254C87.4407 32.1602 86.9309 32.9415 86.9309 33.9951V45.6016Z" fill="black"/>
<path fill-rule="evenodd" clip-rule="evenodd" d="M96.9315 44.7585C96.7647 44.9881 96.5838 45.3886 96.5838 45.8342C96.5838 46.7193 97.2355 47.3113 98.1368 47.3113C98.6892 47.3113 99.102 47.0562 99.4071 46.6118L102.76 41.8004L106.115 46.6118C106.421 47.0562 106.833 47.3113 107.384 47.3113C108.285 47.3113 108.937 46.7193 108.937 45.8342C108.937 45.3886 108.756 44.9881 108.593 44.7585L104.54 39.1439L107.856 34.501C108.058 34.2252 108.182 33.9065 108.182 33.5744C108.182 32.6429 107.508 32.0312 106.628 32.0312C106.115 32.0312 105.586 32.389 105.296 32.8138L102.76 36.5264L100.222 32.8138C99.9347 32.389 99.4071 32.0312 98.895 32.0312C98.0126 32.0312 97.3408 32.6429 97.3408 33.5744C97.3408 33.9065 97.4614 34.2252 97.6672 34.501L100.98 39.1439L96.9315 44.7585Z" fill="black"/>
<path fill-rule="evenodd" clip-rule="evenodd" d="M114.031 34.9407H116.12C117.404 34.9407 118.225 35.9101 118.225 37.1761C118.225 38.4422 117.404 39.4126 116.12 39.4126H114.031V34.9407ZM110.962 45.6649C110.962 46.7173 111.619 47.3095 112.498 47.3095C113.373 47.3095 114.031 46.7173 114.031 45.6649V42.1989H116.3C119.103 42.1989 121.415 40.281 121.415 37.1983C121.415 34.1829 119.185 32.1562 116.175 32.1562H112.558C111.535 32.1562 110.962 32.8118 110.962 33.8032V45.6649Z" fill="black"/>
<path fill-rule="evenodd" clip-rule="evenodd" d="M129.821 47.4351C134.016 47.4351 136.858 44.0388 136.858 39.6694C136.858 35.3866 133.934 31.9023 129.821 31.9023C125.649 31.9023 122.784 35.2792 122.784 39.6694C122.784 44.0388 125.668 47.4351 129.821 47.4351ZM129.822 44.5246C127.223 44.5246 125.979 42.2477 125.979 39.6705C125.979 37.1165 127.263 34.8164 129.822 34.8164C132.38 34.8164 133.668 37.1165 133.668 39.6705C133.668 42.2477 132.42 44.5246 129.822 44.5246Z" fill="black"/>
</svg>
