<svg width="229" height="80" viewBox="0 0 229 80" fill="none" xmlns="http://www.w3.org/2000/svg">
<path d="M76.2356 68.59V53.7692H78.8832V64.6113H78.965L85.936 53.7692H88.7909V68.59H86.1489V57.8132H86.0615L79.1124 68.59H76.2356ZM60.4324 68.59V53.7692H63.0744V64.6113H63.1345L70.1054 53.7692H72.9604V68.59H70.3128V57.8132H70.2691L63.3201 68.59H60.4324ZM58.5545 55.6361L56.5402 57.269C56.1638 56.757 55.646 56.3655 55.05 56.1423C54.4548 55.8807 53.8116 55.7454 53.1612 55.745C52.4667 55.7226 51.7755 55.849 51.1343 56.1157C50.493 56.3823 49.9165 56.783 49.4437 57.2907C48.485 58.3507 47.9745 59.7393 48.019 61.166C47.958 62.6093 48.4454 64.0223 49.3837 65.123C49.8506 65.6234 50.4209 66.0169 51.0552 66.2763C51.6894 66.5356 52.3726 66.6547 53.0575 66.6252C53.7544 66.6605 54.4492 66.5223 55.0791 66.2229C55.709 65.9236 56.2543 65.4726 56.6658 64.9107L58.7892 66.3966C58.1032 67.2507 57.2244 67.931 56.2245 68.3822C55.2246 68.8334 54.132 69.0426 53.0357 68.9928C51.9858 69.0326 50.9388 68.8602 49.9575 68.4861C48.9763 68.1119 48.0811 67.5437 47.3257 66.8157C46.5865 66.0714 46.0092 65.1831 45.6297 64.2064C45.2503 63.2296 45.0769 62.1854 45.1204 61.1388C45.0769 60.0967 45.2564 59.0574 45.647 58.0898C46.0376 57.1223 46.6304 56.2487 47.3858 55.5273C48.5779 54.499 50.0285 53.8138 51.5816 53.5453C53.1348 53.2768 54.732 53.4351 56.2018 54.0033C57.1266 54.3253 57.9381 54.9076 58.5381 55.6797L58.5545 55.6361ZM44.1814 55.6361L42.1671 57.269C41.7908 56.757 41.2729 56.3655 40.6769 56.1423C40.0817 55.8807 39.4385 55.7454 38.7881 55.745C38.0953 55.7198 37.4051 55.8428 36.7639 56.1057C36.1227 56.3685 35.5454 56.7652 35.0707 57.269C34.1162 58.3287 33.6096 59.7153 33.6568 61.1388C33.5959 62.5821 34.0832 63.9951 35.0215 65.0957C35.4885 65.5962 36.0587 65.9897 36.693 66.2491C37.3273 66.5084 38.0104 66.6275 38.6953 66.598C39.3922 66.6333 40.087 66.495 40.7169 66.1957C41.3469 65.8964 41.8922 65.4454 42.3036 64.8835L44.4271 66.3694C43.7419 67.2245 42.8633 67.9055 41.8632 68.3568C40.8631 68.8081 39.77 69.0167 38.6735 68.9656C37.6238 69.0041 36.5772 68.8312 35.5961 68.4571C34.615 68.083 33.7196 67.5155 32.9636 66.7885C32.2239 66.0492 31.6445 65.1662 31.2614 64.1943C30.8782 63.2224 30.6995 62.1824 30.7364 61.1388C30.6922 60.0962 30.8719 59.0561 31.2636 58.0883C31.6552 57.1206 32.2497 56.2474 33.0072 55.5273C34.5818 54.0852 36.6623 53.3188 38.799 53.3937C39.8438 53.4045 40.8771 53.6113 41.8451 54.0033C42.7631 54.3297 43.5681 54.9115 44.1651 55.6797L44.1814 55.6361ZM15.7956 61.1225C15.7417 62.5686 16.2524 63.9793 17.2203 65.0576C18.1969 66.0312 19.5213 66.578 20.9023 66.578C22.2833 66.578 23.6077 66.0312 24.5843 65.0576C25.5502 63.9842 26.0626 62.5801 26.0145 61.1388C26.0576 59.714 25.5471 58.3276 24.5897 57.269C24.1076 56.7795 23.5324 56.3908 22.8979 56.1254C22.2634 55.8601 21.5822 55.7234 20.8941 55.7234C20.206 55.7234 19.5249 55.8601 18.8903 56.1254C18.2558 56.3908 17.6807 56.7795 17.1985 57.269C16.2417 58.3302 15.7315 59.7179 15.7737 61.1442L15.7956 61.1225ZM12.9188 61.1225C12.8669 60.0834 13.0344 59.045 13.4105 58.0746C13.7867 57.1042 14.3631 56.2234 15.1023 55.4892C16.6588 54.0591 18.7189 53.3 20.8341 53.3773C22.9631 53.295 25.0387 54.0539 26.6095 55.4892C27.3618 56.2165 27.9508 57.0947 28.3376 58.0658C28.7243 59.0369 28.9 60.0787 28.8531 61.1225C28.8894 62.1742 28.7041 63.2219 28.3092 64.1978C27.9143 65.1738 27.3185 66.0563 26.5604 66.7885C25.7955 67.5157 24.8924 68.083 23.9043 68.4569C22.9162 68.8308 21.863 69.0038 20.8068 68.9656C19.7573 69.0022 18.7112 68.8284 17.7304 68.4544C16.7495 68.0805 15.854 67.5139 15.0968 66.7885C14.3629 66.047 13.7902 65.1626 13.4145 64.1906C13.0388 63.2185 12.8682 62.1796 12.9133 61.1388L12.9188 61.1225ZM3.44227 60.2135H5.27097C7.4545 60.2135 8.54626 59.4878 8.54626 58.0364C8.58251 57.7069 8.51731 57.3742 8.35935 57.0825C8.20139 56.7909 7.95814 56.5541 7.66194 56.4036C6.92843 56.0831 6.13113 55.9342 5.33102 55.9681H3.44227V60.2135ZM0.794738 68.59V53.7692H5.64217C9.39784 53.7692 11.2757 55.1971 11.2757 58.0527C11.2757 59.5876 10.7298 60.7088 9.6817 61.4055C8.42143 62.1518 6.97005 62.515 5.5057 62.4505H3.44227V68.5846L0.794738 68.59ZM106.696 40.8697V45.1805H109.065C111.276 45.1805 112.378 44.4402 112.384 42.9598C112.416 42.6424 112.361 42.3223 112.223 42.0344C112.085 41.7465 111.871 41.5017 111.603 41.3269C110.85 40.9524 110.009 40.787 109.169 40.848L106.696 40.8697ZM106.696 34.7574V38.6055H109.043C109.756 38.6479 110.464 38.4568 111.057 38.0612C111.285 37.8903 111.467 37.6666 111.588 37.4095C111.709 37.1524 111.764 36.8698 111.751 36.5862C111.773 36.3098 111.718 36.0326 111.593 35.785C111.468 35.5373 111.277 35.3287 111.041 35.182C110.349 34.8461 109.582 34.696 108.814 34.7466L106.696 34.7574ZM104.076 47.4011V32.5803H109.867C111.009 32.5439 112.134 32.8656 113.083 33.5002C113.528 33.8138 113.886 34.2362 114.121 34.727C114.356 35.2178 114.461 35.7605 114.426 36.3032C114.448 37.0479 114.202 37.7759 113.732 38.3552C113.239 38.9347 112.58 39.3505 111.844 39.5471V39.5907C112.724 39.6712 113.549 40.0563 114.174 40.6792C114.755 41.3421 115.049 42.2068 114.993 43.085C115.01 43.7916 114.845 44.4907 114.513 45.1151C114.219 45.6738 113.775 46.1395 113.23 46.4595C112.673 46.7815 112.072 47.02 111.445 47.1671C110.765 47.3237 110.069 47.4022 109.371 47.4011H104.076ZM88.4197 39.9445C88.3656 41.3916 88.8786 42.803 89.8499 43.8796C90.332 44.3603 90.9043 44.7417 91.5342 45.0018C92.1641 45.262 92.8392 45.3959 93.521 45.3959C94.2028 45.3959 94.8779 45.262 95.5078 45.0018C96.1377 44.7417 96.71 44.3603 97.1921 43.8796C98.16 42.8012 98.6707 41.3906 98.6168 39.9445C98.6622 38.5193 98.1514 37.1321 97.1921 36.0746C96.7178 35.5902 96.1524 35.2037 95.5282 34.9374C94.904 34.671 94.2333 34.53 93.5544 34.5224C92.8754 34.5148 92.2017 34.6408 91.5717 34.8932C90.9416 35.1455 90.3677 35.5192 89.8827 35.993L89.8008 36.0746C88.8404 37.1322 88.3262 38.5183 88.3651 39.9445H88.4197ZM85.5429 39.9445C85.4908 38.9062 85.6582 37.8685 86.0344 36.899C86.4106 35.9294 86.9871 35.0496 87.7265 34.3166C89.332 32.9538 91.3716 32.2055 93.48 32.2055C95.5885 32.2055 97.6281 32.9538 99.2337 34.3166C99.9858 35.0429 100.575 35.9201 100.962 36.8903C101.348 37.8605 101.524 38.9015 101.477 39.9445C101.508 40.9958 101.318 42.042 100.919 43.0158C100.521 43.9897 99.9223 44.8697 99.1627 45.5996C97.5842 47.0008 95.5444 47.7751 93.4309 47.7751C91.3175 47.7751 89.2776 47.0008 87.6992 45.5996C86.9667 44.856 86.3949 43.9704 86.0194 42.9977C85.6438 42.025 85.4723 40.9859 85.5156 39.9445H85.5429ZM70.7386 47.4011V32.5803H73.3861V38.5674H80.3352V32.5803H82.9773V47.4011H80.3352V40.8262H73.3315V47.4011H70.7386ZM55.0882 39.9445C55.0343 41.3906 55.545 42.8012 56.5129 43.8796C56.995 44.3603 57.5673 44.7417 58.1972 45.0018C58.8271 45.262 59.5022 45.3959 60.184 45.3959C60.8658 45.3959 61.5409 45.262 62.1708 45.0018C62.8006 44.7417 63.373 44.3603 63.855 43.8796C64.8264 42.803 65.3394 41.3916 65.2852 39.9445C65.3291 38.5185 64.8164 37.1312 63.855 36.0746C63.3902 35.5624 62.8184 35.158 62.1799 34.89C61.5414 34.622 60.8517 34.4969 60.1594 34.5234C59.4676 34.5006 58.779 34.6274 58.1411 34.8952C57.5031 35.1629 56.9309 35.5653 56.4638 36.0746C55.5078 37.1345 54.9959 38.5195 55.0336 39.9445H55.0882ZM52.2114 39.9445C52.1606 38.9058 52.3292 37.8682 52.7063 36.8987C53.0834 35.9292 53.6605 35.0495 54.4004 34.3166C56.0059 32.9538 58.0455 32.2055 60.1539 32.2055C62.2624 32.2055 64.302 32.9538 65.9076 34.3166C66.6597 35.0429 67.2487 35.9201 67.6354 36.8903C68.0222 37.8605 68.198 38.9015 68.1511 39.9445C68.1863 40.994 68.0009 42.0392 67.607 43.0131C67.2131 43.9869 66.6194 44.868 65.8639 45.5996C64.2854 47.0008 62.2456 47.7751 60.1321 47.7751C58.0186 47.7751 55.9788 47.0008 54.4004 45.5996C53.6554 44.8622 53.0716 43.9792 52.6855 43.0059C52.2993 42.0327 52.1194 40.9904 52.1568 39.9445H52.2114ZM37.1177 47.4011V32.5803H39.7598V43.4224H39.8253L46.758 32.5803H49.613V47.4011H46.9654V36.6407H46.9272L39.9618 47.4011H37.1177ZM26.4785 47.4011V32.5803H35.3436V34.8826H29.066V47.4011H26.4785ZM13.6612 47.4011V32.5803H23.4871V34.8826H16.2541V38.6491H23.0776V40.8697H16.2541V45.0553H23.831V47.4011H13.6612ZM3.44227 39.0464H5.27097C7.4545 39.0464 8.54626 38.3207 8.54626 36.8693C8.58251 36.5398 8.51731 36.2071 8.35935 35.9154C8.20139 35.6237 7.95814 35.3869 7.66194 35.2364C6.93048 34.9089 6.13194 34.7579 5.33102 34.7955H3.44227V39.0464ZM0.794738 47.4011V32.5803H5.64217C9.39784 32.5803 11.2757 34.01 11.2757 36.8693C11.2757 38.4041 10.7443 39.5199 9.6817 40.2166C8.42313 40.9675 6.97089 41.3328 5.5057 41.2671H3.44227V47.4011H0.794738ZM63.3037 26.2068V11.386H67.4415L71.3227 21.9178H71.3882L75.2094 11.386H79.3635V26.2068H76.7433V14.2979H76.6996L72.1852 26.2068H70.3401L65.8639 14.2979H65.8257V26.2068H63.3037ZM51.0759 26.419C50.4411 26.4288 49.8072 26.3648 49.1872 26.2285L49.5256 23.8827C49.9259 24.0113 50.3442 24.0756 50.7648 24.0732C51.2316 24.1 51.6925 23.959 52.064 23.6759C52.4825 23.3024 52.819 22.8465 53.052 22.3369L53.516 21.4552L47.8006 11.386H50.8685L55.0063 19.0059L58.9093 11.386H61.868L55.6941 22.8159C55.1929 23.8386 54.5272 24.7725 53.7235 25.5808C52.9795 26.1849 52.0331 26.4845 51.0759 26.419ZM39.4814 17.8575H41.3319C43.5155 17.8575 44.6072 17.1318 44.6072 15.6804C44.644 15.3514 44.5796 15.0192 44.4226 14.7276C44.2657 14.436 44.0236 14.1988 43.7284 14.0475C42.9969 13.72 42.1984 13.569 41.3974 13.6066H39.4814V17.8575ZM36.8393 26.2068V11.386H41.6868C45.4315 11.386 47.3039 12.8174 47.3039 15.6804C47.3039 17.2152 46.758 18.331 45.7099 19.0277C44.4494 19.7787 42.9954 20.144 41.5285 20.0782H39.4814V26.2068H36.8393ZM21.1834 18.7555C21.1342 20.1971 21.6468 21.6016 22.6136 22.6744C23.093 23.1566 23.663 23.5398 24.291 23.8021C24.919 24.0645 25.5927 24.2008 26.2736 24.2034C26.9545 24.2059 27.6292 24.0745 28.2591 23.8169C28.8891 23.5592 29.4619 23.1802 29.9448 22.7016L29.9776 22.6744C30.949 21.5977 31.4619 20.1864 31.4078 18.7392C31.4587 17.3122 30.945 15.9223 29.9776 14.8694C29.497 14.3781 28.9227 13.9877 28.2885 13.7211C27.6543 13.4546 26.973 13.3172 26.2847 13.3172C25.5964 13.3172 24.9151 13.4546 24.2809 13.7211C23.6467 13.9877 23.0724 14.3781 22.5918 14.8694C21.6378 15.9355 21.1333 17.3276 21.1834 18.7555ZM18.3066 18.7555C18.2619 17.7123 18.4391 16.6715 18.8268 15.7015C19.2144 14.7315 19.8036 13.8543 20.5557 13.1277C22.1104 11.6936 24.1708 10.9306 26.2874 11.005C28.4031 10.9365 30.4613 11.6987 32.0192 13.1277C32.7767 13.851 33.3707 14.7272 33.7614 15.6977C34.152 16.6683 34.3304 17.7108 34.2846 18.7555C34.3215 19.8033 34.1392 20.8473 33.7491 21.8209C33.3591 22.7946 32.7699 23.6766 32.0192 24.4106C31.2554 25.1378 30.3532 25.705 29.366 26.0789C28.3788 26.4528 27.3264 26.6259 26.2711 26.5878C25.2217 26.6232 24.1759 26.4488 23.1953 26.0749C22.2147 25.701 21.319 25.1351 20.5611 24.4106C19.8129 23.6752 19.2261 22.7928 18.838 21.8193C18.4499 20.8458 18.269 19.8025 18.3066 18.7555ZM9.63803 22.4621C12.342 22.1972 13.6921 20.9055 13.6885 18.5868C13.7265 17.5831 13.3655 16.6051 12.6841 15.8654C11.8587 15.092 10.7706 14.6584 9.63803 14.6517V22.4621ZM6.90862 22.4621V14.6517C5.78004 14.6548 4.69421 15.0825 3.86805 15.8491C3.18458 16.5879 2.8216 17.5661 2.85817 18.5705C2.85453 20.9 4.20468 22.1972 6.90862 22.4621ZM6.90862 26.5878V24.7862C5.10174 24.8248 3.34229 24.2078 1.95747 23.0499C1.31847 22.4949 0.81152 21.8049 0.473476 21.0301C0.135432 20.2552 -0.0252152 19.415 0.00321008 18.5705C0.00321008 16.6183 0.618237 15.1107 1.84829 14.0475C3.07835 12.9843 4.76512 12.4128 6.90862 12.333V11.005H9.63803V12.3276C11.767 12.4001 13.4465 12.9662 14.6765 14.0257C15.9066 15.0853 16.5289 16.5929 16.5434 18.5487C16.5706 19.3925 16.4099 20.2319 16.073 21.0064C15.736 21.7809 15.2311 22.4714 14.5946 23.0282C13.2108 24.1938 11.4493 24.8186 9.63803 24.7862V26.5878H6.90862Z" fill="#1C00FE"/>
</svg>
