<svg width="229" height="80" viewBox="0 0 229 80" fill="none" xmlns="http://www.w3.org/2000/svg">
<path fill-rule="evenodd" clip-rule="evenodd" d="M7.5664 10.0737H7.36043C6.22881 10.0737 5.22028 10.3199 4.33487 10.8124C3.45418 11.3001 2.76053 11.9866 2.2539 12.872C1.74727 13.7527 1.49396 14.7849 1.49396 15.9686C1.49396 17.1287 1.7449 18.1419 2.2468 19.0084C2.74869 19.8749 3.43998 20.5472 4.32066 21.0254C5.20608 21.4989 6.21934 21.7357 7.36043 21.7357H7.5664V23.5965H10.1019V21.7357H10.3008C11.4371 21.7357 12.4457 21.4966 13.3263 21.0183C14.207 20.5354 14.8983 19.8607 15.4002 18.9942C15.9021 18.1277 16.153 17.1168 16.153 15.9615C16.153 14.7778 15.9021 13.7456 15.4002 12.8649C14.8983 11.9795 14.207 11.293 13.3263 10.8053C12.4457 10.3176 11.4371 10.0737 10.3008 10.0737H10.1019V8.19873H7.5664V10.0737ZM7.5664 12.3038H7.36043C6.66915 12.3038 6.07019 12.4459 5.56356 12.73C5.06167 13.0093 4.67341 13.4213 4.39879 13.9658C4.12417 14.5103 3.98686 15.1779 3.98686 15.9686C3.98686 16.7262 4.12417 17.3678 4.39879 17.8933C4.67814 18.4189 5.07114 18.819 5.57776 19.0936C6.08439 19.3682 6.67862 19.5055 7.36043 19.5055H7.5664V12.3038ZM10.1019 19.5055H10.3079C10.9944 19.5055 11.5863 19.3682 12.0834 19.0936C12.5853 18.8143 12.9712 18.4118 13.2411 17.8862C13.5157 17.3559 13.653 16.7144 13.653 15.9615C13.653 15.1803 13.5157 14.5174 13.2411 13.9729C12.9712 13.4284 12.5853 13.0141 12.0834 12.73C11.5863 12.4459 10.9944 12.3038 10.3079 12.3038H10.1019V19.5055ZM77.5717 22.8507C78.1256 23.0969 78.7483 23.22 79.4396 23.22C80.0078 23.22 80.5025 23.1419 80.9239 22.9857C81.3501 22.8247 81.7028 22.614 81.9822 22.3536C82.2663 22.0884 82.4864 21.8043 82.6427 21.5013H82.7279V22.9999H85.1995V15.6987C85.1995 14.9743 85.0669 14.3706 84.8018 13.8877C84.5414 13.4047 84.1957 13.0235 83.7649 12.7442C83.334 12.4601 82.8581 12.2565 82.3373 12.1334C81.8165 12.0103 81.2933 11.9487 80.7677 11.9487C80.0054 11.9487 79.3094 12.0624 78.6796 12.2896C78.0499 12.5122 77.5172 12.8484 77.0816 13.2982C76.646 13.7432 76.3335 14.2972 76.1441 14.9601L78.5447 15.301C78.6725 14.9269 78.9187 14.6026 79.2833 14.328C79.6526 14.0534 80.1522 13.9161 80.7819 13.9161C81.3785 13.9161 81.8354 14.0628 82.1526 14.3564C82.4699 14.65 82.6285 15.0643 82.6285 15.5993V15.6419C82.6285 15.8881 82.5362 16.0704 82.3515 16.1888C82.1716 16.3024 81.8828 16.3877 81.485 16.4445C81.0873 16.4966 80.5688 16.5557 79.9296 16.622C79.3993 16.6788 78.8856 16.7712 78.3884 16.899C77.896 17.0221 77.4533 17.2044 77.0603 17.4459C76.6673 17.6874 76.3572 18.0093 76.1299 18.4118C75.9026 18.8143 75.789 19.3233 75.789 19.9388C75.789 20.6537 75.9476 21.2551 76.2649 21.7428C76.5868 22.2305 77.0224 22.5998 77.5717 22.8507ZM81.4495 21.0254C81.0707 21.229 80.6233 21.3308 80.1072 21.3308C79.5721 21.3308 79.1318 21.2101 78.7862 20.9686C78.4405 20.7271 78.2677 20.3697 78.2677 19.8962C78.2677 19.5647 78.3553 19.2948 78.5305 19.0865C78.7057 18.8734 78.9448 18.7077 79.2478 18.5894C79.5508 18.471 79.8941 18.3858 80.2776 18.3337C80.4481 18.31 80.6493 18.2816 80.8813 18.2484C81.1133 18.2153 81.3477 18.1774 81.5844 18.1348C81.8212 18.0922 82.0343 18.0425 82.2237 17.9857C82.4178 17.9288 82.5551 17.8673 82.6356 17.801V19.0865C82.6356 19.489 82.5314 19.8607 82.3231 20.2016C82.1195 20.5425 81.8283 20.8171 81.4495 21.0254ZM102.256 17.7513V20.8905H104.734C105.293 20.8905 105.752 20.7484 106.112 20.4644C106.472 20.1755 106.652 19.8062 106.652 19.3564C106.652 18.8829 106.472 18.497 106.112 18.1987C105.752 17.9004 105.293 17.7513 104.734 17.7513H102.256ZM104.734 15.6419H102.256V12.0908H99.7769V22.9999H104.734C105.662 22.9999 106.451 22.8436 107.099 22.5311C107.753 22.2139 108.25 21.7783 108.591 21.2243C108.936 20.6703 109.112 20.0358 109.116 19.3209C109.112 18.2224 108.728 17.3346 107.966 16.6575C107.204 15.9805 106.126 15.6419 104.734 15.6419ZM152.391 46.5098C153.172 46.9786 154.095 47.2129 155.16 47.2129C156.226 47.2129 157.149 46.9786 157.93 46.5098C158.712 46.0411 159.315 45.3853 159.741 44.5425C160.172 43.6997 160.388 42.7148 160.388 41.5879C160.388 40.461 160.172 39.4738 159.741 38.6263C159.315 37.7787 158.712 37.1206 157.93 36.6519C157.149 36.1831 156.226 35.9487 155.16 35.9487C154.095 35.9487 153.172 36.1831 152.391 36.6519C151.609 37.1206 151.003 37.7787 150.572 38.6263C150.146 39.4738 149.933 40.461 149.933 41.5879C149.933 42.7148 150.146 43.6997 150.572 44.5425C151.003 45.3853 151.609 46.0411 152.391 46.5098ZM156.624 44.6774C156.235 44.9947 155.752 45.1533 155.175 45.1533C154.583 45.1533 154.09 44.9947 153.697 44.6774C153.309 44.3555 153.018 43.9246 152.824 43.3848C152.634 42.845 152.54 42.2437 152.54 41.5808C152.54 40.9132 152.634 40.3095 152.824 39.7698C153.018 39.2252 153.309 38.792 153.697 38.47C154.09 38.1481 154.583 37.9871 155.175 37.9871C155.752 37.9871 156.235 38.1481 156.624 38.47C157.012 38.792 157.301 39.2252 157.49 39.7698C157.684 40.3095 157.781 40.9132 157.781 41.5808C157.781 42.2437 157.684 42.845 157.49 43.3848C157.301 43.9246 157.012 44.3555 156.624 44.6774ZM41.8011 71.2129C40.7357 71.2129 39.8124 70.9786 39.0312 70.5098C38.2499 70.0411 37.6439 69.3853 37.213 68.5425C36.7869 67.6997 36.5738 66.7148 36.5738 65.5879C36.5738 64.461 36.7869 63.4738 37.213 62.6263C37.6439 61.7787 38.2499 61.1206 39.0312 60.6519C39.8124 60.1831 40.7357 59.9487 41.8011 59.9487C42.8664 59.9487 43.7897 60.1831 44.5709 60.6519C45.3522 61.1206 45.9559 61.7787 46.382 62.6263C46.8129 63.4738 47.0283 64.461 47.0283 65.5879C47.0283 66.7148 46.8129 67.6997 46.382 68.5425C45.9559 69.3853 45.3522 70.0411 44.5709 70.5098C43.7897 70.9786 42.8664 71.2129 41.8011 71.2129ZM41.8153 69.1533C42.3929 69.1533 42.8759 68.9947 43.2641 68.6774C43.6524 68.3555 43.9412 67.9246 44.1306 67.3848C44.3247 66.845 44.4218 66.2437 44.4218 65.5808C44.4218 64.9132 44.3247 64.3095 44.1306 63.7698C43.9412 63.2252 43.6524 62.792 43.2641 62.47C42.8759 62.1481 42.3929 61.9871 41.8153 61.9871C41.2234 61.9871 40.731 62.1481 40.338 62.47C39.9497 62.792 39.6585 63.2252 39.4644 63.7698C39.275 64.3095 39.1803 64.9132 39.1803 65.5808C39.1803 66.2437 39.275 66.845 39.4644 67.3848C39.6585 67.9246 39.9497 68.3555 40.338 68.6774C40.731 68.9947 41.2234 69.1533 41.8153 69.1533ZM27.7439 66.5894H31.9697V70.9999H34.4413V60.0908H31.9697V64.48H27.7439V60.0908H25.2652V70.9999H27.7439V66.5894ZM19.9829 60.0908L15.615 67.5198V60.0908H13.1363V70.9999H15.7854L20.1391 63.5638V70.9999H22.6249V60.0908H19.9829ZM1.74957 70.9999V60.0908H4.3206V64.4942H5.2581L8.53935 60.0908H11.6359L7.59474 65.4459L11.6785 70.9999H8.56775L5.5777 66.8876H4.3206V70.9999H1.74957ZM148.79 36.0908V38.2001H144.088V46.9999H141.574V36.0908H148.79ZM131.394 46.5098C132.176 46.9786 133.099 47.2129 134.164 47.2129C135.23 47.2129 136.153 46.9786 136.934 46.5098C137.715 46.0411 138.319 45.3853 138.745 44.5425C139.176 43.6997 139.392 42.7148 139.392 41.5879C139.392 40.461 139.176 39.4738 138.745 38.6263C138.319 37.7787 137.715 37.1206 136.934 36.6519C136.153 36.1831 135.23 35.9487 134.164 35.9487C133.099 35.9487 132.176 36.1831 131.394 36.6519C130.613 37.1206 130.007 37.7787 129.576 38.6263C129.15 39.4738 128.937 40.461 128.937 41.5879C128.937 42.7148 129.15 43.6997 129.576 44.5425C130.007 45.3853 130.613 46.0411 131.394 46.5098ZM135.627 44.6774C135.239 44.9947 134.756 45.1533 134.179 45.1533C133.587 45.1533 133.094 44.9947 132.701 44.6774C132.313 44.3555 132.022 43.9246 131.828 43.3848C131.638 42.845 131.544 42.2437 131.544 41.5808C131.544 40.9132 131.638 40.3095 131.828 39.7698C132.022 39.2252 132.313 38.792 132.701 38.47C133.094 38.1481 133.587 37.9871 134.179 37.9871C134.756 37.9871 135.239 38.1481 135.627 38.47C136.016 38.792 136.304 39.2252 136.494 39.7698C136.688 40.3095 136.785 40.9132 136.785 41.5808C136.785 42.2437 136.688 42.845 136.494 43.3848C136.304 43.9246 136.016 44.3555 135.627 44.6774ZM118.468 46.9999V36.0908H121.039V40.4942H121.977L125.258 36.0908H128.355L124.313 41.4459L128.397 46.9999H125.287L122.296 42.8876H121.039V46.9999H118.468ZM108.878 46.4956C109.66 46.9738 110.595 47.2129 111.684 47.2129C112.598 47.2129 113.393 47.0472 114.07 46.7158C114.747 46.3796 115.282 45.9156 115.675 45.3237C116.068 44.7271 116.296 44.043 116.357 43.2712H113.9C113.824 43.6642 113.684 43.998 113.481 44.2726C113.277 44.5472 113.024 44.7579 112.721 44.9047C112.423 45.0467 112.084 45.1178 111.705 45.1178C111.17 45.1178 110.704 44.9757 110.306 44.6916C109.913 44.4028 109.608 43.9932 109.39 43.4629C109.172 42.9279 109.063 42.2887 109.063 41.5453C109.063 40.8114 109.172 40.1817 109.39 39.6561C109.612 39.1305 109.923 38.7281 110.32 38.4487C110.718 38.1646 111.18 38.0226 111.705 38.0226C112.325 38.0226 112.82 38.2001 113.19 38.5553C113.564 38.9056 113.8 39.3436 113.9 39.8692H116.357C116.3 39.0832 116.068 38.3966 115.661 37.8095C115.254 37.2177 114.707 36.7608 114.021 36.4388C113.339 36.1121 112.555 35.9487 111.67 35.9487C110.604 35.9487 109.681 36.1878 108.9 36.6661C108.123 37.1395 107.522 37.8024 107.096 38.6547C106.67 39.5022 106.457 40.48 106.457 41.5879C106.457 42.6912 106.665 43.6665 107.082 44.5141C107.503 45.3569 108.102 46.0174 108.878 46.4956ZM99.8994 47.2129C98.8057 47.2129 97.8611 46.9857 97.0656 46.5311C96.2749 46.0718 95.6665 45.4232 95.2403 44.5851C94.8142 43.7423 94.6011 42.7503 94.6011 41.6092C94.6011 40.4871 94.8142 39.5022 95.2403 38.6547C95.6712 37.8024 96.2725 37.1395 97.0443 36.6661C97.8161 36.1878 98.7228 35.9487 99.7645 35.9487C100.437 35.9487 101.071 36.0576 101.668 36.2754C102.269 36.4885 102.8 36.8199 103.259 37.2698C103.723 37.7196 104.087 38.2925 104.353 38.9885C104.618 39.6798 104.75 40.5037 104.75 41.4601V42.2484H97.1512C97.1588 42.8556 97.2747 43.3788 97.4989 43.818C97.7309 44.2679 98.0552 44.6135 98.4719 44.855C98.8885 45.0917 99.3762 45.2101 99.9349 45.2101C100.309 45.2101 100.648 45.158 100.951 45.0538C101.254 44.9449 101.516 44.7863 101.739 44.578C101.961 44.3697 102.13 44.1116 102.243 43.8038L104.644 44.0737C104.492 44.7082 104.203 45.2622 103.777 45.7357C103.356 46.2044 102.816 46.569 102.158 46.8294C101.5 47.0851 100.747 47.2129 99.8994 47.2129ZM102.286 40.5155H97.1561C97.1808 40.0881 97.2903 39.6927 97.4847 39.3294C97.7072 38.9175 98.0173 38.586 98.4151 38.3351C98.8128 38.0794 99.2744 37.9516 99.8 37.9516C100.292 37.9516 100.723 38.0628 101.093 38.2854C101.467 38.5079 101.758 38.8133 101.966 39.2016C102.175 39.5851 102.281 40.0231 102.286 40.5155ZM92.4829 46.9999V36.0908H90.0113V41.4181C89.9109 41.4432 89.8115 41.4666 89.713 41.4885C89.2016 41.6021 88.6619 41.659 88.0937 41.659C87.5871 41.659 87.1656 41.595 86.8295 41.4672C86.4933 41.3346 86.2423 41.1263 86.0766 40.8422C85.9109 40.5581 85.8281 40.1817 85.8281 39.7129V36.0766H83.3707V39.7129C83.3707 41.105 83.7921 42.1301 84.6349 42.7882C85.4824 43.4416 86.6353 43.7683 88.0937 43.7683C88.4819 43.7683 88.8702 43.7399 89.2585 43.6831C89.5187 43.6455 89.7697 43.5995 90.0113 43.5453V46.9999H92.4829ZM73.7205 43.5198L78.0883 36.0908H80.7304V46.9999H78.2446V39.5638L73.8909 46.9999H71.2418V36.0908H73.7205V43.5198ZM59.6491 36.0908V38.2001H63.1789V46.9999H65.6647V38.2001H69.1946V36.0908H59.6491ZM53.6565 47.2129C52.5675 47.2129 51.6324 46.9738 50.8511 46.4956C50.0746 46.0174 49.4757 45.3569 49.0543 44.5141C48.6376 43.6665 48.4293 42.6912 48.4293 41.5879C48.4293 40.48 48.6423 39.5022 49.0685 38.6547C49.4946 37.8024 50.0959 37.1395 50.8724 36.6661C51.6537 36.1878 52.577 35.9487 53.6423 35.9487C54.5277 35.9487 55.3114 36.1121 55.9932 36.4388C56.6797 36.7608 57.2266 37.2177 57.6338 37.8095C58.041 38.3966 58.273 39.0832 58.3298 39.8692H55.8724C55.773 39.3436 55.5363 38.9056 55.1622 38.5553C54.7929 38.2001 54.2981 38.0226 53.6778 38.0226C53.1523 38.0226 52.6906 38.1646 52.2929 38.4487C51.8952 38.7281 51.585 39.1305 51.3625 39.6561C51.1447 40.1817 51.0358 40.8114 51.0358 41.5453C51.0358 42.2887 51.1447 42.9279 51.3625 43.4629C51.5803 43.9932 51.8857 44.4028 52.2787 44.6916C52.6764 44.9757 53.1428 45.1178 53.6778 45.1178C54.0566 45.1178 54.3952 45.0467 54.6935 44.9047C54.9965 44.7579 55.2498 44.5472 55.4534 44.2726C55.657 43.998 55.7967 43.6642 55.8724 43.2712H58.3298C58.2683 44.043 58.041 44.7271 57.648 45.3237C57.255 45.9156 56.72 46.3796 56.0429 46.7158C55.3658 47.0472 54.5704 47.2129 53.6565 47.2129ZM43.6157 36.0908L39.2478 43.5198V36.0908H36.7691V46.9999H39.4183L43.7719 39.5638V46.9999H46.2577V36.0908H43.6157ZM24.2691 51.0908V36.0908H26.7975V37.8948H26.9467C27.0792 37.6296 27.2663 37.3479 27.5077 37.0496C27.7492 36.7466 28.0759 36.4885 28.4879 36.2754C28.8998 36.0576 29.4254 35.9487 30.0646 35.9487C30.9074 35.9487 31.6673 36.1642 32.3444 36.595C33.0262 37.0212 33.566 37.6533 33.9637 38.4913C34.3662 39.3247 34.5674 40.3474 34.5674 41.5595C34.5674 42.7574 34.3709 43.7754 33.9779 44.6135C33.5849 45.4516 33.0499 46.0908 32.3728 46.5311C31.6957 46.9715 30.9287 47.1916 30.0717 47.1916C29.4467 47.1916 28.9282 47.0875 28.5163 46.8791C28.1043 46.6708 27.7729 46.4198 27.5219 46.1263C27.2757 45.828 27.084 45.5463 26.9467 45.2811H26.8401V51.0908H24.2691ZM26.7904 41.5453C26.7904 42.2508 26.8898 42.8687 27.0887 43.399C27.2923 43.9293 27.5835 44.3436 27.9623 44.6419C28.3458 44.9355 28.8098 45.0823 29.3543 45.0823C29.9225 45.0823 30.3984 44.9307 30.7819 44.6277C31.1654 44.3199 31.4542 43.9009 31.6484 43.3706C31.8472 42.8356 31.9467 42.2271 31.9467 41.5453C31.9467 40.8682 31.8496 40.2669 31.6555 39.7413C31.4613 39.2158 31.1725 38.8038 30.789 38.5055C30.4055 38.2073 29.9272 38.0581 29.3543 38.0581C28.8051 38.0581 28.3387 38.2025 27.9552 38.4913C27.5717 38.7802 27.2805 39.185 27.0816 39.7058C26.8875 40.2267 26.7904 40.8398 26.7904 41.5453ZM13.3707 51.0055C13.669 51.0624 13.9933 51.0908 14.3437 51.0908C15.016 51.0908 15.5937 50.9795 16.0767 50.757C16.5643 50.5392 16.9763 50.2219 17.3125 49.8053C17.6486 49.3933 17.9185 48.8985 18.1221 48.3209L22.49 36.0908H19.7556L17.2343 44.3294H17.1207L14.6065 36.0908H11.8792L15.8352 47.2271L15.615 47.8166C15.4588 48.2286 15.267 48.5221 15.0397 48.6973C14.8172 48.8772 14.5591 48.9696 14.2656 48.9743C13.972 48.979 13.6382 48.9269 13.2642 48.818L12.6676 50.8209C12.8428 50.8919 13.0771 50.9535 13.3707 51.0055ZM1.15302 38.2001V36.0908H10.6985V38.2001H7.16864V46.9999H4.68284V38.2001H1.15302ZM87.032 22.9999L87.0178 20.8834H87.3942C87.6783 20.8834 87.9174 20.8195 88.1115 20.6916C88.3056 20.5638 88.4666 20.3507 88.5945 20.0524C88.7223 19.7494 88.8217 19.3422 88.8928 18.8308C88.9638 18.3195 89.0135 17.6826 89.0419 16.9203L89.2337 12.0908H97.1882V22.9999H94.7024V14.2001H91.5703L91.3999 17.7158C91.3573 18.6249 91.2555 19.4132 91.0945 20.0808C90.9382 20.7437 90.7157 21.2906 90.4268 21.7215C90.1428 22.1523 89.7853 22.4743 89.3544 22.6874C88.9235 22.8957 88.4145 22.9999 87.8274 22.9999H87.032ZM64.8746 22.9999V12.0908H69.4555C70.7481 12.0908 71.7685 12.3488 72.5166 12.8649C73.2695 13.381 73.6459 14.1007 73.6459 15.024C73.6459 15.6348 73.4328 16.1343 73.0067 16.5226C72.5853 16.9061 72.01 17.1642 71.2808 17.2967C71.8537 17.3441 72.3556 17.4885 72.7865 17.73C73.2221 17.9715 73.563 18.2887 73.8092 18.6817C74.0554 19.0747 74.1786 19.5269 74.1786 20.0382C74.1786 20.6395 74.0199 21.1627 73.7027 21.6078C73.3902 22.0482 72.9333 22.3914 72.332 22.6377C71.7354 22.8791 71.0109 22.9999 70.1587 22.9999H64.8746ZM67.2822 20.9757H70.1587C70.6321 20.9757 71.0038 20.8644 71.2737 20.6419C71.5436 20.4146 71.6786 20.1069 71.6786 19.7186C71.6786 19.2688 71.5436 18.9161 71.2737 18.6604C71.0038 18.4 70.6321 18.2698 70.1587 18.2698H67.2822V20.9757ZM67.2822 16.6078H69.5053C69.8556 16.6078 70.1563 16.5581 70.4072 16.4587C70.6582 16.3545 70.85 16.2101 70.9825 16.0254C71.1151 15.836 71.1814 15.6111 71.1814 15.3507C71.1814 14.9767 71.0275 14.6831 70.7197 14.47C70.4167 14.257 69.9953 14.1504 69.4555 14.1504H67.2822V16.6078ZM59.5923 12.0908L55.2244 19.5198V12.0908H52.7457V22.9999H55.3948L59.7485 15.5638V22.9999H62.2343V12.0908H59.5923ZM41.153 14.2001V12.0908H50.6985V14.2001H47.1686V22.9999H44.6828V14.2001H41.153ZM32.355 22.4956C33.1363 22.9738 34.0714 23.2129 35.1604 23.2129C36.0743 23.2129 36.8697 23.0472 37.5468 22.7158C38.2239 22.3796 38.7589 21.9156 39.1519 21.3237C39.5449 20.7271 39.7722 20.043 39.8337 19.2712H37.3764C37.3006 19.6642 37.1609 19.998 36.9573 20.2726C36.7537 20.5472 36.5004 20.7579 36.1974 20.9047C35.8991 21.0467 35.5605 21.1178 35.1817 21.1178C34.6467 21.1178 34.1803 20.9757 33.7826 20.6916C33.3896 20.4028 33.0842 19.9932 32.8664 19.4629C32.6486 18.9279 32.5397 18.2887 32.5397 17.5453C32.5397 16.8114 32.6486 16.1817 32.8664 15.6561C33.0889 15.1305 33.3991 14.7281 33.7968 14.4487C34.1945 14.1646 34.6562 14.0226 35.1817 14.0226C35.802 14.0226 36.2968 14.2001 36.6661 14.5553C37.0402 14.9056 37.2769 15.3436 37.3764 15.8692H39.8337C39.7769 15.0832 39.5449 14.3966 39.1377 13.8095C38.7305 13.2177 38.1836 12.7608 37.4971 12.4388C36.8153 12.1121 36.0317 11.9487 35.1462 11.9487C34.0809 11.9487 33.1576 12.1878 32.3763 12.6661C31.5998 13.1395 30.9985 13.8024 30.5724 14.6547C30.1462 15.5022 29.9332 16.48 29.9332 17.5879C29.9332 18.6912 30.1415 19.6665 30.5582 20.5141C30.9796 21.3569 31.5785 22.0174 32.355 22.4956ZM23.376 23.2129C22.2822 23.2129 21.3376 22.9857 20.5422 22.5311C19.7515 22.0718 19.143 21.4232 18.7169 20.5851C18.2908 19.7423 18.0777 18.7503 18.0777 17.6092C18.0777 16.4871 18.2908 15.5022 18.7169 14.6547C19.1478 13.8024 19.7491 13.1395 20.5209 12.6661C21.2927 12.1878 22.1994 11.9487 23.2411 11.9487C23.9134 11.9487 24.5479 12.0576 25.1445 12.2754C25.7458 12.4885 26.2761 12.8199 26.7354 13.2698C27.1994 13.7196 27.564 14.2925 27.8291 14.9885C28.0943 15.6798 28.2268 16.5037 28.2268 17.4601V18.2484H20.6278C20.6354 18.8556 20.7512 19.3788 20.9754 19.818C21.2074 20.2679 21.5318 20.6135 21.9484 20.855C22.3651 21.0917 22.8528 21.2101 23.4115 21.2101C23.7856 21.2101 24.1241 21.158 24.4271 21.0538C24.7302 20.9449 24.9929 20.7863 25.2155 20.578C25.438 20.3697 25.6061 20.1116 25.7197 19.8038L28.1203 20.0737C27.9688 20.7082 27.68 21.2622 27.2538 21.7357C26.8324 22.2044 26.2927 22.569 25.6345 22.8294C24.9764 23.0851 24.2235 23.2129 23.376 23.2129ZM25.7624 16.5155H20.6327C20.6574 16.0881 20.7669 15.6927 20.9612 15.3294C21.1838 14.9175 21.4939 14.586 21.8916 14.3351C22.2893 14.0794 22.751 13.9516 23.2766 13.9516C23.769 13.9516 24.1999 14.0628 24.5692 14.2854C24.9432 14.5079 25.2344 14.8133 25.4428 15.2016C25.6511 15.5851 25.7576 16.0231 25.7624 16.5155Z" fill="black"/>
</svg>
