<svg width="229" height="80" viewBox="0 0 229 80" fill="none" xmlns="http://www.w3.org/2000/svg">
<path fill-rule="evenodd" clip-rule="evenodd" d="M5.51625 8.45459H2.29182V23H4.82023V12.9858H4.95517L8.97506 22.9574H10.8643L14.8842 13.0071H15.0191V23H17.5475V8.45459H14.3231L10.0049 18.9944H9.83443L5.51625 8.45459ZM149.712 23.2202C149.021 23.2202 148.398 23.0971 147.844 22.8509C147.295 22.5999 146.859 22.2306 146.537 21.7429C146.22 21.2552 146.061 20.6539 146.061 19.939C146.061 19.3234 146.175 18.8144 146.402 18.412C146.63 18.0095 146.94 17.6875 147.333 17.4461C147.726 17.2046 148.168 17.0223 148.661 16.8992C149.158 16.7713 149.672 16.679 150.202 16.6222C150.841 16.5559 151.36 16.4967 151.757 16.4446C152.155 16.3878 152.444 16.3026 152.624 16.189C152.809 16.0706 152.901 15.8883 152.901 15.6421V15.5995C152.901 15.0644 152.742 14.6501 152.425 14.3566C152.108 14.063 151.651 13.9162 151.054 13.9162C150.425 13.9162 149.925 14.0535 149.556 14.3282C149.191 14.6028 148.945 14.9271 148.817 15.3012L146.416 14.9603C146.606 14.2974 146.918 13.7434 147.354 13.2983C147.79 12.8485 148.322 12.5124 148.952 12.2898C149.582 12.0625 150.278 11.9489 151.04 11.9489C151.566 11.9489 152.089 12.0105 152.61 12.1336C153.13 12.2567 153.606 12.4603 154.037 12.7444C154.468 13.0237 154.814 13.4049 155.074 13.8878C155.339 14.3708 155.472 14.9745 155.472 15.6989V23H153V21.5015H152.915C152.759 21.8045 152.539 22.0886 152.255 22.3537C151.975 22.6142 151.622 22.8249 151.196 22.9858C150.775 23.1421 150.28 23.2202 149.712 23.2202ZM150.38 21.331C150.896 21.331 151.343 21.2292 151.722 21.0256C152.101 20.8173 152.392 20.5427 152.595 20.2017C152.804 19.8608 152.908 19.4892 152.908 19.0867V17.8012C152.827 17.8675 152.69 17.929 152.496 17.9858C152.307 18.0427 152.094 18.0924 151.857 18.135C151.62 18.1776 151.386 18.2155 151.154 18.2486C150.922 18.2818 150.72 18.3102 150.55 18.3338C150.166 18.3859 149.823 18.4712 149.52 18.5895C149.217 18.7079 148.978 18.8736 148.803 19.0867C148.628 19.295 148.54 19.5649 148.54 19.8963C148.54 20.3698 148.713 20.7273 149.059 20.9688C149.404 21.2103 149.844 21.331 150.38 21.331ZM164.506 18.8949V23H166.914V12.091H162.176C161.286 12.091 160.517 12.2354 159.868 12.5242C159.224 12.8083 158.727 13.2107 158.377 13.7316C158.031 14.2477 157.858 14.8561 157.858 15.5569C157.858 16.2292 158.029 16.8163 158.37 17.3182C158.711 17.8201 159.198 18.2084 159.833 18.483C159.856 18.4931 159.88 18.5031 159.903 18.5129L157.461 23H159.989L162.229 18.8949H164.506ZM164.506 17.0199V14.179H162.176C161.585 14.179 161.13 14.3163 160.813 14.591C160.496 14.8656 160.339 15.2065 160.344 15.6137C160.339 16.0209 160.488 16.3571 160.792 16.6222C161.095 16.8874 161.528 17.0199 162.091 17.0199H164.506ZM52.0787 43.5199L56.4466 36.091H59.0887V47H56.6029V39.564L52.2492 47H49.6V36.091H52.0787V43.5199ZM55.7435 32.341H57.6682C57.6682 33.1696 57.3676 33.8419 56.7662 34.358C56.1697 34.8694 55.36 35.125 54.3373 35.125C53.324 35.125 52.5167 34.8694 51.9154 34.358C51.3188 33.8419 51.0229 33.1696 51.0276 32.341H52.9381C52.9381 32.6819 53.0423 32.9873 53.2506 33.2572C53.4637 33.5223 53.8259 33.6549 54.3373 33.6549C54.8392 33.6549 55.1966 33.5223 55.4097 33.2572C55.6275 32.992 55.7388 32.6866 55.7435 32.341ZM122.656 50.7074V47.2131C121.856 47.2131 121.124 47.0782 120.461 46.8083C119.798 46.5384 119.225 46.1549 118.743 45.6577C118.264 45.1606 117.893 44.5687 117.627 43.8821C117.367 43.1909 117.237 42.4262 117.237 41.5881C117.237 40.75 117.367 39.9854 117.627 39.2941C117.893 38.6028 118.264 38.0086 118.743 37.5114C119.225 37.0095 119.798 36.6236 120.461 36.3537C121.124 36.0839 121.856 35.9489 122.656 35.9489V32.4546H125.234V35.9489C126.034 35.9489 126.766 36.0839 127.429 36.3537C128.091 36.6236 128.662 37.0095 129.14 37.5114C129.623 38.0086 129.995 38.6028 130.255 39.2941C130.52 39.9854 130.653 40.75 130.653 41.5881C130.653 42.4262 130.52 43.1909 130.255 43.8821C129.995 44.5687 129.623 45.1606 129.14 45.6577C128.662 46.1549 128.091 46.5384 127.429 46.8083C126.766 47.0782 126.034 47.2131 125.234 47.2131V50.7074H122.656ZM121.448 38.3069C121.799 38.1175 122.201 38.0228 122.656 38.0228V45.1393C122.05 45.1393 121.538 44.9783 121.122 44.6563C120.71 44.3343 120.397 43.9058 120.184 43.3708C119.971 42.831 119.865 42.2368 119.865 41.5881C119.865 41.1004 119.924 40.6435 120.042 40.2174C120.165 39.7865 120.343 39.4077 120.575 39.081C120.812 38.7496 121.103 38.4915 121.448 38.3069ZM125.234 38.0228V45.1393C125.693 45.1393 126.096 45.0469 126.441 44.8623C126.787 44.6776 127.076 44.4219 127.308 44.0952C127.545 43.7685 127.722 43.3921 127.841 42.966C127.959 42.5351 128.018 42.0758 128.018 41.5881C128.018 40.9394 127.914 40.3452 127.706 39.8054C127.497 39.2657 127.185 38.8348 126.768 38.5128C126.356 38.1861 125.845 38.0228 125.234 38.0228ZM159.174 46.5313C159.969 46.9858 160.914 47.2131 162.008 47.2131C162.855 47.2131 163.608 47.0853 164.266 46.8296C164.924 46.5692 165.464 46.2046 165.886 45.7358C166.312 45.2624 166.601 44.7084 166.752 44.0739L164.352 43.804C164.238 44.1118 164.07 44.3698 163.847 44.5782C163.625 44.7865 163.362 44.9451 163.059 45.054C162.756 45.1582 162.417 45.2103 162.043 45.2103C161.485 45.2103 160.997 45.0919 160.58 44.8552C160.164 44.6137 159.839 44.268 159.607 43.8182C159.383 43.379 159.267 42.8558 159.26 42.2486H166.859V41.4603C166.859 40.5038 166.726 39.68 166.461 38.9887C166.196 38.2927 165.831 37.7197 165.367 37.2699C164.908 36.8201 164.378 36.4887 163.776 36.2756C163.18 36.0578 162.545 35.9489 161.873 35.9489C160.831 35.9489 159.924 36.188 159.153 36.6662C158.381 37.1397 157.78 37.8026 157.349 38.6549C156.923 39.5024 156.709 40.4873 156.709 41.6094C156.709 42.7505 156.923 43.7425 157.349 44.5853C157.775 45.4233 158.383 46.072 159.174 46.5313ZM159.264 40.5157C159.289 40.0883 159.399 39.6929 159.593 39.3296C159.816 38.9177 160.126 38.5862 160.523 38.3353C160.921 38.0796 161.383 37.9518 161.908 37.9518C162.401 37.9518 162.832 38.063 163.201 38.2856C163.575 38.5081 163.866 38.8135 164.075 39.2018C164.283 39.5853 164.389 40.0233 164.394 40.5157H159.264ZM212.377 42.8949V47H214.785V36.091H210.048C209.157 36.091 208.388 36.2354 207.739 36.5242C207.095 36.8083 206.598 37.2107 206.248 37.7316C205.902 38.2477 205.729 38.8561 205.729 39.5569C205.729 40.2292 205.9 40.8163 206.241 41.3182C206.582 41.8201 207.069 42.2084 207.704 42.483L207.741 42.4987L207.775 42.5129L205.332 47H207.86L210.1 42.8949H212.377ZM212.377 41.0199V38.179H210.048C209.456 38.179 209.001 38.3163 208.684 38.591C208.367 38.8656 208.21 39.2065 208.215 39.6137C208.21 40.0209 208.36 40.3571 208.663 40.6222C208.966 40.8874 209.399 41.0199 209.962 41.0199H212.377ZM97.56 60.091L93.1921 67.5199V60.091H90.7134V71H93.3625L97.7162 63.564V71H100.202V60.091H97.56ZM98.7816 56.341H96.8569C96.8521 56.6866 96.7409 56.992 96.5231 57.2572C96.31 57.5223 95.9525 57.6549 95.4506 57.6549C94.9392 57.6549 94.577 57.5223 94.364 57.2572C94.1556 56.9873 94.0515 56.6819 94.0515 56.341H92.1409C92.1362 57.1696 92.4321 57.8419 93.0287 58.358C93.6301 58.8694 94.4373 59.125 95.4506 59.125C96.4733 59.125 97.283 58.8694 97.8796 58.358C98.4809 57.8419 98.7816 57.1696 98.7816 56.341ZM116.615 70.5313C117.411 70.9858 118.355 71.2131 119.449 71.2131C120.297 71.2131 121.05 71.0853 121.708 70.8296C122.366 70.5692 122.906 70.2046 123.327 69.7358C123.753 69.2624 124.042 68.7084 124.194 68.0739L121.793 67.804C121.679 68.1118 121.511 68.3698 121.289 68.5782C121.066 68.7865 120.803 68.9451 120.5 69.054C120.197 69.1582 119.859 69.2103 119.485 69.2103C118.926 69.2103 118.438 69.0919 118.022 68.8552C117.605 68.6137 117.281 68.268 117.049 67.8182C116.824 67.379 116.709 66.8558 116.701 66.2486H124.3V65.4603C124.3 64.5038 124.167 63.68 123.902 62.9887C123.637 62.2927 123.273 61.7197 122.809 61.2699C122.349 60.8201 121.819 60.4887 121.218 60.2756C120.621 60.0578 119.987 59.9489 119.314 59.9489C118.273 59.9489 117.366 60.188 116.594 60.6662C115.822 61.1397 115.221 61.8026 114.79 62.6549C114.364 63.5024 114.151 64.4873 114.151 65.6094C114.151 66.7505 114.364 67.7425 114.79 68.5853C115.216 69.4233 115.825 70.072 116.615 70.5313ZM116.706 64.5157C116.731 64.0883 116.84 63.6929 117.034 63.3296C117.257 62.9177 117.567 62.5862 117.965 62.3353C118.363 62.0796 118.824 61.9518 119.35 61.9518C119.842 61.9518 120.273 62.063 120.642 62.2856C121.016 62.5081 121.308 62.8135 121.516 63.2018C121.724 63.5853 121.831 64.0232 121.836 64.5157H116.706ZM126.475 75.091V60.091H129.004V61.8949H129.153C129.285 61.6298 129.472 61.3481 129.714 61.0498C129.955 60.7467 130.282 60.4887 130.694 60.2756C131.106 60.0578 131.631 59.9489 132.271 59.9489C133.113 59.9489 133.873 60.1643 134.55 60.5952C135.232 61.0214 135.772 61.6535 136.17 62.4915C136.572 63.3249 136.773 64.3476 136.773 65.5597C136.773 66.7576 136.577 67.7756 136.184 68.6137C135.791 69.4518 135.256 70.091 134.579 70.5313C133.902 70.9716 133.135 71.1918 132.278 71.1918C131.653 71.1918 131.134 71.0876 130.722 70.8793C130.31 70.671 129.979 70.42 129.728 70.1265C129.482 69.8282 129.29 69.5464 129.153 69.2813H129.046V75.091H126.475ZM128.996 65.5455C128.996 66.251 129.096 66.8689 129.295 67.3992C129.498 67.9295 129.79 68.3438 130.168 68.6421C130.552 68.9356 131.016 69.0824 131.56 69.0824C132.129 69.0824 132.604 68.9309 132.988 68.6279C133.371 68.3201 133.66 67.9011 133.854 67.3708C134.053 66.8357 134.153 66.2273 134.153 65.5455C134.153 64.8684 134.056 64.2671 133.861 63.7415C133.667 63.216 133.379 62.804 132.995 62.5057C132.611 62.2074 132.133 62.0583 131.56 62.0583C131.011 62.0583 130.545 62.2027 130.161 62.4915C129.778 62.7803 129.486 63.1852 129.288 63.706C129.093 64.2268 128.996 64.84 128.996 65.5455ZM140.964 70.51C141.745 70.9787 142.668 71.2131 143.734 71.2131C144.799 71.2131 145.722 70.9787 146.504 70.51C147.285 70.0412 147.888 69.3855 148.315 68.5427C148.745 67.6999 148.961 66.715 148.961 65.5881C148.961 64.4612 148.745 63.474 148.315 62.6265C147.888 61.7789 147.285 61.1208 146.504 60.652C145.722 60.1833 144.799 59.9489 143.734 59.9489C142.668 59.9489 141.745 60.1833 140.964 60.652C140.182 61.1208 139.576 61.7789 139.146 62.6265C138.719 63.474 138.506 64.4612 138.506 65.5881C138.506 66.715 138.719 67.6999 139.146 68.5427C139.576 69.3855 140.182 70.0412 140.964 70.51ZM145.197 68.6776C144.808 68.9948 144.325 69.1535 143.748 69.1535C143.156 69.1535 142.664 68.9948 142.271 68.6776C141.882 68.3556 141.591 67.9248 141.397 67.385C141.208 66.8452 141.113 66.2439 141.113 65.581C141.113 64.9134 141.208 64.3097 141.397 63.7699C141.591 63.2254 141.882 62.7922 142.271 62.4702C142.664 62.1482 143.156 61.9873 143.748 61.9873C144.325 61.9873 144.808 62.1482 145.197 62.4702C145.585 62.7922 145.874 63.2254 146.063 63.7699C146.257 64.3097 146.354 64.9134 146.354 65.581C146.354 66.2439 146.257 66.8452 146.063 67.385C145.874 67.9248 145.585 68.3556 145.197 68.6776ZM151.143 71H156.427C157.279 71 158.004 70.8793 158.6 70.6378C159.202 70.3916 159.659 70.0483 159.971 69.608C160.288 69.1629 160.447 68.6397 160.447 68.0384C160.447 67.527 160.324 67.0749 160.078 66.6819C159.832 66.2889 159.491 65.9716 159.055 65.7302C158.624 65.4887 158.122 65.3443 157.549 65.2969C158.278 65.1643 158.854 64.9063 159.275 64.5228C159.701 64.1345 159.914 63.635 159.914 63.0242C159.914 62.1009 159.538 61.3812 158.785 60.8651C158.037 60.349 157.017 60.091 155.724 60.091H151.143V71ZM156.427 68.9759H153.551V66.2699H156.427C156.901 66.2699 157.272 66.4001 157.542 66.6606C157.812 66.9162 157.947 67.269 157.947 67.7188C157.947 68.1071 157.812 68.4148 157.542 68.6421C157.272 68.8646 156.901 68.9759 156.427 68.9759ZM155.774 64.608H153.551V62.1506H155.724C156.264 62.1506 156.685 62.2571 156.988 62.4702C157.296 62.6833 157.45 62.9768 157.45 63.3509C157.45 63.6113 157.384 63.8362 157.251 64.0256C157.118 64.2103 156.927 64.3547 156.676 64.4589C156.425 64.5583 156.124 64.608 155.774 64.608ZM109.547 60.091V64.4802H105.321V60.091H102.842V71H105.321V66.5895H109.547V71H112.018V60.091H109.547ZM82.3682 71.2202C81.6769 71.2202 81.0542 71.0971 80.5003 70.8509C79.951 70.6 79.5154 70.2306 79.1935 69.7429C78.8762 69.2553 78.7176 68.6539 78.7176 67.939C78.7176 67.3234 78.8312 66.8144 79.0585 66.412C79.2858 66.0095 79.5959 65.6875 79.9889 65.4461C80.3819 65.2046 80.8246 65.0223 81.317 64.8992C81.8142 64.7714 82.3279 64.679 82.8582 64.6222C83.4974 64.5559 84.0159 64.4967 84.4136 64.4446C84.8114 64.3878 85.1002 64.3026 85.2801 64.189C85.4648 64.0706 85.5571 63.8883 85.5571 63.6421V63.5995C85.5571 63.0644 85.3985 62.6501 85.0812 62.3566C84.764 62.063 84.3071 61.9162 83.7105 61.9162C83.0808 61.9162 82.5812 62.0536 82.2119 62.3282C81.8473 62.6028 81.6011 62.9271 81.4733 63.3012L79.0727 62.9603C79.2621 62.2974 79.5746 61.7434 80.0102 61.2983C80.4458 60.8485 80.9785 60.5124 81.6082 60.2898C82.238 60.0625 82.934 59.9489 83.6963 59.9489C84.2219 59.9489 84.7451 60.0105 85.2659 60.1336C85.7867 60.2567 86.2626 60.4603 86.6935 60.7444C87.1243 61.0237 87.47 61.4049 87.7304 61.8878C87.9955 62.3708 88.1281 62.9745 88.1281 63.6989V71H85.6565V69.5015H85.5713C85.415 69.8045 85.1949 70.0886 84.9108 70.3537C84.6314 70.6142 84.2787 70.8249 83.8525 70.9858C83.4311 71.1421 82.9364 71.2202 82.3682 71.2202ZM83.0358 69.331C83.5519 69.331 83.9993 69.2292 84.3781 69.0256C84.7569 68.8173 85.0481 68.5427 85.2517 68.2018C85.46 67.8608 85.5642 67.4892 85.5642 67.0867V65.8012C85.4837 65.8675 85.3464 65.929 85.1523 65.9858C84.9629 66.0427 84.7498 66.0924 84.5131 66.135C84.2763 66.1776 84.0419 66.2155 83.8099 66.2486C83.5779 66.2818 83.3767 66.3102 83.2062 66.3339C82.8227 66.3859 82.4794 66.4712 82.1764 66.5895C81.8734 66.7079 81.6343 66.8736 81.4591 67.0867C81.2839 67.295 81.1963 67.5649 81.1963 67.8964C81.1963 68.3698 81.3691 68.7273 81.7148 68.9688C82.0604 69.2103 82.5007 69.331 83.0358 69.331ZM70.8625 68.01H68.3128C68.3365 68.6823 68.5425 69.2576 68.9307 69.7358C69.319 70.2141 69.8422 70.581 70.5003 70.8367C71.1632 71.0876 71.9137 71.2131 72.7517 71.2131C73.6135 71.2131 74.3782 71.0829 75.0458 70.8225C75.7181 70.5621 76.2461 70.1904 76.6296 69.7074C77.0131 69.2197 77.2049 68.6421 77.2049 67.9745C77.2049 67.4821 77.1031 67.0488 76.8995 66.6748C76.6959 66.3007 76.4212 66.0048 76.0756 65.787C75.73 65.5644 75.3417 65.4413 74.9108 65.4177V65.304C75.5358 65.1383 76.033 64.8637 76.4023 64.4802C76.7716 64.0919 76.9563 63.6018 76.9563 63.01C76.9563 62.3945 76.7882 61.8594 76.452 61.4049C76.1158 60.9456 75.6376 60.5881 75.0174 60.3324C74.3971 60.0768 73.6608 59.9489 72.8086 59.9489C72.0131 59.9489 71.2981 60.0791 70.6637 60.3395C70.0339 60.6 69.532 60.9645 69.158 61.4333C68.7887 61.902 68.5993 62.4536 68.5898 63.0881H71.1253C71.1395 62.7235 71.3147 62.4252 71.6509 62.1932C71.9918 61.9612 72.4179 61.8452 72.9293 61.8452C73.4407 61.8452 73.8407 61.9707 74.1296 62.2216C74.4231 62.4726 74.5699 62.7993 74.5699 63.2018C74.5699 63.5758 74.4302 63.8859 74.1509 64.1321C73.8763 64.3784 73.4714 64.5015 72.9364 64.5015H71.2674V66.3268H72.9364C73.2962 66.3268 73.6087 66.3883 73.8739 66.5114C74.139 66.6345 74.345 66.8097 74.4918 67.037C74.6386 67.2595 74.712 67.5176 74.712 67.8111C74.712 68.3083 74.5202 68.68 74.1367 68.9262C73.7579 69.1677 73.2915 69.2884 72.7375 69.2884C72.193 69.2884 71.7503 69.1771 71.4094 68.9546C71.0685 68.7321 70.8862 68.4172 70.8625 68.01ZM59.2662 67.5199L63.6341 60.091H66.2762V71H63.7904V63.564L59.4367 71H56.7875V60.091H59.2662V67.5199ZM42.7162 68.8836V74.1677H45.2446V71H52.3824V74.1677H54.8682V68.8836H53.1778V60.091H45.2943L44.9818 63.912C44.9297 64.5228 44.8706 65.0933 44.8043 65.6236C44.738 66.1492 44.6528 66.625 44.5486 67.0512C44.4492 67.4726 44.3213 67.8395 44.1651 68.152C44.0088 68.4598 43.8147 68.7036 43.5827 68.8836H42.7162ZM50.7205 68.8836H46.2247C46.5704 68.3722 46.8213 67.7046 46.9776 66.8807C47.1338 66.0569 47.2593 65.0673 47.354 63.912L47.5244 62.1648H50.7205V68.8836ZM33.7247 71V66.8949H31.4478L29.2077 71H26.6793L29.1222 66.5129C29.0984 66.5031 29.0749 66.4931 29.0514 66.483C28.417 66.2084 27.9293 65.8201 27.5884 65.3182C27.2475 64.8163 27.077 64.2292 27.077 63.5569C27.077 62.8561 27.2498 62.2477 27.5955 61.7316C27.9458 61.2107 28.443 60.8083 29.0869 60.5242C29.7356 60.2354 30.505 60.091 31.3952 60.091H36.1324V71H33.7247ZM33.7247 65.0199V62.179H31.3952C30.8033 62.179 30.3488 62.3163 30.0315 62.591C29.7143 62.8656 29.5581 63.2065 29.5628 63.6137C29.5581 64.0209 29.7072 64.3571 30.0102 64.6222C30.3133 64.8874 30.7465 65.0199 31.31 65.0199H33.7247ZM14.5166 68.8836L14.5308 71H15.3263C15.9134 71 16.4224 70.8959 16.8533 70.6875C17.2841 70.4745 17.6416 70.1525 17.9257 69.7216C18.2145 69.2908 18.4371 68.7439 18.5933 68.081C18.7543 67.4134 18.8561 66.625 18.8987 65.716L19.0692 62.2003H22.2013V71H24.6871V60.091H16.7325L16.5408 64.9205C16.5124 65.6828 16.4626 66.3196 16.3916 66.831C16.3206 67.3424 16.2212 67.7496 16.0933 68.0526C15.9655 68.3509 15.8045 68.564 15.6104 68.6918C15.4162 68.8197 15.1771 68.8836 14.893 68.8836H14.5166ZM1.21229 74.1677V68.8836H2.07877C2.31078 68.7036 2.50491 68.4598 2.66116 68.152C2.81741 67.8395 2.94525 67.4726 3.04468 67.0512C3.14884 66.625 3.23407 66.1492 3.30036 65.6236C3.36665 65.0933 3.42583 64.5228 3.47792 63.912L3.79042 60.091H11.6739V68.8836H13.3643V74.1677H10.8785V71H3.7407V74.1677H1.21229ZM4.72081 68.8836H9.21655V62.1648H6.02053L5.85008 63.912C5.75538 65.0673 5.62991 66.0569 5.47366 66.8807C5.31741 67.7046 5.06646 68.3722 4.72081 68.8836ZM196.278 43.5199L200.646 36.091H203.288V47H200.802V39.564L196.448 47H193.799V36.091H196.278V43.5199ZM190.023 45.0824V36.091H187.565V44.8907H183.29V36.091H180.811V47H189.178V50.5086H191.692V45.0824H190.023ZM175.738 36.091V40.4802H171.512V36.091H169.034V47H171.512V42.5895H175.738V47H178.21V36.091H175.738ZM144.678 51.091V36.091H147.207V37.8949H147.356C147.488 37.6298 147.675 37.3481 147.917 37.0498C148.158 36.7467 148.485 36.4887 148.897 36.2756C149.309 36.0578 149.834 35.9489 150.474 35.9489C151.316 35.9489 152.076 36.1643 152.754 36.5952C153.435 37.0214 153.975 37.6535 154.373 38.4915C154.775 39.3249 154.977 40.3476 154.977 41.5597C154.977 42.7576 154.78 43.7756 154.387 44.6137C153.994 45.4518 153.459 46.091 152.782 46.5313C152.105 46.9716 151.338 47.1918 150.481 47.1918C149.856 47.1918 149.337 47.0876 148.925 46.8793C148.513 46.671 148.182 46.42 147.931 46.1265C147.685 45.8282 147.493 45.5465 147.356 45.2813H147.249V51.091H144.678ZM147.2 41.5455C147.2 42.251 147.299 42.8689 147.498 43.3992C147.701 43.9295 147.993 44.3438 148.371 44.6421C148.755 44.9357 149.219 45.0824 149.763 45.0824C150.332 45.0824 150.807 44.9309 151.191 44.6279C151.575 44.3201 151.863 43.9011 152.057 43.3708C152.256 42.8358 152.356 42.2273 152.356 41.5455C152.356 40.8684 152.259 40.2671 152.065 39.7415C151.87 39.216 151.582 38.804 151.198 38.5057C150.815 38.2074 150.336 38.0583 149.763 38.0583C149.214 38.0583 148.748 38.2027 148.364 38.4915C147.981 38.7804 147.69 39.1852 147.491 39.706C147.297 40.2269 147.2 40.84 147.2 41.5455ZM134.818 46.5313C135.614 46.9858 136.559 47.2131 137.652 47.2131C138.5 47.2131 139.253 47.0853 139.911 46.8296C140.569 46.5692 141.109 46.2046 141.53 45.7358C141.956 45.2624 142.245 44.7084 142.397 44.0739L139.996 43.804C139.882 44.1118 139.714 44.3698 139.492 44.5782C139.269 44.7865 139.006 44.9451 138.703 45.054C138.4 45.1582 138.062 45.2103 137.688 45.2103C137.129 45.2103 136.641 45.0919 136.225 44.8552C135.808 44.6137 135.484 44.268 135.252 43.8182C135.028 43.379 134.912 42.8558 134.904 42.2486H142.503V41.4603C142.503 40.5038 142.371 39.68 142.105 38.9887C141.84 38.2927 141.476 37.7197 141.012 37.2699C140.552 36.8201 140.022 36.4887 139.421 36.2756C138.824 36.0578 138.19 35.9489 137.517 35.9489C136.476 35.9489 135.569 36.188 134.797 36.6662C134.025 37.1397 133.424 37.8026 132.993 38.6549C132.567 39.5024 132.354 40.4873 132.354 41.6094C132.354 42.7505 132.567 43.7425 132.993 44.5853C133.419 45.4233 134.028 46.072 134.818 46.5313ZM134.909 40.5157C134.934 40.0883 135.043 39.6929 135.238 39.3296C135.46 38.9177 135.77 38.5862 136.168 38.3353C136.566 38.0796 137.027 37.9518 137.553 37.9518C138.045 37.9518 138.476 38.063 138.845 38.2856C139.22 38.5081 139.511 38.8135 139.719 39.2018C139.927 39.5853 140.034 40.0233 140.039 40.5157H134.909ZM112.633 40.4802V36.091H115.104V47H112.633V42.5895H108.407V47H105.928V36.091H108.407V40.4802H112.633ZM98.5188 47.2131C97.4534 47.2131 96.5302 46.9787 95.7489 46.51C94.9677 46.0412 94.3616 45.3855 93.9307 44.5427C93.5046 43.6999 93.2915 42.715 93.2915 41.5881C93.2915 40.4612 93.5046 39.474 93.9307 38.6265C94.3616 37.7789 94.9677 37.1208 95.7489 36.652C96.5302 36.1833 97.4534 35.9489 98.5188 35.9489C99.5841 35.9489 100.507 36.1833 101.289 36.652C102.07 37.1208 102.674 37.7789 103.1 38.6265C103.531 39.474 103.746 40.4612 103.746 41.5881C103.746 42.715 103.531 43.6999 103.1 44.5427C102.674 45.3855 102.07 46.0412 101.289 46.51C100.507 46.9787 99.5841 47.2131 98.5188 47.2131ZM98.533 45.1535C99.1106 45.1535 99.5936 44.9948 99.9819 44.6776C100.37 44.3556 100.659 43.9248 100.848 43.385C101.042 42.8452 101.14 42.2439 101.14 41.581C101.14 40.9134 101.042 40.3097 100.848 39.7699C100.659 39.2254 100.37 38.7922 99.9819 38.4702C99.5936 38.1482 99.1106 37.9873 98.533 37.9873C97.9411 37.9873 97.4487 38.1482 97.0557 38.4702C96.6675 38.7922 96.3763 39.2254 96.1821 39.7699C95.9927 40.3097 95.8981 40.9134 95.8981 41.581C95.8981 42.2439 95.9927 42.8452 96.1821 43.385C96.3763 43.9248 96.6675 44.3556 97.0557 44.6776C97.4487 44.9948 97.9411 45.1535 98.533 45.1535ZM82.8228 36.091V47H85.3938V42.8878H86.6509L89.6409 47H92.7517L88.6679 41.4461L92.7091 36.091H89.6125L86.3313 40.4944H85.3938V36.091H82.8228ZM80.1186 39.8836V42H73.5703V39.8836H80.1186ZM68.4335 40.4802V36.091H70.9051V47H68.4335V42.5895H64.2076V47H61.729V36.091H64.2076V40.4802H68.4335ZM39.387 46.8509C39.941 47.0971 40.5636 47.2202 41.2549 47.2202C41.8231 47.2202 42.3179 47.1421 42.7393 46.9858C43.1654 46.8249 43.5181 46.6142 43.7975 46.3537C44.0816 46.0886 44.3018 45.8045 44.458 45.5015H44.5432V47H47.0148V39.6989C47.0148 38.9745 46.8823 38.3708 46.6171 37.8878C46.3567 37.4049 46.011 37.0237 45.5802 36.7444C45.1493 36.4603 44.6735 36.2567 44.1526 36.1336C43.6318 36.0105 43.1086 35.9489 42.583 35.9489C41.8207 35.9489 41.1247 36.0625 40.4949 36.2898C39.8652 36.5124 39.3325 36.8485 38.8969 37.2983C38.4613 37.7434 38.1488 38.2974 37.9594 38.9603L40.36 39.3012C40.4878 38.9271 40.7341 38.6028 41.0986 38.3282C41.468 38.0536 41.9675 37.9162 42.5972 37.9162C43.1938 37.9162 43.6507 38.063 43.968 38.3566C44.2852 38.6501 44.4438 39.0644 44.4438 39.5995V39.6421C44.4438 39.8883 44.3515 40.0706 44.1668 40.189C43.9869 40.3026 43.6981 40.3878 43.3003 40.4447C42.9026 40.4967 42.3842 40.5559 41.7449 40.6222C41.2146 40.679 40.7009 40.7714 40.2038 40.8992C39.7113 41.0223 39.2686 41.2046 38.8756 41.4461C38.4826 41.6875 38.1725 42.0095 37.9452 42.412C37.718 42.8144 37.6043 43.3234 37.6043 43.939C37.6043 44.6539 37.7629 45.2553 38.0802 45.7429C38.4021 46.2306 38.8377 46.6 39.387 46.8509ZM43.2648 45.0256C42.886 45.2292 42.4386 45.331 41.9225 45.331C41.3875 45.331 40.9471 45.2103 40.6015 44.9688C40.2558 44.7273 40.083 44.3698 40.083 43.8964C40.083 43.5649 40.1706 43.295 40.3458 43.0867C40.521 42.8736 40.7601 42.7079 41.0631 42.5895C41.3662 42.4712 41.7094 42.3859 42.093 42.3339C42.2634 42.3102 42.4646 42.2818 42.6967 42.2486C42.9287 42.2155 43.163 42.1776 43.3998 42.135C43.6365 42.0924 43.8496 42.0427 44.039 41.9858C44.2331 41.929 44.3704 41.8675 44.4509 41.8012V43.0867C44.4509 43.4892 44.3467 43.8608 44.1384 44.2018C43.9348 44.5427 43.6436 44.8173 43.2648 45.0256ZM25.3707 47L25.3565 44.8836H25.7329C26.017 44.8836 26.2561 44.8197 26.4502 44.6918C26.6443 44.564 26.8053 44.3509 26.9332 44.0526C27.061 43.7496 27.1604 43.3424 27.2315 42.831C27.3025 42.3197 27.3522 41.6828 27.3806 40.9205L27.5724 36.091H35.5269V47H33.0411V38.2003H29.909L29.7386 41.716C29.6959 42.625 29.5941 43.4134 29.4332 44.081C29.2769 44.7439 29.0544 45.2908 28.7655 45.7216C28.4815 46.1525 28.124 46.4745 27.6931 46.6875C27.2622 46.8959 26.7532 47 26.1661 47H25.3707ZM21.0507 40.4802V36.091H23.5223V47H21.0507V42.5895H16.8248V47H14.3461V36.091H16.8248V40.4802H21.0507ZM6.9367 47.2131C5.87136 47.2131 4.94806 46.9787 4.16681 46.51C3.38556 46.0412 2.7795 45.3855 2.34863 44.5427C1.92249 43.6999 1.70942 42.715 1.70942 41.5881C1.70942 40.4612 1.92249 39.474 2.34863 38.6265C2.7795 37.7789 3.38556 37.1208 4.16681 36.652C4.94806 36.1833 5.87136 35.9489 6.9367 35.9489C8.00204 35.9489 8.92533 36.1833 9.70658 36.652C10.4878 37.1208 11.0915 37.7789 11.5177 38.6265C11.9485 39.474 12.164 40.4612 12.164 41.5881C12.164 42.715 11.9485 43.6999 11.5177 44.5427C11.0915 45.3855 10.4878 46.0412 9.70658 46.51C8.92533 46.9787 8.00204 47.2131 6.9367 47.2131ZM6.9509 45.1535C7.52855 45.1535 8.01151 44.9948 8.39976 44.6776C8.78802 44.3556 9.07685 43.9248 9.26624 43.385C9.46037 42.8452 9.55743 42.2439 9.55743 41.581C9.55743 40.9134 9.46037 40.3097 9.26624 39.7699C9.07685 39.2254 8.78802 38.7922 8.39976 38.4702C8.01151 38.1482 7.52855 37.9873 6.9509 37.9873C6.35904 37.9873 5.86662 38.1482 5.47363 38.4702C5.08537 38.7922 4.79418 39.2254 4.60005 39.7699C4.41065 40.3097 4.31596 40.9134 4.31596 41.581C4.31596 42.2439 4.41065 42.8452 4.60005 43.385C4.79418 43.9248 5.08537 44.3556 5.47363 44.6776C5.86662 44.9948 6.35904 45.1535 6.9509 45.1535ZM141.5 16.4802V12.091H143.972V23H141.5V18.5895H137.274V23H134.795V12.091H137.274V16.4802H141.5ZM120.724 26.1677V20.8836H121.59C121.822 20.7036 122.017 20.4598 122.173 20.152C122.329 19.8395 122.457 19.4726 122.556 19.0512C122.661 18.625 122.746 18.1492 122.812 17.6236C122.878 17.0933 122.938 16.5228 122.99 15.912L123.302 12.091H131.186V20.8836H132.876V26.1677H130.39V23H123.252V26.1677H120.724ZM124.233 20.8836H128.728V14.1648H125.532L125.362 15.912C125.267 17.0673 125.142 18.0569 124.985 18.8807C124.829 19.7046 124.578 20.3722 124.233 20.8836ZM111.511 22.51C112.292 22.9787 113.215 23.2131 114.281 23.2131C115.346 23.2131 116.269 22.9787 117.05 22.51C117.832 22.0412 118.435 21.3855 118.861 20.5427C119.292 19.6999 119.508 18.715 119.508 17.5881C119.508 16.4612 119.292 15.474 118.861 14.6265C118.435 13.7789 117.832 13.1208 117.05 12.652C116.269 12.1833 115.346 11.9489 114.281 11.9489C113.215 11.9489 112.292 12.1833 111.511 12.652C110.729 13.1208 110.123 13.7789 109.692 14.6265C109.266 15.474 109.053 16.4612 109.053 17.5881C109.053 18.715 109.266 19.6999 109.692 20.5427C110.123 21.3855 110.729 22.0412 111.511 22.51ZM115.744 20.6776C115.355 20.9948 114.872 21.1535 114.295 21.1535C113.703 21.1535 113.21 20.9948 112.817 20.6776C112.429 20.3556 112.138 19.9248 111.944 19.385C111.754 18.8452 111.66 18.2439 111.66 17.581C111.66 16.9134 111.754 16.3097 111.944 15.7699C112.138 15.2254 112.429 14.7922 112.817 14.4702C113.21 14.1482 113.703 13.9873 114.295 13.9873C114.872 13.9873 115.355 14.1482 115.744 14.4702C116.132 14.7922 116.421 15.2254 116.61 15.7699C116.804 16.3097 116.901 16.9134 116.901 17.581C116.901 18.2439 116.804 18.8452 116.61 19.385C116.421 19.9248 116.132 20.3556 115.744 20.6776ZM97.022 27.091V12.091H99.5504V13.8949H99.6995C99.8321 13.6298 100.019 13.3481 100.261 13.0498C100.502 12.7467 100.829 12.4887 101.241 12.2756C101.653 12.0578 102.178 11.9489 102.817 11.9489C103.66 11.9489 104.42 12.1643 105.097 12.5952C105.779 13.0213 106.319 13.6535 106.717 14.4915C107.119 15.3249 107.32 16.3476 107.32 17.5597C107.32 18.7576 107.124 19.7756 106.731 20.6137C106.338 21.4517 105.803 22.091 105.126 22.5313C104.449 22.9716 103.682 23.1918 102.825 23.1918C102.2 23.1918 101.681 23.0876 101.269 22.8793C100.857 22.671 100.526 22.42 100.275 22.1265C100.029 21.8282 99.8369 21.5464 99.6995 21.2813H99.593V27.091H97.022ZM99.5433 17.5455C99.5433 18.251 99.6427 18.8689 99.8416 19.3992C100.045 19.9295 100.336 20.3438 100.715 20.6421C101.099 20.9356 101.563 21.0824 102.107 21.0824C102.675 21.0824 103.151 20.9309 103.535 20.6279C103.918 20.3201 104.207 19.9011 104.401 19.3708C104.6 18.8357 104.7 18.2273 104.7 17.5455C104.7 16.8684 104.602 16.2671 104.408 15.7415C104.214 15.216 103.925 14.804 103.542 14.5057C103.158 14.2074 102.68 14.0583 102.107 14.0583C101.558 14.0583 101.092 14.2027 100.708 14.4915C100.325 14.7803 100.033 15.1852 99.8345 15.706C99.6404 16.2268 99.5433 16.84 99.5433 17.5455ZM86.8089 22.8509C87.3628 23.0971 87.9855 23.2202 88.6768 23.2202C89.2449 23.2202 89.7397 23.1421 90.1611 22.9858C90.5873 22.8249 90.94 22.6142 91.2194 22.3537C91.5035 22.0886 91.7236 21.8045 91.8799 21.5015H91.9651V23H94.4367V15.6989C94.4367 14.9745 94.3041 14.3708 94.039 13.8878C93.7786 13.4049 93.4329 13.0237 93.002 12.7444C92.5712 12.4603 92.0953 12.2567 91.5745 12.1336C91.0537 12.0105 90.5305 11.9489 90.0049 11.9489C89.2426 11.9489 88.5466 12.0625 87.9168 12.2898C87.2871 12.5124 86.7544 12.8485 86.3188 13.2983C85.8832 13.7434 85.5707 14.2974 85.3813 14.9603L87.7819 15.3012C87.9097 14.9271 88.1559 14.6028 88.5205 14.3282C88.8898 14.0535 89.3894 13.9162 90.0191 13.9162C90.6157 13.9162 91.0726 14.063 91.3898 14.3566C91.7071 14.6501 91.8657 15.0644 91.8657 15.5995V15.6421C91.8657 15.8883 91.7734 16.0706 91.5887 16.189C91.4088 16.3026 91.1199 16.3878 90.7222 16.4446C90.3245 16.4967 89.806 16.5559 89.1668 16.6222C88.6365 16.679 88.1228 16.7713 87.6256 16.8992C87.1332 17.0223 86.6905 17.2046 86.2975 17.4461C85.9045 17.6875 85.5944 18.0095 85.3671 18.412C85.1398 18.8144 85.0262 19.3234 85.0262 19.939C85.0262 20.6539 85.1848 21.2552 85.502 21.7429C85.824 22.2306 86.2596 22.5999 86.8089 22.8509ZM90.6867 21.0256C90.3079 21.2292 89.8605 21.331 89.3444 21.331C88.8093 21.331 88.369 21.2103 88.0233 20.9688C87.6777 20.7273 87.5049 20.3698 87.5049 19.8963C87.5049 19.5649 87.5925 19.295 87.7677 19.0867C87.9429 18.8736 88.182 18.7079 88.485 18.5895C88.788 18.4712 89.1313 18.3859 89.5148 18.3338C89.6853 18.3102 89.8865 18.2818 90.1185 18.2486C90.3505 18.2155 90.5849 18.1776 90.8216 18.135C91.0584 18.0924 91.2715 18.0427 91.4608 17.9858C91.655 17.929 91.7923 17.8675 91.8728 17.8012V19.0867C91.8728 19.4892 91.7686 19.8608 91.5603 20.2017C91.3567 20.5427 91.0655 20.8173 90.6867 21.0256ZM80.4648 12.091V16.4802H76.239V12.091H73.7603V23H76.239V18.5895H80.4648V23H82.9364V12.091H80.4648ZM62.8618 27.0057C63.1601 27.0625 63.4844 27.091 63.8348 27.091C64.5071 27.091 65.0848 26.9797 65.5678 26.7572C66.0554 26.5393 66.4674 26.2221 66.8036 25.8054C67.1397 25.3935 67.4096 24.8987 67.6132 24.3211L71.9811 12.091H69.2467L66.7254 20.3296H66.6118L64.0976 12.091H61.3703L65.3263 23.2273L65.1061 23.8168C64.9499 24.2287 64.7581 24.5223 64.5308 24.6975C64.3083 24.8774 64.0502 24.9697 63.7567 24.9745C63.4631 24.9792 63.1293 24.9271 62.7553 24.8182L62.1587 26.8211C62.3339 26.8921 62.5682 26.9536 62.8618 27.0057ZM48.1654 26.1677V20.8836H49.0319C49.2639 20.7036 49.458 20.4598 49.6143 20.152C49.7705 19.8395 49.8984 19.4726 49.9978 19.0512C50.102 18.625 50.1872 18.1492 50.2535 17.6236C50.3198 17.0933 50.379 16.5228 50.431 15.912L50.7435 12.091H58.6271V20.8836H60.3174V26.1677H57.8316V23H50.6938V26.1677H48.1654ZM51.6739 20.8836H56.1697V14.1648H52.9737L52.8032 15.912C52.7085 17.0673 52.583 18.0569 52.4268 18.8807C52.2705 19.7046 52.0196 20.3722 51.6739 20.8836ZM35.241 17.3679L31.2141 23H34.2467L37.3646 18.5966H37.9328V23H40.5038V18.5966H41.072L44.1757 23H47.2084L43.2027 17.3679L47.1729 12.091H44.2041L41.1004 16.4873H40.5038V12.091H37.9328V16.4873H37.322L34.2183 12.091H31.2496L35.241 17.3679ZM25.1327 23.2131C24.039 23.2131 23.0944 22.9858 22.2989 22.5313C21.5082 22.072 20.8998 21.4233 20.4736 20.5853C20.0475 19.7425 19.8344 18.7505 19.8344 17.6094C19.8344 16.4873 20.0475 15.5024 20.4736 14.6549C20.9045 13.8026 21.5058 13.1397 22.2776 12.6662C23.0494 12.188 23.9561 11.9489 24.9978 11.9489C25.6701 11.9489 26.3046 12.0578 26.9012 12.2756C27.5025 12.4887 28.0328 12.8201 28.4921 13.2699C28.9561 13.7197 29.3207 14.2927 29.5858 14.9887C29.851 15.68 29.9836 16.5038 29.9836 17.4603V18.2486H22.3845C22.3921 18.8558 22.508 19.379 22.7322 19.8182C22.9642 20.268 23.2885 20.6137 23.7052 20.8552C24.1218 21.0919 24.6095 21.2103 25.1682 21.2103C25.5423 21.2103 25.8808 21.1582 26.1839 21.054C26.4869 20.9451 26.7497 20.7865 26.9722 20.5782C27.1947 20.3698 27.3628 20.1118 27.4765 19.804L29.877 20.0739C29.7255 20.7084 29.4367 21.2624 29.0106 21.7358C28.5892 22.2046 28.0494 22.5692 27.3912 22.8296C26.7331 23.0853 25.9803 23.2131 25.1327 23.2131ZM22.7179 15.3296C22.5236 15.6929 22.4141 16.0883 22.3894 16.5157H27.5191C27.5143 16.0232 27.4078 15.5853 27.1995 15.2017C26.9911 14.8135 26.7 14.5081 26.3259 14.2856C25.9566 14.063 25.5257 13.9517 25.0333 13.9517C24.5077 13.9517 24.0461 14.0796 23.6483 14.3353C23.2506 14.5862 22.9405 14.9177 22.7179 15.3296Z" fill="black"/>
</svg>
