<svg width="230" height="80" viewBox="0 0 230 80" fill="none" xmlns="http://www.w3.org/2000/svg">
<path fill-rule="evenodd" clip-rule="evenodd" d="M36.7345 35.4838C36.7313 35.4718 36.7241 35.4612 36.714 35.4536C36.7039 35.446 36.6915 35.4419 36.6786 35.4418L23.4972 35.5211C23.4691 35.5214 23.4418 35.5297 23.4185 35.5451C23.3952 35.5604 23.377 35.5821 23.3661 35.6075C22.9371 36.6034 22.5477 37.6708 22.198 38.81C21.7269 40.3434 21.3396 41.8744 21.3044 43.4402C21.2789 44.6181 21.835 45.2858 22.7784 45.8717C23.1896 46.1271 23.5855 46.3641 23.9659 46.5826C23.9685 46.5841 23.9709 46.5859 23.973 46.588C23.9751 46.5901 23.977 46.5925 23.9785 46.5952C23.9815 46.6004 23.983 46.6064 23.9829 46.6124C23.9827 46.6184 23.981 46.6242 23.9778 46.6294C23.9746 46.6345 23.9701 46.6386 23.9647 46.6414C22.4008 47.4496 20.5989 47.835 18.8699 48.0824C16.7345 48.3866 14.5158 48.5154 12.2136 48.469C11.936 48.4634 11.6624 48.4478 11.3928 48.4222C11.3515 48.4182 11.3309 48.3958 11.3309 48.3549L11.3273 47.0053C11.3273 46.9476 11.3483 46.8988 11.3904 46.8588C11.8275 46.4401 12.367 46.0559 13.0089 45.706C13.7771 45.2874 14.3972 44.6397 14.8691 43.7632C15.6009 42.4055 16.2909 40.8237 16.9393 39.0177C17.2121 38.258 17.4893 37.5075 17.771 36.7663C20.2585 30.21 22.7497 23.6346 25.2445 17.0399C25.5351 16.2714 25.8135 15.5069 26.0798 14.7464C26.8861 12.449 27.6575 10.3756 28.3941 8.52643C28.7033 7.74993 29.0874 6.9258 29.5464 6.05403C29.5658 6.01801 29.5962 6 29.6375 6L37.8236 6.0024C37.8299 6.00239 37.836 6.00437 37.841 6.00804C37.846 6.01172 37.8497 6.0169 37.8516 6.02281L46.5768 35.5067C46.5874 35.5443 46.5768 35.5747 46.5453 35.5979C44.3451 37.1645 42.0681 38.5722 39.7141 39.821C39.2297 40.078 38.7124 40.2989 38.1903 40.4683C38.1499 40.4811 38.1239 40.4675 38.1126 40.4274L36.7345 35.4838ZM24.9106 31.6366C24.9074 31.6495 24.9073 31.6629 24.9101 31.6759C24.9129 31.6888 24.9186 31.701 24.9268 31.7114C24.935 31.7218 24.9454 31.7302 24.9573 31.7359C24.9692 31.7417 24.9823 31.7447 24.9956 31.7446L35.5154 31.7614C35.5616 31.7614 35.5838 31.7382 35.5822 31.6918C35.5757 31.5157 35.5551 31.3452 35.5203 31.1803C35.2588 29.9467 34.952 28.6774 34.5999 27.3726C33.6941 24.0168 32.7904 20.8652 31.8886 17.9177C31.5632 16.8546 31.2265 15.844 30.8784 14.8857C30.8754 14.8775 30.8701 14.8704 30.863 14.8651C30.856 14.8599 30.8475 14.8568 30.8387 14.8563C30.8299 14.8558 30.8211 14.8579 30.8135 14.8622C30.8059 14.8666 30.7997 14.8731 30.7958 14.8809C30.5595 15.3588 30.3417 15.8544 30.1426 16.3675C28.6467 20.226 27.2135 24.239 25.8431 28.4065C25.4974 29.4591 25.1866 30.5358 24.9106 31.6366ZM71.8469 44.5881L85.6743 44.4789C85.6892 44.4786 85.7035 44.4727 85.7143 44.4625C85.7251 44.4523 85.7317 44.4384 85.7326 44.4236C85.8699 42.3091 85.8402 40.1946 85.8105 38.0836L85.8105 38.0818L85.8105 38.0799L85.8105 38.078L85.8104 38.0761L85.8104 38.0743L85.8104 38.0725L85.8104 38.0707L85.8103 38.0689L85.8103 38.0671L85.8103 38.0653L85.8103 38.0635L85.8103 38.0618L85.8102 38.0601L85.8102 38.0583L85.8102 38.0566L85.8102 38.0549L85.8102 38.0532L85.8101 38.0515L85.8101 38.0497L85.8101 38.048L85.8101 38.0464L85.8101 38.0447L85.81 38.0431L85.81 38.0414L85.81 38.0398L85.81 38.0381L85.8099 38.0365L85.8099 38.0349L85.8099 38.0333L85.8099 38.0318L85.8099 38.0302L85.8098 38.0286L85.8098 38.0271L85.8098 38.0255L85.8098 38.0239L85.8098 38.0225L85.8097 38.021L85.8097 38.0195L85.8097 38.018C85.8019 37.4632 85.794 36.9087 85.7896 36.3544C85.7811 35.2581 85.82 34.1354 85.8601 33.0283C85.9208 31.3964 85.3768 30.1464 84.2694 28.9552C84.2362 28.92 84.2419 28.8924 84.2864 28.8724C85.083 28.5258 85.9365 28.2644 86.8472 28.0883C89.6536 27.5471 92.5584 27.4066 95.5615 27.6668C96.5705 27.7545 97.667 27.9154 98.6371 28.2444C98.6865 28.2612 98.6902 28.2848 98.6481 28.3152C98.2304 28.6202 97.7641 28.8315 97.2869 29.0309C96.5973 29.3191 96.1602 29.7646 95.9222 30.4934C95.8056 30.8513 95.7388 31.1839 95.7218 31.4913C95.636 33.0307 95.5858 34.5661 95.5713 36.0974C95.5139 42.2638 95.5418 48.4341 95.5697 54.5895L95.5697 54.5919C95.5796 56.7795 95.5895 58.9651 95.5955 61.148C95.598 62.0022 95.6299 62.8127 95.6915 63.5796C95.7692 64.5414 96.0314 65.3471 96.97 65.8046C97.6055 66.1136 98.2207 66.4134 98.8156 66.704C98.8529 66.7224 98.8694 66.7516 98.8654 66.7917L98.71 68.6385C98.7084 68.6657 98.6938 68.6793 98.6663 68.6793L82.6096 68.624C82.5521 68.624 82.5234 68.5956 82.5234 68.5388L82.5465 66.8097C82.5473 66.7552 82.572 66.7156 82.6206 66.6908C83.0933 66.4474 83.5947 66.2413 84.125 66.0724C85.242 65.717 85.6269 64.6639 85.6925 63.6096C85.7823 62.1863 85.8333 60.6757 85.8455 59.0779C85.8673 56.0511 85.8451 53.1044 85.7787 50.2378C85.7649 49.655 85.7407 49.0706 85.7058 48.4846C85.7042 48.4446 85.6832 48.4246 85.6427 48.4246L71.8833 48.4666C71.8404 48.4666 71.8161 48.4878 71.8105 48.5303C71.7611 48.8721 71.7299 49.2335 71.717 49.6146C71.5786 53.8333 71.5798 57.791 71.7206 61.4878C71.7441 62.0858 71.7834 62.7046 71.8384 63.3442C71.9489 64.6375 72.3969 65.5417 73.6039 66.0688C74.0831 66.2777 74.5522 66.4863 75.0111 66.6944C75.0532 66.7136 75.0739 66.746 75.073 66.7917L75.0293 68.6481C75.0292 68.6531 75.028 68.6581 75.0259 68.6627C75.0238 68.6673 75.0208 68.6714 75.0171 68.6749C75.0134 68.6783 75.009 68.681 75.0042 68.6828C74.9995 68.6846 74.9944 68.6854 74.9893 68.6853L58.6449 68.5688C58.5955 68.5688 58.572 68.544 58.5744 68.4944L58.6534 66.6716C58.6558 66.6244 58.6797 66.5935 58.725 66.5791C59.8554 66.2237 61.2408 65.7338 61.6148 64.533C61.7605 64.0663 61.8516 63.534 61.888 62.936C61.9487 61.9321 61.9778 60.9263 61.9754 59.9184C61.9665 55.9975 61.9325 52.1734 61.8734 48.4462C61.8297 45.7012 61.8394 43.0511 61.9026 40.4959C61.9099 40.2181 61.9337 39.9375 61.9742 39.6541C61.9936 39.5148 62.0082 39.4164 62.1248 39.3203C62.6566 38.8888 63.2232 38.4806 63.8247 38.0955C65.8192 36.8203 67.8469 35.6724 69.9078 34.6517C70.4736 34.3715 71.0455 34.1318 71.6235 33.9324C71.6309 33.93 71.6388 33.9292 71.6466 33.9303C71.6543 33.9313 71.6617 33.9341 71.6681 33.9385C71.6745 33.9428 71.6797 33.9485 71.6834 33.9552C71.687 33.9619 71.689 33.9693 71.6891 33.9769L71.7619 44.5065C71.7619 44.5617 71.7902 44.5889 71.8469 44.5881ZM55.0588 65.1801C55.0574 65.22 55.0561 65.2602 55.0544 65.3003C55.052 65.3595 55.0212 65.3891 54.9621 65.3891L54.5833 65.3867C54.5444 65.3859 54.525 65.4048 54.525 65.4432L54.5262 66.0388C54.5262 66.0764 54.5452 66.0948 54.5833 66.094L54.9318 66.0868C54.9474 66.0865 54.963 66.0893 54.9776 66.095C54.9921 66.1007 55.0054 66.1092 55.0166 66.1201C55.0278 66.1309 55.0367 66.1439 55.0428 66.1581C55.0488 66.1724 55.052 66.1878 55.052 66.2033V69.0443C55.052 69.0771 55.069 69.0935 55.103 69.0935L55.9808 69.0911C56.0124 69.0911 56.0282 69.0751 56.0282 69.0431V66.1636C56.0282 66.1148 56.0525 66.0904 56.101 66.0904L56.7142 66.088C56.728 66.088 56.7349 66.0812 56.7349 66.0676L56.7336 65.4108C56.7336 65.3964 56.726 65.3891 56.7106 65.3891L56.1047 65.3867C56.0618 65.3867 56.0379 65.3659 56.033 65.3243C55.9578 64.7479 56.1945 64.5378 56.764 64.6915C56.8215 64.7075 56.8559 64.6867 56.8672 64.6291L56.968 64.1511C56.9801 64.0943 56.9579 64.0579 56.9012 64.0419C56.4714 63.9194 56.0747 63.9094 55.7113 64.0119C55.093 64.1856 55.0764 64.6692 55.0588 65.1801ZM9.49623 67.9156L9.07126 69.0647C9.06863 69.0716 9.06399 69.0775 9.05794 69.0818C9.05189 69.0861 9.0447 69.0885 9.03726 69.0887L8.0574 69.0971C8.05105 69.0974 8.04473 69.0961 8.03903 69.0933C8.03333 69.0906 8.02843 69.0864 8.02479 69.0813C8.02116 69.0761 8.0189 69.0701 8.01823 69.0639C8.01756 69.0576 8.01851 69.0513 8.02098 69.0455L9.95885 64.0899C9.96156 64.0828 9.96638 64.0768 9.97267 64.0725C9.97896 64.0682 9.98642 64.0659 9.99406 64.0659L10.9885 64.0683C10.9961 64.0683 11.0036 64.0706 11.0099 64.0749C11.0162 64.0792 11.021 64.0852 11.0237 64.0923L13.0114 69.0419C13.0138 69.0476 13.0147 69.0538 13.0141 69.06C13.0135 69.0661 13.0114 69.072 13.0079 69.0771C13.0044 69.0823 12.9996 69.0864 12.9941 69.0893C12.9886 69.0922 12.9824 69.0936 12.9761 69.0935L11.9696 69.0899C11.9619 69.0899 11.9545 69.0876 11.9482 69.0834C11.9419 69.0791 11.9371 69.073 11.9344 69.0659L11.4912 67.9156C11.4885 67.9085 11.4836 67.9024 11.4774 67.8981C11.4711 67.8939 11.4636 67.8916 11.456 67.8916H9.53145C9.52381 67.8916 9.51635 67.8939 9.51006 67.8981C9.50377 67.9024 9.49895 67.9085 9.49623 67.9156ZM9.83014 67.0102C9.82759 67.0171 9.82678 67.0245 9.82776 67.0318C9.82875 67.0391 9.83151 67.0461 9.8358 67.0521C9.8401 67.0581 9.8458 67.063 9.85243 67.0664C9.85905 67.0698 9.8664 67.0715 9.87385 67.0714L11.0978 67.0666C11.1051 67.0665 11.1123 67.0646 11.1188 67.0612C11.1253 67.0577 11.1308 67.0528 11.135 67.0468C11.1391 67.0408 11.1418 67.034 11.1427 67.0267C11.1436 67.0195 11.1428 67.0122 11.1403 67.0054L10.5222 65.3495C10.5189 65.3409 10.513 65.3335 10.5053 65.3282C10.4976 65.323 10.4885 65.3202 10.4791 65.3202C10.4698 65.3202 10.4607 65.323 10.453 65.3282C10.4453 65.3335 10.4394 65.3409 10.436 65.3495L9.83014 67.0102ZM29.7965 64.0659H30.6853C30.7074 64.0659 30.7254 64.0836 30.7254 64.1055V64.85C30.7254 64.8719 30.7074 64.8896 30.6853 64.8896H29.7965C29.7744 64.8896 29.7564 64.8719 29.7564 64.85V64.1055C29.7564 64.0836 29.7744 64.0659 29.7965 64.0659ZM38.9419 64.0659H38.0531C38.031 64.0659 38.0131 64.0836 38.0131 64.1055V64.85C38.0131 64.8719 38.031 64.8896 38.0531 64.8896H38.9419C38.9641 64.8896 38.982 64.8719 38.982 64.85V64.1055C38.982 64.0836 38.9641 64.0659 38.9419 64.0659ZM36.5779 68.2554V66.1889C36.5779 66.1224 36.6115 66.0896 36.6786 66.0904L37.2226 66.0916C37.2356 66.0916 37.242 66.0848 37.242 66.0712L37.2408 65.4084C37.2408 65.3948 37.2339 65.3879 37.2202 65.3879H36.6459C36.6005 65.3879 36.5779 65.3655 36.5779 65.3207V64.2004C36.5779 64.1195 36.5435 64.0999 36.4747 64.1415L35.717 64.5978C35.6555 64.6355 35.6247 64.6895 35.6247 64.7599L35.6223 65.3219C35.6223 65.3691 35.5988 65.3924 35.5519 65.3915L35.2252 65.3843C35.1912 65.3843 35.1742 65.4012 35.1742 65.4348L35.1706 66.0436C35.1706 66.0772 35.1876 66.0936 35.2216 66.0928L35.5191 66.0868C35.5335 66.0866 35.5478 66.0893 35.5611 66.0946C35.5744 66.0999 35.5865 66.1078 35.5967 66.1177C35.6069 66.1277 35.6149 66.1395 35.6204 66.1526C35.6258 66.1656 35.6285 66.1796 35.6284 66.1937C35.6203 66.9141 35.6215 67.6262 35.632 68.3298C35.6466 69.3349 36.5815 69.3001 37.2809 69.1116C37.3011 69.1068 37.31 69.0943 37.3076 69.0743L37.2335 68.4319C37.2327 68.4199 37.2263 68.4167 37.2141 68.4223C36.9397 68.5608 36.7402 68.544 36.6155 68.3719C36.5904 68.3366 36.5779 68.2978 36.5779 68.2554ZM14.3434 66.4242C14.3944 66.4987 14.4696 66.5483 14.5692 66.5731C15.0816 66.7004 15.5466 66.8325 15.9643 66.9694C16.7159 67.2155 16.8883 68.0393 16.4585 68.6432C16.0153 69.2664 15.0015 69.3037 14.3324 69.12C13.8589 68.9903 13.5226 68.6661 13.3234 68.1473C13.2967 68.0769 13.3206 68.0365 13.3951 68.0261L14.1552 67.9204C14.2296 67.9108 14.2766 67.9416 14.296 68.0128C14.3195 68.0985 14.3555 68.1777 14.4041 68.2506C14.6408 68.5988 15.6207 68.6457 15.7093 68.1605C15.745 67.966 15.6656 67.8463 15.4714 67.8015C15.0545 67.7046 14.6352 67.5866 14.2134 67.4473C13.595 67.2431 13.3416 66.8173 13.4533 66.1697C13.5128 65.8238 13.8407 65.49 14.1685 65.3891C14.736 65.2162 15.2738 65.2182 15.7822 65.3951C16.1635 65.5272 16.4201 65.8302 16.552 66.3041C16.5577 66.3258 16.5492 66.3378 16.5265 66.3402L15.6984 66.447C15.6766 66.4502 15.6628 66.441 15.6571 66.4194C15.5248 65.9043 14.84 65.8899 14.4405 66.0748C14.4089 66.0893 14.3809 66.1105 14.3584 66.1369C14.3359 66.1632 14.3194 66.194 14.3102 66.2273C14.301 66.2605 14.2991 66.2953 14.3049 66.3294C14.3106 66.3634 14.3237 66.3957 14.3434 66.4242ZM19.5923 67.8828C19.6227 67.9148 19.643 67.955 19.6506 67.9984C19.6895 68.229 19.5956 68.3819 19.3689 68.4571C18.8711 68.6216 18.3369 68.4859 18.2118 67.93C18.2078 67.9132 18.1972 67.906 18.1802 67.9084L17.2587 68.0381C17.2449 68.0405 17.24 68.0477 17.2441 68.0597C17.4691 68.8009 18.0107 69.1852 18.8687 69.2124C19.4418 69.2304 20.0355 69.1308 20.3962 68.6469C20.8151 68.0849 20.6997 67.3536 20.0368 67.0258C19.7272 66.8735 19.3631 66.7841 19.0127 66.6981C18.8325 66.6538 18.656 66.6105 18.4923 66.5599C18.3838 66.5271 18.3093 66.4706 18.2689 66.3906C18.2546 66.3616 18.2463 66.3301 18.2447 66.2979C18.2431 66.2657 18.2482 66.2335 18.2595 66.2033C18.2709 66.1731 18.2883 66.1455 18.3108 66.1222C18.3333 66.0988 18.3603 66.0803 18.3903 66.0676C18.6999 65.9379 19.4309 65.8815 19.5547 66.3161C19.579 66.4026 19.6365 66.441 19.7271 66.4314L20.3792 66.3618C20.4633 66.3522 20.4945 66.3073 20.4727 66.2273C20.3618 65.8254 20.1254 65.5537 19.7636 65.412C19.0095 65.1154 17.4687 65.1802 17.3655 66.3161C17.3145 66.8841 17.629 67.2756 18.162 67.4497C18.5919 67.589 19.031 67.7118 19.4794 67.8183C19.5226 67.8283 19.5619 67.8507 19.5923 67.8828ZM23.0843 69.233C22.8344 69.2253 22.5886 69.1661 22.3609 69.0588C22.1332 68.9516 21.9281 68.7984 21.7572 68.608C21.5864 68.4177 21.4532 68.1938 21.3653 67.9493C21.2773 67.7047 21.2363 67.4443 21.2446 67.1828C21.2529 66.9213 21.3104 66.6639 21.4137 66.4253C21.517 66.1867 21.6641 65.9716 21.8467 65.7922C22.0293 65.6128 22.2437 65.4726 22.4778 65.3798C22.7119 65.2869 22.9609 65.2431 23.2108 65.2508C23.4607 65.2586 23.7065 65.3178 23.9342 65.425C24.1619 65.5323 24.3671 65.6854 24.5379 65.8758C24.7087 66.0662 24.8419 66.2901 24.9299 66.5346C25.0178 66.7792 25.0588 67.0396 25.0505 67.3011C25.0422 67.5625 24.9847 67.8199 24.8814 68.0585C24.7781 68.2971 24.631 68.5123 24.4484 68.6917C24.2658 68.8711 24.0514 69.0112 23.8173 69.1041C23.5833 69.197 23.3342 69.2408 23.0843 69.233ZM23.1547 68.5316C23.2772 68.5313 23.3984 68.4978 23.5114 68.4329C23.6244 68.3679 23.727 68.2728 23.8134 68.153C23.8998 68.0333 23.9682 67.8911 24.0148 67.7347C24.0614 67.5783 24.0852 67.4107 24.0849 67.2415C24.0843 66.8998 23.9855 66.5723 23.8102 66.3309C23.6349 66.0896 23.3975 65.9543 23.1502 65.9547C23.0277 65.9549 22.9065 65.9884 22.7935 66.0534C22.6804 66.1183 22.5778 66.2134 22.4914 66.3332C22.4051 66.453 22.3366 66.5952 22.29 66.7516C22.2434 66.908 22.2196 67.0755 22.2199 67.2447C22.2205 67.5865 22.3193 67.914 22.4946 68.1553C22.67 68.3967 22.9074 68.532 23.1547 68.5316ZM27.4422 68.5172C26.5036 68.5556 26.54 67.2335 26.6396 66.6488C26.7161 66.2081 27.0755 65.8911 27.5466 65.9895C27.8283 66.0472 27.9995 66.2309 28.0602 66.5407C28.0634 66.5583 28.074 66.5663 28.0918 66.5647L28.9551 66.4734C28.9589 66.473 28.9625 66.4718 28.9658 66.4699C28.969 66.468 28.9718 66.4655 28.974 66.4624C28.9762 66.4593 28.9777 66.4558 28.9784 66.4521C28.9791 66.4485 28.979 66.4447 28.9782 66.441C28.8284 65.8094 28.4516 65.4332 27.8477 65.3123C26.9176 65.1262 26.0264 65.4984 25.7459 66.423C25.3817 67.6226 25.7787 69.1788 27.3171 69.2112C28.2553 69.232 28.83 68.809 29.0413 67.942C29.0453 67.9252 29.0389 67.9156 29.0219 67.9132L28.1452 67.7895C28.1242 67.7871 28.1116 67.7963 28.1076 67.8171C28.0226 68.2686 27.8008 68.502 27.4422 68.5172ZM33.7244 68.7908L33.7241 68.7911L33.7238 68.7913C33.6295 68.8814 33.5318 68.9747 33.4137 69.0347C33.0405 69.2244 32.6613 69.2645 32.2759 69.1548C31.5013 68.9326 31.3094 67.9972 31.6943 67.4089C31.8368 67.1903 32.0699 67.0378 32.3937 66.9514C32.7386 66.8593 33.0935 66.776 33.4586 66.7016C33.5411 66.6848 33.6241 66.6544 33.7075 66.6103C33.7423 66.5911 33.7609 66.5619 33.7633 66.5227C33.7836 66.2185 33.6516 66.0404 33.3675 65.9883C32.9239 65.9067 32.6309 66.032 32.4884 66.3642C32.4666 66.4154 32.4277 66.4382 32.3719 66.4326L31.6956 66.3594C31.685 66.3581 31.6749 66.3547 31.6658 66.3493C31.6568 66.344 31.649 66.3368 31.643 66.3282C31.637 66.3197 31.633 66.31 31.6312 66.2998C31.6293 66.2897 31.6298 66.2793 31.6324 66.2693C31.9044 65.203 33.1137 65.1154 33.9819 65.3723C34.4465 65.51 34.6813 65.8322 34.6861 66.339C34.691 66.9233 34.6938 67.5433 34.6946 68.199C34.6954 68.4799 34.7545 68.7505 34.8719 69.0107C34.8962 69.0635 34.8792 69.0899 34.8209 69.0899L34.0584 69.0935C33.9961 69.0935 33.9548 69.0647 33.9345 69.0071L33.8544 68.7753C33.8358 68.7217 33.8054 68.7145 33.7633 68.7537L33.7468 68.7694L33.7244 68.7908ZM33.1914 68.4799C33.7731 68.327 33.7696 67.8706 33.7659 67.3885L33.7658 67.3704C33.7658 67.3224 33.7423 67.3044 33.6953 67.3164C33.4128 67.3876 33.1384 67.4581 32.8721 67.5277C32.1557 67.7138 32.4508 68.6757 33.1914 68.4799ZM40.8779 69.0588C41.1055 69.1661 41.3511 69.2253 41.6009 69.233C41.8506 69.2408 42.0995 69.197 42.3334 69.104C42.5674 69.0111 42.7817 68.8708 42.9641 68.6913C43.1466 68.5118 43.2937 68.2965 43.3969 68.0578C43.5002 67.819 43.5576 67.5615 43.5659 67.2998C43.5742 67.0382 43.5333 66.7776 43.4454 66.5329C43.3575 66.2882 43.2244 66.0642 43.0537 65.8738C42.8829 65.6833 42.678 65.53 42.4504 65.4227C42.2229 65.3154 41.9772 65.2562 41.7275 65.2484C41.4777 65.2407 41.2288 65.2845 40.9949 65.3775C40.761 65.4704 40.5467 65.6107 40.3642 65.7902C40.1818 65.9697 40.0347 66.185 39.9314 66.4237C39.8282 66.6625 39.7708 66.92 39.7624 67.1816C39.7541 67.4433 39.7951 67.7039 39.883 67.9486C39.9709 68.1932 40.104 68.4172 40.2747 68.6077C40.4454 68.7982 40.6504 68.9515 40.8779 69.0588ZM42.0306 68.4306C41.9171 68.4955 41.7955 68.529 41.6725 68.5292C41.4242 68.5296 41.1859 68.3944 41.0099 68.1533C40.8339 67.9122 40.7347 67.5849 40.7341 67.2436C40.7338 67.0745 40.7577 66.9071 40.8045 66.7508C40.8513 66.5946 40.92 66.4525 41.0067 66.3329C41.0934 66.2132 41.1964 66.1182 41.3099 66.0533C41.4234 65.9884 41.545 65.9549 41.668 65.9547C41.9163 65.9543 42.1546 66.0895 42.3306 66.3306C42.5066 66.5717 42.6058 66.8989 42.6064 67.2403C42.6067 67.4094 42.5828 67.5768 42.536 67.733C42.4892 67.8893 42.4205 68.0313 42.3338 68.151C42.2471 68.2707 42.1441 68.3657 42.0306 68.4306ZM45.2958 65.8046C45.622 65.4132 46.0231 65.2355 46.4991 65.2715C47.2446 65.3283 47.6194 65.7614 47.6235 66.5707C47.6275 67.4313 47.6287 68.2618 47.6271 69.0623C47.6263 69.0807 47.6166 69.0899 47.598 69.0899L46.6679 69.0935C46.6476 69.0935 46.6375 69.0835 46.6375 69.0635C46.6286 68.3911 46.629 67.6062 46.6387 66.7088C46.6509 65.6149 45.3675 65.8262 45.2922 66.7364C45.2285 67.4894 45.2433 68.2729 45.2577 69.0393V69.0394L45.2582 69.0647C45.2582 69.0831 45.2489 69.0923 45.2303 69.0923H44.3317C44.3123 69.0923 44.3026 69.0827 44.3026 69.0635L44.3038 65.4852C44.3038 65.4204 44.3366 65.3879 44.4022 65.3879H45.1016C45.1679 65.3879 45.2011 65.4212 45.2011 65.4876L45.1975 65.7686C45.1967 65.8727 45.2294 65.8847 45.2958 65.8046ZM51.5018 69.0588C51.7295 69.1661 51.9753 69.2253 52.2252 69.233C52.4751 69.2408 52.7242 69.197 52.9582 69.1041C53.1923 69.0112 53.4067 68.8711 53.5893 68.6917C53.7719 68.5123 53.919 68.2971 54.0223 68.0585C54.1257 67.8199 54.1831 67.5625 54.1914 67.3011C54.1997 67.0396 54.1587 66.7792 54.0708 66.5346C53.9828 66.2901 53.8496 66.0662 53.6788 65.8758C53.508 65.6854 53.3028 65.5323 53.0751 65.425C52.8475 65.3178 52.6016 65.2586 52.3517 65.2508C52.1018 65.2431 51.8528 65.2869 51.6187 65.3798C51.3846 65.4726 51.1702 65.6128 50.9876 65.7922C50.8051 65.9716 50.6579 66.1867 50.5546 66.4253C50.4513 66.6639 50.3938 66.9213 50.3855 67.1828C50.3772 67.4443 50.4182 67.7047 50.5062 67.9493C50.5941 68.1938 50.7273 68.4177 50.8982 68.608C51.069 68.7984 51.2741 68.9516 51.5018 69.0588ZM52.6523 68.4329C52.5393 68.4978 52.4181 68.5313 52.2956 68.5316C52.0483 68.532 51.8109 68.3967 51.6355 68.1553C51.4602 67.914 51.3614 67.5865 51.3608 67.2447C51.3605 67.0755 51.3843 66.908 51.4309 66.7516C51.4775 66.5952 51.546 66.453 51.6323 66.3332C51.7187 66.2134 51.8213 66.1183 51.9344 66.0534C52.0474 65.9884 52.1686 65.9549 52.2911 65.9547C52.5384 65.9543 52.7758 66.0896 52.9511 66.3309C53.1264 66.5723 53.2252 66.8998 53.2258 67.2415C53.2261 67.4107 53.2023 67.5783 53.1557 67.7347C53.1091 67.8911 53.0407 68.0333 52.9543 68.153C52.8679 68.2728 52.7653 68.3679 52.6523 68.4329ZM30.6853 65.3867H29.7965C29.7737 65.3867 29.7552 65.405 29.7552 65.4276V69.0515C29.7552 69.0741 29.7737 69.0923 29.7965 69.0923H30.6853C30.7081 69.0923 30.7266 69.0741 30.7266 69.0515V65.4276C30.7266 65.405 30.7081 65.3867 30.6853 65.3867ZM38.0531 65.3867H38.9419C38.9647 65.3867 38.9832 65.405 38.9832 65.4276V69.0515C38.9832 69.0741 38.9647 69.0923 38.9419 69.0923H38.0531C38.0303 69.0923 38.0118 69.0741 38.0118 69.0515V65.4276C38.0118 65.405 38.0303 65.3867 38.0531 65.3867ZM46.0256 71.9202V74.8008C46.0256 74.8152 46.0198 74.8289 46.0096 74.8391C45.9993 74.8492 45.9854 74.8549 45.971 74.8549L45.0834 74.8573C45.0486 74.8573 45.0312 74.8401 45.0312 74.8056L45.0324 71.9238C45.0324 71.8773 45.0089 71.8541 44.9619 71.8541H44.6001C44.5467 71.8541 44.52 71.8281 44.52 71.7761L44.5236 71.2441C44.5236 71.1809 44.5556 71.1497 44.6195 71.1505L44.9559 71.1541C45.0036 71.1549 45.0287 71.1313 45.0312 71.0832C45.0321 71.0633 45.0329 71.0433 45.0337 71.0232C45.0346 71.0016 45.0354 70.9798 45.0362 70.958C45.0545 70.4653 45.0738 69.9476 45.6735 69.7816C46.0871 69.6663 46.5024 69.6815 46.9192 69.8272C46.9427 69.8352 46.9524 69.8512 46.9484 69.8753L46.8585 70.442C46.8577 70.4471 46.8558 70.4519 46.853 70.4561C46.8514 70.4584 46.8496 70.4605 46.8476 70.4624C46.8459 70.464 46.844 70.4655 46.842 70.4667L46.8401 70.4678L46.8382 70.4688C46.8376 70.4691 46.8369 70.4694 46.8362 70.4697C46.8335 70.4708 46.8306 70.4715 46.8277 70.4719C46.8226 70.4726 46.8174 70.4723 46.8124 70.4708C46.504 70.3772 46.279 70.3856 46.1373 70.4961C46.0088 70.5958 46.0154 70.7617 46.0217 70.9189V70.9189C46.0239 70.9756 46.0261 71.0311 46.022 71.082C46.0179 71.1301 46.0398 71.1537 46.0875 71.1529L46.6898 71.1505C46.7043 71.1505 46.7116 71.1573 46.7116 71.1709L46.7128 71.8349C46.7128 71.8485 46.7064 71.8553 46.6934 71.8553L46.0912 71.8541C46.0475 71.8541 46.0256 71.8762 46.0256 71.9202ZM9.35661 74.8164V72.7319C9.35661 72.7217 9.36071 72.7119 9.36799 72.7047C9.37528 72.6975 9.38516 72.6935 9.39547 72.6935L11.2993 72.6959C11.3096 72.6959 11.3195 72.6999 11.3268 72.7071C11.3341 72.7143 11.3382 72.7241 11.3382 72.7343L11.3418 74.8176C11.3418 74.8278 11.3459 74.8376 11.3532 74.8448C11.3605 74.852 11.3704 74.856 11.3807 74.856L12.312 74.8573C12.3223 74.8573 12.3322 74.8532 12.3395 74.846C12.3468 74.8388 12.3508 74.829 12.3508 74.8188L12.3496 69.8692C12.3496 69.859 12.3455 69.8493 12.3383 69.8421C12.331 69.8349 12.3211 69.8308 12.3108 69.8308L11.3795 69.8296C11.3692 69.8296 11.3593 69.8337 11.352 69.8409C11.3447 69.8481 11.3406 69.8578 11.3406 69.868L11.3394 71.8337C11.3394 71.8439 11.3353 71.8537 11.328 71.8609C11.3207 71.8681 11.3109 71.8721 11.3006 71.8721L9.39547 71.8733C9.38516 71.8733 9.37528 71.8693 9.36799 71.8621C9.36071 71.8549 9.35661 71.8451 9.35661 71.8349V69.8704C9.35661 69.8602 9.35252 69.8505 9.34523 69.8433C9.33795 69.8361 9.32806 69.832 9.31776 69.832L8.37796 69.8284C8.36766 69.8284 8.35778 69.8325 8.35049 69.8397C8.3432 69.8469 8.33911 69.8566 8.33911 69.8668V74.8188C8.33911 74.829 8.3432 74.8388 8.35049 74.846C8.35778 74.8532 8.36766 74.8573 8.37796 74.8573L9.31776 74.8549C9.32806 74.8549 9.33795 74.8508 9.34523 74.8436C9.35252 74.8364 9.35661 74.8266 9.35661 74.8164ZM24.9458 69.8308H24.0594C24.0413 69.8308 24.0266 69.8453 24.0266 69.8632V74.8248C24.0266 74.8427 24.0413 74.8573 24.0594 74.8573H24.9458C24.9639 74.8573 24.9786 74.8427 24.9786 74.8248V69.8632C24.9786 69.8453 24.9639 69.8308 24.9458 69.8308ZM26.0325 69.8308H26.9213C26.9434 69.8308 26.9614 69.8486 26.9614 69.8704V70.6149C26.9614 70.6368 26.9434 70.6545 26.9213 70.6545H26.0325C26.0104 70.6545 25.9924 70.6368 25.9924 70.6149V69.8704C25.9924 69.8486 26.0104 69.8308 26.0325 69.8308ZM51.5952 74.9701C50.6784 75.047 49.6439 74.8609 49.3513 73.8942C49.2793 73.6549 49.2408 73.4035 49.236 73.1402C49.2198 72.2596 49.2169 71.1685 49.2275 69.8668C49.2275 69.842 49.24 69.8296 49.2651 69.8296L50.1928 69.8308C50.2035 69.8308 50.2138 69.8351 50.2215 69.8427C50.2292 69.8503 50.2337 69.8607 50.234 69.8716C50.2381 70.9379 50.2353 71.9974 50.2255 73.0501C50.2231 73.3047 50.2579 73.504 50.33 73.6481C50.5226 74.0323 50.8824 74.1996 51.4094 74.15C52.2242 74.0729 52.2217 73.561 52.2185 72.8824C52.2183 72.8574 52.2182 72.8322 52.2181 72.8068C52.2181 72.7808 52.218 72.7547 52.2181 72.7283V69.8596C52.2181 69.8404 52.2282 69.8308 52.2484 69.8308H53.1931C53.219 69.8308 53.2319 69.8436 53.2319 69.8692C53.2408 70.9027 53.2392 72.0154 53.2271 73.2074C53.2165 74.2921 52.6726 74.8797 51.5952 74.9701ZM61.2869 72.0799C60.9445 71.016 59.7485 70.6642 58.9229 71.4687C58.8783 71.5119 58.8561 71.5023 58.8561 71.4399L58.8536 69.8512C58.8536 69.8376 58.8468 69.8308 58.833 69.8308H57.8981C57.8851 69.8308 57.8786 69.8372 57.8786 69.85V74.7636C57.8786 74.826 57.9098 74.8569 57.9721 74.8561L58.6739 74.8549C58.7403 74.8549 58.7735 74.822 58.7735 74.7564L58.7759 74.4454C58.7759 74.3653 58.8002 74.3573 58.8488 74.4214C59.3235 75.0506 60.1601 75.1647 60.7818 74.6591C61.0514 74.4398 61.2359 74.1416 61.3355 73.7646C61.4836 73.2018 61.4674 72.6402 61.2869 72.0799ZM60.2063 71.9994C60.5159 72.3681 60.4831 73.0273 60.4309 73.4824C60.3702 74.0191 59.8797 74.4982 59.3199 74.168C58.7407 73.8282 58.7504 72.858 58.9156 72.3128C59.0892 71.7424 59.8019 71.5167 60.2063 71.9994ZM67.1807 72.4077L68.2176 71.1673C68.2189 71.1657 68.2204 71.1641 68.2219 71.1628C68.2234 71.1615 68.2249 71.1603 68.2265 71.1592C68.228 71.1583 68.2295 71.1574 68.2311 71.1567C68.2333 71.1556 68.2355 71.1548 68.2378 71.1542C68.2411 71.1533 68.2445 71.1529 68.248 71.1529L69.3177 71.1481C69.3254 71.1479 69.3329 71.15 69.3394 71.154C69.3459 71.1581 69.351 71.1639 69.3541 71.1709C69.3572 71.1778 69.3582 71.1855 69.3569 71.193C69.3556 71.2005 69.3521 71.2074 69.3468 71.2129L68.1885 72.4941C68.1831 72.5001 68.1797 72.5076 68.1788 72.5156C68.178 72.5235 68.1796 72.5316 68.1836 72.5386L69.4634 74.7996C69.4668 74.8055 69.4686 74.8121 69.4686 74.8189C69.4686 74.8257 69.4668 74.8323 69.4633 74.8382C69.4598 74.844 69.4549 74.8489 69.4489 74.8522C69.443 74.8556 69.4362 74.8573 69.4294 74.8573L68.492 74.8537C68.485 74.8536 68.4782 74.8517 68.4722 74.8481C68.4715 74.8477 68.4708 74.8472 68.4702 74.8468L68.4688 74.8458C68.4681 74.8452 68.4674 74.8447 68.4667 74.8441L68.4654 74.8429C68.464 74.8416 68.4627 74.8402 68.4615 74.8387C68.4602 74.837 68.459 74.8352 68.458 74.8332L67.5887 73.2374C67.5857 73.232 67.5814 73.2274 67.5762 73.2239C67.5711 73.2205 67.5652 73.2183 67.559 73.2176C67.5528 73.2169 67.5465 73.2177 67.5407 73.2199C67.5349 73.2221 67.5297 73.2256 67.5255 73.2302L67.1212 73.6961C67.115 73.7031 67.1115 73.712 67.1115 73.7213L67.1127 74.8188C67.1127 74.829 67.1086 74.8388 67.1013 74.846C67.0978 74.8494 67.0938 74.8522 67.0893 74.8541C67.087 74.8551 67.0846 74.8558 67.0821 74.8564C67.0813 74.8566 67.0805 74.8567 67.0797 74.8568L67.0776 74.8571C67.0764 74.8572 67.0751 74.8573 67.0738 74.8573L66.1972 74.8549C66.1869 74.8549 66.177 74.8508 66.1697 74.8436C66.1624 74.8364 66.1583 74.8266 66.1583 74.8164V69.8692C66.1583 69.8591 66.1624 69.8493 66.1697 69.8421C66.1726 69.8392 66.1759 69.8369 66.1795 69.835C66.1849 69.8323 66.1909 69.8308 66.1972 69.8308H67.0726C67.0829 69.8308 67.0928 69.8349 67.1001 69.8421C67.1074 69.8493 67.1115 69.8591 67.1115 69.8692V72.3825C67.1112 72.3905 67.1135 72.3985 67.1181 72.4052C67.1226 72.4119 67.1292 72.417 67.1369 72.4198C67.1445 72.4226 67.1529 72.4229 67.1607 72.4207C67.1686 72.4186 67.1756 72.414 67.1807 72.4077ZM70.139 69.8304L71.0302 69.8288C71.0476 69.8288 71.0618 69.8428 71.0618 69.86L71.0631 70.6213C71.0632 70.6385 71.0491 70.6525 71.0316 70.6526L70.1404 70.6541C70.123 70.6541 70.1088 70.6402 70.1088 70.6229L70.1074 69.8617C70.1074 69.8444 70.1215 69.8304 70.139 69.8304ZM18.7339 71.1505L19.222 71.1517C19.2973 71.1525 19.3354 71.1901 19.3362 71.2645L19.3374 71.7401C19.3374 71.8137 19.3006 71.8509 19.2269 71.8517L18.7497 71.8565C18.7272 71.8565 18.7056 71.8655 18.6896 71.8815C18.6737 71.8975 18.6647 71.9192 18.6647 71.9418L18.6635 73.9903C18.6635 74.0661 18.6937 74.1389 18.7476 74.1928C18.8014 74.2468 18.8746 74.2775 18.9513 74.2785C19.0508 74.2793 19.1435 74.2573 19.2293 74.2124C19.2908 74.1796 19.3253 74.1976 19.3325 74.2665L19.3799 74.7588C19.3872 74.8316 19.3552 74.8769 19.284 74.8945C18.5931 75.0674 17.7346 75.029 17.7249 74.1464C17.716 73.4027 17.7112 72.6614 17.7104 71.9226C17.7104 71.8761 17.6869 71.8533 17.6399 71.8541L17.3352 71.8553C17.2777 71.8553 17.249 71.8269 17.249 71.7701V71.2369C17.249 71.1777 17.2785 71.1485 17.3376 71.1493L17.6411 71.1529C17.6865 71.1537 17.7091 71.1317 17.7091 71.0868L17.714 70.5609C17.714 70.4672 17.7545 70.396 17.8354 70.3471L18.553 69.9113C18.6267 69.8664 18.6635 69.8869 18.6635 69.9725L18.6647 71.082C18.6647 71.1277 18.6878 71.1505 18.7339 71.1505ZM76.9138 73.9687C76.9121 73.2554 76.9117 72.5818 76.9125 71.9478C76.9134 71.8846 76.9457 71.8529 77.0097 71.8529L77.5694 71.8541C77.5864 71.8541 77.5949 71.8457 77.5949 71.8289L77.5925 71.1697C77.5925 71.1677 77.5923 71.166 77.592 71.1643C77.5913 71.1605 77.5897 71.1576 77.5872 71.1555C77.5842 71.1529 77.5799 71.1517 77.5743 71.1517L76.9866 71.1505C76.9421 71.1505 76.919 71.1289 76.9174 71.0856C76.9012 70.6974 76.9049 70.3275 76.9283 69.9761C76.9348 69.8753 76.8947 69.8516 76.8081 69.9053L76.059 70.3676C76.0322 70.3841 76.0101 70.4072 75.9948 70.4348C75.9795 70.4623 75.9715 70.4933 75.9715 70.5249L75.9691 71.082C75.9691 71.0914 75.9672 71.1007 75.9636 71.1094C75.96 71.1181 75.9547 71.126 75.948 71.1326C75.9414 71.1391 75.9335 71.1443 75.9248 71.1478C75.9161 71.1513 75.9068 71.153 75.8975 71.1529L75.5939 71.1505C75.5381 71.1505 75.5101 71.1777 75.5101 71.2321L75.5065 71.7725C75.5065 71.8269 75.534 71.8541 75.5891 71.8541L75.8914 71.8529C75.9456 71.8529 75.9727 71.8797 75.9727 71.9334C75.9671 72.7035 75.9683 73.4339 75.9764 74.1248C75.9873 75.0806 76.9405 75.0686 77.618 74.8741C77.6301 74.8709 77.6358 74.8633 77.635 74.8513L77.5876 74.1944C77.586 74.1736 77.5759 74.1684 77.5573 74.1788C77.2987 74.3217 76.915 74.3313 76.9138 73.9687ZM15.0098 74.9968C14.76 74.989 14.5144 74.9298 14.2868 74.8225C14.0593 74.7152 13.8543 74.5619 13.6836 74.3714C13.5129 74.1809 13.3798 73.957 13.2919 73.7123C13.204 73.4676 13.163 73.207 13.1714 72.9454C13.1797 72.6837 13.2371 72.4262 13.3403 72.1874C13.4436 71.9487 13.5907 71.7334 13.7731 71.5539C13.9556 71.3744 14.1699 71.2342 14.4038 71.1412C14.6377 71.0483 14.8867 71.0044 15.1364 71.0122C15.3861 71.0199 15.6318 71.0791 15.8593 71.1864C16.0869 71.2937 16.2919 71.447 16.4626 71.6375C16.6333 71.828 16.7664 72.052 16.8543 72.2966C16.9422 72.5413 16.9831 72.8019 16.9748 73.0636C16.9665 73.3252 16.9091 73.5827 16.8058 73.8215C16.7026 74.0602 16.5555 74.2755 16.373 74.455C16.1906 74.6345 15.9763 74.7748 15.7423 74.8677C15.5084 74.9607 15.2595 75.0045 15.0098 74.9968ZM15.0814 74.2929C15.2044 74.2927 15.326 74.2592 15.4395 74.1943C15.553 74.1294 15.656 74.0344 15.7427 73.9147C15.8294 73.7951 15.8981 73.653 15.9449 73.4968C15.9917 73.3405 16.0156 73.1731 16.0153 73.004C16.0147 72.6627 15.9155 72.3354 15.7395 72.0943C15.5635 71.8532 15.3252 71.718 15.0769 71.7184C14.9539 71.7187 14.8323 71.7522 14.7188 71.817C14.6053 71.8819 14.5023 71.9769 14.4156 72.0966C14.3289 72.2163 14.2602 72.3583 14.2134 72.5146C14.1666 72.6708 14.1427 72.8382 14.143 73.0073C14.1436 73.3487 14.2428 73.6759 14.4188 73.917C14.5948 74.1581 14.8331 74.2933 15.0814 74.2929ZM21.4707 74.2653C21.0518 74.198 20.8539 73.8006 20.8126 73.4067C20.8054 73.3323 20.8394 73.2951 20.9146 73.2951H23.1731C23.2224 73.2951 23.2471 73.271 23.2471 73.223C23.258 72.308 22.997 71.381 22.0196 71.0952C21.5703 70.964 21.1364 71.012 20.7179 71.2393C19.8449 71.7136 19.7514 72.8988 19.9396 73.7261C20.0963 74.413 20.6135 74.8993 21.3275 74.9641C22.2624 75.049 22.8736 74.7104 23.1609 73.9483C23.1616 73.9466 23.162 73.9448 23.1622 73.943C23.1624 73.9418 23.1624 73.9406 23.1623 73.9394C23.1621 73.9363 23.1612 73.9334 23.1597 73.9307C23.159 73.9295 23.1582 73.9284 23.1572 73.9274C23.1562 73.9261 23.1549 73.925 23.1536 73.9241C23.1531 73.9237 23.1526 73.9234 23.1521 73.9231L23.1511 73.9226C23.1505 73.9223 23.1498 73.922 23.1491 73.9217C23.1482 73.9214 23.1472 73.9211 23.1463 73.9209L23.1451 73.9207L22.2575 73.7934C22.247 73.7917 22.2361 73.7937 22.2268 73.7992C22.2175 73.8047 22.2104 73.8132 22.2065 73.8234C22.0787 74.1756 21.8334 74.3229 21.4707 74.2653ZM22.2235 72.7079L20.8831 72.7175C20.8686 72.7175 20.8547 72.7118 20.8444 72.7017C20.8342 72.6915 20.8284 72.6778 20.8284 72.6635L20.8272 72.6526C20.8264 72.5324 20.8438 72.4133 20.8785 72.302C20.9132 72.1907 20.9645 72.0895 21.0294 72.0041C21.0944 71.9187 21.1717 71.8507 21.257 71.8042C21.3423 71.7577 21.4339 71.7334 21.5266 71.7329H21.5654C21.7525 71.7317 21.9325 71.8269 22.0659 71.9976C22.1994 72.1683 22.2753 72.4004 22.277 72.643L22.2782 72.6538C22.2782 72.6682 22.2724 72.6819 22.2622 72.6921C22.2519 72.7022 22.238 72.7079 22.2235 72.7079ZM28.9065 73.2951C28.6791 73.2951 28.6111 73.3983 28.7025 73.6049C28.7649 73.7458 28.8033 73.8326 28.8179 73.8654C28.9167 74.0872 29.0862 74.2197 29.3267 74.2629C29.6828 74.3261 29.9317 74.1788 30.0734 73.821C30.0815 73.801 30.0965 73.7926 30.1183 73.7958L30.9998 73.9183C31.0176 73.9207 31.0233 73.9303 31.0168 73.9471C30.8638 74.3786 30.6048 74.6707 30.2397 74.8236C29.852 74.987 29.4384 75.0226 28.9988 74.9305C27.8174 74.682 27.611 73.468 27.77 72.4593C27.8732 71.8013 28.3116 71.2501 28.9782 71.0808C29.8245 70.8659 30.672 71.2934 30.9476 72.1243C31.0577 72.4565 31.1148 72.8256 31.1188 73.2314C31.1188 73.273 31.0978 73.2939 31.0557 73.2939L28.9065 73.2951ZM28.7317 72.7163L30.0916 72.7115C30.1019 72.7115 30.1118 72.7074 30.1191 72.7002C30.1264 72.693 30.1305 72.6832 30.1305 72.673V72.607C30.1296 72.3744 30.0546 72.1515 29.9219 71.9873C29.7892 71.8232 29.6096 71.7312 29.4226 71.7317H29.3959C29.3032 71.7319 29.2114 71.7548 29.1259 71.7992C29.0404 71.8435 28.9628 71.9084 28.8975 71.9902C28.8322 72.0719 28.7805 72.1689 28.7454 72.2755C28.7103 72.3822 28.6924 72.4965 28.6928 72.6118V72.6779C28.6928 72.6825 28.6937 72.6871 28.6953 72.6913C28.6972 72.6964 28.7003 72.7011 28.7042 72.705C28.7115 72.7122 28.7214 72.7163 28.7317 72.7163ZM34.1604 71.1673C33.6003 70.8959 33.1647 71.0312 32.8539 71.5731C32.8118 71.6476 32.7908 71.6424 32.7908 71.5575V71.2537C32.7908 71.1857 32.7568 71.1517 32.6888 71.1517H31.9906C31.9275 71.1517 31.8959 71.1829 31.8959 71.2453L31.8947 74.8296C31.8947 74.8473 31.9036 74.856 31.9214 74.856H32.8454C32.8632 74.856 32.8721 74.8473 32.8721 74.8296C32.8697 74.2661 32.8697 73.6781 32.8721 73.0657C32.8721 72.9696 32.8798 72.8736 32.8952 72.7775L32.8964 72.7699C32.959 72.3864 33.0135 72.0529 33.4574 71.9742C33.5908 71.9504 33.7541 72.0279 33.8752 72.0854L33.8787 72.0871C33.9329 72.1127 33.9686 72.0971 33.9856 72.0402L34.2163 71.2946C34.2341 71.2361 34.2154 71.1937 34.1604 71.1673ZM36.7041 73.6433C36.6337 73.5993 36.5584 73.568 36.4783 73.5496C36.0606 73.4544 35.6453 73.3355 35.2325 73.193C34.0875 72.7979 34.3146 71.3198 35.4389 71.088C36.2767 70.9151 37.3307 71.0376 37.5917 71.991C37.6136 72.0719 37.5824 72.1167 37.4982 72.1255L36.8231 72.1975C36.7902 72.2012 36.7572 72.1929 36.7302 72.1744C36.7031 72.1558 36.6839 72.1282 36.6762 72.0967C36.5645 71.644 35.8262 71.6992 35.5106 71.8313C35.4812 71.8435 35.4546 71.8615 35.4323 71.884C35.4101 71.9066 35.3926 71.9334 35.381 71.9628C35.3693 71.9923 35.3637 72.0237 35.3645 72.0554C35.3653 72.087 35.3724 72.1182 35.3855 72.1471C35.4227 72.228 35.4903 72.2836 35.5883 72.314C35.9436 72.4253 36.3079 72.5258 36.681 72.6154C37.2384 72.7487 37.735 73.0525 37.7568 73.6637C37.7665 73.9351 37.6848 74.1864 37.5116 74.4178C37.1582 74.8873 36.5742 74.9918 36.0145 74.9773C35.1418 74.9549 34.593 74.5735 34.368 73.833C34.3615 73.813 34.3688 73.8014 34.3898 73.7982L35.3054 73.6733C35.3207 73.6709 35.3296 73.6769 35.3321 73.6913C35.3984 74.0067 35.5769 74.1932 35.8675 74.2509C36.2366 74.3241 36.879 74.2689 36.7685 73.7345C36.7604 73.6953 36.7389 73.6649 36.7041 73.6433ZM40.8442 74.3663C41.1869 74.753 41.6628 74.9805 42.167 74.9988C42.4167 75.0079 42.6659 74.9653 42.9003 74.8735C43.1347 74.7817 43.3497 74.6425 43.5332 74.4638C43.7166 74.2851 43.8648 74.0705 43.9693 73.8321C44.0738 73.5938 44.1326 73.3364 44.1423 73.0746C44.1619 72.546 43.9804 72.0318 43.6377 71.6451C43.295 71.2583 42.8191 71.0308 42.3149 71.0125C42.0652 71.0035 41.816 71.0461 41.5816 71.1378C41.3472 71.2297 41.1321 71.3689 40.9487 71.5475C40.7653 71.7262 40.6171 71.9409 40.5126 72.1792C40.4081 72.4176 40.3493 72.675 40.3396 72.9367C40.32 73.4653 40.5015 73.9796 40.8442 74.3663ZM42.6015 74.1989C42.4879 74.2636 42.3663 74.2967 42.2435 74.2965C42.1208 74.2963 41.9992 74.2627 41.8859 74.1977C41.7726 74.1327 41.6697 74.0375 41.5831 73.9176C41.4965 73.7977 41.4279 73.6554 41.3812 73.4989C41.3345 73.3424 41.3106 73.1746 41.3109 73.0052C41.3112 72.8359 41.3356 72.6682 41.3829 72.5118C41.4302 72.3555 41.4993 72.2134 41.5863 72.0938C41.6733 71.9742 41.7766 71.8794 41.8901 71.8148C42.0037 71.7502 42.1253 71.717 42.2481 71.7172C42.3709 71.7174 42.4924 71.751 42.6057 71.816C42.719 71.881 42.8219 71.9762 42.9085 72.0961C42.9951 72.216 43.0637 72.3583 43.1104 72.5148C43.1572 72.6714 43.181 72.8391 43.1807 73.0085C43.1804 73.1778 43.156 73.3455 43.1087 73.5019C43.0614 73.6583 42.9923 73.8003 42.9053 73.9199C42.8183 74.0395 42.715 74.1343 42.6015 74.1989ZM63.1471 73.2951C62.9197 73.2951 62.8517 73.3983 62.9431 73.6048C63.0071 73.7489 63.0455 73.8358 63.0585 73.8654C63.1572 74.0872 63.3268 74.2196 63.5672 74.2629C63.9234 74.3261 64.1723 74.1788 64.314 73.821C64.3221 73.801 64.337 73.7926 64.3589 73.7958L65.2368 73.9183C65.2554 73.9207 65.2619 73.9307 65.2562 73.9483C64.9466 74.8476 64.0517 75.1238 63.1823 74.9161C62.0483 74.6447 61.8479 73.4343 62.0131 72.4437C62.0608 72.1571 62.1709 71.8973 62.3433 71.6644C63.1095 70.6257 64.7717 70.9031 65.1833 72.1087C65.3007 72.4529 65.3586 72.8279 65.357 73.2338C65.357 73.2738 65.3367 73.2939 65.2963 73.2939L63.1471 73.2951ZM62.9723 72.7163L64.3322 72.7115L64.3335 72.7114L64.3345 72.7114L64.3357 72.7113L64.3376 72.7111C64.3394 72.7108 64.3412 72.7105 64.3429 72.71C64.3492 72.7082 64.355 72.7049 64.3597 72.7002C64.3669 72.693 64.371 72.6832 64.371 72.673V72.607C64.3702 72.3743 64.2952 72.1515 64.1625 71.9873C64.0297 71.8232 63.8501 71.7312 63.6632 71.7316H63.6364C63.5437 71.7318 63.452 71.7548 63.3665 71.7991C63.281 71.8435 63.2034 71.9084 63.1381 71.9902C63.0728 72.0719 63.0211 72.1689 62.986 72.2755C62.9509 72.3822 62.933 72.4965 62.9334 72.6118V72.6778C62.9334 72.688 62.9375 72.6978 62.9448 72.705C62.9521 72.7122 62.962 72.7163 62.9723 72.7163ZM72.9457 72.3116C72.8186 72.2732 72.7482 72.1943 72.7344 72.0751C72.7041 71.8145 73.1278 71.7341 73.3258 71.7292C73.737 71.718 73.9932 71.8689 74.0944 72.1819C74.1008 72.2012 74.1142 72.2096 74.1344 72.2072L74.9637 72.1159C74.9661 72.1156 74.9684 72.1148 74.9705 72.1136C74.9726 72.1124 74.9745 72.1109 74.9759 72.109C74.977 72.1077 74.9778 72.1062 74.9784 72.1047C74.9787 72.104 74.9789 72.1033 74.9791 72.1026C74.9797 72.1003 74.9798 72.0978 74.9795 72.0955C74.8374 71.3462 74.2656 71.0568 73.5382 71.0292C72.7199 70.9968 71.7861 71.2838 71.8578 72.2816C71.891 72.7467 72.1626 73.0605 72.6725 73.223C73.0967 73.3583 73.4994 73.4704 73.8806 73.5592C74.0846 73.6073 74.2158 73.773 74.1308 73.9867C74.0081 74.2953 73.5152 74.3073 73.248 74.2533C72.9437 74.1924 72.7616 74.0059 72.7017 73.6937C72.6984 73.6785 72.6887 73.6721 72.6725 73.6745L71.7424 73.8018C71.7279 73.8034 71.7226 73.8114 71.7266 73.8258C71.9468 74.4742 72.3775 74.8465 73.0186 74.9425C73.9863 75.0878 75.2041 74.7828 75.1131 73.57C75.073 73.0381 74.5727 72.7487 74.1029 72.631C73.7175 72.5342 73.3318 72.4277 72.9457 72.3116ZM80.4131 74.5174C80.3362 74.5775 80.2581 74.6403 80.1787 74.706C79.9707 74.8781 79.6938 74.9673 79.3482 74.9737C78.4278 74.9881 77.9057 74.2148 78.2093 73.3863C78.3323 73.0493 78.6031 72.8255 79.0216 72.7151C79.3583 72.6262 79.7121 72.5406 80.0828 72.4581C80.167 72.4397 80.2492 72.4117 80.3293 72.3741C80.3673 72.3556 80.3876 72.3256 80.39 72.284C80.4062 71.9958 80.2912 71.8233 80.0452 71.7665C79.5781 71.6568 79.2681 71.7773 79.1151 72.1279C79.0924 72.1791 79.0527 72.2019 78.9961 72.1963L78.3222 72.1231C78.3118 72.1221 78.3018 72.1188 78.2929 72.1135C78.289 72.1113 78.2853 72.1086 78.2819 72.1057C78.2788 72.103 78.276 72.1001 78.2734 72.0969C78.2723 72.0955 78.2712 72.0941 78.2701 72.0926C78.2674 72.0886 78.265 72.0844 78.2631 72.08C78.2608 72.0749 78.2592 72.0696 78.2582 72.0641C78.2571 72.0585 78.2567 72.0529 78.257 72.0472C78.2571 72.0451 78.2573 72.043 78.2576 72.0408C78.2578 72.0394 78.258 72.0381 78.2583 72.0367C78.2585 72.0355 78.2588 72.0343 78.2591 72.033C78.3813 71.5655 78.6448 71.2689 79.0495 71.1433C79.8509 70.8959 81.2958 70.9223 81.3092 72.1015C81.3164 72.6946 81.3201 73.3123 81.3201 73.9543C81.3201 74.2473 81.3804 74.5238 81.501 74.784C81.5229 74.8304 81.5079 74.8537 81.4561 74.8537L80.668 74.856C80.6162 74.8568 80.5818 74.8328 80.5648 74.784L80.4799 74.5367C80.4669 74.4998 80.4446 74.4934 80.4131 74.5174ZM79.7647 74.2617C80.398 74.1051 80.3949 73.6618 80.3913 73.1402L80.3912 73.1329C80.3912 73.0817 80.3657 73.0629 80.3147 73.0765C80.0387 73.1526 79.7655 73.225 79.4951 73.2939C78.7763 73.4752 79.1066 74.4238 79.7647 74.2617ZM84.7709 71.0748C84.1848 70.9403 83.6935 71.1044 83.2968 71.5671C83.2321 71.6432 83.2005 71.6316 83.2021 71.5323L83.2058 71.2057C83.2058 71.204 83.2058 71.2024 83.2056 71.2007C83.2055 71.1994 83.2054 71.1981 83.2052 71.1968C83.205 71.1959 83.2049 71.195 83.2047 71.1941C83.2041 71.191 83.2031 71.188 83.202 71.1851C83.201 71.1829 83.1999 71.1806 83.1987 71.1785C83.1982 71.1776 83.1976 71.1767 83.197 71.1758C83.195 71.1728 83.1927 71.1701 83.1902 71.1676C83.1851 71.1626 83.179 71.1585 83.1723 71.1558C83.1656 71.1531 83.1584 71.1517 83.1511 71.1517H82.391C82.336 71.1517 82.3085 71.1793 82.3085 71.2345L82.3073 74.8056C82.3073 74.819 82.3128 74.8318 82.3225 74.8413C82.3323 74.8508 82.3456 74.8561 82.3595 74.8561H83.2191C83.2547 74.8561 83.2721 74.8385 83.2713 74.8032C83.2349 73.6081 83.2539 72.7919 83.3284 72.3549C83.4571 71.5996 84.6446 71.4483 84.6397 72.4029C84.6365 73.2418 84.6361 74.0411 84.6385 74.8008C84.6385 74.8385 84.6579 74.8573 84.6968 74.8573L85.582 74.8549C85.595 74.8549 85.6074 74.8497 85.6167 74.8405C85.626 74.8313 85.6314 74.8188 85.6317 74.8056C85.6366 74.0475 85.6342 73.193 85.6245 72.242C85.6184 71.674 85.35 71.2081 84.7709 71.0748ZM26.9213 71.1505H26.0325C26.0097 71.1505 25.9912 71.1687 25.9912 71.1913V74.8152C25.9912 74.8378 26.0097 74.856 26.0325 74.856H26.9213C26.9441 74.856 26.9625 74.8378 26.9625 74.8152V71.1913C26.9625 71.1687 26.9441 71.1505 26.9213 71.1505ZM54.1401 71.8541H55.7162C55.7915 71.8541 55.8064 71.8834 55.7611 71.9418C55.171 72.7039 54.6044 73.4468 54.0612 74.1704C53.9766 74.2828 53.9821 74.4293 53.9875 74.5737C53.99 74.6407 53.9925 74.7072 53.9859 74.7696C53.9803 74.8272 54.007 74.8561 54.0661 74.8561L57.1987 74.8549C57.2133 74.8549 57.2206 74.8481 57.2206 74.8344L57.2194 74.1764C57.2194 74.162 57.2117 74.1548 57.1963 74.1548L55.3094 74.1536C55.3053 74.1536 55.3012 74.1528 55.2974 74.1513C55.2954 74.1506 55.2934 74.1496 55.2916 74.1484C55.2862 74.1451 55.2819 74.1404 55.2792 74.1348C55.2764 74.1292 55.2753 74.1229 55.2759 74.1167C55.2765 74.1105 55.2789 74.1045 55.2827 74.0996C55.8178 73.4223 56.3504 72.7339 56.8806 72.0342C56.9002 72.0082 56.921 71.9828 56.9418 71.9576L56.9419 71.9574C57.0293 71.8512 57.1155 71.7463 57.1028 71.596C57.0923 71.4719 57.0935 71.3486 57.1064 71.2261C57.1113 71.1765 57.0886 71.1517 57.0384 71.1517H54.1499C54.1272 71.1517 54.1159 71.1629 54.1159 71.1853L54.1122 71.8265C54.1122 71.8449 54.1215 71.8541 54.1401 71.8541ZM71.0309 71.1505H70.1397C70.1223 71.1505 70.1081 71.1644 70.1081 71.1817V74.8248C70.1081 74.8421 70.1223 74.856 70.1397 74.856H71.0309C71.0484 74.856 71.0625 74.8421 71.0625 74.8248V71.1817C71.0625 71.1644 71.0484 71.1505 71.0309 71.1505ZM0.857178 44.3852V48.8521C3.08039 53.026 6.41824 56.0855 11.0504 57.5277C14.4575 58.5892 18.2446 58.6864 21.8277 58.2782C31.2839 57.2023 39.8672 52.6561 47.7935 47.6693C51.1293 45.5695 54.8351 43.1716 58.9107 40.4755C63.7991 37.2406 68.9753 34.0441 74.1782 31.5249C77.8022 29.7701 81.7763 28.4049 86.1004 27.429C91.7477 26.1538 99.0135 25.3985 103.522 29.7309C105.807 31.9259 106.861 34.9075 107.835 37.8638C108.09 38.6379 108.392 39.3852 108.741 40.1056C108.821 40.2705 108.859 40.2613 108.857 40.078C108.821 36.956 108.062 33.7199 106.941 30.7576C106.232 28.8836 105.38 27.2213 104.384 25.7708C104.021 25.2432 103.639 24.7681 103.237 24.3454C99.7995 20.7439 95.6097 18.7782 90.6671 18.4484C88.7575 18.3212 86.7545 18.3896 84.658 18.6538C78.0855 19.4835 71.8323 21.9391 66.026 25.0479C62.9354 26.7026 59.7967 28.5478 56.6098 30.5835C55.065 31.5705 53.5178 32.5729 51.967 33.5775C47.1147 36.7208 42.2279 39.8866 37.2748 42.6765C30.536 46.4709 23.2447 49.635 15.4896 50.3939C14.2656 50.5139 12.9826 50.5464 11.6405 50.4911C10.1964 50.4319 8.78998 50.1717 7.42117 49.7106C4.59207 48.7564 2.40407 46.9813 0.857178 44.3852ZM81.7323 22.8871C81.7396 22.8923 81.7483 22.895 81.7572 22.8949L84.6215 22.8709C84.6304 22.8707 84.6391 22.8734 84.6464 22.8785C84.6536 22.8835 84.659 22.8908 84.6617 22.8992C84.6644 22.9075 84.6644 22.9165 84.6615 22.9249C84.6586 22.9332 84.6531 22.9404 84.6458 22.9453L82.3145 24.5916C82.3074 24.5966 82.302 24.6037 82.2991 24.6119C82.2963 24.6201 82.2962 24.629 82.2988 24.6372L83.207 27.3258C83.2096 27.3339 83.2095 27.3427 83.2068 27.3508C83.2041 27.3589 83.1989 27.3659 83.192 27.371C83.185 27.376 83.1766 27.3788 83.168 27.3788C83.1593 27.3789 83.1509 27.3763 83.1439 27.3714L80.8393 25.6867C80.8322 25.6816 80.8237 25.6789 80.815 25.6789C80.8063 25.6789 80.7978 25.6816 80.7907 25.6867L78.4862 27.3714C78.4791 27.3763 78.4707 27.3789 78.462 27.3788C78.4534 27.3788 78.445 27.376 78.438 27.371C78.4311 27.3659 78.4259 27.3589 78.4232 27.3508C78.4205 27.3427 78.4204 27.3339 78.423 27.3258L79.3312 24.6372C79.3339 24.629 79.3337 24.6201 79.3309 24.6119C79.3281 24.6037 79.3226 24.5966 79.3155 24.5916L76.9842 22.9453C76.9769 22.9404 76.9714 22.9332 76.9685 22.9249C76.9656 22.9165 76.9656 22.9075 76.9683 22.8992C76.971 22.8908 76.9764 22.8835 76.9837 22.8785C76.9909 22.8734 76.9996 22.8707 77.0085 22.8709L79.8728 22.8949C79.8817 22.895 79.8904 22.8923 79.8977 22.8871C79.9049 22.8819 79.9102 22.8745 79.9129 22.8661L80.7762 20.1643C80.779 20.1564 80.7843 20.1496 80.7913 20.1447C80.7982 20.1399 80.8065 20.1373 80.815 20.1373C80.8235 20.1373 80.8318 20.1399 80.8388 20.1447C80.8457 20.1496 80.851 20.1564 80.8539 20.1643L81.7172 22.8661C81.7198 22.8745 81.7251 22.8819 81.7323 22.8871ZM67.2411 28.6424C67.2479 28.6474 67.2561 28.6501 67.2645 28.6502L70.1227 28.6334C70.1309 28.6337 70.1388 28.6365 70.1454 28.6414C70.1519 28.6464 70.1568 28.6531 70.1593 28.6609C70.1618 28.6686 70.1619 28.6769 70.1594 28.6847C70.157 28.6924 70.1523 28.6993 70.1458 28.7043L67.8242 30.3529C67.8174 30.3578 67.8122 30.3648 67.8096 30.3728C67.807 30.3808 67.807 30.3894 67.8097 30.3974L68.7082 33.0799C68.7106 33.0877 68.7105 33.0961 68.7079 33.1039C68.7053 33.1116 68.7003 33.1184 68.6937 33.1233C68.687 33.1282 68.679 33.1309 68.6707 33.1311C68.6624 33.1312 68.6543 33.1289 68.6475 33.1243L66.3453 31.4492C66.3383 31.444 66.3298 31.4411 66.321 31.4411C66.3123 31.4411 66.3037 31.444 66.2968 31.4492L63.9946 33.1243C63.9878 33.1289 63.9796 33.1312 63.9714 33.1311C63.9631 33.1309 63.9551 33.1282 63.9484 33.1233C63.9417 33.1184 63.9368 33.1116 63.9342 33.1039C63.9328 33.0998 63.9322 33.0956 63.9322 33.0914C63.9322 33.0875 63.9328 33.0836 63.9339 33.0799L64.8324 30.3974C64.8351 30.3894 64.8351 30.3808 64.8325 30.3728C64.8298 30.3648 64.8247 30.3578 64.8179 30.3529L62.4963 28.7043C62.4898 28.6993 62.4851 28.6924 62.4826 28.6847C62.4802 28.6769 62.4803 28.6686 62.4828 28.6609C62.4853 28.6531 62.4902 28.6464 62.4967 28.6414C62.5033 28.6365 62.5112 28.6337 62.5194 28.6334L65.3776 28.6502C65.386 28.6501 65.3942 28.6474 65.4009 28.6424C65.4077 28.6375 65.4127 28.6305 65.4152 28.6226L66.2834 25.9293C66.2862 25.9216 66.2913 25.915 66.2981 25.9104C66.3048 25.9057 66.3128 25.9032 66.321 25.9032C66.3293 25.9032 66.3373 25.9057 66.344 25.9104C66.3507 25.915 66.3559 25.9216 66.3587 25.9293L67.2268 28.6226C67.2294 28.6305 67.2344 28.6375 67.2411 28.6424ZM54.1775 37.2077C54.1906 37.217 54.2065 37.2218 54.2227 37.2214L57.0117 37.1757C57.0276 37.1755 57.0431 37.1802 57.0561 37.1893C57.069 37.1985 57.0786 37.2114 57.0835 37.2264C57.0884 37.2413 57.0883 37.2574 57.0833 37.2723C57.0782 37.2871 57.0685 37.3 57.0554 37.309L54.7715 38.894C54.7584 38.9033 54.7488 38.9165 54.744 38.9316C54.7391 38.9468 54.7394 38.9631 54.7448 38.9781L55.6494 41.5874C55.6542 41.6021 55.6542 41.6179 55.6493 41.6326C55.6444 41.6473 55.635 41.6601 55.6223 41.6692C55.6096 41.6783 55.5944 41.6831 55.5788 41.6831C55.5631 41.6831 55.5479 41.6781 55.5353 41.669L53.306 40.012C53.2931 40.0022 53.2773 39.9969 53.2611 39.9969C53.2448 39.9969 53.229 40.0022 53.2161 40.012L50.9868 41.669C50.9742 41.6781 50.959 41.6831 50.9433 41.6831C50.9277 41.6831 50.9125 41.6783 50.8998 41.6692C50.8871 41.6601 50.8777 41.6473 50.8728 41.6326C50.868 41.6179 50.8679 41.6021 50.8727 41.5874L51.7773 38.9781C51.7827 38.9631 51.783 38.9468 51.7781 38.9316C51.7733 38.9165 51.7636 38.9033 51.7506 38.894L49.4667 37.309C49.4536 37.3 49.4439 37.2871 49.4389 37.2723C49.4338 37.2574 49.4337 37.2413 49.4386 37.2264C49.4435 37.2114 49.4531 37.1985 49.466 37.1893C49.479 37.1802 49.4945 37.1755 49.5104 37.1757L52.2994 37.2214C52.3156 37.2218 52.3315 37.217 52.3446 37.2077C52.3578 37.1984 52.3675 37.185 52.3723 37.1697L53.1906 34.5316C53.1955 34.5169 53.2049 34.5041 53.2175 34.495C53.2302 34.486 53.2454 34.4811 53.2611 34.4811C53.2767 34.4811 53.2919 34.486 53.3046 34.495C53.3172 34.5041 53.3266 34.5169 53.3315 34.5316L54.1498 37.1697C54.1546 37.185 54.1643 37.1984 54.1775 37.2077ZM42.0308 44.6718C42.0429 44.6803 42.0574 44.6846 42.0722 44.6842L44.8794 44.6397C44.894 44.6395 44.9083 44.6438 44.9202 44.6522C44.9321 44.6606 44.9409 44.6725 44.9454 44.6863C44.9499 44.7 44.9498 44.7148 44.9451 44.7285C44.9405 44.7422 44.9315 44.754 44.9195 44.7622L42.621 46.3569C42.6091 46.3654 42.6003 46.3774 42.5959 46.3913C42.5915 46.4051 42.5918 46.42 42.5967 46.4337L43.5073 49.061C43.5122 49.0747 43.5125 49.0896 43.5081 49.1034C43.5038 49.1173 43.495 49.1294 43.4831 49.1379C43.4712 49.1464 43.4569 49.1509 43.4422 49.1506C43.4275 49.1504 43.4133 49.1455 43.4017 49.1367L41.1579 47.4676C41.146 47.4586 41.1315 47.4538 41.1166 47.4538C41.1017 47.4538 41.0871 47.4586 41.0753 47.4676L38.8314 49.1367C38.8198 49.1455 38.8056 49.1504 38.7909 49.1506C38.7763 49.1509 38.7619 49.1464 38.75 49.1379C38.7382 49.1294 38.7294 49.1173 38.725 49.1034C38.7206 49.0896 38.7209 49.0747 38.7258 49.061L39.6365 46.4337C39.6413 46.42 39.6416 46.4051 39.6372 46.3913C39.6329 46.3774 39.6241 46.3654 39.6122 46.3569L37.3137 44.7622C37.3017 44.754 37.2927 44.7422 37.288 44.7285C37.2834 44.7148 37.2833 44.7 37.2878 44.6863C37.2922 44.6725 37.3011 44.6606 37.313 44.6522C37.3249 44.6438 37.3392 44.6395 37.3537 44.6397L40.161 44.6842C40.1758 44.6846 40.1903 44.6803 40.2023 44.6718C40.2144 44.6634 40.2233 44.6513 40.2278 44.6373L41.051 41.9824C41.055 41.9682 41.0635 41.9557 41.0754 41.9468C41.0872 41.9378 41.1017 41.933 41.1166 41.933C41.1315 41.933 41.146 41.9378 41.1578 41.9468C41.1696 41.9557 41.1782 41.9682 41.1821 41.9824L42.0054 44.6373C42.0098 44.6513 42.0188 44.6634 42.0308 44.6718ZM29.0921 50.7127C29.1006 50.7187 29.1109 50.7219 29.1214 50.7217L31.9833 50.6869C31.9937 50.6867 32.0039 50.69 32.0123 50.696C32.0208 50.7021 32.027 50.7106 32.0301 50.7204C32.0333 50.7303 32.0331 50.7408 32.0297 50.7506C32.0263 50.7603 32.0198 50.7687 32.0112 50.7745L29.6763 52.41C29.6676 52.4159 29.6611 52.4246 29.6578 52.4346C29.6545 52.4445 29.6546 52.4553 29.6581 52.4652L30.5761 55.1453C30.5795 55.1551 30.5797 55.1657 30.5765 55.1755C30.5734 55.1854 30.5672 55.194 30.5587 55.2C30.5503 55.2061 30.5401 55.2093 30.5296 55.2092C30.5192 55.2091 30.5091 55.2056 30.5008 55.1994L28.2059 53.5087C28.1975 53.5024 28.1873 53.4991 28.1768 53.4991C28.1663 53.4991 28.1561 53.5024 28.1476 53.5087L25.8528 55.1994C25.8445 55.2056 25.8344 55.2091 25.8239 55.2092C25.8135 55.2093 25.8033 55.2061 25.7949 55.2C25.7864 55.194 25.7802 55.1854 25.777 55.1755C25.7739 55.1657 25.7741 55.1551 25.7775 55.1453L26.6955 52.4652C26.6989 52.4553 26.699 52.4445 26.6958 52.4346C26.6925 52.4246 26.686 52.4159 26.6772 52.41L24.3423 50.7745C24.3337 50.7687 24.3273 50.7603 24.3239 50.7506C24.3205 50.7408 24.3203 50.7303 24.3235 50.7204C24.3266 50.7106 24.3328 50.7021 24.3412 50.696C24.3497 50.69 24.3598 50.6867 24.3703 50.6869L27.2321 50.7217C27.2426 50.7219 27.2529 50.7187 27.2615 50.7127C27.27 50.7066 27.2763 50.698 27.2795 50.6881L28.1307 47.9863C28.1338 47.9767 28.14 47.9683 28.1483 47.9624C28.1566 47.9565 28.1666 47.9533 28.1768 47.9533C28.187 47.9533 28.197 47.9565 28.2053 47.9624C28.2136 47.9683 28.2197 47.9767 28.2229 47.9863L29.0741 50.6881C29.0772 50.698 29.0836 50.7066 29.0921 50.7127Z" fill="black"/>
</svg>
