<svg width="210" height="200" viewBox="0 0 210 200" fill="none" xmlns="http://www.w3.org/2000/svg">
<g clip-path="url(#clip0_104_18166)">
<path d="M103.626 118.24H95.4935L89.5136 104.867C87.6821 105.893 86.2917 107.671 84.8398 109.528C83.7037 110.981 82.5301 112.482 81.0781 113.709C79.3882 115.135 77.4237 116.398 74.9682 117.26C73.856 117.647 71.9638 118.152 71.256 118.226C70.9527 118.256 70.7505 118.241 70.7071 118.137C70.6783 118.048 70.7505 117.988 71.0683 117.825C71.1325 117.793 71.2325 117.747 71.3586 117.689C71.9416 117.418 73.0843 116.889 73.856 116.339C75.026 115.492 75.6904 114.586 75.7482 113.887C75.6892 113.672 75.5621 113.408 75.4092 113.09C74.7377 111.694 73.568 109.263 75.4737 105.402C75.8105 104.715 76.1285 104.108 76.4223 103.546C76.8594 102.711 77.2427 101.979 77.5537 101.241C78.1459 99.8296 78.5793 97.8383 78.7237 96.3523C78.7381 96.2632 78.7526 96.2632 78.7959 96.3226C79.937 97.5114 84.357 102.177 83.707 106.829C85.1803 106.249 87.7224 104.481 88.8924 103.545C89.1673 103.324 89.4211 103.102 89.6637 102.89C90.5174 102.144 91.2344 101.517 92.258 101.494C92.9155 101.486 93.2354 101.665 93.5562 101.845C93.8062 101.985 94.0567 102.125 94.4679 102.177C94.699 102.207 95.0457 102.163 95.219 102.073C95.2912 102.044 95.2768 101.955 95.1612 101.925C94.6323 101.795 94.2685 101.534 93.9053 101.273C93.3957 100.908 92.8872 100.543 91.9258 100.543C90.8172 100.543 89.8723 101.334 89.1094 101.972C88.8582 102.182 88.6268 102.376 88.4158 102.519L84.2414 93.5734C82.5081 89.8288 83.0281 87.1094 86.8702 81.7598L103.626 118.24Z" fill="#1E1852"/>
<path d="M116.899 118.255H111.858C109.735 118.255 108.651 117.772 107.871 116.7C107.034 115.568 107.034 113.831 107.034 112.201V81.7754H113.534V113.182C113.534 115.673 113.794 117.44 116.899 118.15V118.255Z" fill="#1E1852"/>
<path d="M124.264 118.255H129.305V118.15C126.2 117.44 125.94 115.673 125.94 113.182V81.7754H119.44V112.201C119.44 113.831 119.44 115.568 120.278 116.7C121.058 117.772 122.141 118.255 124.264 118.255Z" fill="#1E1852"/>
</g>
<defs>
<clipPath id="clip0_104_18166">
<rect width="60" height="38" fill="white" transform="translate(70 81)"/>
</clipPath>
</defs>
</svg>
