<svg width="212" height="200" viewBox="0 0 212 200" fill="none" xmlns="http://www.w3.org/2000/svg">
<g clip-path="url(#clip0_104_18171)">
<path fill-rule="evenodd" clip-rule="evenodd" d="M125.612 119.459C125.677 119.379 125.738 119.254 126.067 119.173C126.067 119.173 137.244 115.289 152.112 116.066C152.112 116.066 152.957 116.034 152.728 116.411C152.593 116.633 152.343 116.647 151.866 116.673C151.866 116.673 151.704 116.698 151.071 116.691C151.071 116.691 152.592 117.295 146.589 117.169C146.589 117.169 147.12 117.723 144.912 117.563C144.912 117.563 138.757 117.276 126.316 119.584C126.316 119.584 125.337 119.8 125.612 119.459Z" fill="#000105"/>
<path fill-rule="evenodd" clip-rule="evenodd" d="M158.528 114.258C158.528 114.258 160.268 115.727 158.109 115.651C158.109 115.651 157.689 115.684 157.432 114.8C157.432 114.8 156.69 113.065 156.744 112.409C156.67 112.493 156.259 113 156.025 113.559C155.889 113.884 155.833 113.997 155.639 114.307C155.532 114.461 155.43 114.602 155.334 114.691C154.381 115.596 154.288 114.441 154.288 114.441C154.092 113.456 154.586 111.876 154.586 111.876C154.944 110.785 155.47 111.234 155.47 111.234C156.202 111.43 155.907 112.151 155.907 112.151C155.75 112.7 155.611 112.58 155.611 112.58C155.43 112.703 155.38 112.966 155.368 113.133C155.368 113.133 155.3 113.743 155.567 113.274C155.768 112.858 156.156 112.163 156.438 111.94C156.438 111.94 156.855 111.487 157.099 111.86C157.099 111.86 158.149 114.019 158.528 114.258ZM128.766 118.911C129.211 119.547 129.553 119.996 129.46 120.08C129.157 120.348 127.792 119.259 127.792 119.259C125.419 117.245 124.369 114.678 124.14 114.054C124.106 113.963 124.173 113.882 124.173 113.882C124.254 113.79 124.384 113.738 124.728 113.7C124.546 113.61 124.49 113.587 124.506 113.526C124.54 113.425 124.873 113.428 124.873 113.428C125.136 113.416 125.327 113.399 125.327 113.399C125.711 113.357 125.906 113.321 125.906 113.321C126.726 113.186 127.046 112.822 127.046 112.822C127.857 111.983 126.555 111.141 126.555 111.141C123.258 109.202 120.601 110.121 120.601 110.121C120.456 110.163 120.347 110.164 120.188 110.111C119.842 109.993 120.456 109.492 120.456 109.492C122.093 108.106 122.952 108.521 122.952 108.521C126.13 108.737 127.528 110.437 127.528 110.437C128.635 111.636 128.348 112.591 128.199 112.869C127.657 113.884 126.373 113.909 126.373 113.909C126.174 113.921 125.999 113.926 125.844 113.927C125.991 114.099 126.099 114.399 126.099 114.399C126.346 115.19 128.766 118.911 128.766 118.911ZM124.496 110.766C124.675 111.099 124.436 111.629 124.436 111.629C123.407 113.784 122.119 118.873 121.862 119.911L121.867 119.909C121.867 119.909 121.861 119.925 121.852 119.954C121.828 120.047 121.816 120.097 121.816 120.097C121.799 120.174 121.781 120.243 121.762 120.308C121.735 120.467 121.713 120.668 121.718 120.896L121.715 120.895C121.724 121.173 121.712 121.453 121.63 121.492C121.399 121.6 121.28 121.283 121.215 120.938C120.988 120.883 120.801 120.583 120.801 120.583C119.967 120.011 120.591 118.42 120.591 118.42C121.158 116.117 123.968 111.259 123.968 111.259C124.298 110.716 124.435 110.65 124.496 110.766ZM130.973 115.277C130.902 115.392 130.835 115.522 130.654 115.639C130.654 115.639 129.726 116.221 129.758 115.4C129.758 115.4 129.789 114.944 129.942 114.521C129.942 114.521 130.371 113.409 131.033 112.76C131.094 112.698 131.147 112.692 131.181 112.739C131.273 112.868 131.289 113.015 131.359 113.136C131.378 113.169 131.398 113.202 131.42 113.234C131.341 113.65 131.137 114.441 131.102 115.039C131.078 115.123 131.02 115.199 130.973 115.277ZM133.42 114.763C133.42 114.763 133.417 114.735 133.392 114.714C133.331 114.67 133.03 114.81 132.732 114.994C132.684 115.023 132.642 115.048 132.6 115.07C132.492 115.14 132.386 115.21 132.343 115.247C132.343 115.247 132.15 115.404 132.171 115.051C132.171 115.047 132.172 115.043 132.172 115.038C132.176 114.96 132.191 114.86 132.195 114.753C132.195 114.753 132.459 113.677 132.572 113.375C132.572 113.375 132.635 113.091 132.734 112.768C132.734 112.768 133.182 112.29 132.358 112.135C132.358 112.135 131.963 111.143 131.539 112.706C131.51 112.545 131.366 112.297 131.144 112.199C131.1 112.173 131.036 112.154 130.949 112.146C130.916 112.142 130.895 112.152 130.823 112.142C130.823 112.142 130.426 112.002 130.004 112.544C129.554 113.051 128.24 114.663 128.541 116.012C128.541 116.012 128.702 116.709 129.308 116.707C129.308 116.707 130.111 116.716 130.718 116.127C130.718 116.127 130.899 115.963 131.094 115.72C131.102 115.803 131.114 115.894 131.137 115.984C131.142 116.002 131.145 116.019 131.149 116.036C131.149 116.036 131.172 116.191 131.298 116.311C131.39 116.397 131.538 116.463 131.774 116.431C131.798 116.426 131.823 116.42 131.848 116.411C131.848 116.411 132.697 116.201 132.677 115.832C132.666 115.65 132.731 115.614 132.731 115.614C132.731 115.614 132.784 115.583 132.766 115.519C132.766 115.519 133.443 115.055 133.42 114.763ZM148.098 111.951C148.477 112.222 149.111 112.82 149.006 113.445C149.006 113.445 148.823 114.854 146.546 114.806C146.546 114.806 146.298 114.792 146.293 114.635C146.294 114.519 146.341 114.427 146.536 114.35C146.536 114.35 148.017 113.861 147.046 112.039C147.046 112.039 146.681 112.329 146.167 112.738C146.167 112.738 145.808 113.142 145.834 112.567C145.834 112.567 145.865 112.25 145.999 112.127C145.999 112.127 146.824 111.628 147.1 110.849C147.236 110.335 147.972 109.9 148.043 110.333C148.076 110.529 147.857 110.649 147.748 110.788C147.502 111.104 147.819 111.77 148.098 111.951ZM151.4 110.897C151.797 110.36 152.075 110.602 152.075 110.602C152.113 110.624 152.192 110.598 152.226 110.595C152.752 110.555 152.319 111.085 152.319 111.085C151.875 111.702 151.473 112.858 151.473 112.858C151.371 113.118 151.273 113.54 151.273 113.54C151.112 114.241 151.834 113.745 151.834 113.745C151.937 113.671 152.031 113.564 152.081 113.517C152.163 113.437 152.235 113.428 152.235 113.428C152.386 113.406 152.13 112.604 152.13 112.604C152.019 112.286 152.039 112.272 152.039 112.272C151.969 111.882 152.181 111.782 152.181 111.782C152.406 111.641 152.588 112.01 152.588 112.01C152.79 112.324 152.969 113.152 152.969 113.152C153.141 113.885 152.604 113.827 152.604 113.827C152.381 113.873 152.001 114.26 152.001 114.26C151.407 114.763 150.581 114.811 150.581 114.811C149.76 114.841 149.825 114.101 149.825 114.101C149.82 113.301 151.4 110.897 151.4 110.897ZM141.945 109.007C141.921 109.226 141.807 109.41 141.651 109.506C141.429 109.678 140.968 109.972 140.82 109.932C140.669 109.892 140.839 109.406 140.847 109.269C140.857 109.115 140.856 109.003 140.886 108.861C140.934 108.529 141.194 108.289 141.479 108.32C141.773 108.352 141.982 108.66 141.945 109.007ZM143.931 111.169C143.931 111.169 145.272 112.629 145.217 113.641C145.217 113.641 145.035 115.049 142.756 115.001C142.756 115.001 142.194 114.915 142.747 114.546C142.747 114.546 144.228 114.055 143.258 112.235C143.258 112.235 142.341 113.335 141.735 113.945L141.739 113.95C140.004 115.683 139.663 115.047 139.663 115.047C139.001 114.08 139.486 111.962 139.486 111.962C139.742 110.843 140.308 111.239 140.308 111.239C141.136 111.377 140.826 112.109 140.826 112.109C140.72 112.671 140.586 112.61 140.586 112.61C140.331 112.819 140.278 113.747 140.278 113.747C140.38 114.258 139.936 114.968 141.221 113.827C141.525 113.515 143.064 111.743 143.309 111.045C143.309 111.045 143.566 110.365 143.931 111.169ZM135.362 114.683C135.362 114.683 135.191 114.567 135.202 114.045C135.202 114.045 135.251 113.135 135.854 112.408C135.854 112.408 136.022 112.19 136.159 112.164C136.205 112.155 136.279 112.223 136.313 112.501C136.321 112.569 136.129 112.583 136.2 112.8C136.2 112.8 136.52 113.631 137.196 113.257C137.168 113.427 137.138 113.598 137.106 113.771C136.753 114.27 136.013 115.136 135.362 114.683ZM138.237 106.895C138.237 106.895 137.497 105.94 137.622 107.041C137.622 107.041 137.723 109.338 137.353 112.196C137.31 112.085 137.253 111.971 137.175 111.86C137.175 111.86 136.53 110.98 135.806 111.223C135.806 111.223 134.883 111.52 134.348 112.947C134.348 112.947 133.971 113.932 134.077 114.674C134.077 114.674 134.042 116.623 136.361 115.246C136.361 115.246 136.607 115.093 136.894 114.794C136.838 115.038 136.747 115.197 136.739 115.447C136.739 115.447 136.656 115.962 136.886 116.092C136.974 116.141 137.069 116.073 137.273 115.572C137.273 115.572 138.921 111.245 139.009 109.458C139.009 109.458 139.589 108.571 138.237 106.895Z" fill="#000105"/>
<path fill-rule="evenodd" clip-rule="evenodd" d="M153.738 116.156C154.193 116.184 154.704 116.191 155.412 116.261C155.78 116.298 156.348 116.298 156.428 116.542C156.502 116.766 156.225 116.996 155.73 117.095C155.479 117.145 155.321 117.186 155.095 117.178C154.828 117.168 154.255 117.189 154.239 116.874C154.226 116.678 153.852 116.679 153.602 116.669C153.102 116.648 153.153 116.504 153.263 116.329C153.327 116.222 153.464 116.153 153.738 116.156Z" fill="#000105"/>
<path fill-rule="evenodd" clip-rule="evenodd" d="M63.0046 92.8854C59.9399 93.5231 55.637 93.4512 53.4903 95.7118C53.4908 95.676 53.4922 95.6399 53.4922 95.6036C53.4922 94.1998 53.3207 92.8122 52.9649 91.5267H58.625C58.9127 89.91 59.9894 89.1391 61.6763 89.1391C62.9327 89.1391 64.6193 89.6907 64.6193 91.1231C64.6193 92.298 64.045 92.665 63.0046 92.8854ZM60.8148 101.407C59.4507 101.407 58.2661 100.782 58.2661 99.2406C58.2661 97.7335 59.4146 97.146 60.7786 96.8161C62.1072 96.4477 63.6863 96.3384 64.5481 95.7871C64.692 99.7167 63.7223 101.407 60.8148 101.407ZM43.7277 100.488C40.9633 100.488 40.0304 98.3211 40.0304 94.98C40.0304 91.0488 42.1121 89.8737 43.7632 89.8737C46.4558 89.8737 47.3894 92.5557 47.3894 94.98C47.3894 97.5865 46.4558 100.488 43.7277 100.488ZM70.4359 91.4901C70.4359 86.0913 66.1637 85.0986 61.7487 85.0986C59.6305 85.0986 57.4761 85.4657 55.8254 86.421C54.2028 87.3948 53.0714 88.9769 52.9293 91.4007C51.9039 87.8374 49.4328 85.0986 45.1634 85.0986C43.0097 85.0986 41.2145 86.0531 40.0304 87.8536H39.9582V85.6497H34.1427V115.366H40.2454V102.656H40.3176C41.5732 104.382 43.3329 105.264 45.6305 105.264C48.8627 105.264 51.0829 103.498 52.3199 100.992C52.9492 103.892 55.4506 105.264 58.5175 105.264C60.743 105.264 63.0764 104.603 64.6557 102.912C64.7275 103.538 64.7993 104.125 65.0152 104.712H71.1529C70.4359 103.207 70.4359 101.444 70.4359 99.8275V91.4901Z" fill="#1A2B45"/>
<path fill-rule="evenodd" clip-rule="evenodd" d="M97.3585 92.8492L104.178 85.6498H97.1071L91.543 92.0037V78.4873H85.4401V85.4085C85.0041 85.3165 84.543 85.2827 84.1117 85.2827C81.4912 85.2827 79.4095 86.5682 78.5122 88.9925H78.4404V85.6498H72.5171V104.712H78.6195V95.2729C78.6195 92.8855 80.1993 90.7559 83.2146 90.7559C84.0016 90.7559 84.6924 90.8909 85.4401 91.0953V104.712H91.5431V98.6156L93.1219 97.0363L97.6817 104.712H105.041L97.3585 92.8492Z" fill="#1A2B45"/>
<path fill-rule="evenodd" clip-rule="evenodd" d="M111.904 83.2624H118.007V78.4873H111.904V83.2624ZM111.904 104.712H118.007V85.6498H111.904V104.712Z" fill="#1A2B45"/>
<path fill-rule="evenodd" clip-rule="evenodd" d="M120.028 85.6497H125.951V88.257H126.022C127.135 86.3109 129.648 85.0986 131.874 85.0986C138.084 85.0986 138.587 89.7265 138.587 92.4815V104.712H132.484V95.493C132.484 92.8854 132.771 90.2415 129.433 90.2415C127.135 90.2415 126.129 92.2248 126.129 94.3181V104.712H120.028L120.028 85.6497Z" fill="#1A2B45"/>
<path fill-rule="evenodd" clip-rule="evenodd" d="M140.622 85.6497H146.546V88.257H146.617C147.73 86.3109 150.243 85.0986 152.468 85.0986C158.679 85.0986 159.181 89.7265 159.181 92.4815V104.712H153.079V95.493C153.079 92.8854 153.366 90.2415 150.028 90.2415C147.73 90.2415 146.725 92.2248 146.725 94.3181V104.712H140.622L140.622 85.6497Z" fill="#1A2B45"/>
<path fill-rule="evenodd" clip-rule="evenodd" d="M48.0447 109.05H41.8705V115.367H48.0447V109.05Z" fill="#451826"/>
<path fill-rule="evenodd" clip-rule="evenodd" d="M54.2189 109.05H48.0447V115.367H54.2189V109.05Z" fill="#F3AF53"/>
<path fill-rule="evenodd" clip-rule="evenodd" d="M60.3929 109.05H54.2189V115.367H60.3929V109.05Z" fill="#1A2B45"/>
<path fill-rule="evenodd" clip-rule="evenodd" d="M66.5671 109.05H60.3929V115.367H66.5671V109.05Z" fill="#918E79"/>
<path fill-rule="evenodd" clip-rule="evenodd" d="M72.7413 109.05H66.5668V115.367H72.7413V109.05Z" fill="#451826"/>
<path fill-rule="evenodd" clip-rule="evenodd" d="M78.9152 109.05H72.7413V115.367H78.9152V109.05Z" fill="#F3AF53"/>
<path fill-rule="evenodd" clip-rule="evenodd" d="M85.0894 109.05H78.9152V115.367H85.0894V109.05Z" fill="#1A2B45"/>
<path fill-rule="evenodd" clip-rule="evenodd" d="M91.2637 109.05H85.0894V115.367H91.2637V109.05Z" fill="#918E79"/>
<path fill-rule="evenodd" clip-rule="evenodd" d="M97.4376 109.05H91.2634V115.367H97.4376V109.05Z" fill="#451826"/>
<path fill-rule="evenodd" clip-rule="evenodd" d="M103.612 109.05H97.4376V115.367H103.612V109.05Z" fill="#F3AF53"/>
<path fill-rule="evenodd" clip-rule="evenodd" d="M112.516 113.149C112.693 113.205 112.95 113.246 113.126 113.246C113.667 113.246 114.053 112.824 114.053 112.235C114.053 111.578 113.715 111.148 113.207 111.148C112.956 111.148 112.773 111.231 112.516 111.467V113.149ZM112.516 110.878C112.781 110.684 113.051 110.593 113.356 110.593C114.114 110.593 114.669 111.252 114.669 112.145C114.669 113.198 114.06 113.828 113.044 113.828C112.645 113.828 112.212 113.739 111.914 113.593V109.042H112.516V110.878Z" fill="#000105"/>
<path fill-rule="evenodd" clip-rule="evenodd" d="M115.767 115.36H115.096L116.132 113.101L114.954 110.656H115.638L116.457 112.409L117.242 110.656H117.919L115.767 115.36Z" fill="#000105"/>
</g>
<defs>
<clipPath id="clip0_104_18171">
<rect width="126" height="44" fill="white" transform="translate(33.6666 78)"/>
</clipPath>
</defs>
</svg>
