<svg width="20" height="20" viewBox="0 0 20 20" fill="none" xmlns="http://www.w3.org/2000/svg">
<path d="M6.11111 17V15.4444H9.22222V13.0333C8.58704 12.8907 8.02004 12.6219 7.52122 12.2268C7.02241 11.8317 6.65607 11.3357 6.42222 10.7389C5.45 10.6222 4.6367 10.1978 3.98233 9.46567C3.32796 8.73352 3.00052 7.87459 3 6.88889V4.55556H6.11111V3H13.8889V4.55556H17V6.88889C17 7.87407 16.6726 8.733 16.0177 9.46567C15.3628 10.1983 14.5495 10.6227 13.5778 10.7389C13.3444 11.3352 12.9784 11.8311 12.4796 12.2268C11.9807 12.6224 11.4135 12.8913 10.7778 13.0333V15.4444H13.8889V17H6.11111ZM6.11111 9.06667V6.11111H4.55556V6.88889C4.55556 7.38148 4.69815 7.82559 4.98333 8.22122C5.26852 8.61685 5.64444 8.89867 6.11111 9.06667ZM13.8889 9.06667C14.3556 8.89815 14.7315 8.61607 15.0167 8.22044C15.3019 7.82481 15.4444 7.38096 15.4444 6.88889V6.11111H13.8889V9.06667Z" fill="black"/>
</svg>
