<svg width="110" height="22" viewBox="0 0 110 22" fill="none" xmlns="http://www.w3.org/2000/svg">
<path d="M9.85873 3.51246C10.218 2.40689 11.782 2.40689 12.1413 3.51246L13.2002 6.77163C13.3609 7.26606 13.8216 7.60081 14.3415 7.60081H17.7684C18.9309 7.60081 19.4142 9.08835 18.4737 9.77163L15.7013 11.7859C15.2807 12.0915 15.1048 12.6331 15.2654 13.1276L16.3244 16.3867C16.6836 17.4923 15.4182 18.4116 14.4778 17.7284L11.7053 15.7141C11.2848 15.4085 10.7152 15.4085 10.2947 15.7141L7.52224 17.7284C6.58178 18.4116 5.31641 17.4923 5.67563 16.3867L6.7346 13.1276C6.89525 12.6331 6.71926 12.0915 6.29867 11.7859L3.52625 9.77163C2.5858 9.08835 3.06913 7.60081 4.2316 7.60081H7.6585C8.17837 7.60081 8.63911 7.26606 8.79976 6.77163L9.85873 3.51246Z" fill="#97CBFF"/>
<path d="M31.8587 3.51246C32.218 2.40689 33.782 2.40689 34.1413 3.51246L35.2002 6.77163C35.3609 7.26606 35.8216 7.60081 36.3415 7.60081H39.7684C40.9309 7.60081 41.4142 9.08835 40.4737 9.77163L37.7013 11.7859C37.2807 12.0915 37.1048 12.6331 37.2654 13.1276L38.3244 16.3867C38.6836 17.4923 37.4182 18.4116 36.4778 17.7284L33.7053 15.7141C33.2848 15.4085 32.7152 15.4085 32.2947 15.7141L29.5222 17.7284C28.5818 18.4116 27.3164 17.4923 27.6756 16.3867L28.7346 13.1276C28.8952 12.6331 28.7193 12.0915 28.2987 11.7859L25.5263 9.77163C24.5858 9.08835 25.0691 7.60081 26.2316 7.60081H29.6585C30.1784 7.60081 30.6391 7.26606 30.7998 6.77163L31.8587 3.51246Z" fill="#97CBFF"/>
<path d="M53.8587 3.51246C54.218 2.40689 55.782 2.40689 56.1413 3.51246L57.2002 6.77163C57.3609 7.26606 57.8216 7.60081 58.3415 7.60081H61.7684C62.9309 7.60081 63.4142 9.08835 62.4737 9.77163L59.7013 11.7859C59.2807 12.0915 59.1048 12.6331 59.2654 13.1276L60.3244 16.3867C60.6836 17.4923 59.4182 18.4116 58.4778 17.7284L55.7053 15.7141C55.2848 15.4085 54.7152 15.4085 54.2947 15.7141L51.5222 17.7284C50.5818 18.4116 49.3164 17.4923 49.6756 16.3867L50.7346 13.1276C50.8952 12.6331 50.7193 12.0915 50.2987 11.7859L47.5263 9.77163C46.5858 9.08835 47.0691 7.60081 48.2316 7.60081H51.6585C52.1784 7.60081 52.6391 7.26606 52.7998 6.77163L53.8587 3.51246Z" fill="#97CBFF"/>
<path d="M75.8587 3.51246C76.218 2.40689 77.782 2.40689 78.1413 3.51246L79.2002 6.77163C79.3609 7.26606 79.8216 7.60081 80.3415 7.60081H83.7684C84.9309 7.60081 85.4142 9.08835 84.4737 9.77163L81.7013 11.7859C81.2807 12.0915 81.1048 12.6331 81.2654 13.1276L82.3244 16.3867C82.6836 17.4923 81.4182 18.4116 80.4778 17.7284L77.7053 15.7141C77.2848 15.4085 76.7152 15.4085 76.2947 15.7141L73.5222 17.7284C72.5818 18.4116 71.3164 17.4923 71.6756 16.3867L72.7346 13.1276C72.8952 12.6331 72.7193 12.0915 72.2987 11.7859L69.5263 9.77163C68.5858 9.08835 69.0691 7.60081 70.2316 7.60081H73.6585C74.1784 7.60081 74.6391 7.26606 74.7998 6.77163L75.8587 3.51246Z" fill="#97CBFF"/>
<path d="M97.8587 3.51246C98.218 2.40689 99.782 2.40689 100.141 3.51246L101.2 6.77163C101.361 7.26606 101.822 7.60081 102.342 7.60081H105.768C106.931 7.60081 107.414 9.08835 106.474 9.77163L103.701 11.7859C103.281 12.0915 103.105 12.6331 103.265 13.1276L104.324 16.3867C104.684 17.4923 103.418 18.4116 102.478 17.7284L99.7053 15.7141C99.2848 15.4085 98.7152 15.4085 98.2947 15.7141L95.5222 17.7284C94.5818 18.4116 93.3164 17.4923 93.6756 16.3867L94.7346 13.1276C94.8952 12.6331 94.7193 12.0915 94.2987 11.7859L91.5263 9.77163C90.5858 9.08835 91.0691 7.60081 92.2316 7.60081H95.6585C96.1784 7.60081 96.6391 7.26606 96.7998 6.77163L97.8587 3.51246Z" fill="#97CBFF"/>
</svg>
