<svg width="635" height="787" viewBox="0 0 635 787" fill="none" xmlns="http://www.w3.org/2000/svg">
<path d="M634.714 201.799C634.714 129.071 656.585 -3.27327 317.5 0.061853C-21.5849 -3.27327 0.285513 129.071 0.285513 201.799C0.285513 274.528 1.61214 420.743 0.285513 470.58C-4.41452 644.992 206.973 754.255 317.5 787C428.064 754.217 639.414 644.992 634.714 470.58C633.388 420.743 634.714 277.256 634.714 201.799ZM599.009 160.982V490.78C588.283 608.116 450.428 731.38 317.5 765.831C184.572 731.38 46.7173 608.116 35.9906 490.78V160.982C35.9906 154.425 30.7599 86.2824 99.4032 54.2198C169.108 21.6644 248.857 16.2069 317.5 16.2069C386.143 16.2069 465.854 21.6644 535.597 54.2198C604.24 86.2824 599.009 154.425 599.009 160.982Z" fill="#D2E8FF"/>
<path d="M634.714 201.799C634.714 129.071 656.585 -3.27327 317.5 0.061853C-21.5849 -3.27327 0.285513 129.071 0.285513 201.799C0.285513 274.528 1.61214 420.743 0.285513 470.58C-4.41452 644.992 206.973 754.255 317.5 787C428.064 754.217 639.414 644.992 634.714 470.58C633.388 420.743 634.714 277.256 634.714 201.799ZM599.009 160.982V490.78C588.283 608.116 450.428 731.38 317.5 765.831C184.572 731.38 46.7173 608.116 35.9906 490.78V160.982C35.9906 154.425 30.7599 86.2824 99.4032 54.2198C169.108 21.6644 248.857 16.2069 317.5 16.2069C386.143 16.2069 465.854 21.6644 535.597 54.2198C604.24 86.2824 599.009 154.425 599.009 160.982Z" fill="url(#paint0_linear_942_521)" fill-opacity="0.39"/>
<defs>
<linearGradient id="paint0_linear_942_521" x1="552.5" y1="-12.5" x2="86.5" y2="877" gradientUnits="userSpaceOnUse">
<stop offset="0.148543" stop-color="white" stop-opacity="0"/>
<stop offset="0.418448" stop-color="white"/>
<stop offset="0.602593" stop-color="white"/>
<stop offset="1" stop-color="white" stop-opacity="0"/>
</linearGradient>
</defs>
</svg>
