<svg width="92" height="92" viewBox="0 0 92 92" fill="none" xmlns="http://www.w3.org/2000/svg">
<path d="M46 0C58.2 0 69.9002 4.84642 78.5269 13.4731C87.1536 22.0998 92 33.8 92 46C92 58.2 87.1536 69.9002 78.5269 78.5269C69.9002 87.1536 58.2 92 46 92C33.8 92 22.0998 87.1536 13.4731 78.5269C4.84642 69.9002 0 58.2 0 46C0 33.8 4.84642 22.0998 13.4731 13.4731C22.0998 4.84642 33.8 0 46 0ZM8.625 46C8.625 55.9125 12.5627 65.4189 19.5719 72.4281C26.5811 79.4373 36.0875 83.375 46 83.375C55.9125 83.375 65.4189 79.4373 72.4281 72.4281C79.4373 65.4189 83.375 55.9125 83.375 46C83.375 36.0875 79.4373 26.5811 72.4281 19.5719C65.4189 12.5627 55.9125 8.625 46 8.625C36.0875 8.625 26.5811 12.5627 19.5719 19.5719C12.5627 26.5811 8.625 36.0875 8.625 46ZM36.6793 30.0553L61.1972 44.7695C61.4091 44.8975 61.5844 45.078 61.706 45.2936C61.8277 45.5091 61.8916 45.7525 61.8916 46C61.8916 46.2475 61.8277 46.4909 61.706 46.7064C61.5844 46.922 61.4091 47.1025 61.1972 47.2305L36.6793 61.9447C36.4612 62.0761 36.2122 62.1472 35.9577 62.1508C35.7032 62.1543 35.4523 62.0903 35.2307 61.9651C35.0091 61.84 34.8246 61.6583 34.6963 61.4385C34.5679 61.2187 34.5001 60.9688 34.5 60.7142V31.2915C34.4991 31.0365 34.5661 30.7858 34.6941 30.5652C34.822 30.3447 35.0064 30.1621 35.2282 30.0363C35.45 29.9104 35.7013 29.8459 35.9563 29.8492C36.2113 29.8526 36.4608 29.9237 36.6793 30.0553Z" fill="white"/>
</svg>
