<svg width="100" height="20" viewBox="0 0 100 20" fill="none" xmlns="http://www.w3.org/2000/svg">
<path d="M9.32067 2.09075C9.5345 1.43267 10.4655 1.43267 10.6793 2.09075L12.0848 6.41627C12.1804 6.71057 12.4547 6.90983 12.7641 6.90983H17.3122C18.0042 6.90983 18.2919 7.79527 17.7321 8.20199L14.0526 10.8753C13.8022 11.0572 13.6975 11.3796 13.7931 11.6739L15.1985 15.9994C15.4123 16.6575 14.6591 17.2047 14.0994 16.798L10.4198 14.1247C10.1695 13.9428 9.8305 13.9428 9.58015 14.1247L5.90065 16.798C5.34085 17.2047 4.58765 16.6575 4.80147 15.9994L6.20692 11.6739C6.30254 11.3796 6.19779 11.0572 5.94744 10.8753L2.26793 8.20199C1.70814 7.79527 1.99584 6.90983 2.68778 6.90983H7.2359C7.54535 6.90983 7.8196 6.71057 7.91523 6.41627L9.32067 2.09075Z" fill="#0124A3"/>
<path d="M29.3207 2.09075C29.5345 1.43267 30.4655 1.43267 30.6793 2.09075L32.0848 6.41627C32.1804 6.71057 32.4547 6.90983 32.7641 6.90983H37.3122C38.0042 6.90983 38.2919 7.79527 37.7321 8.20199L34.0526 10.8753C33.8022 11.0572 33.6975 11.3796 33.7931 11.6739L35.1985 15.9994C35.4123 16.6575 34.6591 17.2047 34.0994 16.798L30.4198 14.1247C30.1695 13.9428 29.8305 13.9428 29.5802 14.1247L25.9006 16.798C25.3409 17.2047 24.5877 16.6575 24.8015 15.9994L26.2069 11.6739C26.3025 11.3796 26.1978 11.0572 25.9474 10.8753L22.2679 8.20199C21.7081 7.79527 21.9958 6.90983 22.6878 6.90983H27.2359C27.5453 6.90983 27.8196 6.71057 27.9152 6.41627L29.3207 2.09075Z" fill="#0124A3"/>
<path d="M49.3207 2.09075C49.5345 1.43267 50.4655 1.43267 50.6793 2.09075L52.0848 6.41627C52.1804 6.71057 52.4547 6.90983 52.7641 6.90983H57.3122C58.0042 6.90983 58.2919 7.79527 57.7321 8.20199L54.0526 10.8753C53.8022 11.0572 53.6975 11.3796 53.7931 11.6739L55.1985 15.9994C55.4123 16.6575 54.6591 17.2047 54.0994 16.798L50.4198 14.1247C50.1695 13.9428 49.8305 13.9428 49.5802 14.1247L45.9006 16.798C45.3409 17.2047 44.5877 16.6575 44.8015 15.9994L46.2069 11.6739C46.3025 11.3796 46.1978 11.0572 45.9474 10.8753L42.2679 8.20199C41.7081 7.79527 41.9958 6.90983 42.6878 6.90983H47.2359C47.5453 6.90983 47.8196 6.71057 47.9152 6.41627L49.3207 2.09075Z" fill="#0124A3"/>
<path d="M69.3207 2.09075C69.5345 1.43267 70.4655 1.43267 70.6793 2.09075L72.0848 6.41627C72.1804 6.71057 72.4547 6.90983 72.7641 6.90983H77.3122C78.0042 6.90983 78.2919 7.79527 77.7321 8.20199L74.0526 10.8753C73.8022 11.0572 73.6975 11.3796 73.7931 11.6739L75.1985 15.9994C75.4123 16.6575 74.6591 17.2047 74.0994 16.798L70.4198 14.1247C70.1695 13.9428 69.8305 13.9428 69.5802 14.1247L65.9006 16.798C65.3409 17.2047 64.5877 16.6575 64.8015 15.9994L66.2069 11.6739C66.3025 11.3796 66.1978 11.0572 65.9474 10.8753L62.2679 8.20199C61.7081 7.79527 61.9958 6.90983 62.6878 6.90983H67.2359C67.5453 6.90983 67.8196 6.71057 67.9152 6.41627L69.3207 2.09075Z" fill="#0124A3"/>
<path d="M89.3207 2.09075C89.5345 1.43267 90.4655 1.43267 90.6793 2.09075L92.0848 6.41627C92.1804 6.71057 92.4547 6.90983 92.7641 6.90983H97.3122C98.0042 6.90983 98.2919 7.79527 97.7321 8.20199L94.0526 10.8753C93.8022 11.0572 93.6975 11.3796 93.7931 11.6739L95.1985 15.9994C95.4123 16.6575 94.6591 17.2047 94.0994 16.798L90.4198 14.1247C90.1695 13.9428 89.8305 13.9428 89.5802 14.1247L85.9006 16.798C85.3409 17.2047 84.5877 16.6575 84.8015 15.9994L86.2069 11.6739C86.3025 11.3796 86.1978 11.0572 85.9474 10.8753L82.2679 8.20199C81.7081 7.79527 81.9958 6.90983 82.6878 6.90983H87.2359C87.5453 6.90983 87.8196 6.71057 87.9152 6.41627L89.3207 2.09075Z" fill="#0124A3"/>
</svg>
