<svg width="146" height="154" viewBox="0 0 146 154" fill="none" xmlns="http://www.w3.org/2000/svg">
<path d="M155.457 28.917C155.457 11.0289 160.83 -21.5219 77.5273 -20.7016C-5.77539 -21.5219 -0.402515 11.0289 -0.402515 28.917C-0.402515 46.805 -0.076604 64.1999 -0.402515 76.4577C-1.55717 119.355 50.3743 146.229 77.5273 154.283C104.69 146.22 156.612 119.355 155.457 76.4577C155.131 64.1999 155.457 47.4762 155.457 28.917ZM146.686 18.8777V81.4261C144.05 110.286 110.184 140.603 77.5273 149.076C44.8711 140.603 11.0044 110.286 8.36913 81.4261V18.8777C8.36913 17.265 7.08412 0.504915 23.9477 -7.38111C41.0719 -15.3883 60.6638 -16.7306 77.5273 -16.7306C94.3909 -16.7306 113.973 -15.3883 131.107 -7.38111C147.971 0.504915 146.686 17.265 146.686 18.8777Z" fill="#EFFAFF"/>
</svg>
