<svg width="267" height="350" viewBox="0 0 267 350" fill="none" xmlns="http://www.w3.org/2000/svg">
<g clip-path="url(#clip0_3012_372)">
<path d="M335.848 64.9253C335.848 26.3894 347.455 -43.7344 167.5 -41.9672C-12.4553 -43.7344 -0.848476 26.3894 -0.848476 64.9253C-0.848476 103.461 -0.144426 140.935 -0.848476 167.342C-3.34283 259.756 108.843 317.65 167.5 335C226.178 317.63 338.343 259.756 335.848 167.342C335.144 140.935 335.848 104.907 335.848 64.9253ZM316.899 43.2978V178.045C311.207 240.216 238.046 305.529 167.5 323.783C96.9541 305.529 23.7933 240.216 18.1005 178.045V43.2978C18.1005 39.8237 15.3246 3.71763 51.7541 -13.2711C88.7469 -30.5209 131.07 -33.4126 167.5 -33.4126C203.93 -33.4126 246.233 -30.5209 283.246 -13.2711C319.675 3.71763 316.899 39.8237 316.899 43.2978Z" fill="#FFFAF4"/>
</g>
<defs>
<clipPath id="clip0_3012_372">
<rect width="267" height="350" fill="white"/>
</clipPath>
</defs>
</svg>
